<svg xmlns="http://www.w3.org/2000/svg" xmlns:xlink="http://www.w3.org/1999/xlink" width="110" height="110" viewBox="0 0 110 110">
  <defs>
    <filter id="Trazado_982547" x="0" y="0" width="110" height="110" filterUnits="userSpaceOnUse">
      <feOffset dy="3" input="SourceAlpha"/>
      <feGaussianBlur stdDeviation="3" result="blur"/>
      <feFlood flood-opacity="0.161"/>
      <feComposite operator="in" in2="blur"/>
      <feComposite in="SourceGraphic"/>
    </filter>
  </defs>
  <g id="Grupo_1156509" data-name="Grupo 1156509" transform="translate(-3756 -3294)">
    <g id="Grupo_1155735" data-name="Grupo 1155735" transform="translate(2955 -1389.666)">
      <g id="Grupo_1154703" data-name="Grupo 1154703" transform="translate(0 1465.666)">
        <g id="Grupo_1150789" data-name="Grupo 1150789" transform="translate(3 2320)">
          <g id="Grupo_1154212" data-name="Grupo 1154212" transform="translate(-236 -5809)">
            <g id="Grupo_1152583" data-name="Grupo 1152583" transform="translate(1043 6713)">
              <g id="Grupo_1146973" data-name="Grupo 1146973" transform="translate(0 0)">
                <g id="Grupo_1146954" data-name="Grupo 1146954">
                  <g transform="matrix(1, 0, 0, 1, -9, -6)" filter="url(#Trazado_982547)">
                    <g id="Trazado_982547-2" data-name="Trazado 982547" transform="translate(9 6)" fill="#fcf3f0">
                      <path d="M 46 90.49987030029297 C 39.99187850952148 90.49987030029297 34.16426849365234 89.32350921630859 28.67905426025391 87.00345611572266 C 23.38019943237305 84.76224517822266 18.62104034423828 81.55341339111328 14.53374671936035 77.46613311767578 C 10.44646644592285 73.37885284423828 7.237639904022217 68.61969757080078 4.996413230895996 63.32085418701172 C 2.676359891891479 57.83565521240234 1.5 52.008056640625 1.5 45.99993515014648 C 1.5 39.99181365966797 2.676359891891479 34.16421508789062 4.996413230895996 28.67901420593262 C 7.237639904022217 23.38017463684082 10.44646644592285 18.62101554870605 14.53374671936035 14.53373527526855 C 18.62104034423828 10.44645500183105 23.38019943237305 7.23762845993042 28.67905426025391 4.996415138244629 C 34.16426849365234 2.676361799240112 39.99187850952148 1.500001788139343 46 1.500001788139343 C 52.00812149047852 1.500001788139343 57.83573150634766 2.676361799240112 63.32094573974609 4.996415138244629 C 68.61979675292969 7.23762845993042 73.37895965576172 10.44645500183105 77.46625518798828 14.53373527526855 C 81.55353546142578 18.62101554870605 84.76235961914062 23.38017463684082 87.00358581542969 28.67901420593262 C 89.32363891601562 34.16421508789062 90.5 39.99181365966797 90.5 45.99993515014648 C 90.5 52.008056640625 89.32363891601562 57.83565521240234 87.00358581542969 63.32085418701172 C 84.76235961914062 68.61969757080078 81.55353546142578 73.37885284423828 77.46625518798828 77.46613311767578 C 73.37895965576172 81.55341339111328 68.61979675292969 84.76224517822266 63.32094573974609 87.00345611572266 C 57.83573150634766 89.32350921630859 52.00812149047852 90.49987030029297 46 90.49987030029297 Z" stroke="none"/>
                      <path d="M 46 2.999992370605469 C 40.1937141418457 2.999992370605469 34.56269836425781 4.136489868164062 29.26337051391602 6.377906799316406 C 24.14332580566406 8.543502807617188 19.54441070556641 11.64437866210938 15.59439849853516 15.59437561035156 C 11.64440155029297 19.54439544677734 8.54351806640625 24.14329528808594 6.377914428710938 29.26333618164062 C 4.136497497558594 34.56264877319336 3 40.19366455078125 3 45.99993515014648 C 3 51.80620574951172 4.136497497558594 57.43720626831055 6.377914428710938 62.73651885986328 C 8.54351806640625 67.8565673828125 11.64440155029297 72.45545959472656 15.59439849853516 76.40547943115234 C 19.54441070556641 80.35547637939453 24.14332580566406 83.45635223388672 29.26337051391602 85.6219482421875 C 34.56269836425781 87.86336517333984 40.1937141418457 88.99986267089844 46 88.99986267089844 C 51.8062858581543 88.99986267089844 57.43730163574219 87.86336517333984 62.73661422729492 85.6219482421875 C 67.85667419433594 83.45635223388672 72.45557403564453 80.35547637939453 76.40558624267578 76.40547943115234 C 80.35559844970703 72.45545959472656 83.45647430419922 67.8565673828125 85.6220703125 62.73651885986328 C 87.86350250244141 57.43720626831055 89 51.80620574951172 89 45.99993515014648 C 89 40.19366455078125 87.86350250244141 34.56264877319336 85.6220703125 29.26333618164062 C 83.45647430419922 24.14329528808594 80.35559844970703 19.54439544677734 76.40558624267578 15.59437561035156 C 72.45557403564453 11.64437866210938 67.85667419433594 8.543502807617188 62.73661422729492 6.377906799316406 C 57.43730163574219 4.136489868164062 51.8062858581543 2.999992370605469 46 2.999992370605469 M 46 -7.62939453125e-06 C 71.40509033203125 -7.62939453125e-06 92 20.59486389160156 92 45.99993515014648 C 92 71.40499114990234 71.40509033203125 91.99986267089844 46 91.99986267089844 C 20.59490203857422 91.99986267089844 0 71.40499114990234 0 45.99993515014648 C 0 20.59486389160156 20.59490203857422 -7.62939453125e-06 46 -7.62939453125e-06 Z" stroke="none" fill="#e89076"/>
                    </g>
                  </g>
                </g>
              </g>
            </g>
          </g>
        </g>
      </g>
    </g>
    <g id="_050---Sales" data-name="050---Sales" transform="translate(3786 3319)">
      <g id="Icons" transform="translate(0.885 0.879)">
        <path id="Shape" d="M50.625,24.771V53.1c0,.974-2.382,1.771-5.312,1.771q-.691,0-1.328-.053C41.7,54.617,40,53.936,40,53.1V24.771c0-.823,1.7-1.514,3.984-1.709A12.847,12.847,0,0,1,45.312,23C48.243,23,50.625,23.8,50.625,24.771Z" transform="translate(-4.584 -3.515)" fill="#fec108"/>
        <path id="Shape-2" data-name="Shape" d="M47.969,24.779V53.111c0,.823-1.7,1.514-3.984,1.718C41.7,54.626,40,53.944,40,53.111V24.779c0-.823,1.7-1.514,3.984-1.709C46.269,23.265,47.969,23.955,47.969,24.779Z" transform="translate(-4.584 -3.523)" fill="#ffdc00"/>
        <path id="Shape-3" data-name="Shape" d="M30.1,48v7.083a2.656,2.656,0,0,1-2.656,2.656H2.656A2.656,2.656,0,0,1,0,55.083V48a2.656,2.656,0,0,0,2.656,2.656H27.447A2.656,2.656,0,0,0,30.1,48Z" transform="translate(0 -6.38)" fill="#707070"/>
        <path id="Shape-4" data-name="Shape" d="M0,51v4.427a2.656,2.656,0,0,0,2.656,2.656H24.791a2.656,2.656,0,0,0,2.656-2.656V51Z" transform="translate(0 -6.724)" fill="#9e9e9e"/>
        <path id="Shape-5" data-name="Shape" d="M30.1,3.655V45.269a2.656,2.656,0,0,1-2.656,2.656H2.656A2.656,2.656,0,0,1,0,45.269V3.655A2.656,2.656,0,0,1,2.656,1C29.448,1,27.713.946,28.333,1.15A2.656,2.656,0,0,1,30.1,3.655Z" transform="translate(0 -0.993)" fill="#0377bc"/>
        <path id="Shape-6" data-name="Shape" d="M27.447,3.655V45.269a2.656,2.656,0,0,1-2.656,2.656H2.656A2.656,2.656,0,0,1,0,45.269V3.655A2.656,2.656,0,0,1,2.656,1C26.8,1,25.066.946,25.676,1.15A2.656,2.656,0,0,1,27.447,3.655Z" transform="translate(0 -0.993)" fill="#02a9f4"/>
        <path id="Shape-7" data-name="Shape" d="M24.708,1,22.176,3.7a2.656,2.656,0,0,1-1.895.841H11.516a2.656,2.656,0,0,1-1.939-.885L7,1Z" transform="translate(-0.802 -0.994)" fill="#707070"/>
        <path id="Shape-8" data-name="Shape" d="M22.052,1,19.52,3.7a2.656,2.656,0,0,1-1.895.841H11.516a2.656,2.656,0,0,1-1.939-.885L7,1Z" transform="translate(-0.802 -0.994)" fill="#9e9e9e"/>
        <path id="Shape-9" data-name="Shape" d="M52.166,8.083A7.083,7.083,0,1,1,49.6,2.624,7.083,7.083,0,0,1,52.166,8.083Z" transform="translate(-4.355 -0.994)" fill="#fdd834"/>
        <ellipse id="Oval" cx="5.755" cy="6.959" rx="5.755" ry="6.959" transform="translate(33.645 0.13)" fill="#ffeb3a"/>
        <ellipse id="Oval-2" data-name="Oval" cx="5.5" cy="2" rx="5.5" ry="2" transform="translate(35.115 19.121)" fill="#ffeb3a"/>
        <path id="Shape-10" data-name="Shape" d="M5.885,37H8.542a.885.885,0,0,1,.885.885v8.854H5V37.885A.885.885,0,0,1,5.885,37Z" transform="translate(-0.573 -5.119)" fill="#ef314c"/>
        <path id="Shape-11" data-name="Shape" d="M14.885,30h2.656a.885.885,0,0,1,.885.885V45.937H14V30.885A.885.885,0,0,1,14.885,30Z" transform="translate(-1.604 -4.317)" fill="#9d27b0"/>
        <path id="Shape-12" data-name="Shape" d="M23.885,24h2.656a.885.885,0,0,1,.885.885V45.25H23V24.885A.885.885,0,0,1,23.885,24Z" transform="translate(-2.636 -3.63)" fill="#ffdc00"/>
      </g>
      <g id="Layer_10">
        <path id="Shape-13" data-name="Shape" d="M28.333,53.124a3.542,3.542,0,0,0,3.542-3.542V3.542A3.542,3.542,0,0,0,28.333,0H3.542A3.542,3.542,0,0,0,0,3.542V49.582a3.542,3.542,0,0,0,3.542,3.542ZM22.746,1.771,21.613,2.984a1.771,1.771,0,0,1-1.248.558H11.6a1.771,1.771,0,0,1-1.293-.558L9.128,1.771ZM1.771,3.542A1.771,1.771,0,0,1,3.542,1.771H6.7L8.969,4.2a3.542,3.542,0,0,0,2.585,1.116h8.81A3.542,3.542,0,0,0,22.949,4.2l2.222-2.426h3.161A1.771,1.771,0,0,1,30.1,3.542V45.155a1.771,1.771,0,0,1-1.771,1.771H3.542a1.771,1.771,0,0,1-1.771-1.771Zm0,46.041V48.2a3.462,3.462,0,0,0,1.771.5H28.333a3.462,3.462,0,0,0,1.771-.5v1.381a1.771,1.771,0,0,1-1.771,1.771H3.542A1.771,1.771,0,0,1,1.771,49.582Z"/>
        <path id="Shape-14" data-name="Shape" d="M40,24.656V52.989c0,3.542,12.4,3.542,12.4,0V24.656C52.4,21.115,40,21.115,40,24.656ZM50.625,49.368c-.257.31-1.771.965-4.427.965s-4.17-.655-4.427-.965V47.854a14.166,14.166,0,0,0,8.854,0Zm0-3.542c-.257.31-1.771.965-4.427.965s-4.17-.655-4.427-.965V44.312a14.166,14.166,0,0,0,8.854,0Zm0-3.542c-.257.31-1.771.965-4.427.965s-4.17-.655-4.427-.965V40.77a14.166,14.166,0,0,0,8.854,0Zm0-3.542c-.257.31-1.771.965-4.427.965s-4.17-.655-4.427-.965V37.229a14.166,14.166,0,0,0,8.854,0Zm0-3.542c-.257.31-1.771.965-4.427.965s-4.17-.655-4.427-.965V33.687a14.166,14.166,0,0,0,8.854,0Zm0-3.542c-.257.31-1.771.965-4.427.965s-4.17-.655-4.427-.965V30.146a14.166,14.166,0,0,0,8.854,0Zm0-3.542c-.257.31-1.771.965-4.427.965s-4.17-.655-4.427-.965V26.6a14.166,14.166,0,0,0,8.854,0ZM46.2,53.874c-2.656,0-4.17-.655-4.427-.956V51.4a14.166,14.166,0,0,0,8.854,0v1.523C50.368,53.219,48.854,53.874,46.2,53.874Zm0-28.333a8.255,8.255,0,0,1-4.347-.885,8.255,8.255,0,0,1,4.347-.885,8.255,8.255,0,0,1,4.347.885A8.255,8.255,0,0,1,46.2,25.542Z" transform="translate(-4.584 -2.521)"/>
        <path id="Shape-15" data-name="Shape" d="M45.969,0a7.969,7.969,0,1,0,7.969,7.969A7.969,7.969,0,0,0,45.969,0Zm0,14.166a6.2,6.2,0,1,1,4.382-1.815A6.2,6.2,0,0,1,45.969,14.166Z" transform="translate(-4.355)"/>
        <path id="Shape-16" data-name="Shape" d="M46.656,5.771a.885.885,0,0,1,.885.885.885.885,0,0,0,.885.885C50.118,7.542,49.312,4,46.656,4a2.656,2.656,0,1,0,0,5.312.885.885,0,1,1-.885.885.885.885,0,0,0-.885-.885c-1.691,0-.885,3.542,1.771,3.542a2.656,2.656,0,1,0,0-5.312.885.885,0,0,1,0-1.771Z" transform="translate(-5.042 -0.458)"/>
        <path id="Shape-17" data-name="Shape" d="M4.885,46.02h23.02a.885.885,0,1,0,0-1.771H27.02V24.771A1.771,1.771,0,0,0,25.25,23H22.593a1.771,1.771,0,0,0-1.771,1.771V44.25H19.052V30.083a1.771,1.771,0,0,0-1.771-1.771H14.625a1.771,1.771,0,0,0-1.771,1.771V44.25H11.083V36.281A1.771,1.771,0,0,0,9.312,34.51H6.656a1.771,1.771,0,0,0-1.771,1.771V44.25a.885.885,0,0,0,0,1.771Zm17.708-21.25H25.25V44.25H22.593Zm-7.969,5.312h2.656V44.25H14.625Zm-7.969,6.2H9.312V44.25H6.656Z" transform="translate(-0.458 -2.636)"/>
        <path id="Shape-18" data-name="Shape" d="M5.881,30.591c.478,0-1,1.151,18.593-15.778v1.611a.885.885,0,1,0,1.771,0,25.506,25.506,0,0,0-.053-3.851c-.425-.761-.39-.576-5.259-.576a.885.885,0,1,0,0,1.771h2.045L5.27,29.032a.885.885,0,0,0,.611,1.558Z" transform="translate(-0.568 -1.373)"/>
      </g>
    </g>
  </g>
</svg>
