<svg xmlns="http://www.w3.org/2000/svg" xmlns:xlink="http://www.w3.org/1999/xlink" width="108" height="108" viewBox="0 0 108 108">
  <defs>
    <filter id="Trazado_982547" x="0" y="0" width="108" height="108" filterUnits="userSpaceOnUse">
      <feOffset dy="3" input="SourceAlpha"/>
      <feGaussianBlur stdDeviation="3" result="blur"/>
      <feFlood flood-opacity="0.161"/>
      <feComposite operator="in" in2="blur"/>
      <feComposite in="SourceGraphic"/>
    </filter>
  </defs>
  <g id="Grupo_1156344" data-name="Grupo 1156344" transform="translate(-714 -2419)">
    <g id="Grupo_1154014" data-name="Grupo 1154014" transform="translate(723 2425)">
      <g id="Grupo_1153134" data-name="Grupo 1153134">
        <g id="Grupo_1149598" data-name="Grupo 1149598">
          <g id="Grupo_1148770" data-name="Grupo 1148770">
            <g id="Grupo_1146954" data-name="Grupo 1146954">
              <g transform="matrix(1, 0, 0, 1, -9, -6)" filter="url(#Trazado_982547)">
                <g id="Trazado_982547-2" data-name="Trazado 982547" transform="translate(9 6)" fill="#fdf6ea">
                  <path d="M 45 88.5 C 39.12687683105469 88.5 33.43022537231445 87.35007476806641 28.06830024719238 85.08217620849609 C 22.88852500915527 82.89131164550781 18.23629951477051 79.75458526611328 14.2408504486084 75.75914764404297 C 10.24541282653809 71.76370239257812 7.108687400817871 67.11147308349609 4.917825222015381 61.93170166015625 C 2.649924993515015 56.56977462768555 1.5 50.87312316894531 1.5 45 C 1.5 39.12687683105469 2.649924993515015 33.43022537231445 4.917825222015381 28.06830024719238 C 7.108687400817871 22.88852500915527 10.24541282653809 18.23629951477051 14.2408504486084 14.2408504486084 C 18.23629951477051 10.24541282653809 22.88852500915527 7.108687400817871 28.06830024719238 4.917825222015381 C 33.43022537231445 2.649924993515015 39.12687683105469 1.5 45 1.5 C 50.87312316894531 1.5 56.56977462768555 2.649924993515015 61.93170166015625 4.917825222015381 C 67.11147308349609 7.108687400817871 71.76370239257812 10.24541282653809 75.75914764404297 14.2408504486084 C 79.75458526611328 18.23629951477051 82.89131164550781 22.88852500915527 85.08217620849609 28.06830024719238 C 87.35007476806641 33.43022537231445 88.5 39.12687683105469 88.5 45 C 88.5 50.87312316894531 87.35007476806641 56.56977462768555 85.08217620849609 61.93170166015625 C 82.89131164550781 67.11147308349609 79.75458526611328 71.76370239257812 75.75914764404297 75.75914764404297 C 71.76370239257812 79.75458526611328 67.11147308349609 82.89131164550781 61.93170166015625 85.08217620849609 C 56.56977462768555 87.35007476806641 50.87312316894531 88.5 45 88.5 Z" stroke="none"/>
                  <path d="M 45 3 C 39.32871246337891 3 33.82865524291992 4.110054016113281 28.65262985229492 6.299339294433594 C 23.65165710449219 8.414573669433594 19.15968322753906 11.44334411621094 15.301513671875 15.301513671875 C 11.44334411621094 19.15968322753906 8.414573669433594 23.65165710449219 6.299339294433594 28.65262985229492 C 4.110054016113281 33.82865524291992 3 39.32871246337891 3 45 C 3 50.67128753662109 4.110054016113281 56.17134475708008 6.299339294433594 61.34737396240234 C 8.414573669433594 66.34834289550781 11.44334411621094 70.84031677246094 15.301513671875 74.698486328125 C 19.15968322753906 78.55665588378906 23.65165710449219 81.58542633056641 28.65262985229492 83.70066070556641 C 33.82865524291992 85.88994598388672 39.32871246337891 87 45 87 C 50.67128753662109 87 56.17134475708008 85.88994598388672 61.34737396240234 83.70066070556641 C 66.34834289550781 81.58542633056641 70.84031677246094 78.55665588378906 74.698486328125 74.698486328125 C 78.55665588378906 70.84031677246094 81.58542633056641 66.34834289550781 83.70066070556641 61.34737396240234 C 85.88994598388672 56.17134475708008 87 50.67128753662109 87 45 C 87 39.32871246337891 85.88994598388672 33.82865524291992 83.70066070556641 28.65262985229492 C 81.58542633056641 23.65165710449219 78.55665588378906 19.15968322753906 74.698486328125 15.301513671875 C 70.84031677246094 11.44334411621094 66.34834289550781 8.414573669433594 61.34737396240234 6.299339294433594 C 56.17134475708008 4.110054016113281 50.67128753662109 3 45 3 M 45 0 C 69.85281372070312 0 90 20.14718627929688 90 45 C 90 69.85281372070312 69.85281372070312 90 45 90 C 20.14718627929688 90 0 69.85281372070312 0 45 C 0 20.14718627929688 20.14718627929688 0 45 0 Z" stroke="none" fill="#edae3b"/>
                </g>
              </g>
            </g>
          </g>
        </g>
      </g>
    </g>
    <g id="XMLID_1020_" transform="translate(738 2440)">
      <g id="XMLID_1910_" transform="translate(0.812 0.812)">
        <circle id="XMLID_1515_" cx="28.5" cy="28.5" r="28.5" transform="translate(0.188 0.477)" fill="#80b6ff"/>
        <g id="Grupo_1156343" data-name="Grupo 1156343" transform="translate(0.346 6.694)">
          <path id="XMLID_1106_" d="M21.042,103.621h-4.92A28.364,28.364,0,0,0,10,121.266a28.728,28.728,0,0,0,.274,3.947h.093a10.262,10.262,0,0,0,9.8-7.207,10.262,10.262,0,0,1,3.689-5.191l.181-.134a5.024,5.024,0,0,0-2.99-9.061Z" transform="translate(-10 -99.128)" fill="#89df8f"/>
          <path id="XMLID_1674_" d="M326.255,73.511a8.688,8.688,0,0,0,3.982,7.3l3.013,1.941a5.587,5.587,0,0,1,.3,9.185,5.638,5.638,0,0,0-2.282,4.531,4.156,4.156,0,0,0,4.156,4.156h7.7a28.5,28.5,0,0,0-7.074-35.8h-1.1A8.688,8.688,0,0,0,326.255,73.511Z" transform="translate(-289.633 -64.823)" fill="#89df8f"/>
        </g>
      </g>
      <path id="XMLID_1821_" d="M101.5,345.586h0a9.5,9.5,0,0,0-9.5,9.5v5.841h18.991v-5.841a9.5,9.5,0,0,0-9.5-9.5Z" transform="translate(-81.347 -305.568)" fill="#c5d3de"/>
      <path id="XMLID_1820_" d="M143.117,266.579h0a4.045,4.045,0,0,0-4.045,4.044v.965a4.045,4.045,0,0,0,4.045,4.044h0a4.045,4.045,0,0,0,4.045-4.044v-.965A4.045,4.045,0,0,0,143.117,266.579Z" transform="translate(-122.968 -235.71)" fill="#f2b394"/>
      <path id="XMLID_1824_" d="M265.5,345.586h0a9.5,9.5,0,0,1,9.5,9.5v5.841H256v-5.841A9.5,9.5,0,0,1,265.5,345.586Z" transform="translate(-226.357 -305.568)" fill="#ffcd69"/>
      <path id="XMLID_1823_" d="M307.12,266.579h0a4.045,4.045,0,0,1,4.044,4.044v.965a4.045,4.045,0,0,1-4.044,4.044h0a4.045,4.045,0,0,1-4.044-4.044v-.965A4.044,4.044,0,0,1,307.12,266.579Z" transform="translate(-267.979 -235.71)" fill="#f2b394"/>
      <path id="XMLID_1807_" d="M19.5,420h0a9.5,9.5,0,0,0-9.5,9.5H28.991A9.5,9.5,0,0,0,19.5,420Z" transform="translate(-8.842 -371.364)" fill="#ffcd69"/>
      <path id="XMLID_1806_" d="M61.117,340.993h0a4.045,4.045,0,0,0-4.045,4.044V346a4.045,4.045,0,0,0,4.045,4.044h0A4.045,4.045,0,0,0,65.161,346v-.965A4.045,4.045,0,0,0,61.117,340.993Z" transform="translate(-50.463 -301.506)" fill="#f5c6af"/>
      <path id="XMLID_1812_" d="M183.5,420h0a9.5,9.5,0,0,0-9.5,9.5h18.991A9.5,9.5,0,0,0,183.5,420Z" transform="translate(-153.851 -371.364)" fill="#ff7d97"/>
      <path id="XMLID_1811_" d="M225.117,340.993h0a4.045,4.045,0,0,0-4.044,4.044V346a4.045,4.045,0,0,0,4.044,4.044h0A4.045,4.045,0,0,0,229.161,346v-.965A4.045,4.045,0,0,0,225.117,340.993Z" transform="translate(-195.472 -301.506)" fill="#f2b394"/>
      <path id="XMLID_1816_" d="M347.5,420h0a9.5,9.5,0,0,0-9.5,9.5h18.991A9.5,9.5,0,0,0,347.5,420Z" transform="translate(-298.86 -371.364)" fill="#c5d3de"/>
      <path id="XMLID_1815_" d="M389.117,340.993h0a4.044,4.044,0,0,0-4.044,4.044V346a4.045,4.045,0,0,0,4.044,4.044h0A4.045,4.045,0,0,0,393.161,346v-.965A4.045,4.045,0,0,0,389.117,340.993Z" transform="translate(-340.481 -301.506)" fill="#f5c6af"/>
      <path id="XMLID_1906_" d="M198.511,138.108a4.533,4.533,0,0,0,4.652.987,5.175,5.175,0,0,0,3.435-4.874v-2.21a4.011,4.011,0,0,0-7.528-1.929l-1.406,2.563A4.534,4.534,0,0,0,198.511,138.108Z" transform="translate(-174.28 -113.178)" fill="#89df8f"/>
      <g id="XMLID_4_" transform="translate(0 0)">
        <path id="XMLID_768_" d="M52.7,48.283a29.7,29.7,0,0,0,5.444-26.835,1.158,1.158,0,1,0-2.226.639,27.405,27.405,0,0,1-2.173,20.452,5.21,5.21,0,0,0-5.106-4.21h0a5.2,5.2,0,0,0-4.1,2c-.147-.087-.295-.171-.445-.25a2.989,2.989,0,0,1-.146-.925,4.5,4.5,0,0,1,1.813-3.6A6.744,6.744,0,0,0,45.4,24.465l-3.013-1.942a7.53,7.53,0,0,1,4.079-13.86h.705a27.747,27.747,0,0,1,4.265,4.489,1.158,1.158,0,1,0,1.846-1.4A29.914,29.914,0,0,0,43.055,3.2,29.65,29.65,0,0,0,0,29.644,29.569,29.569,0,0,0,6.593,48.282,10.67,10.67,0,0,0,0,58.131a1.158,1.158,0,0,0,1.158,1.158H58.131a1.158,1.158,0,0,0,1.158-1.158A10.669,10.669,0,0,0,52.7,48.283ZM13.54,43.531V44.5a2.887,2.887,0,0,1-5.773,0v-.965a2.89,2.89,0,0,1,2.887-2.887h0A2.89,2.89,0,0,1,13.54,43.531Zm2.316.965v-.965a5.2,5.2,0,0,0-.117-1.094,8.341,8.341,0,0,1,8.819,0,5.2,5.2,0,0,0-.117,1.094V44.5a5.185,5.185,0,0,0,1.5,3.647A10.714,10.714,0,0,0,20.149,53.3a10.714,10.714,0,0,0-5.789-5.161,5.185,5.185,0,0,0,1.5-3.647Zm7.18-8.617a2.887,2.887,0,0,1-5.773,0v-.965a2.89,2.89,0,0,1,2.887-2.887h0a2.89,2.89,0,0,1,2.887,2.887Zm9.5,7.652V44.5a2.887,2.887,0,0,1-5.773,0v-.965a2.89,2.89,0,0,1,2.887-2.887h0A2.89,2.89,0,0,1,32.531,43.531Zm2.316.965v-.965a5.2,5.2,0,0,0-.117-1.094,8.344,8.344,0,0,1,8.819,0,5.2,5.2,0,0,0-.117,1.095V44.5a5.185,5.185,0,0,0,1.5,3.647A10.714,10.714,0,0,0,39.14,53.3a10.714,10.714,0,0,0-5.789-5.161A5.185,5.185,0,0,0,34.847,44.5Zm7.18-8.617a2.887,2.887,0,0,1-5.773,0v-.965a2.89,2.89,0,0,1,2.886-2.887h0a2.89,2.89,0,0,1,2.886,2.887v.965Zm6.608,4.765h0a2.89,2.89,0,0,1,2.887,2.887V44.5a2.887,2.887,0,0,1-5.773,0v-.965A2.89,2.89,0,0,1,48.635,40.645ZM29.645,2.316a27.168,27.168,0,0,1,14.7,4.266,9.845,9.845,0,0,0-3.207,17.888l3.013,1.942a4.428,4.428,0,0,1,.237,7.281c-.054.04-.105.083-.158.125a5.211,5.211,0,0,0-5.085-4.107h0a5.208,5.208,0,0,0-5.2,5.2v.965a5.185,5.185,0,0,0,1.494,3.643,10.513,10.513,0,0,0-1.692.805,5.2,5.2,0,0,0-4.095-2h0a5.2,5.2,0,0,0-4.095,2,10.527,10.527,0,0,0-1.691-.805,5.184,5.184,0,0,0,1.494-3.643v-.965a5.208,5.208,0,0,0-5.2-5.2h0a5.208,5.208,0,0,0-5.2,5.2v.965a5.184,5.184,0,0,0,1.494,3.643,10.519,10.519,0,0,0-1.691.805,5.2,5.2,0,0,0-4.095-2h0A5.211,5.211,0,0,0,5.547,42.54a27.224,27.224,0,0,1-2.766-7.86,11.331,11.331,0,0,0,5.51-2.151,11.344,11.344,0,0,0,4.135-5.8A9.047,9.047,0,0,1,15.7,22.125l.181-.134A6.182,6.182,0,0,0,12.2,10.841H9.831A27.254,27.254,0,0,1,29.645,2.316ZM7.865,13.157H12.2a3.866,3.866,0,0,1,2.3,6.973l-.181.134a11.346,11.346,0,0,0-4.105,5.777,9.058,9.058,0,0,1-7.761,6.345q-.136-1.36-.138-2.741A27.187,27.187,0,0,1,7.865,13.157ZM2.4,56.973a8.35,8.35,0,0,1,8.257-7.18h0a8.35,8.35,0,0,1,8.257,7.18Zm18.991,0a8.35,8.35,0,0,1,8.257-7.18h0a8.35,8.35,0,0,1,8.257,7.18Zm18.991,0a8.35,8.35,0,0,1,8.257-7.18h0a8.35,8.35,0,0,1,8.257,7.18Z" transform="translate(0 0)"/>
        <path id="XMLID_1169_" d="M188.88,130.1a5.667,5.667,0,0,0,5.841,1.24,6.347,6.347,0,0,0,4.2-5.964v-2.21a5.169,5.169,0,0,0-9.7-2.486l-1.406,2.563A5.7,5.7,0,0,0,188.88,130.1Zm.967-5.744,1.406-2.563a2.853,2.853,0,0,1,5.355,1.372v2.21a4.026,4.026,0,0,1-2.666,3.783,3.376,3.376,0,0,1-4.095-4.8Z" transform="translate(-165.449 -104.336)"/>
        <path id="XMLID_1178_" d="M467.278,138.366a1.158,1.158,0,1,0-.819-.339A1.167,1.167,0,0,0,467.278,138.366Z" transform="translate(-412.144 -120.296)"/>
      </g>
    </g>
  </g>
</svg>
