<svg xmlns="http://www.w3.org/2000/svg" xmlns:xlink="http://www.w3.org/1999/xlink" width="110" height="110" viewBox="0 0 110 110">
  <defs>
    <filter id="Trazado_982547" x="0" y="0" width="110" height="110" filterUnits="userSpaceOnUse">
      <feOffset dy="3" input="SourceAlpha"/>
      <feGaussianBlur stdDeviation="3" result="blur"/>
      <feFlood flood-opacity="0.161"/>
      <feComposite operator="in" in2="blur"/>
      <feComposite in="SourceGraphic"/>
    </filter>
  </defs>
  <g id="Grupo_1156506" data-name="Grupo 1156506" transform="translate(-801 -3293.666)">
    <g id="Grupo_1155724" data-name="Grupo 1155724" transform="translate(0 -1390)">
      <g id="Grupo_1154703" data-name="Grupo 1154703" transform="translate(0 1465.666)">
        <g id="Grupo_1150789" data-name="Grupo 1150789" transform="translate(3 2320)">
          <g id="Grupo_1154212" data-name="Grupo 1154212" transform="translate(-236 -5809)">
            <g id="Grupo_1152583" data-name="Grupo 1152583" transform="translate(1043 6713)">
              <g id="Grupo_1146973" data-name="Grupo 1146973" transform="translate(0 0)">
                <g id="Grupo_1146954" data-name="Grupo 1146954">
                  <g transform="matrix(1, 0, 0, 1, -9, -6)" filter="url(#Trazado_982547)">
                    <g id="Trazado_982547-2" data-name="Trazado 982547" transform="translate(9 6)" fill="#fcf3f0">
                      <path d="M 46 90.49987030029297 C 39.99187850952148 90.49987030029297 34.16426849365234 89.32350921630859 28.67905426025391 87.00345611572266 C 23.38019943237305 84.76224517822266 18.62104034423828 81.55341339111328 14.53374671936035 77.46613311767578 C 10.44646644592285 73.37885284423828 7.237639904022217 68.61969757080078 4.996413230895996 63.32085418701172 C 2.676359891891479 57.83565521240234 1.5 52.008056640625 1.5 45.99993515014648 C 1.5 39.99181365966797 2.676359891891479 34.16421508789062 4.996413230895996 28.67901420593262 C 7.237639904022217 23.38017463684082 10.44646644592285 18.62101554870605 14.53374671936035 14.53373527526855 C 18.62104034423828 10.44645500183105 23.38019943237305 7.23762845993042 28.67905426025391 4.996415138244629 C 34.16426849365234 2.676361799240112 39.99187850952148 1.500001788139343 46 1.500001788139343 C 52.00812149047852 1.500001788139343 57.83573150634766 2.676361799240112 63.32094573974609 4.996415138244629 C 68.61979675292969 7.23762845993042 73.37895965576172 10.44645500183105 77.46625518798828 14.53373527526855 C 81.55353546142578 18.62101554870605 84.76235961914062 23.38017463684082 87.00358581542969 28.67901420593262 C 89.32363891601562 34.16421508789062 90.5 39.99181365966797 90.5 45.99993515014648 C 90.5 52.008056640625 89.32363891601562 57.83565521240234 87.00358581542969 63.32085418701172 C 84.76235961914062 68.61969757080078 81.55353546142578 73.37885284423828 77.46625518798828 77.46613311767578 C 73.37895965576172 81.55341339111328 68.61979675292969 84.76224517822266 63.32094573974609 87.00345611572266 C 57.83573150634766 89.32350921630859 52.00812149047852 90.49987030029297 46 90.49987030029297 Z" stroke="none"/>
                      <path d="M 46 2.999992370605469 C 40.1937141418457 2.999992370605469 34.56269836425781 4.136489868164062 29.26337051391602 6.377906799316406 C 24.14332580566406 8.543502807617188 19.54441070556641 11.64437866210938 15.59439849853516 15.59437561035156 C 11.64440155029297 19.54439544677734 8.54351806640625 24.14329528808594 6.377914428710938 29.26333618164062 C 4.136497497558594 34.56264877319336 3 40.19366455078125 3 45.99993515014648 C 3 51.80620574951172 4.136497497558594 57.43720626831055 6.377914428710938 62.73651885986328 C 8.54351806640625 67.8565673828125 11.64440155029297 72.45545959472656 15.59439849853516 76.40547943115234 C 19.54441070556641 80.35547637939453 24.14332580566406 83.45635223388672 29.26337051391602 85.6219482421875 C 34.56269836425781 87.86336517333984 40.1937141418457 88.99986267089844 46 88.99986267089844 C 51.8062858581543 88.99986267089844 57.43730163574219 87.86336517333984 62.73661422729492 85.6219482421875 C 67.85667419433594 83.45635223388672 72.45557403564453 80.35547637939453 76.40558624267578 76.40547943115234 C 80.35559844970703 72.45545959472656 83.45647430419922 67.8565673828125 85.6220703125 62.73651885986328 C 87.86350250244141 57.43720626831055 89 51.80620574951172 89 45.99993515014648 C 89 40.19366455078125 87.86350250244141 34.56264877319336 85.6220703125 29.26333618164062 C 83.45647430419922 24.14329528808594 80.35559844970703 19.54439544677734 76.40558624267578 15.59437561035156 C 72.45557403564453 11.64437866210938 67.85667419433594 8.543502807617188 62.73661422729492 6.377906799316406 C 57.43730163574219 4.136489868164062 51.8062858581543 2.999992370605469 46 2.999992370605469 M 46 -7.62939453125e-06 C 71.40509033203125 -7.62939453125e-06 92 20.59486389160156 92 45.99993515014648 C 92 71.40499114990234 71.40509033203125 91.99986267089844 46 91.99986267089844 C 20.59490203857422 91.99986267089844 0 71.40499114990234 0 45.99993515014648 C 0 20.59486389160156 20.59490203857422 -7.62939453125e-06 46 -7.62939453125e-06 Z" stroke="none" fill="#e89076"/>
                    </g>
                  </g>
                </g>
              </g>
            </g>
          </g>
        </g>
      </g>
    </g>
    <g id="administracion-de-empresas" transform="translate(793.944 3304.589)">
      <g id="Grupo_1156505" data-name="Grupo 1156505" transform="translate(32.934 14.89)">
        <g id="Grupo_1156502" data-name="Grupo 1156502" transform="translate(9.916)">
          <path id="Trazado_990598" data-name="Trazado 990598" d="M138.941,62.682a18.142,18.142,0,0,1,5.312,2.2l3.452-1.533,4.068,4.068L150.24,70.87a18.139,18.139,0,0,1,2.2,5.313l3.522,1.355v5.753l-3.522,1.356a18.145,18.145,0,0,1-2.2,5.312l1.533,3.452L147.7,97.479l-3.451-1.533a18.139,18.139,0,0,1-5.313,2.2l-1.356,3.522h-5.753l-1.356-3.522a18.142,18.142,0,0,1-5.312-2.2l-3.452,1.533-4.068-4.068,1.533-3.451a18.139,18.139,0,0,1-2.2-5.313l-3.522-1.356V77.539l3.522-1.356a18.137,18.137,0,0,1,2.2-5.312l-1.533-3.451,4.068-4.068,3.452,1.533a18.142,18.142,0,0,1,5.312-2.2l1.356-3.522h5.753Z" transform="translate(-113.453 -59.16)" fill="#ffe177" fill-rule="evenodd"/>
          <path id="Trazado_990599" data-name="Trazado 990599" d="M174.8,95.947l-3.452,1.533-.531-.532,3.236-1.437Q174.417,95.739,174.8,95.947Zm13.776-33.264a18.142,18.142,0,0,1,5.312,2.2l-.981.436a23.927,23.927,0,0,0-6.059-2.638l-1.356-3.522h1.728Zm5.313,33.265a18.138,18.138,0,0,1-5.313,2.2l-1.356,3.522h-1.728l1.355-3.522a23.921,23.921,0,0,0,6.06-2.638ZM170.812,63.884l.531-.532,3.452,1.533q-.378.209-.747.436Zm25.326,0,1.2-.532,4.068,4.068-1.533,3.451a18.139,18.139,0,0,1,2.2,5.313l3.522,1.355v5.753l-3.522,1.356a18.145,18.145,0,0,1-2.2,5.312l1.533,3.452-4.068,4.068-1.2-.532,3.537-3.537-1.533-3.452a18.141,18.141,0,0,0,2.2-5.312l3.522-1.356V77.54l-3.522-1.355a18.136,18.136,0,0,0-2.2-5.313l1.533-3.451Z" transform="translate(-163.084 -59.161)" fill="#ffd064" fill-rule="evenodd"/>
          <ellipse id="Elipse_11749" data-name="Elipse 11749" cx="14.055" cy="14.055" rx="14.055" ry="14.055" transform="translate(1.375 21.256) rotate(-45)" fill="#eceff1"/>
          <path id="Trazado_990600" data-name="Trazado 990600" d="M180.954,112.606a14.055,14.055,0,0,0,0,28.109c.285,0,.567-.01.847-.026a14.054,14.054,0,0,1,0-28.057C181.52,112.616,181.238,112.606,180.954,112.606Z" transform="translate(-159.698 -105.405)" fill="#d1d1d6" fill-rule="evenodd"/>
        </g>
        <g id="Grupo_1156503" data-name="Grupo 1156503" transform="translate(0 36.303)">
          <path id="Trazado_990601" data-name="Trazado 990601" d="M67.074,336.114,77.455,330.1c1.948-1.129,3.929-1.929,6.071-1.234,2.388.774,6.286,2.437,10.262,3.154a2.884,2.884,0,0,1,1.994,3.455,2.791,2.791,0,0,1-3.455,1.995l1.39.222a6.471,6.471,0,0,0,4.449-.775l9.981-5.813c7.758-4.519,8.9,2.433,6.318,4.021L96.354,346.277a6.642,6.642,0,0,1-5.379.758l-13.138-3.52-4.865,2.809a1.965,1.965,0,0,1-2.679-.718l-3.934-6.815a1.965,1.965,0,0,1,.716-2.678Z" transform="translate(-62.561 -328.606)" fill="#f6dccd" fill-rule="evenodd"/>
          <path id="Trazado_990602" data-name="Trazado 990602" d="M217.43,368.278a2.848,2.848,0,0,1-3.218,1.373c-2.152-.569-4.3-1.152-6.452-1.729a1.08,1.08,0,1,1,.559-2.086Z" transform="translate(-184.446 -360.789)" fill="#f1cbbc" fill-rule="evenodd"/>
          <path id="Trazado_990603" data-name="Trazado 990603" d="M67.074,336.114,77.455,330.1c1.948-1.129,3.929-1.929,6.071-1.234,1.277.414,2.987,1.083,4.91,1.725L68.327,342.2l-1.968-3.408A1.965,1.965,0,0,1,67.074,336.114Z" transform="translate(-62.561 -328.606)" fill="#f1cbbc" fill-rule="evenodd"/>
          <path id="Trazado_990604" data-name="Trazado 990604" d="M45.4,355.237l8.233,14.547a1.474,1.474,0,0,1-.555,2l-2.8,1.585a1.474,1.474,0,0,1-2-.555l-8.233-14.547a1.474,1.474,0,0,1,.555-2l2.8-1.585A1.474,1.474,0,0,1,45.4,355.237Z" transform="translate(-39.857 -351.004)" fill="#d1d1d6" fill-rule="evenodd"/>
          <path id="Trazado_990605" data-name="Trazado 990605" d="M74.372,365.232l1.457,2.575,1.441,2.546a1.474,1.474,0,0,1-.551,2l1-.566a1.474,1.474,0,0,0,.555-2l-1.446-2.555-2.9-5.13-2.907-5.136-.977-1.727a1.475,1.475,0,0,0-1.712-.68l1.692,2.99,2.9,5.13,1.446,2.555Z" transform="translate(-64.494 -351.005)" fill="#b1b1b5" fill-rule="evenodd"/>
        </g>
        <g id="Grupo_1156504" data-name="Grupo 1156504" transform="translate(22.21 15.473)">
          <path id="Trazado_990606" data-name="Trazado 990606" d="M205.507,232h2.185a.81.81,0,0,1,.808.808v2.753a.81.81,0,0,1-.808.808h-2.185a.81.81,0,0,1-.808-.808v-2.753A.81.81,0,0,1,205.507,232Z" transform="translate(-204.699 -224.184)" fill="#fe646f" fill-rule="evenodd"/>
          <path id="Trazado_990607" data-name="Trazado 990607" d="M218.261,232h1.166a.81.81,0,0,1,.808.808v2.753a.81.81,0,0,1-.808.808h-1.166a.81.81,0,0,0,.808-.808v-2.753A.81.81,0,0,0,218.261,232Z" transform="translate(-216.434 -224.184)" fill="#fd4755" fill-rule="evenodd"/>
          <path id="Trazado_990608" data-name="Trazado 990608" d="M257.913,203.63H260.1a.81.81,0,0,1,.808.808v6.575a.81.81,0,0,1-.808.808h-2.185a.81.81,0,0,1-.808-.808v-6.575A.81.81,0,0,1,257.913,203.63Z" transform="translate(-250.044 -199.639)" fill="#6cf5c2" fill-rule="evenodd"/>
          <path id="Trazado_990609" data-name="Trazado 990609" d="M270.666,203.63h1.166a.81.81,0,0,1,.808.808v6.575a.81.81,0,0,1-.808.808h-1.166a.81.81,0,0,0,.808-.808v-6.575A.81.81,0,0,0,270.666,203.63Z" transform="translate(-261.778 -199.639)" fill="#00e499" fill-rule="evenodd"/>
          <path id="Trazado_990610" data-name="Trazado 990610" d="M310.318,174.005H312.5a.81.81,0,0,1,.808.808V185.38a.81.81,0,0,1-.808.808h-2.185a.81.81,0,0,1-.808-.808V174.813A.81.81,0,0,1,310.318,174.005Z" transform="translate(-295.389 -174.005)" fill="#8ac9fe" fill-rule="evenodd"/>
          <path id="Trazado_990611" data-name="Trazado 990611" d="M323.072,174.005h1.166a.81.81,0,0,1,.808.808V185.38a.81.81,0,0,1-.808.808h-1.166a.81.81,0,0,0,.808-.808V174.813A.81.81,0,0,0,323.072,174.005Z" transform="translate(-307.123 -174.005)" fill="#60b7ff" fill-rule="evenodd"/>
        </g>
      </g>
      <path id="Trazado_990612" data-name="Trazado 990612" d="M70.344,41.47H71.99V31.442H70.344Zm-2.156,1.077V30.364a1.077,1.077,0,0,1,1.078-1.077h3.8a1.077,1.077,0,0,1,1.077,1.077V42.548a1.078,1.078,0,0,1-1.077,1.078h-3.8A1.078,1.078,0,0,1,68.188,42.548Zm-3.26-7.114H63.283V41.47h1.645Zm2.156-1.078v8.192a1.078,1.078,0,0,1-1.078,1.078h-3.8a1.078,1.078,0,0,1-1.078-1.078V34.356a1.078,1.078,0,0,1,1.078-1.078h3.8A1.078,1.078,0,0,1,67.085,34.356ZM56.222,41.47h1.646V39.256H56.222Zm-1.078,2.156a1.078,1.078,0,0,1-1.078-1.078v-4.37A1.078,1.078,0,0,1,55.144,37.1h3.8a1.077,1.077,0,0,1,1.077,1.078v4.37a1.078,1.078,0,0,1-1.077,1.078Zm1.934-8.181a1.077,1.077,0,0,1-.662-1.928l6.357-4.946a1.077,1.077,0,0,1,.358-2.093h0l2.7,0a1.077,1.077,0,0,1,1.043,1.341l-.658,2.615a1.077,1.077,0,0,1-1.044.815,1.048,1.048,0,0,1-.264-.033,1.076,1.076,0,0,1-.81-.947l-6.357,4.947a1.075,1.075,0,0,1-.661.227ZM36.594,57.6a1,1,0,1,0,1.135.845A1,1,0,0,0,36.594,57.6ZM51.129,36.147A12.977,12.977,0,1,1,64.105,49.124,12.992,12.992,0,0,1,51.129,36.147Zm-2.156,0A15.133,15.133,0,1,1,64.105,51.279,15.149,15.149,0,0,1,48.973,36.147ZM84.718,54.1c-.771-1.287-2.885-1.091-5.655.522l-9.982,5.814a7.512,7.512,0,0,1-5.163.908l-1.241-.2-.022,0-.022,0c-1.558-.318-3-.731-4.527-1.167-.693-.2-1.41-.4-2.14-.6a1.078,1.078,0,1,1,.558-2.082c.746.2,1.473.407,2.175.608,1.47.42,2.859.816,4.318,1.117a1.684,1.684,0,0,0,2.095-1.228,1.793,1.793,0,0,0-1.225-2.13,51.945,51.945,0,0,1-8.214-2.435c-.809-.292-1.506-.545-2.111-.741-1.816-.589-3.572.2-5.2,1.142l-7.277,4.213,4.751,8.394,1.83-1.056a1.073,1.073,0,0,1,.817-.108l13.139,3.521a5.586,5.586,0,0,0,4.535-.635L84.275,56.8a2.126,2.126,0,0,0,.443-2.7ZM45.779,70.5a.4.4,0,0,1-.148.533l-2.8,1.585a.389.389,0,0,1-.3.035.394.394,0,0,1-.237-.183L34.063,57.922a.4.4,0,0,1,.147-.534l2.8-1.585a.379.379,0,0,1,.188-.05.432.432,0,0,1,.109.015.385.385,0,0,1,.236.183Zm4.158-19.987L48.328,48.9,49.56,46.13a1.08,1.08,0,0,0-.068-1,17.043,17.043,0,0,1-2.072-5,1.075,1.075,0,0,0-.66-.757l-2.832-1.089V34.01l2.832-1.09a1.076,1.076,0,0,0,.661-.756,17.054,17.054,0,0,1,2.071-5,1.075,1.075,0,0,0,.068-1L48.328,23.39l3.021-3.022L54.125,21.6a1.078,1.078,0,0,0,1-.067,17.043,17.043,0,0,1,5-2.071,1.078,1.078,0,0,0,.757-.661l1.09-2.832h4.272l1.09,2.832a1.079,1.079,0,0,0,.757.661,17.044,17.044,0,0,1,5,2.071,1.077,1.077,0,0,0,1,.067l2.776-1.233,3.022,3.022-1.233,2.774a1.08,1.08,0,0,0,.067,1,17.045,17.045,0,0,1,2.072,5,1.077,1.077,0,0,0,.66.757l2.832,1.089v4.273l-2.832,1.09a1.076,1.076,0,0,0-.661.756,17.043,17.043,0,0,1-2.071,5,1.077,1.077,0,0,0-.067,1L79.885,48.9l-3.022,3.022-2.775-1.232a1.075,1.075,0,0,0-1,.067,17.042,17.042,0,0,1-5,2.072,1.079,1.079,0,0,0-.755.661l-.666,1.729a4.129,4.129,0,0,0-2.176-1.64,1,1,0,0,0-.14-.036,49.824,49.824,0,0,1-7.944-2.355c-.793-.287-1.542-.557-2.179-.764a6.742,6.742,0,0,0-4.291.085Zm17,8.539a4.125,4.125,0,0,0,.218-.587,1.076,1.076,0,0,0,.833-.676l1.156-3a19.2,19.2,0,0,0,4.58-1.9l2.286,1.016L68,58.573a5.432,5.432,0,0,1-1.059.479Zm19.669-5.99a4.273,4.273,0,0,1-1.2,5.569L67.291,69.785a7.708,7.708,0,0,1-4.076,1.171,8.29,8.29,0,0,1-2.148-.29l-12.707-3.4L46.9,68.1l.755,1.334a2.55,2.55,0,0,1-.962,3.472l-2.8,1.585a2.525,2.525,0,0,1-1.247.33,2.58,2.58,0,0,1-.687-.094,2.538,2.538,0,0,1-1.537-1.2L32.186,58.984a2.551,2.551,0,0,1,.962-3.472l2.8-1.585a2.553,2.553,0,0,1,3.472.962l.6,1.069,7.258-4.2c.178-.1.359-.2.542-.3L46.28,49.9a1.077,1.077,0,0,1-.224-1.2l1.307-2.941a19.11,19.11,0,0,1-1.9-4.579l-3-1.155a1.077,1.077,0,0,1-.691-1.006V33.27a1.077,1.077,0,0,1,.691-1.006l3-1.155a19.16,19.16,0,0,1,1.9-4.579l-1.307-2.942a1.077,1.077,0,0,1,.224-1.2l4.068-4.069a1.08,1.08,0,0,1,1.2-.223L54.49,19.4a19.2,19.2,0,0,1,4.578-1.9l1.156-3a1.077,1.077,0,0,1,1.006-.691h5.752a1.079,1.079,0,0,1,1.006.691l1.156,3a19.2,19.2,0,0,1,4.578,1.9L76.664,18.1a1.081,1.081,0,0,1,1.2.223l4.068,4.068a1.079,1.079,0,0,1,.224,1.2l-1.307,2.941a19.11,19.11,0,0,1,1.9,4.579l3,1.155a1.077,1.077,0,0,1,.691,1.006v5.753a1.077,1.077,0,0,1-.691,1.006l-3,1.155a19.166,19.166,0,0,1-1.9,4.578L82.156,48.7a1.078,1.078,0,0,1-.224,1.2l-1.8,1.8c2.313-.9,3.881-.664,4.9-.139A25.7,25.7,0,0,0,90.1,36.147,25.963,25.963,0,0,0,86.582,23.08a1.078,1.078,0,0,1,1.863-1.086,28.137,28.137,0,0,1,3.811,14.152,27.832,27.832,0,0,1-5.649,16.915ZM39.953,50.609A28.15,28.15,0,0,1,80.32,13.137l-.444-1.559a1.078,1.078,0,0,1,2.074-.592l1.37,4.8a1.079,1.079,0,0,1-1,1.373l-4.99.179H77.29a1.078,1.078,0,0,1-.037-2.155l2.123-.077A26,26,0,0,0,41.8,49.5a1.078,1.078,0,1,1-1.848,1.109Z" fill="#242222" fill-rule="evenodd"/>
    </g>
  </g>
</svg>
