<svg xmlns="http://www.w3.org/2000/svg" xmlns:xlink="http://www.w3.org/1999/xlink" width="110" height="110" viewBox="0 0 110 110">
  <defs>
    <filter id="Trazado_982547" x="0" y="0" width="110" height="110" filterUnits="userSpaceOnUse">
      <feOffset dy="3" input="SourceAlpha"/>
      <feGaussianBlur stdDeviation="3" result="blur"/>
      <feFlood flood-opacity="0.161"/>
      <feComposite operator="in" in2="blur"/>
      <feComposite in="SourceGraphic"/>
    </filter>
  </defs>
  <g id="Grupo_1156534" data-name="Grupo 1156534" transform="translate(-3756 -3604)">
    <g id="Grupo_1155737" data-name="Grupo 1155737" transform="translate(2955 -1079.666)">
      <g id="Grupo_1154703" data-name="Grupo 1154703" transform="translate(0 1465.666)">
        <g id="Grupo_1150789" data-name="Grupo 1150789" transform="translate(3 2320)">
          <g id="Grupo_1154212" data-name="Grupo 1154212" transform="translate(-236 -5809)">
            <g id="Grupo_1152583" data-name="Grupo 1152583" transform="translate(1043 6713)">
              <g id="Grupo_1146973" data-name="Grupo 1146973" transform="translate(0 0)">
                <g id="Grupo_1146954" data-name="Grupo 1146954">
                  <g transform="matrix(1, 0, 0, 1, -9, -6)" filter="url(#Trazado_982547)">
                    <g id="Trazado_982547-2" data-name="Trazado 982547" transform="translate(9 6)" fill="#fcf3f0">
                      <path d="M 46 90.49987030029297 C 39.99187850952148 90.49987030029297 34.16426849365234 89.32350921630859 28.67905426025391 87.00345611572266 C 23.38019943237305 84.76224517822266 18.62104034423828 81.55341339111328 14.53374671936035 77.46613311767578 C 10.44646644592285 73.37885284423828 7.237639904022217 68.61969757080078 4.996413230895996 63.32085418701172 C 2.676359891891479 57.83565521240234 1.5 52.008056640625 1.5 45.99993515014648 C 1.5 39.99181365966797 2.676359891891479 34.16421508789062 4.996413230895996 28.67901420593262 C 7.237639904022217 23.38017463684082 10.44646644592285 18.62101554870605 14.53374671936035 14.53373527526855 C 18.62104034423828 10.44645500183105 23.38019943237305 7.23762845993042 28.67905426025391 4.996415138244629 C 34.16426849365234 2.676361799240112 39.99187850952148 1.500001788139343 46 1.500001788139343 C 52.00812149047852 1.500001788139343 57.83573150634766 2.676361799240112 63.32094573974609 4.996415138244629 C 68.61979675292969 7.23762845993042 73.37895965576172 10.44645500183105 77.46625518798828 14.53373527526855 C 81.55353546142578 18.62101554870605 84.76235961914062 23.38017463684082 87.00358581542969 28.67901420593262 C 89.32363891601562 34.16421508789062 90.5 39.99181365966797 90.5 45.99993515014648 C 90.5 52.008056640625 89.32363891601562 57.83565521240234 87.00358581542969 63.32085418701172 C 84.76235961914062 68.61969757080078 81.55353546142578 73.37885284423828 77.46625518798828 77.46613311767578 C 73.37895965576172 81.55341339111328 68.61979675292969 84.76224517822266 63.32094573974609 87.00345611572266 C 57.83573150634766 89.32350921630859 52.00812149047852 90.49987030029297 46 90.49987030029297 Z" stroke="none"/>
                      <path d="M 46 2.999992370605469 C 40.1937141418457 2.999992370605469 34.56269836425781 4.136489868164062 29.26337051391602 6.377906799316406 C 24.14332580566406 8.543502807617188 19.54441070556641 11.64437866210938 15.59439849853516 15.59437561035156 C 11.64440155029297 19.54439544677734 8.54351806640625 24.14329528808594 6.377914428710938 29.26333618164062 C 4.136497497558594 34.56264877319336 3 40.19366455078125 3 45.99993515014648 C 3 51.80620574951172 4.136497497558594 57.43720626831055 6.377914428710938 62.73651885986328 C 8.54351806640625 67.8565673828125 11.64440155029297 72.45545959472656 15.59439849853516 76.40547943115234 C 19.54441070556641 80.35547637939453 24.14332580566406 83.45635223388672 29.26337051391602 85.6219482421875 C 34.56269836425781 87.86336517333984 40.1937141418457 88.99986267089844 46 88.99986267089844 C 51.8062858581543 88.99986267089844 57.43730163574219 87.86336517333984 62.73661422729492 85.6219482421875 C 67.85667419433594 83.45635223388672 72.45557403564453 80.35547637939453 76.40558624267578 76.40547943115234 C 80.35559844970703 72.45545959472656 83.45647430419922 67.8565673828125 85.6220703125 62.73651885986328 C 87.86350250244141 57.43720626831055 89 51.80620574951172 89 45.99993515014648 C 89 40.19366455078125 87.86350250244141 34.56264877319336 85.6220703125 29.26333618164062 C 83.45647430419922 24.14329528808594 80.35559844970703 19.54439544677734 76.40558624267578 15.59437561035156 C 72.45557403564453 11.64437866210938 67.85667419433594 8.543502807617188 62.73661422729492 6.377906799316406 C 57.43730163574219 4.136489868164062 51.8062858581543 2.999992370605469 46 2.999992370605469 M 46 -7.62939453125e-06 C 71.40509033203125 -7.62939453125e-06 92 20.59486389160156 92 45.99993515014648 C 92 71.40499114990234 71.40509033203125 91.99986267089844 46 91.99986267089844 C 20.59490203857422 91.99986267089844 0 71.40499114990234 0 45.99993515014648 C 0 20.59486389160156 20.59490203857422 -7.62939453125e-06 46 -7.62939453125e-06 Z" stroke="none" fill="#e89076"/>
                    </g>
                  </g>
                </g>
              </g>
            </g>
          </g>
        </g>
      </g>
    </g>
    <g id="contabilidad_1_" data-name="contabilidad (1)" transform="translate(3782 3627)">
      <g id="Grupo_1156532" data-name="Grupo 1156532" transform="translate(1.906 1.906)">
        <g id="Grupo_1156511" data-name="Grupo 1156511" transform="translate(9.059 28.462)">
          <path id="Trazado_990670" data-name="Trazado 990670" d="M15.623,39.381a1.817,1.817,0,0,0,1.812,1.812A1.825,1.825,0,0,0,15.623,43a1.817,1.817,0,0,0,1.812,1.812,1.825,1.825,0,0,0-1.812,1.812,1.817,1.817,0,0,0,1.812,1.812h1.812v1.812a1.817,1.817,0,0,1-1.812,1.812H13.812A1.817,1.817,0,0,1,12,50.251V42.1a3.621,3.621,0,0,1,1.449-2.9l1.341-1.006a2.081,2.081,0,0,0,.833-1.667v-.5a2.1,2.1,0,0,0-.607-1.477,2.137,2.137,0,0,0-1.259-.6l.018-.145a12.411,12.411,0,0,0,1.848.136,12.562,12.562,0,0,0,3.623-.525v4.149H17.435a1.825,1.825,0,0,0-1.812,1.812Z" transform="translate(-12 -33.42)" fill="#969faa"/>
        </g>
        <g id="Grupo_1156512" data-name="Grupo 1156512" transform="translate(0 3.623)">
          <path id="Trazado_990671" data-name="Trazado 990671" d="M18.305,30.839a12.562,12.562,0,0,1-3.623.525,12.411,12.411,0,0,1-1.848-.136,12.673,12.673,0,1,1,5.471-.39Z" transform="translate(-2 -6)" fill="#fcd770"/>
        </g>
        <g id="Grupo_1156513" data-name="Grupo 1156513" transform="translate(3.623 7.247)">
          <path id="Trazado_990672" data-name="Trazado 990672" d="M15.059,10a9.019,9.019,0,0,1,6.214,2.473l-.779.852L16.87,17.247l-3.623-3.623L9.623,17.247,6.154,20.716A9.054,9.054,0,0,1,15.059,10Z" transform="translate(-6 -10)" fill="#69d6f4"/>
        </g>
        <g id="Grupo_1156514" data-name="Grupo 1156514" transform="translate(3.777 9.72)">
          <path id="Trazado_990673" data-name="Trazado 990673" d="M21.289,12.73l-.779.852L16.886,17.5,13.263,13.88,9.639,17.5,6.17,20.973a9.024,9.024,0,0,0,3.469,5.58v.009a9.051,9.051,0,0,0,10.87,0v-.009a9.043,9.043,0,0,0,.779-13.823Z" transform="translate(-6.17 -12.73)" fill="#ff826e"/>
        </g>
        <g id="Grupo_1156515" data-name="Grupo 1156515" transform="translate(28.988 0)">
          <path id="Trazado_990674" data-name="Trazado 990674" d="M55.741,2H37.623A3.622,3.622,0,0,0,34,5.623V34.611a3.622,3.622,0,0,0,3.623,3.623H59.364V5.623A3.622,3.622,0,0,0,55.741,2Z" transform="translate(-34 -2)" fill="#aab2bd"/>
        </g>
        <g id="Grupo_1156516" data-name="Grupo 1156516" transform="translate(32.611 3.623)">
          <path id="Trazado_990675" data-name="Trazado 990675" d="M56.117,6.906v5.435a.909.909,0,0,1-.906.906H38.906A.909.909,0,0,1,38,12.341V6.906A.909.909,0,0,1,38.906,6H55.211A.909.909,0,0,1,56.117,6.906Z" transform="translate(-38 -6)" fill="#69d6f4"/>
        </g>
        <g id="Grupo_1156517" data-name="Grupo 1156517" transform="translate(47.105 28.988)">
          <path id="Trazado_990676" data-name="Trazado 990676" d="M57.623,34.906v2.718L54,36.718V34.906A.909.909,0,0,1,54.906,34h1.812A.909.909,0,0,1,57.623,34.906Z" transform="translate(-54 -34)" fill="#e6e9ed"/>
        </g>
        <g id="Grupo_1156518" data-name="Grupo 1156518" transform="translate(47.105 21.741)">
          <path id="Trazado_990677" data-name="Trazado 990677" d="M57.623,26.906v1.812a.909.909,0,0,1-.906.906H54.906A.909.909,0,0,1,54,28.718V26.906A.909.909,0,0,1,54.906,26h1.812A.909.909,0,0,1,57.623,26.906Z" transform="translate(-54 -26)" fill="#e6e9ed"/>
        </g>
        <g id="Grupo_1156519" data-name="Grupo 1156519" transform="translate(47.105 14.494)">
          <path id="Trazado_990678" data-name="Trazado 990678" d="M57.623,18.906v1.812a.909.909,0,0,1-.906.906H54.906A.909.909,0,0,1,54,20.718V18.906A.909.909,0,0,1,54.906,18h1.812A.909.909,0,0,1,57.623,18.906Z" transform="translate(-54 -18)" fill="#e6e9ed"/>
        </g>
        <g id="Grupo_1156520" data-name="Grupo 1156520" transform="translate(39.858 14.494)">
          <path id="Trazado_990679" data-name="Trazado 990679" d="M49.623,18.906v1.812a.909.909,0,0,1-.906.906H46.906A.909.909,0,0,1,46,20.718V18.906A.909.909,0,0,1,46.906,18h1.812A.909.909,0,0,1,49.623,18.906Z" transform="translate(-46 -18)" fill="#e6e9ed"/>
        </g>
        <g id="Grupo_1156521" data-name="Grupo 1156521" transform="translate(32.611 14.494)">
          <path id="Trazado_990680" data-name="Trazado 990680" d="M41.623,18.906v1.812a.909.909,0,0,1-.906.906H38.906A.909.909,0,0,1,38,20.718V18.906A.909.909,0,0,1,38.906,18h1.812A.909.909,0,0,1,41.623,18.906Z" transform="translate(-38 -18)" fill="#e6e9ed"/>
        </g>
        <g id="Grupo_1156522" data-name="Grupo 1156522" transform="translate(32.611 21.741)">
          <path id="Trazado_990681" data-name="Trazado 990681" d="M41.623,26.906v1.812a.909.909,0,0,1-.906.906H38.906A.909.909,0,0,1,38,28.718V26.906A.909.909,0,0,1,38.906,26h1.812A.909.909,0,0,1,41.623,26.906Z" transform="translate(-38 -26)" fill="#e6e9ed"/>
        </g>
        <g id="Grupo_1156523" data-name="Grupo 1156523" transform="translate(32.611 28.988)">
          <path id="Trazado_990682" data-name="Trazado 990682" d="M41.623,34.906v1.812a.909.909,0,0,1-.906.906H38.906A.909.909,0,0,1,38,36.718V34.906A.909.909,0,0,1,38.906,34h1.812A.909.909,0,0,1,41.623,34.906Z" transform="translate(-38 -34)" fill="#e6e9ed"/>
        </g>
        <g id="Grupo_1156524" data-name="Grupo 1156524" transform="translate(38.046 50.728)">
          <path id="Trazado_990683" data-name="Trazado 990683" d="M58.494,61.623H44a4.375,4.375,0,0,1,1.277-3.089L45.812,58h10.87l.534.534A4.375,4.375,0,0,1,58.494,61.623Z" transform="translate(-44 -58)" fill="#ff826e"/>
        </g>
        <g id="Grupo_1156525" data-name="Grupo 1156525" transform="translate(3.623 50.728)">
          <path id="Trazado_990684" data-name="Trazado 990684" d="M18.682,58l1.812,3.623H6L7.812,58Z" transform="translate(-6 -58)" fill="#ff826e"/>
        </g>
        <g id="Grupo_1156526" data-name="Grupo 1156526" transform="translate(34.423 21.741)">
          <path id="Trazado_990685" data-name="Trazado 990685" d="M58.561,37.432a1.8,1.8,0,0,1,1.368,1.757v9.367a5.414,5.414,0,0,1-1.187,3.388l-2.437,3.044H45.435L43,51.944a5.414,5.414,0,0,1-1.187-3.388V44.5a5.533,5.533,0,0,0-.571-2.437l-.788-1.567-.3-.6a1.466,1.466,0,0,1,1.313-2.12,3.959,3.959,0,0,1,3.968,3.968V27.812A1.817,1.817,0,0,1,47.247,26a1.825,1.825,0,0,1,1.812,1.812v7.247l3.623.906,3.623.906Z" transform="translate(-40 -26)" fill="#f0d0b4"/>
        </g>
        <g id="Grupo_1156527" data-name="Grupo 1156527" transform="translate(1.812 28.988)">
          <path id="Trazado_990686" data-name="Trazado 990686" d="M18.494,50.305v5.435H7.623v-.906L4.335,44.961A6.3,6.3,0,0,1,4,42.914a6.514,6.514,0,0,1,.77-3.071,6.624,6.624,0,0,1,2.12-2.337l4.738-3.152A2.034,2.034,0,0,1,12.787,34a1.745,1.745,0,0,1,.217.009,2.137,2.137,0,0,1,1.259.6,2.1,2.1,0,0,1,.607,1.477v.5a2.081,2.081,0,0,1-.833,1.667L12.7,39.254a3.621,3.621,0,0,0-1.449,2.9v8.153a1.817,1.817,0,0,0,1.812,1.812h3.623a1.817,1.817,0,0,0,1.812-1.812Z" transform="translate(-4 -34)" fill="#f0d0b4"/>
        </g>
        <g id="Grupo_1156528" data-name="Grupo 1156528" transform="translate(12.682 39.858)">
          <path id="Trazado_990687" data-name="Trazado 990687" d="M21.435,46a1.817,1.817,0,0,1,1.812,1.812,1.825,1.825,0,0,1-1.812,1.812H17.812A1.817,1.817,0,0,1,16,47.812,1.825,1.825,0,0,1,17.812,46Z" transform="translate(-16 -46)" fill="#f0d0b4"/>
        </g>
        <g id="Grupo_1156529" data-name="Grupo 1156529" transform="translate(12.682 36.234)">
          <path id="Trazado_990688" data-name="Trazado 990688" d="M21.435,42a1.817,1.817,0,0,1,1.812,1.812,1.825,1.825,0,0,1-1.812,1.812H17.812A1.817,1.817,0,0,1,16,43.812,1.825,1.825,0,0,1,17.812,42Z" transform="translate(-16 -42)" fill="#f0d0b4"/>
        </g>
        <g id="Grupo_1156530" data-name="Grupo 1156530" transform="translate(12.682 32.611)">
          <path id="Trazado_990689" data-name="Trazado 990689" d="M21.435,38a1.817,1.817,0,0,1,1.812,1.812,1.825,1.825,0,0,1-1.812,1.812H17.812A1.817,1.817,0,0,1,16,39.812,1.825,1.825,0,0,1,17.812,38h3.623Z" transform="translate(-16 -38)" fill="#f0d0b4"/>
        </g>
        <g id="Grupo_1156531" data-name="Grupo 1156531" transform="translate(16.305 28.988)">
          <path id="Trazado_990690" data-name="Trazado 990690" d="M25.435,34a1.817,1.817,0,0,1,1.812,1.812,1.825,1.825,0,0,1-1.812,1.812H20V34Z" transform="translate(-20 -34)" fill="#f0d0b4"/>
        </g>
      </g>
      <g id="Grupo_1156533" data-name="Grupo 1156533" transform="translate(1 1)">
        <path id="Trazado_990691" data-name="Trazado 990691" d="M28.176,18.588a13.5,13.5,0,0,0-2.427-7.751l-1.487,1.035a11.758,11.758,0,1,1-3.719-3.447l.918-1.563a13.583,13.583,0,1,0-11.4,24.523L6.107,34.024a7.4,7.4,0,0,0-2.916,8.5l3.244,9.732V52.8L4.064,57.54H21.489L19.117,52.8V46.67h.906a2.706,2.706,0,0,0,2.011-4.529,2.676,2.676,0,0,0,0-3.623,2.634,2.634,0,0,0,.54-2.718h1.073a2.718,2.718,0,0,0,0-5.435H21.337a13.586,13.586,0,0,0,6.838-11.776ZM20.929,40.329a.907.907,0,0,1-.906.906H16.4a.906.906,0,0,1,0-1.812h3.623A.907.907,0,0,1,20.929,40.329Zm-5.7-8.185a13.692,13.692,0,0,0,2.074-.241v2.085H16.4a2.7,2.7,0,0,0-.943.178,3.053,3.053,0,0,0,.037-.315v-.495a2.964,2.964,0,0,0-.262-1.213ZM4.91,41.947a5.591,5.591,0,0,1,2.2-6.417l4.735-3.156a1.18,1.18,0,0,1,1.835.982v.495a1.186,1.186,0,0,1-.472.944l-1.34,1a4.552,4.552,0,0,0-1.812,3.623v8.153a2.721,2.721,0,0,0,2.718,2.718H16.4a2.687,2.687,0,0,0,.906-.167V52.1H8.247v-.147ZM6.995,55.728,7.9,53.916h9.751l.906,1.812Zm10.31-8.153a.907.907,0,0,1-.906.906H12.776a.907.907,0,0,1-.906-.906V39.423a2.731,2.731,0,0,1,1.087-2.174l.725-.544a2.7,2.7,0,0,0,.707,1.812,2.676,2.676,0,0,0,0,3.623A2.706,2.706,0,0,0,16.4,46.67h.906Zm2.718-2.718H16.4a.906.906,0,0,1,0-1.812h3.623a.906.906,0,0,1,0,1.812Zm.906-8.153a.907.907,0,0,1-.906.906H16.4a.906.906,0,1,1,0-1.812h3.623A.907.907,0,0,1,20.929,36.705Zm3.623-3.623a.907.907,0,0,1-.906.906H19.117V32.176h4.529A.907.907,0,0,1,24.552,33.082Z" transform="translate(-1 -1.377)"/>
        <path id="Trazado_990692" data-name="Trazado 990692" d="M55.647,1H37.529A4.534,4.534,0,0,0,33,5.529V34.517a4.534,4.534,0,0,0,4.529,4.529h1.7l.534,1.069a4.562,4.562,0,0,1,.478,2.026V46.2a6.367,6.367,0,0,0,1.39,3.961l1.928,2.41a5.239,5.239,0,0,0-1.506,3.688v.906H58.364v-.906a5.243,5.243,0,0,0-1.506-3.689l1.928-2.41a6.363,6.363,0,0,0,1.39-3.96V5.529A4.534,4.534,0,0,0,55.647,1ZM34.812,34.517V5.529a2.721,2.721,0,0,1,2.718-2.718H55.647a2.721,2.721,0,0,1,2.718,2.718V34.285c-.082-.029-.161-.063-.246-.084l-1.565-.391V31.8a1.814,1.814,0,0,0-1.812-1.812H52.929A1.814,1.814,0,0,0,51.117,31.8v.651L49.305,32V25.458a2.718,2.718,0,0,0-5.435,0V35.631a4.833,4.833,0,0,0-2.116-1.018,1.8,1.8,0,0,0,.3-1V31.8a1.814,1.814,0,0,0-1.812-1.812H38.435A1.814,1.814,0,0,0,36.623,31.8v1.812a1.814,1.814,0,0,0,1.812,1.812h.522a2.114,2.114,0,0,0-.481,1.812h-.947a2.721,2.721,0,0,1-2.718-2.718Zm19.929-1.16L52.929,32.9V31.8h1.812Zm-16.305.255V31.8h1.812v1.812Zm5.554,21.741a3.447,3.447,0,0,1,.9-1.546l.265-.265h10.12l.265.265a3.447,3.447,0,0,1,.9,1.546ZM58.364,46.2a4.546,4.546,0,0,1-.993,2.83l-2.16,2.7h-10l-2.16-2.7a4.55,4.55,0,0,1-.992-2.829V42.141a6.369,6.369,0,0,0-.669-2.836l-1.083-2.166a.561.561,0,0,1,.5-.811,3.067,3.067,0,0,1,3.064,3.064v4.183h1.812V25.458a.906.906,0,1,1,1.812,0V43.575h1.812v-9.71l1.812.453v9.257h1.812v-8.8l1.812.453v8.351h1.812v-7.9l1.125.282a.9.9,0,0,1,.687.879V46.2Z" transform="translate(-4.012 -1)"/>
        <path id="Trazado_990693" data-name="Trazado 990693" d="M38.812,14.059H55.117a1.814,1.814,0,0,0,1.812-1.812V6.812A1.814,1.814,0,0,0,55.117,5H38.812A1.814,1.814,0,0,0,37,6.812v5.435A1.814,1.814,0,0,0,38.812,14.059Zm0-7.247H55.117v5.435H38.812Z" transform="translate(-4.389 -1.377)"/>
        <path id="Trazado_990694" data-name="Trazado 990694" d="M38.812,22.435h1.812a1.814,1.814,0,0,0,1.812-1.812V18.812A1.814,1.814,0,0,0,40.623,17H38.812A1.814,1.814,0,0,0,37,18.812v1.812A1.814,1.814,0,0,0,38.812,22.435Zm0-3.623h1.812v1.812H38.812Z" transform="translate(-4.389 -2.506)"/>
        <path id="Trazado_990695" data-name="Trazado 990695" d="M48.623,17H46.812A1.814,1.814,0,0,0,45,18.812v1.812a1.814,1.814,0,0,0,1.812,1.812h1.812a1.814,1.814,0,0,0,1.812-1.812V18.812A1.814,1.814,0,0,0,48.623,17Zm-1.812,3.623V18.812h1.812v1.812Z" transform="translate(-5.142 -2.506)"/>
        <path id="Trazado_990696" data-name="Trazado 990696" d="M56.623,17H54.812A1.814,1.814,0,0,0,53,18.812v1.812a1.814,1.814,0,0,0,1.812,1.812h1.812a1.814,1.814,0,0,0,1.812-1.812V18.812A1.814,1.814,0,0,0,56.623,17Zm-1.812,3.623V18.812h1.812v1.812Z" transform="translate(-5.895 -2.506)"/>
        <path id="Trazado_990697" data-name="Trazado 990697" d="M38.812,30.435h1.812a1.814,1.814,0,0,0,1.812-1.812V26.812A1.814,1.814,0,0,0,40.623,25H38.812A1.814,1.814,0,0,0,37,26.812v1.812A1.814,1.814,0,0,0,38.812,30.435Zm0-3.623h1.812v1.812H38.812Z" transform="translate(-4.389 -3.259)"/>
        <path id="Trazado_990698" data-name="Trazado 990698" d="M56.623,25H54.812A1.814,1.814,0,0,0,53,26.812v1.812a1.814,1.814,0,0,0,1.812,1.812h1.812a1.814,1.814,0,0,0,1.812-1.812V26.812A1.814,1.814,0,0,0,56.623,25Zm-1.812,3.623V26.812h1.812v1.812Z" transform="translate(-5.895 -3.259)"/>
        <path id="Trazado_990699" data-name="Trazado 990699" d="M23.117,5.812h2.46L16.75,15.375l-3.6-3.6L6.832,18.1a8.15,8.15,0,0,1,11.441-7.059l.736-1.655a9.966,9.966,0,1,0,4.614,4.175l-1.573.9a8.139,8.139,0,0,1-.745,9.148V13.11l5.435-5.887V9.435h1.812V4H23.117ZM10.435,17.057l1.812-1.812V26.171a8.08,8.08,0,0,1-1.812-.9Zm-3.38,3.38,1.568-1.568v4.738A8.131,8.131,0,0,1,7.055,20.437Zm7,6.156V15.245l1.812,1.812v9.536a7.7,7.7,0,0,1-1.812,0Zm5.435-1.325a8.157,8.157,0,0,1-1.812.9V17.035l1.812-1.963Z" transform="translate(-1.377 -1.282)"/>
      </g>
    </g>
  </g>
</svg>
