<svg xmlns="http://www.w3.org/2000/svg" xmlns:xlink="http://www.w3.org/1999/xlink" width="110" height="110" viewBox="0 0 110 110">
  <defs>
    <filter id="Trazado_982547" x="0" y="0" width="110" height="110" filterUnits="userSpaceOnUse">
      <feOffset dy="3" input="SourceAlpha"/>
      <feGaussianBlur stdDeviation="3" result="blur"/>
      <feFlood flood-opacity="0.161"/>
      <feComposite operator="in" in2="blur"/>
      <feComposite in="SourceGraphic"/>
    </filter>
  </defs>
  <g id="Grupo_1156536" data-name="Grupo 1156536" transform="translate(-4071 -3604)">
    <g id="Grupo_1155738" data-name="Grupo 1155738" transform="translate(2955 -1080)">
      <g id="Grupo_1154704" data-name="Grupo 1154704" transform="translate(0 1466)">
        <g id="Grupo_1150790" data-name="Grupo 1150790" transform="translate(3 2320)">
          <g id="Grupo_1154214" data-name="Grupo 1154214" transform="translate(79 -5809)">
            <g id="Grupo_1152583" data-name="Grupo 1152583" transform="translate(1043 6713)">
              <g id="Grupo_1146973" data-name="Grupo 1146973" transform="translate(0 0)">
                <g id="Grupo_1146954" data-name="Grupo 1146954">
                  <g transform="matrix(1, 0, 0, 1, -9, -6)" filter="url(#Trazado_982547)">
                    <g id="Trazado_982547-2" data-name="Trazado 982547" transform="translate(9 6)" fill="#fcf3f0">
                      <path d="M 46 90.49987030029297 C 39.99187850952148 90.49987030029297 34.16426849365234 89.32350921630859 28.67905426025391 87.00345611572266 C 23.38019943237305 84.76224517822266 18.62104034423828 81.55341339111328 14.53374671936035 77.46613311767578 C 10.44646644592285 73.37885284423828 7.237639904022217 68.61969757080078 4.996413230895996 63.32085418701172 C 2.676359891891479 57.83565521240234 1.5 52.008056640625 1.5 45.99993515014648 C 1.5 39.99181365966797 2.676359891891479 34.16421508789062 4.996413230895996 28.67901420593262 C 7.237639904022217 23.38017463684082 10.44646644592285 18.62101554870605 14.53374671936035 14.53373527526855 C 18.62104034423828 10.44645500183105 23.38019943237305 7.23762845993042 28.67905426025391 4.996415138244629 C 34.16426849365234 2.676361799240112 39.99187850952148 1.500001788139343 46 1.500001788139343 C 52.00812149047852 1.500001788139343 57.83573150634766 2.676361799240112 63.32094573974609 4.996415138244629 C 68.61979675292969 7.23762845993042 73.37895965576172 10.44645500183105 77.46625518798828 14.53373527526855 C 81.55353546142578 18.62101554870605 84.76235961914062 23.38017463684082 87.00358581542969 28.67901420593262 C 89.32363891601562 34.16421508789062 90.5 39.99181365966797 90.5 45.99993515014648 C 90.5 52.008056640625 89.32363891601562 57.83565521240234 87.00358581542969 63.32085418701172 C 84.76235961914062 68.61969757080078 81.55353546142578 73.37885284423828 77.46625518798828 77.46613311767578 C 73.37895965576172 81.55341339111328 68.61979675292969 84.76224517822266 63.32094573974609 87.00345611572266 C 57.83573150634766 89.32350921630859 52.00812149047852 90.49987030029297 46 90.49987030029297 Z" stroke="none"/>
                      <path d="M 46 2.999992370605469 C 40.1937141418457 2.999992370605469 34.56269836425781 4.136489868164062 29.26337051391602 6.377906799316406 C 24.14332580566406 8.543502807617188 19.54441070556641 11.64437866210938 15.59439849853516 15.59437561035156 C 11.64440155029297 19.54439544677734 8.54351806640625 24.14329528808594 6.377914428710938 29.26333618164062 C 4.136497497558594 34.56264877319336 3 40.19366455078125 3 45.99993515014648 C 3 51.80620574951172 4.136497497558594 57.43720626831055 6.377914428710938 62.73651885986328 C 8.54351806640625 67.8565673828125 11.64440155029297 72.45545959472656 15.59439849853516 76.40547943115234 C 19.54441070556641 80.35547637939453 24.14332580566406 83.45635223388672 29.26337051391602 85.6219482421875 C 34.56269836425781 87.86336517333984 40.1937141418457 88.99986267089844 46 88.99986267089844 C 51.8062858581543 88.99986267089844 57.43730163574219 87.86336517333984 62.73661422729492 85.6219482421875 C 67.85667419433594 83.45635223388672 72.45557403564453 80.35547637939453 76.40558624267578 76.40547943115234 C 80.35559844970703 72.45545959472656 83.45647430419922 67.8565673828125 85.6220703125 62.73651885986328 C 87.86350250244141 57.43720626831055 89 51.80620574951172 89 45.99993515014648 C 89 40.19366455078125 87.86350250244141 34.56264877319336 85.6220703125 29.26333618164062 C 83.45647430419922 24.14329528808594 80.35559844970703 19.54439544677734 76.40558624267578 15.59437561035156 C 72.45557403564453 11.64437866210938 67.85667419433594 8.543502807617188 62.73661422729492 6.377906799316406 C 57.43730163574219 4.136489868164062 51.8062858581543 2.999992370605469 46 2.999992370605469 M 46 -7.62939453125e-06 C 71.40509033203125 -7.62939453125e-06 92 20.59486389160156 92 45.99993515014648 C 92 71.40499114990234 71.40509033203125 91.99986267089844 46 91.99986267089844 C 20.59490203857422 91.99986267089844 0 71.40499114990234 0 45.99993515014648 C 0 20.59486389160156 20.59490203857422 -7.62939453125e-06 46 -7.62939453125e-06 Z" stroke="none" fill="#e89076"/>
                    </g>
                  </g>
                </g>
              </g>
            </g>
          </g>
        </g>
      </g>
    </g>
    <g id="trabajo-en-equipo" transform="translate(4096 3626)">
      <path id="Trazado_990700" data-name="Trazado 990700" d="M373.983,389.227H359.07v13.452h16.971V391.285l-2.058-2.058Zm0,0" transform="translate(-317.167 -343.805)" fill="#ffe477"/>
      <path id="Trazado_990701" data-name="Trazado 990701" d="M426.682,398.413h1.324l1.23-1.651-.723-7.536h-2.337l-.723,7.536Zm0,0" transform="translate(-375.804 -343.805)" fill="#ffb655"/>
      <path id="Trazado_990702" data-name="Trazado 990702" d="M9.561,389.227H24.475v13.452H7.5V391.285l2.058-2.058Zm0,0" transform="translate(-6.628 -343.805)" fill="#7c84e8"/>
      <path id="Trazado_990703" data-name="Trazado 990703" d="M96.683,398.413H95.359l-1.229-1.651.723-7.536h2.337l.723,7.536Zm0,0" transform="translate(-83.144 -343.805)" fill="#515be0"/>
      <path id="Trazado_990704" data-name="Trazado 990704" d="M215.145,235.884v5.209L211.24,245h-4.628l-3.905-3.906v-5.209a6.219,6.219,0,1,1,12.438,0Zm0,0" transform="translate(-179.051 -202.863)" fill="#ffdaaa"/>
      <path id="Trazado_990705" data-name="Trazado 990705" d="M176.989,377.8V363.623l-2.561-2.56H155.494l-2.561,2.56V377.8Zm0,0" transform="translate(-135.086 -318.928)" fill="#787680"/>
      <path id="Trazado_990706" data-name="Trazado 990706" d="M228.052,373.948H226.4l-5.619-12.885h12.886Zm0,0" transform="translate(-195.02 -318.927)" fill="#57565c"/>
      <path id="Trazado_990707" data-name="Trazado 990707" d="M208.052,373.948H206.4l-5.619-12.885h12.886Zm0,0" transform="translate(-177.354 -318.927)" fill="#fff"/>
      <path id="Trazado_990708" data-name="Trazado 990708" d="M237.355,373.948H239l1.53-3.509-.9-9.377h-2.908l-.9,9.377Zm0,0" transform="translate(-208.304 -318.927)" fill="#ff7956"/>
      <path id="Trazado_990709" data-name="Trazado 990709" d="M388.832,288.627v4.186l-3.139,3.139h-3.719l-3.139-3.139v-4.186a5,5,0,0,1,10,0Zm0,0" transform="translate(-334.627 -250.53)" fill="#ffdaaa"/>
      <path id="Trazado_990710" data-name="Trazado 990710" d="M406.682,398.413h1.324l1.23-1.651-.723-7.536h-2.337l-.723,7.536Zm0,0" transform="translate(-358.137 -343.805)" fill="#d7fc7e"/>
      <path id="Trazado_990711" data-name="Trazado 990711" d="M57.5,288.627v4.186l-3.139,3.139H50.643L47.5,292.813v-4.186a5,5,0,0,1,10,0Zm0,0" transform="translate(-41.96 -250.53)" fill="#ffdaaa"/>
      <path id="Trazado_990712" data-name="Trazado 990712" d="M76.682,398.413H75.358l-1.229-1.651.723-7.536h2.337l.723,7.536Zm0,0" transform="translate(-65.478 -343.805)" fill="#ffb655"/>
      <path id="Trazado_990713" data-name="Trazado 990713" d="M57.358,30.912A21.45,21.45,0,0,0,55.2,25.7L60,18.992l-6-6L47.3,17.8a21.449,21.449,0,0,0-5.211-2.16L40.739,7.5h-8.48l-1.347,8.14A21.449,21.449,0,0,0,25.7,17.8L18.991,13l-6,6L17.8,25.7a21.449,21.449,0,0,0-2.16,5.211L7.5,32.259v8.48l5.7.943a5,5,0,0,1,8.966,3.04v4.186l-3.139,3.139h5.445V51.32l2.561-2.56h7.153L30.28,44.854v-.627a9.919,9.919,0,1,1,12.438,0v.627L38.813,48.76h7.153l2.561,2.56v.726h5.445l-3.139-3.139V44.721a5,5,0,0,1,8.966-3.04l5.7-.943v-8.48Zm0,0" transform="translate(-6.624 -6.625)" fill="#c6c5ca"/>
      <path id="Trazado_990714" data-name="Trazado 990714" d="M283.234,276.309a6.288,6.288,0,0,0-.062-.879,9.923,9.923,0,0,1-3.439,5.46v.627l-3.905,3.906h3.5l3.905-3.906Zm0,0" transform="translate(-243.64 -243.288)" fill="#898890"/>
      <path id="Trazado_990715" data-name="Trazado 990715" d="M359.07,389.227h3.5v13.452h-3.5Zm0,0" transform="translate(-317.167 -343.805)" fill="#ffb655"/>
      <path id="Trazado_990716" data-name="Trazado 990716" d="M13.063,389.227h-3.5L7.5,391.285v11.394H11V391.285Zm0,0" transform="translate(-6.628 -343.805)" fill="#515be0"/>
      <path id="Trazado_990717" data-name="Trazado 990717" d="M206.208,241.092v-5.209a6.223,6.223,0,0,1,4.469-5.97,6.224,6.224,0,0,0-7.97,5.97v5.209L206.612,245h3.5l-3.905-3.906Zm0,0" transform="translate(-179.051 -202.863)" fill="#ffbb85"/>
      <path id="Trazado_990718" data-name="Trazado 990718" d="M203.119,361.063h-2.334l5.619,12.885h1.647l.343-.787Zm0,0" transform="translate(-177.354 -318.928)" fill="#d8d7da"/>
      <path id="Trazado_990719" data-name="Trazado 990719" d="M238.158,370.439l.9-9.377h-2.334l-.9,9.377,1.53,3.509H239l.343-.787Zm0,0" transform="translate(-208.304 -318.927)" fill="#ff5023"/>
      <path id="Trazado_990720" data-name="Trazado 990720" d="M382.337,292.813v-4.186a5,5,0,0,1,3.247-4.683,5,5,0,0,0-6.748,4.683v4.186l3.138,3.139h3.5Zm0,0" transform="translate(-334.627 -250.53)" fill="#ffbb85"/>
      <path id="Trazado_990721" data-name="Trazado 990721" d="M51,292.813v-4.186a5,5,0,0,1,3.248-4.683,5,5,0,0,0-6.749,4.683v4.186l3.139,3.139h3.5Zm0,0" transform="translate(-41.96 -250.53)" fill="#ffbb85"/>
      <path id="Trazado_990722" data-name="Trazado 990722" d="M159,361.063h-3.5l-2.561,2.56V377.8h3.5V363.623Zm0,0" transform="translate(-135.086 -318.928)" fill="#57565c"/>
      <g id="Grupo_1156535" data-name="Grupo 1156535" transform="translate(0.875 0.875)">
        <path id="Trazado_990723" data-name="Trazado 990723" d="M182.456,17.8a21.449,21.449,0,0,1,5.211-2.16l1.347-8.14h-3.5l-1.347,8.14A21.421,21.421,0,0,0,181,16.758Zm0,0" transform="translate(-160.753 -7.5)" fill="#898890"/>
        <path id="Trazado_990724" data-name="Trazado 990724" d="M363.041,59.4l4.67-3.344-1.461-1.461L361,58.356a21.549,21.549,0,0,1,2.045,1.042Zm0,0" transform="translate(-319.744 -49.098)" fill="#898890"/>
        <path id="Trazado_990725" data-name="Trazado 990725" d="M112.081,292.813v-4.186a5,5,0,0,0-6.749-4.683,5,5,0,0,1,3.248,4.683v4.186l-3.139,3.139h3.5Zm0,0" transform="translate(-93.915 -251.405)" fill="#898890"/>
        <path id="Trazado_990726" data-name="Trazado 990726" d="M11,82.334v-8.48l8.14-1.347A21.45,21.45,0,0,1,21.3,67.3L16.5,60.586l4.536-4.535-2.04-1.461-6,6L17.8,67.3a21.449,21.449,0,0,0-2.16,5.211L7.5,73.854v8.48l5.7.943a5.042,5.042,0,0,1,.445-.506Zm0,0" transform="translate(-7.5 -49.095)" fill="#898890"/>
        <path id="Trazado_990727" data-name="Trazado 990727" d="M438.418,283.629a4.984,4.984,0,0,0-1.75.315,5.011,5.011,0,0,1,2.217,1.643l3.056-.506A4.982,4.982,0,0,0,438.418,283.629Zm0,0" transform="translate(-386.585 -251.406)" fill="#898890"/>
        <path id="Trazado_990728" data-name="Trazado 990728" d="M340.626,361.063h-3.5l2.561,2.56v.726h3.5v-.726Zm0,0" transform="translate(-298.659 -319.803)" fill="#898890"/>
      </g>
      <path id="Trazado_990729" data-name="Trazado 990729" d="M162.764,237.5l2.668-2.668v-5.571a7.094,7.094,0,1,0-14.189,0v5.571l2.668,2.668h-5.4l-3.073,3.073v15.415H171.24V240.572l-3.073-3.073Zm.679,1.75-2.2,5.054-.485-5.054Zm-6.567,8.359.8-8.359H159l.8,8.359-1.21,2.776h-.5Zm-3.882-18.349a5.344,5.344,0,1,1,10.688,0v4.846l-3.393,3.393h-3.9l-3.393-3.393v-4.846Zm2.926,9.989-.485,5.054-2.2-5.054Zm13.571,14.988h-3.552v-9.015h-1.75v9.015h-11.7v-9.015h-1.75v9.015h-3.552V241.3l2.048-2.048h2.088l5.619,12.885h2.794l5.619-12.885h2.089l2.048,2.048v12.94Zm0,0" transform="translate(-128.462 -196.238)"/>
      <path id="Trazado_990730" data-name="Trazado 990730" d="M381.182,288.448l1.9-1.9V282a5.873,5.873,0,1,0-11.747,0v4.548l1.9,1.9h-1v1.75h2.839l-.663,6.913,1.693,2.274h2.2L380,297.112l-.663-6.913h5.114L386,291.744V301.9h-3.094v-7.073h-1.75V301.9h-7.893v-7.073h-1.75v8.823h16.238V291.019l-2.571-2.571h-4Zm-8.1-6.449a4.123,4.123,0,0,1,8.246,0v3.824l-2.626,2.626h-2.994l-2.626-2.626Zm5.111,14.608-.766,1.028h-.445l-.766-1.028.615-6.408h.747Zm0,0" transform="translate(-328.002 -243.902)"/>
      <path id="Trazado_990731" data-name="Trazado 990731" d="M10.545,276.129A5.88,5.88,0,0,0,4.672,282v4.549l1.9,1.9h-4L0,291.022v12.632H16.242V294.83h-1.75V301.9H6.6V294.83H4.849V301.9H1.754V291.747L3.3,290.2H8.414l-.663,6.912,1.693,2.274h2.2l1.693-2.274-.663-6.912h2.839v-1.75h-1l1.9-1.9V282a5.88,5.88,0,0,0-5.873-5.873Zm.989,20.481-.766,1.028h-.445l-.765-1.028.614-6.408h.747Zm3.134-10.784-2.626,2.626H9.048l-2.626-2.626V282a4.123,4.123,0,1,1,8.246,0Zm0,0" transform="translate(-0.003 -243.905)"/>
      <path id="Trazado_990732" data-name="Trazado 990732" d="M33.373,1.75,34.69,9.715a20.945,20.945,0,0,1,6.033,2.5l6.565-4.7,4.946,4.946-4.7,6.565a20.941,20.941,0,0,1,2.5,6.033L58,26.377v6.995l-2.468.408.286,1.727,3.932-.65V24.892l-8.323-1.377a22.326,22.326,0,0,0-1.817-4.381l4.913-6.861L47.476,5.227,40.615,10.14a22.353,22.353,0,0,0-4.381-1.817L34.857,0H24.892L23.515,8.323a22.38,22.38,0,0,0-4.381,1.816L12.274,5.227,5.227,12.273l4.913,6.861a22.369,22.369,0,0,0-1.817,4.382L0,24.892v9.964l3.932.65.286-1.727-2.468-.408V26.377l7.965-1.318a20.941,20.941,0,0,1,2.5-6.033l-4.7-6.565,4.946-4.946,6.565,4.7a20.946,20.946,0,0,1,6.033-2.5L26.377,1.75Zm0,0"/>
      <path id="Trazado_990733" data-name="Trazado 990733" d="M183.6,179.765a10.794,10.794,0,1,0-18.615,0l1.508-.888a9.044,9.044,0,1,1,15.6,0Zm0,0" transform="translate(-144.42 -144.42)"/>
      <path id="Trazado_990734" data-name="Trazado 990734" d="M422.932,309.138l-1.238-1.238,1.171-1.171h1.75v.725Zm1.684-3.617h-1.75v-1.405a1.2,1.2,0,0,0-.016-.2l1.726-.289a2.952,2.952,0,0,1,.041.488Zm-2.055-2.2a1.2,1.2,0,0,0-.9-.4v-1.75a2.956,2.956,0,0,1,2.2.988Zm0,0" transform="translate(-372.457 -266.019)" fill="#fff"/>
      <path id="Trazado_990735" data-name="Trazado 990735" d="M257.724,258.157l-1.238-1.238,1.94-1.94v-2.99h1.75V255.7Zm.673-7.2a2.415,2.415,0,0,0-.522-1.157l1.352-1.112a4.17,4.17,0,0,1,.9,2Zm-1.172-1.714a2.42,2.42,0,0,0-1.225-.333v-1.75a4.172,4.172,0,0,1,2.113.574Zm0,0" transform="translate(-226.125 -218.32)" fill="#fff"/>
      <path id="Trazado_990736" data-name="Trazado 990736" d="M91.6,309.138,90.366,307.9l1.171-1.171h1.75v.725Zm1.683-3.617h-1.75v-1.405a1.2,1.2,0,0,0-.016-.2l1.727-.289a3,3,0,0,1,.04.488Zm-2.055-2.2a1.2,1.2,0,0,0-.9-.4v-1.75a2.957,2.957,0,0,1,2.2.988Zm0,0" transform="translate(-79.794 -266.019)" fill="#fff"/>
      <path id="Trazado_990737" data-name="Trazado 990737" d="M273.8,108.047A17.759,17.759,0,0,0,261.468,91.11l.539-1.665a19.58,19.58,0,0,1,13.539,18.6ZM260.4,90.8c-.536-.137-1.085-.25-1.633-.336l.272-1.729c.6.094,1.2.218,1.794.368Zm-2.736-.473c-.551-.051-1.111-.077-1.666-.077V88.5c.609,0,1.224.028,1.828.085Zm0,0" transform="translate(-226.125 -78.172)" fill="#fff"/>
    </g>
  </g>
</svg>
