<svg xmlns="http://www.w3.org/2000/svg" xmlns:xlink="http://www.w3.org/1999/xlink" width="400" height="271" viewBox="0 0 400 271">
  <defs>
    <clipPath id="clip-path">
      <rect id="Rectángulo_409640" data-name="Rectángulo 409640" width="400" height="271" transform="translate(1020 4605)" fill="#fff" stroke="#707070" stroke-width="1" opacity="0.62"/>
    </clipPath>
    <filter id="Trazado_990260" x="-41.629" y="-97.414" width="460.379" height="442.828" filterUnits="userSpaceOnUse">
      <feOffset dy="3" input="SourceAlpha"/>
      <feGaussianBlur stdDeviation="3" result="blur"/>
      <feFlood flood-opacity="0.161"/>
      <feComposite operator="in" in2="blur"/>
      <feComposite in="SourceGraphic"/>
    </filter>
  </defs>
  <g id="Enmascarar_grupo_1098778" data-name="Enmascarar grupo 1098778" transform="translate(-1020 -4605)" clip-path="url(#clip-path)">
    <g id="Grupo_1156564" data-name="Grupo 1156564" transform="translate(18)">
      <g transform="matrix(1, 0, 0, 1, 1002, 4605)" filter="url(#Trazado_990260)">
        <path id="Trazado_990260-2" data-name="Trazado 990260" d="M27.441,304.5C-54.867,200.6,69.13,206.128,122.678,118.763,205.215-15.9,248.649-24.454,285.716,35.542s22.374,184.323-53.6,253.084S71.234,359.778,27.441,304.5Z" transform="translate(275.95 -91.41) rotate(64)" fill="#e89076" fill-rule="evenodd"/>
      </g>
      <g id="Grupo_1156384" data-name="Grupo 1156384" transform="translate(1020 4609.267)">
        <g id="Grupo_1156383" data-name="Grupo 1156383">
          <g id="Grupo_1156348" data-name="Grupo 1156348" transform="translate(162.219 192.323)">
            <path id="Trazado_989894" data-name="Trazado 989894" d="M4004.168,1162.99h-98.706c-2.546,0-4.609,2.509-4.609,5.6v18.125c0,3.1,2.063,5.6,4.609,5.6h37.717a4.581,4.581,0,0,1,4.075,2.985l.052.12c1.692,3.892,6.245,4,8.061.194l.243-.509a4.532,4.532,0,0,1,3.986-2.791h44.572c2.545,0,4.609-2.509,4.609-5.6v-18.125C4008.779,1165.5,4006.715,1162.99,4004.168,1162.99Z" transform="translate(-3900.479 -1162.616)" fill="#fff" fill-rule="evenodd"/>
            <path id="Trazado_989895" data-name="Trazado 989895" d="M3950.117,1197.518h-.078a4.9,4.9,0,0,1-4.346-3.21l-.052-.12a4.2,4.2,0,0,0-3.73-2.76h-37.717c-2.748,0-4.984-2.682-4.984-5.979v-18.125c0-3.3,2.236-5.979,4.984-5.979H4002.9c2.749,0,4.985,2.682,4.985,5.979v18.125c0,3.3-2.236,5.979-4.985,5.979h-44.572a4.176,4.176,0,0,0-3.647,2.577l-.243.509A4.848,4.848,0,0,1,3950.117,1197.518Zm-45.926-35.426c-2.334,0-4.233,2.346-4.233,5.229v18.125c0,2.883,1.9,5.228,4.233,5.228h37.718a4.94,4.94,0,0,1,4.419,3.211l.052.12a4.175,4.175,0,0,0,3.672,2.759h.063a4.115,4.115,0,0,0,3.644-2.578l.243-.509a4.918,4.918,0,0,1,4.326-3H4002.9c2.335,0,4.234-2.345,4.234-5.228v-18.125c0-2.883-1.9-5.229-4.234-5.229Z" transform="translate(-3899.209 -1161.343)" fill="#343a50"/>
          </g>
          <g id="Grupo_1156350" data-name="Grupo 1156350" transform="translate(93.89 20.948)">
            <g id="Grupo_1156349" data-name="Grupo 1156349">
              <rect id="Rectángulo_409582" data-name="Rectángulo 409582" width="190.351" height="126.232" transform="translate(0.878 16.96)" fill="#fff"/>
              <path id="Trazado_989896" data-name="Trazado 989896" d="M3790.153,407.11H3598.926a.438.438,0,0,0-.438.438V550.74a.438.438,0,0,0,.438.438h191.227a.438.438,0,0,0,.438-.438V407.548A.437.437,0,0,0,3790.153,407.11ZM3599.365,550.3V424.07h190.352V550.3H3599.365Z" transform="translate(-3598.488 -407.11)" fill="#343a50"/>
            </g>
            <circle id="Elipse_11728" data-name="Elipse 11728" cx="4.13" cy="4.13" r="4.13" transform="translate(3.938 8.405) rotate(-45)" fill="#67bead"/>
            <ellipse id="Elipse_11729" data-name="Elipse 11729" cx="4.756" cy="5.032" rx="4.756" ry="5.032" transform="translate(18.251 3.469)" fill="#f2ac6e"/>
            <ellipse id="Elipse_11730" data-name="Elipse 11730" cx="4.756" cy="5.032" rx="4.756" ry="5.032" transform="translate(33.011 3.367)" fill="#f17049"/>
          </g>
          <g id="Grupo_1156364" data-name="Grupo 1156364" transform="translate(121.65 4.022)">
            <path id="Trazado_989897" data-name="Trazado 989897" d="M3819.265,601.609a36.654,36.654,0,0,0-14.124-4.869,105.317,105.317,0,0,0-14.4-1.309c-11.385-.217-23.588,1.663-31.432,8.465a18.5,18.5,0,0,0-3.149,3.6c-9.879,7.827-16.7,19.053-21.582,30.638-7.1,16.861-12.453,34.828-13.875,53.119a3.811,3.811,0,0,0,.219,2.034c.5.991,1.72,1.344,2.807,1.58q1.571.342,3.153.635h98.788c1.884-7.5,3.274-14.99,4.578-22.7,2.039-12.053,4.085-24.185,3.93-36.409C3834.007,623.238,3830.34,608.711,3819.265,601.609Z" transform="translate(-3720.662 -535.701)" fill="#67bead"/>
            <g id="Grupo_1156351" data-name="Grupo 1156351" transform="translate(52.491 59.378)">
              <path id="Trazado_989898" data-name="Trazado 989898" d="M3970.433,595.469c-7.527-.143-16.944,2.827-17.223,11.348a40.923,40.923,0,0,0,3.008,16.214c2.109,5.237,3.816,10.455,6.548,15.443l7.655-8.832c5.323-6.142,10.713-12.383,14.2-19.724a14.066,14.066,0,0,0,1.715-6.608C3985.964,595.774,3975.962,595.575,3970.433,595.469Z" transform="translate(-3952.849 -595.119)" fill="#fff"/>
              <path id="Trazado_989899" data-name="Trazado 989899" d="M3961.6,637.646l-.037,0a.344.344,0,0,1-.266-.177,91.608,91.608,0,0,1-4.971-11.386c-.514-1.341-1.044-2.727-1.595-4.093a41.272,41.272,0,0,1-3.033-16.354c.13-3.962,2.23-7.149,6.075-9.215a24.1,24.1,0,0,1,11.5-2.466h0c5.539.106,15.851.3,16.242,8.169a14.406,14.406,0,0,1-1.748,6.773c-3.533,7.435-8.982,13.722-14.252,19.8l-7.655,8.832A.343.343,0,0,1,3961.6,637.646Zm7.2-43.01c-6.177,0-16.124,2.3-16.409,11.019a40.555,40.555,0,0,0,2.983,16.074c.552,1.371,1.084,2.76,1.6,4.1a93.165,93.165,0,0,0,4.7,10.865l7.328-8.455c5.24-6.045,10.658-12.3,14.15-19.646a13.793,13.793,0,0,0,1.682-6.443c-.36-7.224-10.252-7.412-15.567-7.514Q3969.03,594.636,3968.795,594.636Z" transform="translate(-3951.678 -593.946)" fill="#343a50"/>
            </g>
            <path id="Trazado_989900" data-name="Trazado 989900" d="M3971.727,493.01q0,.394,0,.789c-.1-.093-.253.006-.347.1a33.329,33.329,0,0,0-3.187,3.763c3.224,1.358,6.562,1.684,10,2.03a43.6,43.6,0,0,0,10.76-.227c2.541-.379,5.168-.887,7.238-2.41l-2.292-2.635a2.285,2.285,0,0,1-.712-1.967,238.238,238.238,0,0,0-1.416-25.083,4.313,4.313,0,0,0-.53-1.935,4.364,4.364,0,0,0-1.717-1.316c-1.793-.948-3.649-2.62-5.664-2.9a16.773,16.773,0,0,0-6.684.569c-3.244,1.474-4.551,5.918-5.189,9.07-.864,4.27-.405,8.329-.322,12.591q.056,2.808.04,5.616C3971.7,490.379,3971.725,491.694,3971.727,493.01Z" transform="translate(-3911.948 -431.895)" fill="#ffaec1"/>
            <path id="Trazado_989901" data-name="Trazado 989901" d="M3947,394.453c-.579,2.585-.894,5.481.526,7.717,1.6,2.516,4.923,3.371,7.9,3.2,5.278-.308,10.157-3.165,13.87-6.927,6.359-6.443,17.708-20.946,8.3-28.914a12.745,12.745,0,0,0-12.2-2.132C3955.232,370.929,3949.147,384.852,3947,394.453Z" transform="translate(-3895.193 -358.952)" fill="#ffaec1"/>
            <path id="Trazado_989902" data-name="Trazado 989902" d="M4056.334,457.737l.045.1a6.434,6.434,0,0,0,.683,1.172,4.253,4.253,0,0,0,1.027,1.026c2.32,1.566,5.346-.291,6.847-2.2a7.845,7.845,0,0,0,1.625-5.523,4.48,4.48,0,0,0-.757-2.246,3.993,3.993,0,0,0-3.846-1.366c-3.51.572-6.689,4.8-5.847,8.37A4.166,4.166,0,0,0,4056.334,457.737Z" transform="translate(-3979.785 -422.281)" fill="#ffaec1"/>
            <path id="Trazado_989903" data-name="Trazado 989903" d="M3989.4,346.06q-.318,1.062-.562,2.145c2.03-1.989,4.37-3.86,7.164-4.381.981-.183.788.741,1.125,1.395a3.486,3.486,0,0,0,1.7,1.6c.6.255,1.252.337,1.868.541a2.239,2.239,0,0,1,1.462,1.186,8.6,8.6,0,0,1,.21,1.034,3.2,3.2,0,0,0,1.448,1.8c.66.432,1.4.734,2.064,1.154.9.564-.332,3.23-.566,4.145,2.329-.426,4.643.609,6.845,1.48a.812.812,0,0,0,.482.083.792.792,0,0,0,.267-.146,17.416,17.416,0,0,0,5.457-6.613,3.871,3.871,0,0,0,.479-2.507,1.565,1.565,0,0,0-1.944-1.2q.479-1.077.959-2.153a3.216,3.216,0,0,0,.373-1.322,1.1,1.1,0,0,0-.718-1.07,1.628,1.628,0,0,0-1.269.427,6.107,6.107,0,0,0,.739-1.827,2.07,2.07,0,0,0-.5-1.836,2.176,2.176,0,0,0-1.642-.5,3.651,3.651,0,0,0-1.547.449,7.145,7.145,0,0,1-2.132,1.174,11.634,11.634,0,0,0,.755-1.57c.117-.571-.386-1.312-.92-1.078a1.913,1.913,0,0,0,0-1.459c-1.093-2.344-3.663,1.659-5.1.477-.69-.566-.338-1.784-.927-2.456-.653-.745-1.85-.3-2.767.071s-2.327.382-2.517-.59c-.1-.526.25-1.137-.062-1.572a1.07,1.07,0,0,0-.989-.31c-2.958.269-4.63,3.849-5.98,6.091A32.155,32.155,0,0,0,3989.4,346.06Z" transform="translate(-3927.903 -332.617)" fill="#f2ac6e"/>
            <path id="Trazado_989904" data-name="Trazado 989904" d="M3979.729,438.138a2.355,2.355,0,0,1-.725-.115,2.2,2.2,0,0,1-1.327-1.132,2.086,2.086,0,0,0-.663-.029c-.129.007-.261.015-.4.013-.587-.01-1.228-.346-1.26-.948a1.325,1.325,0,0,1,.241-.739,11.289,11.289,0,0,1,4.134-4.792,7.949,7.949,0,0,0,3.583-4.792.3.3,0,1,1,.553.224,8.509,8.509,0,0,1-3.793,5.056,10.73,10.73,0,0,0-3.963,4.606.878.878,0,0,0-.16.406c.012.222.358.377.674.383.112,0,.229,0,.353-.012a2.167,2.167,0,0,1,1.046.118.3.3,0,0,1,.156.168,1.661,1.661,0,0,0,2.348.76.3.3,0,1,1,.332.5A2.028,2.028,0,0,1,3979.729,438.138Z" transform="translate(-3917.486 -404.331)" fill="#343a50"/>
            <path id="Trazado_989905" data-name="Trazado 989905" d="M4066.835,463.611a.3.3,0,0,1-.191-.527c.169-.141.358-.305.563-.482,1.313-1.138,3.11-2.7,4.6-2.7h.024l1.224.014a.3.3,0,0,1,0,.6h0l-1.224-.014h-.018c-1.27,0-3.04,1.533-4.212,2.549-.207.18-.4.346-.571.489A.3.3,0,0,1,4066.835,463.611Z" transform="translate(-3987.948 -430.984)" fill="#343a50"/>
            <path id="Trazado_989906" data-name="Trazado 989906" d="M3976.2,477a.3.3,0,0,1-.258-.447l1.321-2.293a.3.3,0,1,1,.517.3l-1.321,2.293A.3.3,0,0,1,3976.2,477Z" transform="translate(-3917.904 -441.962)" fill="#343a50"/>
            <g id="Grupo_1156352" data-name="Grupo 1156352" transform="translate(78.315 22.592)">
              <path id="Trazado_989907" data-name="Trazado 989907" d="M4067.25,433.2l-.764,2.363Z" transform="translate(-4066.223 -432.941)" fill="#fff"/>
              <path id="Trazado_989908" data-name="Trazado 989908" d="M4065.594,434.936a.27.27,0,0,1-.082-.013.264.264,0,0,1-.169-.332l.765-2.363a.263.263,0,1,1,.5.162l-.764,2.363A.265.265,0,0,1,4065.594,434.936Z" transform="translate(-4065.33 -432.046)" fill="#343a50"/>
            </g>
            <g id="Grupo_1156353" data-name="Grupo 1156353" transform="translate(78.315 25.024)">
              <path id="Trazado_989909" data-name="Trazado 989909" d="M4068.021,443.909l-1.529,1.876Z" transform="translate(-4066.228 -443.645)" fill="#fff"/>
              <path id="Trazado_989910" data-name="Trazado 989910" d="M4065.594,445.152a.263.263,0,0,1-.2-.43l1.529-1.876a.264.264,0,0,1,.409.333l-1.529,1.876A.267.267,0,0,1,4065.594,445.152Z" transform="translate(-4065.331 -442.749)" fill="#343a50"/>
            </g>
            <g id="Grupo_1156354" data-name="Grupo 1156354" transform="translate(81.373 23.842)">
              <path id="Trazado_989911" data-name="Trazado 989911" d="M4079.95,440.516l.7-1.807Z" transform="translate(-4079.686 -438.445)" fill="#fff"/>
              <path id="Trazado_989912" data-name="Trazado 989912" d="M4079.054,439.883a.26.26,0,0,1-.094-.018.264.264,0,0,1-.152-.341l.695-1.807a.264.264,0,0,1,.492.189l-.695,1.807A.267.267,0,0,1,4079.054,439.883Z" transform="translate(-4078.79 -437.549)" fill="#343a50"/>
            </g>
            <g id="Grupo_1156355" data-name="Grupo 1156355" transform="translate(82.552 23.842)">
              <path id="Trazado_989913" data-name="Trazado 989913" d="M4085.14,440.725l.9-2.015Z" transform="translate(-4084.876 -438.446)" fill="#fff"/>
              <path id="Trazado_989914" data-name="Trazado 989914" d="M4084.244,440.091a.261.261,0,0,1-.108-.023.264.264,0,0,1-.133-.348l.9-2.015a.264.264,0,1,1,.481.216l-.9,2.015A.261.261,0,0,1,4084.244,440.091Z" transform="translate(-4083.98 -437.549)" fill="#343a50"/>
            </g>
            <g id="Grupo_1156356" data-name="Grupo 1156356" transform="translate(80.33 20.924)">
              <path id="Trazado_989915" data-name="Trazado 989915" d="M4075.36,428.088q.312-1.112.625-2.224Z" transform="translate(-4075.096 -425.601)" fill="#fff"/>
              <path id="Trazado_989916" data-name="Trazado 989916" d="M4074.463,427.456a.267.267,0,0,1-.072-.01.263.263,0,0,1-.182-.325l.625-2.224a.263.263,0,1,1,.507.143l-.625,2.224A.265.265,0,0,1,4074.463,427.456Z" transform="translate(-4074.199 -424.705)" fill="#343a50"/>
            </g>
            <g id="Grupo_1156357" data-name="Grupo 1156357" transform="translate(65.843 4.313)">
              <path id="Trazado_989917" data-name="Trazado 989917" d="M4011.6,357.466l1.22-2.135a5.071,5.071,0,0,0,.309-.6,17.075,17.075,0,0,1,.585-1.971Z" transform="translate(-4011.337 -352.494)" fill="#fff"/>
              <path id="Trazado_989918" data-name="Trazado 989918" d="M4010.7,356.834a.258.258,0,0,1-.13-.035.264.264,0,0,1-.1-.359l1.221-2.135a4.7,4.7,0,0,0,.294-.57,4.791,4.791,0,0,0,.223-.825,4.122,4.122,0,0,1,.376-1.175.263.263,0,0,1,.461.256,3.633,3.633,0,0,0-.321,1.028,4.065,4.065,0,0,1-.575,1.548l-1.221,2.135A.26.26,0,0,1,4010.7,356.834Z" transform="translate(-4010.442 -351.598)" fill="#343a50"/>
            </g>
            <path id="Trazado_989919" data-name="Trazado 989919" d="M4026.744,358.839a.263.263,0,0,1-.216-.414,7.064,7.064,0,0,0,.4-.672,3.555,3.555,0,0,1,1.162-1.467c.115-.091.224-.177.323-.272a3.5,3.5,0,0,0,.731-1.106,7.811,7.811,0,0,0,.629-2.134.263.263,0,1,1,.521.076,8.325,8.325,0,0,1-.672,2.278,4.109,4.109,0,0,1-.846,1.268c-.116.111-.24.208-.359.3a3.071,3.071,0,0,0-1.026,1.305,7.39,7.39,0,0,1-.428.722A.262.262,0,0,1,4026.744,358.839Z" transform="translate(-3956.994 -348.019)" fill="#343a50"/>
            <path id="Trazado_989920" data-name="Trazado 989920" d="M4038.195,368.305a.258.258,0,0,1-.142-.042.263.263,0,0,1-.08-.364,6.6,6.6,0,0,1,2.092-2.051l.126-.076a1.475,1.475,0,0,0,.9-1.319c.019-.094.039-.188.061-.28a6.94,6.94,0,0,1,.954-2.063.263.263,0,1,1,.443.285,6.432,6.432,0,0,0-.885,1.9c-.021.087-.04.176-.059.265a1.963,1.963,0,0,1-1.143,1.663l-.122.073a6.074,6.074,0,0,0-1.924,1.887A.265.265,0,0,1,4038.195,368.305Z" transform="translate(-3965.842 -355.315)" fill="#343a50"/>
            <path id="Trazado_989921" data-name="Trazado 989921" d="M4064.975,381.783a.264.264,0,0,1-.216-.415l.917-1.309a.985.985,0,0,1,.739-.5l.054-.012a2.409,2.409,0,0,0,1.836-2.753.263.263,0,1,1,.52-.088,2.936,2.936,0,0,1-2.237,3.354l-.06.013a.8.8,0,0,0-.229.072.815.815,0,0,0-.191.217l-.917,1.309A.264.264,0,0,1,4064.975,381.783Z" transform="translate(-3986.538 -366.517)" fill="#343a50"/>
            <path id="Trazado_989922" data-name="Trazado 989922" d="M4075.444,390.976a.263.263,0,0,1-.187-.449,8.968,8.968,0,0,1,1.62-1.4c.19-.118.388-.221.58-.322a4.838,4.838,0,0,0,.886-.545,4.9,4.9,0,0,0,.942-1.221,5.036,5.036,0,0,1,1.13-1.408.263.263,0,1,1,.322.417,4.585,4.585,0,0,0-1,1.27,4.083,4.083,0,0,1-2.031,1.956c-.191.1-.372.195-.546.3a8.582,8.582,0,0,0-1.523,1.321A.26.26,0,0,1,4075.444,390.976Z" transform="translate(-3994.627 -373.544)" fill="#343a50"/>
            <path id="Trazado_989923" data-name="Trazado 989923" d="M3990.914,509.047a.264.264,0,0,1-.011-.527,10.748,10.748,0,0,0,4.331-1.228,33.046,33.046,0,0,0,8.728-6.289.263.263,0,1,1,.371.374,33.576,33.576,0,0,1-8.865,6.388,11.262,11.262,0,0,1-4.542,1.283Z" transform="translate(-3929.305 -462.684)" fill="#343a50"/>
            <path id="Trazado_989924" data-name="Trazado 989924" d="M3997.961,613.6a.259.259,0,0,1-.1-.019c-1.424-.572-2.852-1.19-4.242-1.836a.264.264,0,1,1,.222-.478c1.382.643,2.8,1.257,4.216,1.825a.264.264,0,0,1-.1.508Z" transform="translate(-3931.482 -547.931)" fill="#343a50"/>
            <path id="Trazado_989925" data-name="Trazado 989925" d="M4046.023,614.116a.264.264,0,0,1-.131-.493l3.544-2.015a.263.263,0,1,1,.26.458l-3.543,2.015A.267.267,0,0,1,4046.023,614.116Z" transform="translate(-3971.891 -548.19)" fill="#343a50"/>
            <path id="Trazado_989926" data-name="Trazado 989926" d="M4022.344,449.176c.063-.435-.623-1.057-.891-1.358a6.5,6.5,0,0,0-1.3-1.137,6.315,6.315,0,0,0-3.013-.818c-1.044-.105-1.194.11-.5.943a6.659,6.659,0,0,0,1.65,1.416C4018.606,448.417,4022.248,449.821,4022.344,449.176Z" transform="translate(-3949.057 -420.112)" fill="#fff"/>
            <path id="Trazado_989927" data-name="Trazado 989927" d="M3982.522,423.913c-.007-.014-.016-.027-.024-.04a6.493,6.493,0,0,0-2-2.114,6.906,6.906,0,0,0-2.86-.772,5.988,5.988,0,0,0,1.743,2.343,5.514,5.514,0,0,0,2.931.784c.1.005.222-.013.237-.107A.147.147,0,0,0,3982.522,423.913Z" transform="translate(-3919.245 -400.908)" fill="#fff"/>
            <path id="Trazado_989928" data-name="Trazado 989928" d="M3993.675,406.631c.12.12.269.251.435.217a.349.349,0,0,0,.245-.336.98.98,0,0,0-.118-.428,13.772,13.772,0,0,0-3.033-4.258,1.462,1.462,0,0,0-.609-.4.954.954,0,0,0-.828.221c-.329.277-.774,1.03-.495,1.455.213.325.922.561,1.237.8A28.452,28.452,0,0,1,3993.675,406.631Z" transform="translate(-3928.171 -385.772)" fill="#343a50"/>
            <path id="Trazado_989929" data-name="Trazado 989929" d="M4029.347,433.717a6.069,6.069,0,0,0,1.374,1.073.976.976,0,0,0,1.01-.026.818.818,0,0,0,.2-.872,2.008,2.008,0,0,0-.536-.772,8.184,8.184,0,0,0-3.82-2.153,2.086,2.086,0,0,0-1.982.286c-.842.847.909.924,1.356,1.077A7.2,7.2,0,0,1,4029.347,433.717Z" transform="translate(-3956.131 -408.533)" fill="#343a50"/>
            <path id="Trazado_989930" data-name="Trazado 989930" d="M3987.348,425.283a.8.8,0,0,0,.321-.444,2.543,2.543,0,0,0,.156-.855c.008-.883-.841-1.369-1.184-.4a1.991,1.991,0,0,0-.132,1.293C3986.633,425.189,3987.009,425.472,3987.348,425.283Z" transform="translate(-3926.052 -402.503)" fill="#343a50"/>
            <path id="Trazado_989931" data-name="Trazado 989931" d="M4026.859,446.039c-.906-1.012-1.659,1.016-1.533,1.688a.909.909,0,0,0,.185.434.719.719,0,0,0,.783.168,1.1,1.1,0,0,0,.584-.591,2.411,2.411,0,0,0,.176-.83A1.167,1.167,0,0,0,4026.859,446.039Z" transform="translate(-3956.09 -420.053)" fill="#343a50"/>
            <path id="Trazado_989932" data-name="Trazado 989932" d="M3966.406,482.377c.85.17,1.316.15,1.794.969a4.928,4.928,0,0,0,1.436,1.581c.077.055.165.128.154.222a.26.26,0,0,1-.126.162,4.968,4.968,0,0,1-4.775.593c-1.861-.8-2.726-2.971-2.9-4.872a1,1,0,0,0,.792.155c.274-.041.541-.135.817-.153C3964.807,480.954,3965.341,482.164,3966.406,482.377Z" transform="translate(-3907.153 -447.308)" fill="#f17049"/>
            <path id="Trazado_989933" data-name="Trazado 989933" d="M3971.484,488.567c.2.014.442-.032.507-.22a.354.354,0,0,0-.1-.351,1.154,1.154,0,0,0-.325-.2,7.915,7.915,0,0,1-1.791-1.257c-.229-.206-.992-.809-1.029-.14-.021.389.756,1.044,1.007,1.289A2.8,2.8,0,0,0,3971.484,488.567Z" transform="translate(-3912.373 -451.218)" fill="#343a50"/>
            <path id="Trazado_989934" data-name="Trazado 989934" d="M3964.8,652h-.011a.732.732,0,0,1-.544-.352l-6.9-9.226a.263.263,0,1,1,.422-.316l6.9,9.226c.088.118.125.138.135.141s.044-.022.136-.137c2.278-2.862,4.461-5.856,6.49-8.9a.263.263,0,0,1,.438.292c-2.036,3.056-4.229,6.063-6.516,8.936A.736.736,0,0,1,3964.8,652Z" transform="translate(-3903.53 -571.704)" fill="#343a50"/>
            <g id="Grupo_1156358" data-name="Grupo 1156358" transform="translate(68.794 69.84)">
              <path id="Trazado_989935" data-name="Trazado 989935" d="M4024.95,641.505q2.632,4.686,5.008,9.51a52.564,52.564,0,0,0,8.935-5.791Z" transform="translate(-4024.604 -641.16)" fill="#fff"/>
              <path id="Trazado_989936" data-name="Trazado 989936" d="M4028.781,650.187a.351.351,0,0,1-.108-.018.346.346,0,0,1-.2-.175c-1.574-3.2-3.256-6.389-5-9.494a.345.345,0,1,1,.6-.337c1.692,3.013,3.327,6.11,4.862,9.211a52.3,52.3,0,0,0,8.565-5.592.345.345,0,1,1,.432.538,52.967,52.967,0,0,1-8.993,5.829A.344.344,0,0,1,4028.781,650.187Z" transform="translate(-4023.428 -639.988)" fill="#343a50"/>
            </g>
            <g id="Grupo_1156359" data-name="Grupo 1156359" transform="translate(63.573 72.148)">
              <path id="Trazado_989937" data-name="Trazado 989937" d="M4006.423,651.661a143.876,143.876,0,0,1-4.462,25.681Z" transform="translate(-4001.618 -651.316)" fill="#fff"/>
              <path id="Trazado_989938" data-name="Trazado 989938" d="M4000.8,676.514a.355.355,0,0,1-.09-.012.345.345,0,0,1-.243-.422,143.841,143.841,0,0,0,4.452-25.619.345.345,0,1,1,.687.056,144.585,144.585,0,0,1-4.473,25.742A.345.345,0,0,1,4000.8,676.514Z" transform="translate(-4000.451 -650.144)" fill="#343a50"/>
            </g>
            <g id="Grupo_1156360" data-name="Grupo 1156360" transform="translate(68.991 81.23)">
              <path id="Trazado_989939" data-name="Trazado 989939" d="M4025.81,691.727l2.872-.093Z" transform="translate(-4025.466 -691.289)" fill="#fff"/>
              <path id="Trazado_989940" data-name="Trazado 989940" d="M4024.639,690.9a.345.345,0,0,1-.011-.689l2.873-.093a.345.345,0,1,1,.022.689l-2.872.093Z" transform="translate(-4024.294 -690.117)" fill="#343a50"/>
            </g>
            <g id="Grupo_1156361" data-name="Grupo 1156361" transform="translate(68.343 85.307)">
              <path id="Trazado_989941" data-name="Trazado 989941" d="M4022.96,709.669l2.594-.093Z" transform="translate(-4022.615 -709.231)" fill="#fff"/>
              <path id="Trazado_989942" data-name="Trazado 989942" d="M4021.788,708.841a.345.345,0,0,1-.012-.689l2.595-.093a.341.341,0,0,1,.357.332.345.345,0,0,1-.332.357l-2.595.093Z" transform="translate(-4021.444 -708.058)" fill="#343a50"/>
            </g>
            <path id="Trazado_989943" data-name="Trazado 989943" d="M4129.192,742.813a.344.344,0,0,1-.327-.237,47.391,47.391,0,0,1-2.233-18.3.345.345,0,0,1,.688.052,46.687,46.687,0,0,0,2.2,18.027.344.344,0,0,1-.219.435A.348.348,0,0,1,4129.192,742.813Z" transform="translate(-4034.286 -635.042)" fill="#343a50"/>
            <path id="Trazado_989944" data-name="Trazado 989944" d="M3823.336,752l-.037,0a.345.345,0,0,1-.305-.38c2.281-21.02,5.156-45.416,10.42-68.953a.345.345,0,0,1,.673.151c-5.256,23.5-8.128,47.876-10.408,68.877A.346.346,0,0,1,3823.336,752Z" transform="translate(-3799.74 -602.922)" fill="#343a50"/>
            <g id="Grupo_1156362" data-name="Grupo 1156362" transform="translate(7.413 106.658)">
              <path id="Trazado_989945" data-name="Trazado 989945" d="M3858.548,818.182c-6.428-1.513-12.971-2.425-19.3-3.308-2.014-.281-4.1-.571-6.156-.878-14.546-2.167-31.006-4.619-46.307-.281-4.479-4.615-9.442-7.931-14.687-11.436l-.376-.251q-.379.951-.751,1.907l.015.01c5.314,3.551,10.333,6.905,14.768,11.589a1,1,0,0,0,1.011.272c15.041-4.445,31.505-1.993,46.031.172,2.069.308,4.156.6,6.174.881,6.572.917,12.78,1.783,19.118,3.274a1,1,0,1,0,.459-1.949Z" transform="translate(-3766.954 -802.027)" fill="#343a50"/>
              <path id="Trazado_989946" data-name="Trazado 989946" d="M3842.62,872.479a1,1,0,0,0,.562-1.922,74.284,74.284,0,0,0-16.038-2.819c-3.81-.244-7.7-.354-11.461-.461-5.647-.16-11.487-.325-17.2-.947l-.559-.061c-8.555-.933-17.4-1.9-26.053-.2a50.2,50.2,0,0,0-17.953-14.494q-.321.957-.633,1.918a48.124,48.124,0,0,1,17.368,14.282,1,1,0,0,0,1.007.379c8.544-1.8,17.442-.829,26.046.109l.56.061c5.791.631,11.672.8,17.358.958,3.745.106,7.616.216,11.39.458A72.276,72.276,0,0,1,3842.62,872.479Z" transform="translate(-3753.286 -840.313)" fill="#343a50"/>
            </g>
            <path id="Trazado_989947" data-name="Trazado 989947" d="M4176.707,782.523c.415-9.367.367-18.71.389-28.038a1.991,1.991,0,0,0-.12-.844,1.965,1.965,0,0,0-1.025-.83c-5.5-2.62-11.342-3.641-17.35-4.147-1.667-.14-1.136-.725-2.41.569-.983,1-1.617,3.042-2.287,4.287-1.53,2.841-3.073,5.674-4.594,8.519a54.365,54.365,0,0,0-5.11,14.053c-1.793,8.095-3.442,22.842,4.61,28.045,5.849,3.779,15.736,4.709,21.61.456C4177.488,799.474,4176.37,790.2,4176.707,782.523Z" transform="translate(-4046.824 -653.935)" fill="#67bead"/>
            <g id="Grupo_1156363" data-name="Grupo 1156363" transform="translate(109.415 52.794)">
              <path id="Trazado_989948" data-name="Trazado 989948" d="M4229.718,597.693c-1.743,3.112-3.334,6.56-6.579,8.2-3.13,1.582-6.194,2.6-9.035-.133-3.3-3.175-5.021-7.693-6.1-12.052a57.214,57.214,0,0,1-.214-24.774,3.024,3.024,0,0,1,.452-1.225c.728-.97,2.376-.7,3.156.224a5.412,5.412,0,0,1,.936,3.44c.051,2.548-.217,5.109.079,7.64.29,2.482,1.732,4.089,3.131,6.1a97.232,97.232,0,0,1,9.782-17.715c1.06-1.52,2.068-2.523,4.046-2.423a2.423,2.423,0,0,1,1.955,1.01c.152.244.3.563.585.588a.971.971,0,0,0,.416-.11,2.2,2.2,0,0,1,2.192.572,6.48,6.48,0,0,1,1.292,1.992,3.583,3.583,0,0,1,3.152,1.355c2.3,3-1.562,10.022-2.758,12.925A131.8,131.8,0,0,1,4229.718,597.693Z" transform="translate(-4205.552 -564.968)" fill="#ffaec1"/>
              <path id="Trazado_989949" data-name="Trazado 989949" d="M4268.075,592.646a.33.33,0,0,1-.435-.459c3.717-6.58,7.373-13.315,10.867-20.019a.331.331,0,1,1,.586.306c-3.5,6.71-7.158,13.452-10.878,20.038A.332.332,0,0,1,4268.075,592.646Z" transform="translate(-4252.739 -570.395)" fill="#343a50"/>
              <path id="Trazado_989950" data-name="Trazado 989950" d="M4297.335,606.295a.331.331,0,0,1-.441-.448,136.274,136.274,0,0,0,8.313-19.627.331.331,0,1,1,.627.21,137.056,137.056,0,0,1-8.354,19.722A.318.318,0,0,1,4297.335,606.295Z" transform="translate(-4275.35 -581.216)" fill="#343a50"/>
              <path id="Trazado_989951" data-name="Trazado 989951" d="M4202.359,718.32a1.772,1.772,0,0,0-.156.653,1.65,1.65,0,0,0,.2.662,12.225,12.225,0,0,0,7.21,6.168,16.288,16.288,0,0,0,9.6.021q.14-5.264.732-10.5a11.57,11.57,0,0,0,.091-2.954,5.554,5.554,0,0,0-1.6-3.142,9.7,9.7,0,0,0-3.9-2.058,11.529,11.529,0,0,0-3.707-.7,6.738,6.738,0,0,0-3.452,1.072,5.531,5.531,0,0,0-1.611,2.56Q4203.937,714.151,4202.359,718.32Z" transform="translate(-4202.203 -674.312)" fill="#ffaec1"/>
            </g>
            <path id="Trazado_989952" data-name="Trazado 989952" d="M4146.792,816.216a.345.345,0,0,1-.2-.067,11.514,11.514,0,0,1-4.07-6.3,24.6,24.6,0,0,1-.62-7.466c.478-11.246,4.2-23.457,11.38-37.329a.345.345,0,1,1,.612.317c-7.132,13.781-10.83,25.9-11.3,37.042a24,24,0,0,0,.6,7.255,10.831,10.831,0,0,0,3.813,5.93.344.344,0,0,1,.074.482A.341.341,0,0,1,4146.792,816.216Z" transform="translate(-4046.153 -666.649)" fill="#343a50"/>
            <path id="Trazado_989953" data-name="Trazado 989953" d="M4211.133,766.12a13.9,13.9,0,0,1-6.842-1.836,12.3,12.3,0,0,1-5.711-6.546.344.344,0,1,1,.652-.222,11.614,11.614,0,0,0,5.4,6.169c4.159,2.369,9.24,2.327,12.646-.106a.345.345,0,0,1,.4.561A11.221,11.221,0,0,1,4211.133,766.12Z" transform="translate(-4089.974 -660.79)" fill="#343a50"/>
            <path id="Trazado_989954" data-name="Trazado 989954" d="M4237.125,606.791a.345.345,0,0,1-.331-.252,29.884,29.884,0,0,0-8.577-13.887.344.344,0,0,1-.112-.245,103.087,103.087,0,0,0-1.454-14.256.344.344,0,1,1,.679-.117,103.848,103.848,0,0,1,1.459,14.207,30.593,30.593,0,0,1,8.668,14.112.345.345,0,0,1-.238.425A.336.336,0,0,1,4237.125,606.791Z" transform="translate(-4111.677 -522.05)" fill="#343a50"/>
            <path id="Trazado_989955" data-name="Trazado 989955" d="M3917.15,646.612a.345.345,0,0,1-.05-.686l6.733-.99a.345.345,0,1,1,.1.682l-6.733.99A.3.3,0,0,1,3917.15,646.612Z" transform="translate(-3872.239 -573.969)" fill="#343a50"/>
            <path id="Trazado_989956" data-name="Trazado 989956" d="M3916.3,667.651a.345.345,0,0,1-.071-.682,67.054,67.054,0,0,1,8.555-1.234.345.345,0,1,1,.054.687,66.4,66.4,0,0,0-8.466,1.221A.335.335,0,0,1,3916.3,667.651Z" transform="translate(-3871.58 -590.044)" fill="#343a50"/>
            <path id="Trazado_989957" data-name="Trazado 989957" d="M4054.717,731.781a.344.344,0,0,1-.268-.128l-4.161-5.148a.345.345,0,0,1,.537-.433l4.16,5.148a.345.345,0,0,1-.268.561Z" transform="translate(-3975.332 -636.574)" fill="#343a50"/>
            <path id="Trazado_989958" data-name="Trazado 989958" d="M4062.577,721.9a.345.345,0,0,1-.234-.091l-5.149-4.753a.345.345,0,0,1,.468-.507l5.148,4.753a.344.344,0,0,1,.02.487A.348.348,0,0,1,4062.577,721.9Z" transform="translate(-3980.643 -629.242)" fill="#343a50"/>
            <path id="Trazado_989959" data-name="Trazado 989959" d="M4104.859,620.586a.35.35,0,0,1-.116-.02l-5.545-1.98a.345.345,0,0,1,.232-.649l5.545,1.98a.345.345,0,0,1-.116.669Z" transform="translate(-4013.011 -553.091)" fill="#343a50"/>
            <path id="Trazado_989960" data-name="Trazado 989960" d="M4106.6,637.343a.352.352,0,0,1-.126-.024l-5.544-2.178a.345.345,0,1,1,.251-.642l5.544,2.178a.345.345,0,0,1-.125.666Z" transform="translate(-4014.356 -565.888)" fill="#343a50"/>
            <path id="Trazado_989961" data-name="Trazado 989961" d="M3940.686,736.147a.345.345,0,0,1-.195-.63l4.951-3.367a.345.345,0,0,1,.387.57l-4.951,3.366A.338.338,0,0,1,3940.686,736.147Z" transform="translate(-3890.426 -641.323)" fill="#343a50"/>
            <path id="Trazado_989962" data-name="Trazado 989962" d="M3952.018,749.061a.345.345,0,0,1-.264-.566l4.159-4.951a.345.345,0,0,1,.528.443l-4.159,4.951A.344.344,0,0,1,3952.018,749.061Z" transform="translate(-3899.183 -650.079)" fill="#343a50"/>
            <path id="Trazado_989963" data-name="Trazado 989963" d="M4195.187,786.061a.346.346,0,0,1-.337-.42l1.188-5.347a.345.345,0,0,1,.673.149l-1.188,5.347A.346.346,0,0,1,4195.187,786.061Z" transform="translate(-4087.099 -678.366)" fill="#343a50"/>
            <path id="Trazado_989964" data-name="Trazado 989964" d="M4210,790.459a.348.348,0,0,1-.066-.006.345.345,0,0,1-.272-.4l1.386-7.129a.345.345,0,0,1,.677.132l-1.386,7.129A.344.344,0,0,1,4210,790.459Z" transform="translate(-4098.544 -680.388)" fill="#343a50"/>
            <path id="Trazado_989965" data-name="Trazado 989965" d="M4263.167,804.483a.345.345,0,0,1-.345-.345V797.8a.344.344,0,1,1,.689,0v6.337A.346.346,0,0,1,4263.167,804.483Z" transform="translate(-4139.634 -691.837)" fill="#343a50"/>
            <path id="Trazado_989966" data-name="Trazado 989966" d="M4273.819,803.346a.344.344,0,0,1-.344-.325l-.394-6.931a.345.345,0,0,1,.688-.039l.394,6.931a.345.345,0,0,1-.325.364Z" transform="translate(-4147.562 -690.5)" fill="#343a50"/>
          </g>
          <g id="Grupo_1156370" data-name="Grupo 1156370" transform="translate(262.204 64.593)">
            <g id="Grupo_1156365" data-name="Grupo 1156365" transform="translate(0 8.057)">
              <rect id="Rectángulo_409583" data-name="Rectángulo 409583" width="66.284" height="88.12" transform="translate(0.375 0.375)" fill="#fff"/>
              <path id="Trazado_989967" data-name="Trazado 989967" d="M4405.909,723.524h-66.284a.375.375,0,0,1-.375-.375v-88.12a.375.375,0,0,1,.375-.375h66.284a.376.376,0,0,1,.375.375v88.12A.376.376,0,0,1,4405.909,723.524ZM4340,722.772h65.533V635.4H4340Z" transform="translate(-4339.25 -634.653)" fill="#343a50"/>
            </g>
            <g id="Grupo_1156366" data-name="Grupo 1156366" transform="translate(5.306 14.586)">
              <path id="Trazado_989968" data-name="Trazado 989968" d="M4417.951,736.8l-54.321-.951,1.634-71.442h52.688Z" transform="translate(-4363.396 -664.179)" fill="#fff" fill-rule="evenodd"/>
              <path id="Trazado_989969" data-name="Trazado 989969" d="M4417.157,736.245h0l-54.321-.951a.234.234,0,0,1-.229-.239l1.633-71.442a.234.234,0,0,1,.233-.228h52.688a.233.233,0,0,1,.233.234v72.393a.23.23,0,0,1-.07.167A.24.24,0,0,1,4417.157,736.245Zm-54.083-1.414,53.849.943V663.853H4364.7Z" transform="translate(-4362.603 -663.386)" fill="#343a50"/>
            </g>
            <g id="Grupo_1156367" data-name="Grupo 1156367" transform="translate(2.876 82.78)">
              <path id="Trazado_989970" data-name="Trazado 989970" d="M4409.683,968.74h-52.6a4.156,4.156,0,0,1-4.157-4.156v-.042h56.752Z" transform="translate(-4352.697 -964.308)" fill="#fff" fill-rule="evenodd"/>
              <path id="Trazado_989971" data-name="Trazado 989971" d="M4408.891,968.179h-52.6a4.394,4.394,0,0,1-4.389-4.389v-.042a.234.234,0,0,1,.233-.234h56.752a.233.233,0,0,1,.233.234v4.2A.235.235,0,0,1,4408.891,968.179Zm-56.514-4.2a3.927,3.927,0,0,0,3.917,3.731h52.362v-3.731Z" transform="translate(-4351.905 -963.514)" fill="#343a50"/>
            </g>
            <path id="Trazado_989972" data-name="Trazado 989972" d="M4436.788,629.779h-9.964a4.545,4.545,0,0,1-3.766-1.922,6.683,6.683,0,0,0-10.549,0,4.543,4.543,0,0,1-3.765,1.922h-9.964a3.459,3.459,0,0,1-3.615-3.27v-6.4a3.459,3.459,0,0,1,3.615-3.27h38.008a3.459,3.459,0,0,1,3.614,3.27v6.4A3.461,3.461,0,0,1,4436.788,629.779Zm-19-5.767a7.857,7.857,0,0,1,6.462,3.176,3.116,3.116,0,0,0,2.578,1.326h9.964a2.121,2.121,0,0,0,2.216-2v-6.4a2.12,2.12,0,0,0-2.216-2H4398.78a2.121,2.121,0,0,0-2.216,2v6.4a2.121,2.121,0,0,0,2.216,2h9.964a3.115,3.115,0,0,0,2.578-1.326A7.856,7.856,0,0,1,4417.784,624.012Z" transform="translate(-4382.461 -612.826)" fill="#343a50"/>
            <path id="Trazado_989973" data-name="Trazado 989973" d="M4455.448,818.593h-39.79a.289.289,0,0,1-.289-.289V818.3a.289.289,0,0,1,.289-.289h39.79a.289.289,0,0,1,.29.289v.006A.287.287,0,0,1,4455.448,818.593Z" transform="translate(-4398.074 -768.29)" fill="#343a50" fill-rule="evenodd"/>
            <path id="Trazado_989974" data-name="Trazado 989974" d="M4455.448,834.441h-39.79a.289.289,0,0,1-.289-.289v-.006a.289.289,0,0,1,.289-.289h39.79a.289.289,0,0,1,.29.289v.006A.287.287,0,0,1,4455.448,834.441Z" transform="translate(-4398.074 -780.537)" fill="#343a50" fill-rule="evenodd"/>
            <path id="Trazado_989975" data-name="Trazado 989975" d="M4455.448,850.288h-39.79a.289.289,0,0,1-.289-.289v-.006a.289.289,0,0,1,.289-.289h39.79a.289.289,0,0,1,.29.289V850A.287.287,0,0,1,4455.448,850.288Z" transform="translate(-4398.074 -792.784)" fill="#343a50" fill-rule="evenodd"/>
            <path id="Trazado_989976" data-name="Trazado 989976" d="M4457.55,905.708h-39.172a.289.289,0,0,1-.29-.289v-.006a.289.289,0,0,1,.29-.289h39.172a.289.289,0,0,1,.289.289v.006A.287.287,0,0,1,4457.55,905.708Z" transform="translate(-4400.175 -835.611)" fill="#343a50" fill-rule="evenodd"/>
            <path id="Trazado_989977" data-name="Trazado 989977" d="M4457.55,921.556h-39.172a.289.289,0,0,1-.29-.289v-.006a.289.289,0,0,1,.29-.289h39.172a.289.289,0,0,1,.289.289v.006A.287.287,0,0,1,4457.55,921.556Z" transform="translate(-4400.175 -847.858)" fill="#343a50" fill-rule="evenodd"/>
            <path id="Trazado_989978" data-name="Trazado 989978" d="M4457.55,937.4h-39.172a.289.289,0,0,1-.29-.289v-.006a.289.289,0,0,1,.29-.289h39.172a.289.289,0,0,1,.289.289v.006A.287.287,0,0,1,4457.55,937.4Z" transform="translate(-4400.175 -860.105)" fill="#343a50" fill-rule="evenodd"/>
            <rect id="Rectángulo_409584" data-name="Rectángulo 409584" width="29.926" height="7.155" transform="translate(19.677)" fill="#f2ac6e"/>
            <path id="Trazado_989979" data-name="Trazado 989979" d="M4386.864,773.337a4.506,4.506,0,1,1,4.506-4.506A4.511,4.511,0,0,1,4386.864,773.337Zm0-8.611a4.1,4.1,0,1,0,4.1,4.1A4.109,4.109,0,0,0,4386.864,764.727Z" transform="translate(-4372.563 -726.804)" fill="#343a50"/>
            <path id="Trazado_989980" data-name="Trazado 989980" d="M4386.864,869.33a4.506,4.506,0,1,1,4.506-4.506A4.511,4.511,0,0,1,4386.864,869.33Zm0-8.611a4.1,4.1,0,1,0,4.1,4.1A4.109,4.109,0,0,0,4386.864,860.72Z" transform="translate(-4372.563 -800.986)" fill="#343a50"/>
            <g id="Grupo_1156368" data-name="Grupo 1156368" transform="translate(12.759 39.159)">
              <path id="Trazado_989981" data-name="Trazado 989981" d="M4396.614,777.493v-5.207h-.019l-1.035.559-.156-.614,1.3-.7h.687v5.958Z" transform="translate(-4395.404 -771.535)" fill="#f17049"/>
            </g>
            <g id="Grupo_1156369" data-name="Grupo 1156369" transform="translate(12.217 60.669)">
              <path id="Trazado_989982" data-name="Trazado 989982" d="M4396.822,872.261h-3.8v-.5l.633-.614a16.459,16.459,0,0,0,1.732-1.833,2.15,2.15,0,0,0,.486-1.283,1.252,1.252,0,0,0-.275-.839,1.115,1.115,0,0,0-.9-.325,1.951,1.951,0,0,0-1.264.5l-.256-.568a2.514,2.514,0,0,1,1.677-.605,1.741,1.741,0,0,1,1.361.513,1.759,1.759,0,0,1,.462,1.219,2.531,2.531,0,0,1-.485,1.462,12.386,12.386,0,0,1-1.567,1.737l-.468.44v.018h2.667v.669Z" transform="translate(-4393.018 -866.202)" fill="#f17049"/>
            </g>
            <rect id="Rectángulo_409585" data-name="Rectángulo 409585" width="0.435" height="14.113" transform="translate(13.944 20.794)" fill="#f17049"/>
            <rect id="Rectángulo_409586" data-name="Rectángulo 409586" width="0.435" height="10.476" transform="translate(13.944 47.044)" fill="#f17049"/>
          </g>
          <g id="Grupo_1156373" data-name="Grupo 1156373" transform="translate(112.139 143.632)">
            <g id="Grupo_1156371" data-name="Grupo 1156371" transform="translate(0 9.266)">
              <rect id="Rectángulo_409587" data-name="Rectángulo 409587" width="54.687" height="57.342" transform="translate(0.365 11.249) rotate(-11.484)" fill="#fff"/>
              <path id="Trazado_989983" data-name="Trazado 989983" d="M3690.568,1055.607a.348.348,0,0,1-.341-.278l-11.417-56.194a.347.347,0,0,1,.271-.409l53.592-10.889a.347.347,0,0,1,.409.271L3744.5,1044.3a.346.346,0,0,1-.271.409l-53.591,10.889A.345.345,0,0,1,3690.568,1055.607Zm-11.009-56.271,11.279,55.514,52.912-10.75-11.28-55.514Z" transform="translate(-3678.803 -987.83)" fill="#343a50"/>
            </g>
            <g id="Grupo_1156372" data-name="Grupo 1156372" transform="translate(0.001 9.266)">
              <rect id="Rectángulo_409588" data-name="Rectángulo 409588" width="54.687" height="12.491" transform="translate(0.362 11.251) rotate(-11.484)" fill="#fff"/>
              <path id="Trazado_989984" data-name="Trazado 989984" d="M3681.641,1011.653a.347.347,0,0,1-.34-.278l-2.488-12.241a.347.347,0,0,1,.271-.409l53.591-10.889a.347.347,0,0,1,.409.271l2.487,12.241a.347.347,0,0,1-.271.409l-53.592,10.889A.326.326,0,0,1,3681.641,1011.653Zm-2.079-12.318,2.349,11.561,52.912-10.751-2.349-11.561Z" transform="translate(-3678.806 -987.829)" fill="#343a50"/>
            </g>
            <path id="Trazado_989985" data-name="Trazado 989985" d="M3769.068,973.172l-.211-.611-1.561-4.533-.21-.611-.763-2.218-.21-.611-.969-2.812-1.617-4.7-.21-.611a3.261,3.261,0,0,0-6.148,2.117l.21.611,1.338,3.885.944-.192-1.379-4a2.3,2.3,0,0,1,4.343-1.5l1.576,4.577,1.983,5.76.21.611.031-.011,1.56,4.533a3.189,3.189,0,0,1-6.024,2.075l-1.533-4.45.032-.011-.211-.611-2.283-6.629-3.321-9.645a4.022,4.022,0,0,1,7.581-2.611l3.666,10.645.944-.192-3.707-10.764-.211-.611a4.979,4.979,0,0,0-9.386,3.232l.21.611,3.28,9.526,1.321,3.837.211.611.792,2.3.21.611,1.532,4.45.21.611a4.111,4.111,0,0,0,7.767-2.674Z" transform="translate(-3736.374 -947.049)" fill="#f17049"/>
          </g>
          <g id="Grupo_1156375" data-name="Grupo 1156375" transform="translate(145.118 172.945)">
            <g id="Grupo_1156374" data-name="Grupo 1156374" transform="translate(0 1.795)">
              <circle id="Elipse_11731" data-name="Elipse 11731" cx="10.446" cy="10.446" r="10.446" transform="translate(0 14.773) rotate(-45)" fill="#fff"/>
              <path id="Trazado_989986" data-name="Trazado 989986" d="M3852.4,1123.116a10.762,10.762,0,1,1,10.762-10.762A10.774,10.774,0,0,1,3852.4,1123.116Zm0-20.891a10.13,10.13,0,1,0,10.13,10.13A10.141,10.141,0,0,0,3852.4,1102.225Z" transform="translate(-3837.617 -1097.586)" fill="#343a50"/>
            </g>
            <path id="Trazado_989987" data-name="Trazado 989987" d="M3910.167,1076.06l-14.967,18,22.29-12.958Z" transform="translate(-3879.01 -1076.06)" fill="#f2ac6e"/>
          </g>
          <g id="Grupo_1156377" data-name="Grupo 1156377" transform="translate(259.154 171.257)">
            <g id="Grupo_1156376" data-name="Grupo 1156376" transform="translate(2.719 0.486)">
              <path id="Trazado_989988" data-name="Trazado 989988" d="M4339.18,1098.571a26.415,26.415,0,0,0,26.415,26.415v-52.83A26.415,26.415,0,0,0,4339.18,1098.571Z" transform="translate(-4338.865 -1071.841)" fill="#fff"/>
              <path id="Trazado_989989" data-name="Trazado 989989" d="M4364.524,1124.231a26.731,26.731,0,0,1,0-53.462.317.317,0,0,1,.317.316v52.83A.318.318,0,0,1,4364.524,1124.231Zm-.315-52.828a26.1,26.1,0,0,0,0,52.194Z" transform="translate(-4337.794 -1070.769)" fill="#343a50"/>
            </g>
            <path id="Trazado_989990" data-name="Trazado 989990" d="M4513.56,1080.89v26.321l26.409-.452A26.413,26.413,0,0,0,4513.56,1080.89Z" transform="translate(-4470.904 -1078.104)" fill="#f2ac6e"/>
            <circle id="Elipse_11732" data-name="Elipse 11732" cx="7.287" cy="7.287" r="7.287" fill="#67bead"/>
            <path id="Trazado_989991" data-name="Trazado 989991" d="M4477.12,1223.294V1249.8a26.414,26.414,0,0,0,26.415-26.415q0-.273-.007-.546Z" transform="translate(-4442.744 -1187.802)" fill="#f17049"/>
          </g>
          <g id="Grupo_1156378" data-name="Grupo 1156378" transform="translate(104.203 45.408)">
            <path id="Trazado_989992" data-name="Trazado 989992" d="M3663.964,574.231a14.265,14.265,0,1,1,14.265-14.265A14.281,14.281,0,0,1,3663.964,574.231Zm0-27.258a12.993,12.993,0,1,0,12.993,12.993A13.008,13.008,0,0,0,3663.964,546.973Z" transform="translate(-3648.376 -538.671)" fill="#343a50"/>
            <path id="Trazado_989993" data-name="Trazado 989993" d="M3643.879,528.087l15.714,18,22.559-31.33-22.559,18.777Z" transform="translate(-3643.879 -514.761)" fill="#f2ac6e" fill-rule="evenodd"/>
          </g>
          <g id="Grupo_1156381" data-name="Grupo 1156381" transform="translate(0 33.086)">
            <path id="Trazado_989994" data-name="Trazado 989994" d="M3209.425,1165.369q-.266,1.148-.554,2.256c27.287,5.021,55.228-1.509,82.2-8l-4.489-28.268c-2.97-18.708-36.095-12.286-48.934-9.266-7.672,1.8-17.943,5.248-21.142,13.032C3212.9,1143.9,3211.686,1155.633,3209.425,1165.369Z" transform="translate(-3203.509 -969.026)" fill="#67bead"/>
            <path id="Trazado_989995" data-name="Trazado 989995" d="M3706.371,692.329q.034-.177.053-.353c.342-3.18-2.22-5.667-1.394-9.155a27.622,27.622,0,0,1,2.241-5.246,29.4,29.4,0,0,0,2.792-12.4,1.546,1.546,0,0,1,1.99.573,4.385,4.385,0,0,1,.582,2.189c.352,4.353.046,8.759.529,13.09a37.305,37.305,0,0,0,10.117-13.758,6.251,6.251,0,0,1,1.737-2.748c1.564-1.159,3.762-.472,5.567.254a7.253,7.253,0,0,1,3.335,2.13c2.164,2.967.6,8.562-.643,11.564-1.848,4.474-4.606,8.48-6.809,12.773-1.007,1.962-1.544,4.053-3.479,5.126-2.082,1.156-4.493,1.493-6.489,2.874-2.483,1.718-3.506,5.423-5.007,7.9a35.791,35.791,0,0,1-9.1-5.829,1.77,1.77,0,0,1-.655-.9,1.822,1.822,0,0,1,.444-1.307C3703.474,697.18,3705.912,694.715,3706.371,692.329Z" transform="translate(-3584.377 -617.689)" fill="#ffaec1"/>
            <path id="Trazado_989996" data-name="Trazado 989996" d="M3196.579,767.805c.944-4.959,2.089-10.117,5.314-14,4.806-5.786,12.957-7.328,20.447-8.024,13.186-1.226,30.838-2.664,42.1,5.871,8.915,6.759,11.419,18.917,12.775,30.022a366.921,366.921,0,0,1,.542,84.132,239.431,239.431,0,0,1-92.48.249C3189.292,833.121,3190.4,800.245,3196.579,767.805Z" transform="translate(-3185.274 -680.247)" fill="#343a50"/>
            <path id="Trazado_989997" data-name="Trazado 989997" d="M3467.756,828.389c1.691,1.679,3.813,3.445,6.16,3.031,4.6-.812,7.916-6.857,10.414-10.246a172.726,172.726,0,0,0,9.811-14.987c6.163-10.487,11.432-21.464,16.683-32.425l-12.96-9.951c-.937-.72-19.12,25.183-20.6,27.508-4.6-12.249-26.641-55.757-40.287-25.9C3427.686,785.749,3454.6,815.321,3467.756,828.389Z" transform="translate(-3378.31 -688.202)" fill="#343a50"/>
            <g id="Grupo_1156380" data-name="Grupo 1156380" transform="translate(23.379)">
              <path id="Trazado_989998" data-name="Trazado 989998" d="M3342.271,616.785a2.037,2.037,0,0,0,.1,1.27,2,2,0,0,0,1.355.772,39.7,39.7,0,0,0,21.638-.821q-.157-15.026-.942-30.037c-.2-3.835-.63-8.1-3.512-10.636-6.268-5.523-13.439,1.38-14.427,7.606C3344.814,595.5,3343.673,606.181,3342.271,616.785Z" transform="translate(-3329.939 -549.235)" fill="#ffaec1"/>
              <path id="Trazado_989999" data-name="Trazado 989999" d="M3363.932,500.564a30.789,30.789,0,0,0,6.765,6.7c3.792,2.872,8.316,5.164,13.069,4.984a4.791,4.791,0,0,0,2.115-.467c1.737-.941,1.8-3.923,2.184-5.681a76.613,76.613,0,0,0,1.272-7.788,3.147,3.147,0,0,1,.452-1.559,13.435,13.435,0,0,1,2.744-2.285c.62-.441,1.309-1.021,1.253-1.779a2.432,2.432,0,0,0-.666-1.251c-5.649-7.1-2.809-26.122-16.655-25.185-9.41.637-13.555,10.3-14.526,18.49a43,43,0,0,0-.181,7.05c.1,2.055-.028,4.572.825,6.427A15.964,15.964,0,0,0,3363.932,500.564Z" transform="translate(-3344.988 -464.927)" fill="#ffaec1"/>
              <path id="Trazado_990000" data-name="Trazado 990000" d="M3297.692,489.855q.025.226.039.453c.225,3.88-2.4,7.337-3.085,11.163-1.2,6.68,2.458,12.714-.211,19.353-2.43,6.047-6.022,11.942-6.269,18.622,3.558.679,7.3-1.161,10.8-.214,2.375.643,4.249,2.479,6.54,3.377a17.713,17.713,0,0,0,5.387.907l8.582.544a4.1,4.1,0,0,0,2-.2,2.819,2.819,0,0,0,1.4-2.721,9.136,9.136,0,0,0-.932-3.091,20.243,20.243,0,0,1-1.767-6.186c-.323-3.88,1.191-7.973-.273-11.58-.385-.947-.963-1.814-1.271-2.788-.7-2.217.083-4.59.567-6.864a53.019,53.019,0,0,0,.642-12.565,11.7,11.7,0,0,0-.428-3.379c-.338-1.015-.951-1.926-1.239-2.956-.875-3.138,1.415-6.2,2.117-9.382.983-4.448-1.188-9.183-.031-13.589a10.135,10.135,0,0,1,3.85,6.912c4.327-3.213,10.418-3.362,14.585-6.781a.934.934,0,0,0,.419-.624.953.953,0,0,0-.353-.648,23.857,23.857,0,0,0-18.946-6.989c-4.525.411-8.078,2.49-11.943,4.57-3.7,1.992-6.821,4.142-8.965,7.9a18.656,18.656,0,0,0-2.01,13.086A36.759,36.759,0,0,1,3297.692,489.855Z" transform="translate(-3288.166 -460.531)" fill="#f17049"/>
              <path id="Trazado_990001" data-name="Trazado 990001" d="M3452.634,618.139a5.922,5.922,0,0,0-1.736-.853,1.159,1.159,0,0,0-1.072.294,1.121,1.121,0,0,0-.244.568,2.89,2.89,0,0,0,.67,2.067,7.352,7.352,0,0,0,3.282,2.539,2.483,2.483,0,0,0,1.047.213,1.085,1.085,0,0,0,.894-.514,1.67,1.67,0,0,0,.129-.82c-.009-.668.257-2.453-.25-2.829-.223-.166-1.117-.084-1.432-.162A4.71,4.71,0,0,1,3452.634,618.139Z" transform="translate(-3412.888 -581.65)" fill="#f17049"/>
              <path id="Trazado_990002" data-name="Trazado 990002" d="M3427.513,488.914a.265.265,0,0,1-.265-.255,1.7,1.7,0,0,0-.9-1.4,3.622,3.622,0,0,0-.488-.19,3.19,3.19,0,0,1-.718-.311,3,3,0,0,1-.9-1.049c-.154-.258-.3-.523-.445-.779a13.721,13.721,0,0,0-1.094-1.743,3.862,3.862,0,0,0-2.262-1.529,5.438,5.438,0,0,0-2.118.208,10.393,10.393,0,0,1-1.343.245.266.266,0,1,1-.049-.529,9.966,9.966,0,0,0,1.274-.234,5.911,5.911,0,0,1,2.326-.214,4.378,4.378,0,0,1,2.591,1.726,14.182,14.182,0,0,1,1.138,1.81c.142.253.288.515.438.766a2.552,2.552,0,0,0,.734.873,2.744,2.744,0,0,0,.6.256,4.082,4.082,0,0,1,.56.22,2.215,2.215,0,0,1,1.19,1.857.266.266,0,0,1-.255.276Z" transform="translate(-3387.483 -476.412)" fill="#343a50"/>
              <path id="Trazado_990003" data-name="Trazado 990003" d="M3445.122,476.542a.265.265,0,0,1-.264-.244,1.95,1.95,0,0,0-1.052-1.428,6.257,6.257,0,0,0-1.928-.571,6.2,6.2,0,0,1-4.255-2.075c-.238-.232-.483-.472-.737-.685a6.727,6.727,0,0,0-6.358-1.2.266.266,0,0,1-.17-.5,7.27,7.27,0,0,1,6.87,1.3c.268.226.521.473.765.711a5.707,5.707,0,0,0,3.98,1.933,6.742,6.742,0,0,1,2.091.629,2.422,2.422,0,0,1,1.322,1.849.266.266,0,0,1-.243.286Z" transform="translate(-3397.91 -467.441)" fill="#343a50"/>
              <path id="Trazado_990004" data-name="Trazado 990004" d="M3452.8,622a.272.272,0,0,1-.053-.005,14.349,14.349,0,0,1-3.152-.9,7.4,7.4,0,0,1-3.141-2.743.266.266,0,0,1,.449-.284,6.857,6.857,0,0,0,2.912,2.544,13.95,13.95,0,0,0,3.037.858.266.266,0,0,1-.053.526Z" transform="translate(-3410.455 -582.177)" fill="#343a50"/>
              <path id="Trazado_990005" data-name="Trazado 990005" d="M3405.125,525.427a.263.263,0,0,1-.042,0,.266.266,0,0,1-.221-.3,9.856,9.856,0,0,1,1.056-2.8,11.877,11.877,0,0,0,.9-2.155c.59-2.2-.143-4.464-1.087-6.986a.266.266,0,0,1,.5-.186c.977,2.609,1.734,4.96,1.1,7.31a12.258,12.258,0,0,1-.941,2.254,9.3,9.3,0,0,0-1.007,2.648A.266.266,0,0,1,3405.125,525.427Z" transform="translate(-3378.344 -500.938)" fill="#343a50"/>
              <path id="Trazado_990006" data-name="Trazado 990006" d="M3402.2,647.7h-.027a.266.266,0,0,1-.237-.292,29.549,29.549,0,0,0-.5-7.4,26.121,26.121,0,0,1-.355-8.509c.11-.613.265-1.223.415-1.813a17,17,0,0,0,.529-2.676,17.243,17.243,0,0,0-.413-4.474,10.848,10.848,0,0,1,.631-8.117,12.075,12.075,0,0,0,.938-2.856,12.907,12.907,0,0,0-.9-5.629c-.708-2.26-1.441-4.6-.585-6.832a.266.266,0,1,1,.5.19c-.789,2.062-.116,4.209.6,6.483a13.281,13.281,0,0,1,.921,5.867,12.656,12.656,0,0,1-.974,2.983,14.129,14.129,0,0,0-.875,2.508,13.748,13.748,0,0,0,.278,5.309,17.637,17.637,0,0,1,.419,4.614,17.3,17.3,0,0,1-.542,2.761c-.147.581-.3,1.182-.406,1.776a25.711,25.711,0,0,0,.357,8.336,29.959,29.959,0,0,1,.5,7.538A.265.265,0,0,1,3402.2,647.7Z" transform="translate(-3375.25 -567.48)" fill="#343a50"/>
              <path id="Trazado_990007" data-name="Trazado 990007" d="M3377.795,534.494l-.034,0a.265.265,0,0,1-.229-.3,24.624,24.624,0,0,0-.411-8.614c-.127-.559-.276-1.126-.421-1.674a22.96,22.96,0,0,1-.771-3.783,11.743,11.743,0,0,1,.952-5.757c.288-.656.64-1.295.981-1.913a11.107,11.107,0,0,0,1.542-3.831c.27-2.037-.6-4.029-1.585-6.06a.266.266,0,1,1,.478-.233c1.027,2.107,1.924,4.178,1.634,6.362a11.671,11.671,0,0,1-1.6,4.018c-.335.608-.682,1.237-.96,1.871a11.211,11.211,0,0,0-.909,5.5,22.588,22.588,0,0,0,.756,3.694c.146.552.3,1.124.425,1.692a25.143,25.143,0,0,1,.42,8.8A.265.265,0,0,1,3377.795,534.494Z" transform="translate(-3355.952 -492.717)" fill="#343a50"/>
              <path id="Trazado_990008" data-name="Trazado 990008" d="M3370.8,699.435a.266.266,0,0,1-.255-.341c.9-3.023,2.021-6.785,1.025-10.195-.15-.513-.352-1.031-.547-1.532a6.929,6.929,0,0,1,.354-7.175c.1-.217.208-.434.308-.651.525-1.141,1.155-2.824.554-4.267a.266.266,0,0,1,.491-.2c.68,1.636,0,3.462-.563,4.694-.1.219-.206.438-.311.658a8.819,8.819,0,0,0-1.136,3.6,8.575,8.575,0,0,0,.8,3.149c.2.511.4,1.04.561,1.576,1.04,3.56-.105,7.406-1.026,10.5A.265.265,0,0,1,3370.8,699.435Z" transform="translate(-3351.55 -626.196)" fill="#343a50"/>
              <path id="Trazado_990009" data-name="Trazado 990009" d="M3323.853,712.323a.265.265,0,0,1-.261-.221c-.4-2.341.6-4.627,1.751-6.748l.29-.534a13.907,13.907,0,0,0,2.134-5.768,14.857,14.857,0,0,0-.231-2.8c-.242-1.661-.492-3.379.292-4.9a.266.266,0,0,1,.473.243c-.707,1.374-.479,2.933-.239,4.584a15.2,15.2,0,0,1,.236,2.906,14.288,14.288,0,0,1-2.2,6l-.289.532c-1.1,2.037-2.07,4.223-1.694,6.405a.266.266,0,0,1-.217.307A.322.322,0,0,1,3323.853,712.323Z" transform="translate(-3315.472 -638.789)" fill="#343a50"/>
              <path id="Trazado_990010" data-name="Trazado 990010" d="M3348.715,580.8a.266.266,0,0,1-.262-.313,18.344,18.344,0,0,1,2.076-5.778c.132-.234.27-.469.409-.707.838-1.432,1.705-2.914,1.423-4.449a6.539,6.539,0,0,0-.365-1.15,6.753,6.753,0,0,1-.4-1.291,7.076,7.076,0,0,1,.381-3.044,5.124,5.124,0,0,0,.218-3.227.266.266,0,1,1,.494-.194,5.583,5.583,0,0,1-.2,3.562,6.7,6.7,0,0,0-.37,2.814,6.312,6.312,0,0,0,.372,1.189,6.991,6.991,0,0,1,.391,1.245c.319,1.73-.6,3.3-1.487,4.814-.137.235-.273.468-.4.7a17.819,17.819,0,0,0-2.016,5.611A.266.266,0,0,1,3348.715,580.8Z" transform="translate(-3334.751 -537.769)" fill="#343a50"/>
              <g id="Grupo_1156379" data-name="Grupo 1156379" transform="translate(36.757 20.285)">
                <path id="Trazado_990011" data-name="Trazado 990011" d="M3456.218,550.883a6.343,6.343,0,0,1-3.225,1.2,6.811,6.811,0,0,1-3.059-.824,9.367,9.367,0,0,1,2.923-1.382,5.872,5.872,0,0,1,3.626.815C3456.395,550.754,3456.306,550.82,3456.218,550.883Z" transform="translate(-3449.934 -549.807)" fill="#fff"/>
                <path id="Trazado_990012" data-name="Trazado 990012" d="M3466.173,549.825a2.878,2.878,0,0,0,.255,1.81,3.135,3.135,0,0,0,.158.281,7.081,7.081,0,0,0,2.14-1.019q.135-.095.265-.2A7.367,7.367,0,0,0,3466.173,549.825Z" transform="translate(-3462.443 -549.821)" fill="#343a50"/>
              </g>
              <path id="Trazado_990013" data-name="Trazado 990013" d="M3449.513,525.846c-.054-.974-1.308-1.253-2.082-1.107a4.453,4.453,0,0,0-1.424.6c-.721.429-4.5,2.955-2.914,3.874C3444.282,529.9,3449.581,527.081,3449.513,525.846Z" transform="translate(-3407.592 -510.121)" fill="#343a50"/>
              <path id="Trazado_990014" data-name="Trazado 990014" d="M3479.038,590.617a.213.213,0,0,1-.187-.313,3.562,3.562,0,0,1,1.959-1.671.213.213,0,0,1,.139.4,3.131,3.131,0,0,0-1.722,1.469A.217.217,0,0,1,3479.038,590.617Z" transform="translate(-3435.504 -559.517)" fill="#343a50"/>
              <path id="Trazado_990015" data-name="Trazado 990015" d="M3472.713,591.393a.213.213,0,0,1-.073-.013,2.342,2.342,0,0,1-1.458-1.252,3.056,3.056,0,0,1-.134-1.242c0-.159.01-.309,0-.458a.213.213,0,0,1,.425-.014c.005.163,0,.327,0,.485a2.7,2.7,0,0,0,.1,1.073,2,2,0,0,0,1.208,1.009.213.213,0,0,1-.073.413Z" transform="translate(-3429.489 -559.197)" fill="#343a50"/>
            </g>
            <path id="Trazado_990016" data-name="Trazado 990016" d="M3281.155,834.356c-2.528,3.7-5.178,8.04-4.02,12.37.624,2.332,2.277,4.232,3.917,6Z" transform="translate(-3256.046 -749.416)" fill="#fff"/>
            <path id="Trazado_990017" data-name="Trazado 990017" d="M3252.65,977.963c-2.619,4.05-5.342,8.473-5.043,13.287.252,4.054,2.618,7.633,4.955,10.956Z" transform="translate(-3233.426 -860.393)" fill="#fff"/>
            <path id="Trazado_990018" data-name="Trazado 990018" d="M3359.533,843.933c-1.788,4.132-3.614,8.474-3.252,12.962.27,3.349,1.741,6.467,3.188,9.5Z" transform="translate(-3317.389 -756.817)" fill="#fff"/>
            <path id="Trazado_990019" data-name="Trazado 990019" d="M3337.964,1024.43c-.477,4.847-2.794,9.557-2.124,14.381.533,3.835,2.9,7.161,5.5,10.032Z" transform="translate(-3301.535 -896.302)" fill="#fff"/>
            <path id="Trazado_990020" data-name="Trazado 990020" d="M3463.19,812.115a19.416,19.416,0,0,0-3.353,22.422Z" transform="translate(-3395.784 -732.229)" fill="#fff"/>
            <path id="Trazado_990021" data-name="Trazado 990021" d="M3436.505,1031.31c-1.519,4.748-3.053,9.8-1.859,14.638.927,3.759,3.4,6.924,5.009,10.444Z" transform="translate(-3377.655 -901.619)" fill="#fff"/>
            <path id="Trazado_990022" data-name="Trazado 990022" d="M3245.312,1138.45c-.518,3.4-1.8,6.705-1.769,10.145a13.7,13.7,0,0,0,4.917,10.32Z" transform="translate(-3230.303 -984.415)" fill="#fff"/>
            <path id="Trazado_990023" data-name="Trazado 990023" d="M3497.07,941.389l4.213,8.331a8.97,8.97,0,0,0,1.565,2.411c2.351,2.323,6.313,1.426,9.4,2.6Z" transform="translate(-3426.224 -832.129)" fill="#fff"/>
            <path id="Trazado_990024" data-name="Trazado 990024" d="M3534.51,864.614a15.263,15.263,0,0,0,12.971,12.735Z" transform="translate(-3455.157 -772.799)" fill="#fff"/>
            <path id="Trazado_990025" data-name="Trazado 990025" d="M3641.55,946.677a24.635,24.635,0,0,0,11.017-14.914Z" transform="translate(-3537.876 -824.691)" fill="#fff"/>
            <path id="Trazado_990026" data-name="Trazado 990026" d="M3677.59,854.451a29.218,29.218,0,0,0,10.924-13.9Z" transform="translate(-3565.727 -754.208)" fill="#fff"/>
            <path id="Trazado_990027" data-name="Trazado 990027" d="M3508.376,1138.4c-.6,7.238-.4,15.065,3.8,20.987Z" transform="translate(-3434.77 -984.376)" fill="#fff"/>
            <path id="Trazado_990028" data-name="Trazado 990028" d="M3381.164,1158.23c-.764,4.222-1.5,8.743.236,12.668a17.027,17.027,0,0,0,5.159,6.126Z" transform="translate(-3336.015 -999.7)" fill="#fff"/>
            <path id="Trazado_990029" data-name="Trazado 990029" d="M3468.366,922.443a.265.265,0,0,1-.2-.092c-6.511-7.554-12.3-14.417-17.231-21.908-5.729-8.706-9.307-16.9-10.94-25.057a.266.266,0,1,1,.521-.1c3.7,18.466,16.636,33.478,28.053,46.723a.266.266,0,0,1-.028.375A.27.27,0,0,1,3468.366,922.443Z" transform="translate(-3382.113 -780.877)" fill="#fff"/>
            <path id="Trazado_990030" data-name="Trazado 990030" d="M3613.547,944.065h-.013a.265.265,0,0,1-.252-.278,103.753,103.753,0,0,0-.076-11.445.266.266,0,0,1,.249-.282.263.263,0,0,1,.282.249,104.221,104.221,0,0,1,.076,11.5A.265.265,0,0,1,3613.547,944.065Z" transform="translate(-3515.972 -824.92)" fill="#fff"/>
            <path id="Trazado_990031" data-name="Trazado 990031" d="M3625.916,938.432a.265.265,0,0,1-.258-.2l-2.591-10.732a.266.266,0,0,1,.517-.125l2.591,10.732a.266.266,0,0,1-.2.321A.28.28,0,0,1,3625.916,938.432Z" transform="translate(-3523.587 -821.14)" fill="#fff"/>
            <path id="Trazado_990032" data-name="Trazado 990032" d="M3435.851,660.336a7.951,7.951,0,0,1-5.548-2.275.213.213,0,1,1,.3-.3,7.491,7.491,0,0,0,6.131,2.094.213.213,0,1,1,.054.422A7.353,7.353,0,0,1,3435.851,660.336Z" transform="translate(-3374.58 -612.899)" fill="#343a50"/>
            <path id="Trazado_990033" data-name="Trazado 990033" d="M3785.937,686.282a.266.266,0,0,1-.214-.422,51.926,51.926,0,0,0,7.856-15.885.266.266,0,1,1,.509.151,52.459,52.459,0,0,1-7.937,16.047A.261.261,0,0,1,3785.937,686.282Z" transform="translate(-3649.25 -622.238)" fill="#343a50"/>
            <path id="Trazado_990034" data-name="Trazado 990034" d="M3806.418,693.951a.266.266,0,0,1-.237-.387q.43-.842.863-1.684c1.07-2.084,2.177-4.239,3.18-6.395,1.336-2.87,2.433-5.9,3.531-9a.266.266,0,1,1,.5.177c-1.1,3.118-2.2,6.157-3.55,9.048-1.008,2.165-2.117,4.325-3.19,6.413q-.432.841-.863,1.682A.264.264,0,0,1,3806.418,693.951Z" transform="translate(-3665.077 -627.279)" fill="#343a50"/>
            <path id="Trazado_990035" data-name="Trazado 990035" d="M3257.39,479.842c-3.613,3.718-3.59,9.776-6.748,13.888-2.146,2.793-5.508,4.361-8.043,6.806s-4.1,6.736-1.789,9.392c1.295,1.486,3.557,2.511,5.13,3.676,2.564,1.9,5.055,3.907,7.582,5.856a44.219,44.219,0,0,0,2.193-12.316,13.562,13.562,0,0,1,.663-4.828c1.038-2.474,3.586-3.914,5.335-5.947,2.768-3.217,3.149-7.71,5.915-11.13,1.806-2.234,7.053-6.837,2.215-8.885C3266.345,474.872,3259.846,477.314,3257.39,479.842Z" transform="translate(-3227.319 -472.411)" fill="#f17049"/>
            <path id="Trazado_990036" data-name="Trazado 990036" d="M3288.857,593.179a.266.266,0,0,1-.232-.395,16.239,16.239,0,0,0,1.847-6.291,9.945,9.945,0,0,1,.673-2.755,15.946,15.946,0,0,1,1.487-2.461,10.853,10.853,0,0,0,1.8-3.422.266.266,0,1,1,.513.139,11.424,11.424,0,0,1-1.874,3.586,15.445,15.445,0,0,0-1.441,2.38,9.511,9.511,0,0,0-.63,2.61,16.9,16.9,0,0,1-1.909,6.473A.267.267,0,0,1,3288.857,593.179Z" transform="translate(-3265.116 -551.045)" fill="#343a50"/>
            <path id="Trazado_990037" data-name="Trazado 990037" d="M3322.677,528.624a.266.266,0,0,1-.2-.441,37.157,37.157,0,0,0,5.884-9.066.266.266,0,0,1,.483.221,37.7,37.7,0,0,1-5.968,9.2A.262.262,0,0,1,3322.677,528.624Z" transform="translate(-3291.251 -505.685)" fill="#343a50"/>
            <path id="Trazado_990038" data-name="Trazado 990038" d="M3308.126,507.967a.261.261,0,0,1-.087-.015.265.265,0,0,1-.163-.338,37.883,37.883,0,0,1,3.5-7.543.265.265,0,0,1,.168-.121,5.256,5.256,0,0,0,3.119-2.11,11.71,11.71,0,0,0,.846-1.546,5.835,5.835,0,0,1,2.088-2.756.266.266,0,1,1,.266.46,5.371,5.371,0,0,0-1.877,2.528,12.058,12.058,0,0,1-.887,1.617,5.8,5.8,0,0,1-3.326,2.3,37.454,37.454,0,0,0-3.4,7.348A.263.263,0,0,1,3308.126,507.967Z" transform="translate(-3280.007 -486.009)" fill="#343a50"/>
            <path id="Trazado_990039" data-name="Trazado 990039" d="M3260.737,585.2a.266.266,0,0,1-.239-.382,10.931,10.931,0,0,0,.588-1.642,6.1,6.1,0,0,1,3.013-4.187c.291-.209.592-.425.871-.65a9.331,9.331,0,0,0,2.518-3.168.266.266,0,0,1,.478.232,9.869,9.869,0,0,1-2.662,3.349c-.29.234-.6.455-.894.668a5.607,5.607,0,0,0-2.814,3.908,11.353,11.353,0,0,1-.619,1.722A.266.266,0,0,1,3260.737,585.2Z" transform="translate(-3243.385 -549.005)" fill="#343a50"/>
            <path id="Trazado_990040" data-name="Trazado 990040" d="M3806.311,668.091c.476-.763,1.217-2.256,1.007-3.191-.2-.878-1.378-.823-1.958-.361-.757.6-.861,1.991-.925,2.886C3804.343,668.7,3805.527,669.348,3806.311,668.091Z" transform="translate(-3663.746 -617.931)" fill="#f17049"/>
            <path id="Trazado_990041" data-name="Trazado 990041" d="M3823.417,671.605a1.291,1.291,0,0,0,.845,1.04.725.725,0,0,0,.46-.013,1.036,1.036,0,0,0,.373-.3,5.209,5.209,0,0,0,1.172-2.351,2.069,2.069,0,0,0-.114-1.43,1.3,1.3,0,0,0-2.286.1A6.784,6.784,0,0,0,3823.417,671.605Z" transform="translate(-3678.395 -620.796)" fill="#f17049"/>
            <path id="Trazado_990042" data-name="Trazado 990042" d="M3839.517,683.316a2.006,2.006,0,0,0-.073.764.783.783,0,0,0,.418.612.977.977,0,0,0,.918-.19,3.675,3.675,0,0,0,1.344-2.966.964.964,0,0,0-1.565-.829C3839.975,681.177,3839.68,682.635,3839.517,683.316Z" transform="translate(-3690.794 -630.505)" fill="#f17049"/>
          </g>
          <g id="Grupo_1156382" data-name="Grupo 1156382" transform="translate(301.439)">
            <path id="Trazado_990043" data-name="Trazado 990043" d="M4598.808,411.854l-.688,20.538,27.845-12.146Z" transform="translate(-4578.535 -389.828)" fill="#67bead"/>
            <rect id="Rectángulo_409589" data-name="Rectángulo 409589" width="1.376" height="44.677" transform="translate(18.896 22.026)" fill="#343a50"/>
            <path id="Trazado_990044" data-name="Trazado 990044" d="M4596.115,441.885h-2.127V392.577h1.906l.034.01,32.682,9.368-32.494,13.15Zm-1.625-.5h1.126V414.767l31.46-12.732-31.251-8.957h-1.335Z" transform="translate(-4575.342 -374.931)" fill="#343a50"/>
            <path id="Trazado_990045" data-name="Trazado 990045" d="M4531.619,336.4l-.688,20.538,27.845-12.146Z" transform="translate(-4526.613 -331.516)" fill="#f17049"/>
            <rect id="Rectángulo_409590" data-name="Rectángulo 409590" width="1.376" height="44.677" transform="translate(3.629 4.881)" fill="#343a50"/>
            <path id="Trazado_990046" data-name="Trazado 990046" d="M4514.055,369.856h-2.127V314.917h2.227l.036.011,33.585,10.3-33.721,14.513Zm-1.627-.5h1.126V339.411l32.772-14.1-32.247-9.889h-1.651Z" transform="translate(-4511.927 -314.917)" fill="#343a50"/>
          </g>
        </g>
      </g>
    </g>
  </g>
</svg>
