<svg xmlns="http://www.w3.org/2000/svg" xmlns:xlink="http://www.w3.org/1999/xlink" width="108" height="108" viewBox="0 0 108 108">
  <defs>
    <filter id="Trazado_982547" x="0" y="0" width="108" height="108" filterUnits="userSpaceOnUse">
      <feOffset dy="3" input="SourceAlpha"/>
      <feGaussianBlur stdDeviation="3" result="blur"/>
      <feFlood flood-opacity="0.161"/>
      <feComposite operator="in" in2="blur"/>
      <feComposite in="SourceGraphic"/>
    </filter>
  </defs>
  <g id="Grupo_1156496" data-name="Grupo 1156496" transform="translate(-616 -315)">
    <g id="Grupo_1154033" data-name="Grupo 1154033" transform="translate(0 -3595)">
      <g id="Grupo_1153177" data-name="Grupo 1153177" transform="translate(362 3397)">
        <g id="Grupo_1149598" data-name="Grupo 1149598" transform="translate(80 315)">
          <g id="Grupo_1148770" data-name="Grupo 1148770" transform="translate(-27 -2583)">
            <g id="Grupo_1146954" data-name="Grupo 1146954" transform="translate(-415 -1202)">
              <g transform="matrix(1, 0, 0, 1, 616, 3983)" filter="url(#Trazado_982547)">
                <g id="Trazado_982547-2" data-name="Trazado 982547" transform="translate(9 6)" fill="#fcf3f0">
                  <path d="M 45 88.5 C 39.12687683105469 88.5 33.43022537231445 87.35007476806641 28.06830024719238 85.08217620849609 C 22.88852500915527 82.89131164550781 18.23629951477051 79.75458526611328 14.2408504486084 75.75914764404297 C 10.24541282653809 71.76370239257812 7.108687400817871 67.11147308349609 4.917825222015381 61.93170166015625 C 2.649924993515015 56.56977462768555 1.5 50.87312316894531 1.5 45 C 1.5 39.12687683105469 2.649924993515015 33.43022537231445 4.917825222015381 28.06830024719238 C 7.108687400817871 22.88852500915527 10.24541282653809 18.23629951477051 14.2408504486084 14.2408504486084 C 18.23629951477051 10.24541282653809 22.88852500915527 7.108687400817871 28.06830024719238 4.917825222015381 C 33.43022537231445 2.649924993515015 39.12687683105469 1.5 45 1.5 C 50.87312316894531 1.5 56.56977462768555 2.649924993515015 61.93170166015625 4.917825222015381 C 67.11147308349609 7.108687400817871 71.76370239257812 10.24541282653809 75.75914764404297 14.2408504486084 C 79.75458526611328 18.23629951477051 82.89131164550781 22.88852500915527 85.08217620849609 28.06830024719238 C 87.35007476806641 33.43022537231445 88.5 39.12687683105469 88.5 45 C 88.5 50.87312316894531 87.35007476806641 56.56977462768555 85.08217620849609 61.93170166015625 C 82.89131164550781 67.11147308349609 79.75458526611328 71.76370239257812 75.75914764404297 75.75914764404297 C 71.76370239257812 79.75458526611328 67.11147308349609 82.89131164550781 61.93170166015625 85.08217620849609 C 56.56977462768555 87.35007476806641 50.87312316894531 88.5 45 88.5 Z" stroke="none"/>
                  <path d="M 45 3 C 39.32871246337891 3 33.82865524291992 4.110054016113281 28.65262985229492 6.299339294433594 C 23.65165710449219 8.414573669433594 19.15968322753906 11.44334411621094 15.301513671875 15.301513671875 C 11.44334411621094 19.15968322753906 8.414573669433594 23.65165710449219 6.299339294433594 28.65262985229492 C 4.110054016113281 33.82865524291992 3 39.32871246337891 3 45 C 3 50.67128753662109 4.110054016113281 56.17134475708008 6.299339294433594 61.34737396240234 C 8.414573669433594 66.34834289550781 11.44334411621094 70.84031677246094 15.301513671875 74.698486328125 C 19.15968322753906 78.55665588378906 23.65165710449219 81.58542633056641 28.65262985229492 83.70066070556641 C 33.82865524291992 85.88994598388672 39.32871246337891 87 45 87 C 50.67128753662109 87 56.17134475708008 85.88994598388672 61.34737396240234 83.70066070556641 C 66.34834289550781 81.58542633056641 70.84031677246094 78.55665588378906 74.698486328125 74.698486328125 C 78.55665588378906 70.84031677246094 81.58542633056641 66.34834289550781 83.70066070556641 61.34737396240234 C 85.88994598388672 56.17134475708008 87 50.67128753662109 87 45 C 87 39.32871246337891 85.88994598388672 33.82865524291992 83.70066070556641 28.65262985229492 C 81.58542633056641 23.65165710449219 78.55665588378906 19.15968322753906 74.698486328125 15.301513671875 C 70.84031677246094 11.44334411621094 66.34834289550781 8.414573669433594 61.34737396240234 6.299339294433594 C 56.17134475708008 4.110054016113281 50.67128753662109 3 45 3 M 45 0 C 69.85281372070312 0 90 20.14718627929688 90 45 C 90 69.85281372070312 69.85281372070312 90 45 90 C 20.14718627929688 90 0 69.85281372070312 0 45 C 0 20.14718627929688 20.14718627929688 0 45 0 Z" stroke="none" fill="#e89076"/>
                </g>
              </g>
            </g>
          </g>
        </g>
      </g>
    </g>
    <g id="analitica_1_" data-name="analitica (1)" transform="translate(644 340)">
      <path id="Trazado_990562" data-name="Trazado 990562" d="M17.211,52.234h-3.2A4.006,4.006,0,0,1,10,48.228V14.006A4.006,4.006,0,0,1,14.006,10H55.267a4.006,4.006,0,0,1,4.006,4.006V48.228a4.006,4.006,0,0,1-4.006,4.006H17.211Z" transform="translate(-8.999 -8.999)" fill="#fff"/>
      <path id="Trazado_990563" data-name="Trazado 990563" d="M55.267,10H14.006A4.006,4.006,0,0,0,10,14.006v3.2H59.273v-3.2A4.006,4.006,0,0,0,55.267,10Z" transform="translate(-8.999 -8.999)" fill="#ff5a5a"/>
      <path id="Trazado_990564" data-name="Trazado 990564" d="M21,82h47.57" transform="translate(-18.9 -73.788)" fill="#231f20"/>
      <rect id="Rectángulo_409632" data-name="Rectángulo 409632" width="6.554" height="10.923" transform="translate(5.462 39.323)" fill="#a5dc69"/>
      <rect id="Rectángulo_409633" data-name="Rectángulo 409633" width="6.554" height="13.108" transform="translate(28.4 37.138)" fill="#78d2fa"/>
      <rect id="Rectángulo_409634" data-name="Rectángulo 409634" width="6.41" height="22.09" transform="translate(16.825 28.185)" fill="#f5c86e"/>
      <rect id="Rectángulo_409635" data-name="Rectángulo 409635" width="6.41" height="23.585" transform="translate(39.258 26.69)" fill="#ff5a5a"/>
      <circle id="Elipse_11742" data-name="Elipse 11742" cx="2.604" cy="2.604" r="2.604" transform="translate(16.862 14.616)" fill="#f5c86e"/>
      <circle id="Elipse_11743" data-name="Elipse 11743" cx="2.604" cy="2.604" r="2.604" transform="translate(28.549 26.539)" fill="#78d2fa"/>
      <circle id="Elipse_11744" data-name="Elipse 11744" cx="2.604" cy="2.604" r="2.604" transform="translate(39.859 14.616)" fill="#ff5a5a"/>
      <circle id="Elipse_11745" data-name="Elipse 11745" cx="2.604" cy="2.604" r="2.604" transform="translate(6.143 25.581)" fill="#a5dc69"/>
      <path id="Trazado_990565" data-name="Trazado 990565" d="M47.779,44.116a3.5,3.5,0,0,0,3.5-3.5V5.007A5.013,5.013,0,0,0,46.269,0H5.007A5.013,5.013,0,0,0,0,5.007V40.619a3.5,3.5,0,0,0,3.5,3.5h1.11v5.157H1a1,1,0,0,0,0,2H50.275a1,1,0,0,0,0-2H46.669V44.116ZM5.007,2H46.269a3.008,3.008,0,0,1,3,3v2.2H2.1c-.034,0-.068,0-.1.005V5.007A3.008,3.008,0,0,1,5.007,2Zm1.6,47.27V40.26h4.407v9.013Zm11.217,0V29.187h4.407V49.273Zm11.217,0V37.656H33.45V49.273Zm11.217,0V38.482a1,1,0,1,0-2,0V49.273h-2.8V36.655a1,1,0,0,0-1-1h-6.41a1,1,0,0,0-1,1V49.273h-2.8V28.185a1,1,0,0,0-1-1h-6.41a1,1,0,0,0-1,1V49.273h-2.8V39.258a1,1,0,0,0-1-1H5.608a1,1,0,0,0-1,1v2.854H3.5A1.5,1.5,0,0,1,2,40.619V9.209c.033,0,.067.005.1.005h47.17V40.619a1.5,1.5,0,0,1-1.494,1.494h-1.11V26.69a1,1,0,0,0-1-1h-6.41a1,1,0,0,0-1,1v5.057a1,1,0,1,0,2,0V27.691h4.407V49.273Z"/>
      <path id="Trazado_990566" data-name="Trazado 990566" d="M213.066,38h22.627a1,1,0,0,0,0-2H213.066a1,1,0,1,0,0,2Z" transform="translate(-190.827 -32.395)"/>
      <path id="Trazado_990567" data-name="Trazado 990567" d="M95,38a1,1,0,1,0-.708-.294A1.009,1.009,0,0,0,95,38Z" transform="translate(-84.586 -32.395)"/>
      <path id="Trazado_990568" data-name="Trazado 990568" d="M55,38a1,1,0,1,0-.708-.294A1.009,1.009,0,0,0,55,38Z" transform="translate(-48.592 -32.395)"/>
      <path id="Trazado_990569" data-name="Trazado 990569" d="M135,38a1,1,0,1,0-.708-.294A1.009,1.009,0,0,0,135,38Z" transform="translate(-120.58 -32.395)"/>
      <path id="Trazado_990570" data-name="Trazado 990570" d="M383,342.64a1,1,0,1,0,.708.293A1.005,1.005,0,0,0,383,342.64Z" transform="translate(-343.743 -308.325)"/>
      <path id="Trazado_990571" data-name="Trazado 990571" d="M88.658,143.15a3.611,3.611,0,1,0-2.917-1.49l-6.652,6.652a3.6,3.6,0,0,0-3.325-.081l-6.946-6.946a3.606,3.606,0,1,0-6.222.155l-5.914,5.914A3.608,3.608,0,1,0,58.1,148.77l5.985-5.985A3.6,3.6,0,0,0,67.4,142.7l6.878,6.878a3.605,3.605,0,1,0,6.226.149l6.831-6.831A3.582,3.582,0,0,0,88.658,143.15Zm0-5.208a1.6,1.6,0,1,1-1.6,1.6A1.6,1.6,0,0,1,88.658,137.942Zm-33.716,14.17a1.6,1.6,0,1,1,1.6-1.6A1.6,1.6,0,0,1,54.941,152.112Zm10.719-10.966a1.6,1.6,0,1,1,1.6-1.6A1.6,1.6,0,0,1,65.661,141.147ZM77.348,153.07a1.6,1.6,0,1,1,1.6-1.6A1.6,1.6,0,0,1,77.348,153.07Z" transform="translate(-46.195 -122.325)"/>
      <path id="Trazado_990572" data-name="Trazado 990572" d="M132.261,128.023a1,1,0,1,0-.709-.293A1.01,1.01,0,0,0,132.261,128.023Z" transform="translate(-118.114 -113.399)"/>
      <path id="Trazado_990573" data-name="Trazado 990573" d="M47,128.024h4.807a1,1,0,1,0,0-2H47a1,1,0,1,0,0,2Z" transform="translate(-41.393 -113.4)"/>
      <path id="Trazado_990574" data-name="Trazado 990574" d="M51.809,176.024a1,1,0,0,0,0-2H47a1,1,0,0,0,0,2Z" transform="translate(-41.393 -156.593)"/>
    </g>
  </g>
</svg>
