<svg xmlns="http://www.w3.org/2000/svg" xmlns:xlink="http://www.w3.org/1999/xlink" width="356" height="292" viewBox="0 0 356 292">
  <defs>
    <clipPath id="clip-path">
      <rect id="Rectángulo_409636" data-name="Rectángulo 409636" width="356" height="292" transform="translate(1010 843)" fill="#fff" stroke="#707070" stroke-width="1" opacity="0.56"/>
    </clipPath>
    <filter id="Trazado_986096" x="-28.891" y="-45.406" width="422.071" height="418.979" filterUnits="userSpaceOnUse">
      <feOffset dy="3" input="SourceAlpha"/>
      <feGaussianBlur stdDeviation="3" result="blur"/>
      <feFlood flood-opacity="0.161"/>
      <feComposite operator="in" in2="blur"/>
      <feComposite in="SourceGraphic"/>
    </filter>
  </defs>
  <g id="Enmascarar_grupo_1098776" data-name="Enmascarar grupo 1098776" transform="translate(-1010 -843)" clip-path="url(#clip-path)">
    <g id="Grupo_1156497" data-name="Grupo 1156497" transform="translate(990.109 803.594)">
      <g id="Grupo_1151354" data-name="Grupo 1151354" transform="translate(0 0)">
        <g id="Grupo_1151353" data-name="Grupo 1151353" transform="translate(0 0)">
          <g transform="matrix(1, 0, 0, 1, 19.89, 39.41)" filter="url(#Trazado_986096)">
            <path id="Trazado_986096-2" data-name="Trazado 986096" d="M53.046,49.4C77.994,38.751,105.089-12.782,180.924,2.97s56.514,104.946,80.191,126.839c62.122,57.439,31.76,130.468-31.091,147.039C146.621,298.836,126.107,230.071,80,231.331S4.1,176.26,1.975,156.225-10.793,76.656,53.046,49.4Z" transform="matrix(0.81, -0.59, 0.59, 0.81, -19.89, 134.09)" fill="#ecab98"/>
          </g>
        </g>
      </g>
      <g id="Grupo_1156402" data-name="Grupo 1156402" transform="translate(28.292 43.631)">
        <g id="Grupo_1156401" data-name="Grupo 1156401" transform="translate(0)">
          <g id="Grupo_1156385" data-name="Grupo 1156385" transform="translate(44.106 97.695)">
            <path id="Trazado_990047" data-name="Trazado 990047" d="M6446.51,1159.194h240.114l-37.2-34.384H6483.816Z" transform="translate(-6446.51 -1015.604)" fill="#67bead"/>
            <rect id="Rectángulo_409591" data-name="Rectángulo 409591" width="240.063" height="5.584" transform="translate(0.034 143.573)" fill="#343a50"/>
            <path id="Trazado_990048" data-name="Trazado 990048" d="M6812.62,1200.257H6869.9l-2.122-5.067H6814.32Z" transform="translate(-6719.618 -1068.714)" fill="#343a50"/>
            <path id="Trazado_990049" data-name="Trazado 990049" d="M7050.79,1200.257h12.576l1.907-5.067h-11.736Z" transform="translate(-6973.431 -1068.714)" fill="#343a50"/>
            <path id="Trazado_990050" data-name="Trazado 990050" d="M7109.48,1200.257h12.576l2.935-5.067h-11.737Z" transform="translate(-7047.55 -1068.714)" fill="#343a50"/>
            <path id="Trazado_990051" data-name="Trazado 990051" d="M7179.82,1200.257H7192.4l4.169-5.067H7184.83Z" transform="translate(-7136.385 -1068.714)" fill="#343a50"/>
            <path id="Trazado_990052" data-name="Trazado 990052" d="M6568.212,1200.257h24.731l-6.205-5.067h-23.078Z" transform="translate(-6381.575 -1068.714)" fill="#343a50"/>
            <path id="Trazado_990053" data-name="Trazado 990053" d="M6679.6,1200.257h12.578l-4.36-5.067h-11.738Z" transform="translate(-6508.395 -1068.714)" fill="#343a50"/>
            <path id="Trazado_990054" data-name="Trazado 990054" d="M6753.746,1200.257h12.576l-3.126-5.067H6751.46Z" transform="translate(-6601.034 -1068.714)" fill="#343a50"/>
            <path id="Trazado_990055" data-name="Trazado 990055" d="M6793.511,1176.26h11.5l-2.265-4.26H6791.95Z" transform="translate(-6649.655 -1051.214)" fill="#343a50"/>
            <path id="Trazado_990056" data-name="Trazado 990056" d="M6734.933,1176.26h11.5l-3.161-4.26h-10.794Z" transform="translate(-6576.489 -1051.214)" fill="#343a50"/>
            <path id="Trazado_990057" data-name="Trazado 990057" d="M6599.941,1176.26h28.444l-5.21-4.26h-26.7Z" transform="translate(-6425.07 -1051.214)" fill="#343a50"/>
            <path id="Trazado_990058" data-name="Trazado 990058" d="M6851.955,1176.26h11.5l-1.369-4.26H6851.29Z" transform="translate(-6722.661 -1051.214)" fill="#343a50"/>
            <path id="Trazado_990059" data-name="Trazado 990059" d="M6833.28,1154.832h10.546l-1.526-3.6h-9.95Z" transform="translate(-6698.386 -1035.541)" fill="#343a50"/>
            <path id="Trazado_990060" data-name="Trazado 990060" d="M6772.021,1154.832h10.546l-2.39-3.6h-9.947Z" transform="translate(-6621.884 -1035.541)" fill="#343a50"/>
            <path id="Trazado_990061" data-name="Trazado 990061" d="M6710.764,1154.832h10.546l-3.252-3.6h-9.95Z" transform="translate(-6545.386 -1035.541)" fill="#343a50"/>
            <path id="Trazado_990062" data-name="Trazado 990062" d="M6649.508,1154.832h10.546l-4.115-3.6h-9.95Z" transform="translate(-6468.887 -1035.541)" fill="#343a50"/>
            <path id="Trazado_990063" data-name="Trazado 990063" d="M6887.419,1154.832h10.543l-.763-3.6h-9.95Z" transform="translate(-6765.993 -1035.541)" fill="#343a50"/>
            <path id="Trazado_990064" data-name="Trazado 990064" d="M6942.14,1154.832h10.546l0-3.6h-9.947Z" transform="translate(-6834.185 -1035.541)" fill="#343a50"/>
            <path id="Trazado_990065" data-name="Trazado 990065" d="M6993.939,1154.832h10.545l.761-3.6H6995.3Z" transform="translate(-6899.456 -1035.541)" fill="#343a50"/>
            <path id="Trazado_990066" data-name="Trazado 990066" d="M7045.729,1154.832h10.543l1.524-3.6h-9.948Z" transform="translate(-6964.714 -1035.541)" fill="#343a50"/>
            <path id="Trazado_990067" data-name="Trazado 990067" d="M7097.52,1154.832h10.546l2.284-3.6H7100.4Z" transform="translate(-7029.975 -1035.541)" fill="#343a50"/>
            <path id="Trazado_990068" data-name="Trazado 990068" d="M7149.311,1154.832h10.546l3.048-3.6h-9.948Z" transform="translate(-7095.237 -1035.541)" fill="#343a50"/>
            <path id="Trazado_990069" data-name="Trazado 990069" d="M6910.629,1176.26h11.5l-.476-4.26h-10.793Z" transform="translate(-6795.896 -1051.214)" fill="#343a50"/>
            <path id="Trazado_990070" data-name="Trazado 990070" d="M6968.259,1176.26h11.5l.417-4.26h-10.793Z" transform="translate(-6868.085 -1051.214)" fill="#343a50"/>
            <path id="Trazado_990071" data-name="Trazado 990071" d="M7023.96,1176.26h11.5l1.311-4.26H7025.98Z" transform="translate(-6938.346 -1051.214)" fill="#343a50"/>
            <path id="Trazado_990072" data-name="Trazado 990072" d="M7079.649,1176.26h11.5l2.206-4.26H7082.56Z" transform="translate(-7008.594 -1051.214)" fill="#343a50"/>
            <path id="Trazado_990073" data-name="Trazado 990073" d="M7135.34,1176.26h11.5l3.1-4.26h-10.793Z" transform="translate(-7078.844 -1051.214)" fill="#343a50"/>
            <path id="Trazado_990074" data-name="Trazado 990074" d="M7191.04,1176.26h11.5l3.992-4.26h-10.791Z" transform="translate(-7149.104 -1051.214)" fill="#343a50"/>
            <path id="Trazado_990075" data-name="Trazado 990075" d="M7247.749,1200.257h12.577l5.362-5.067h-11.736Z" transform="translate(-7222.174 -1068.714)" fill="#343a50"/>
            <path id="Trazado_990076" data-name="Trazado 990076" d="M6587.116,789.09h163.459a5.072,5.072,0,0,0,5.072-5.073v-99.2a5.072,5.072,0,0,0-5.072-5.073H6587.116a5.073,5.073,0,0,0-5.072,5.073v99.2A5.074,5.074,0,0,0,6587.116,789.09Z" transform="translate(-6548.79 -679.741)" fill="#67bead"/>
            <path id="Trazado_990077" data-name="Trazado 990077" d="M6618.663,799.355h148.672a4.614,4.614,0,0,0,4.613-4.614V704.513a4.613,4.613,0,0,0-4.613-4.614H6618.663a4.614,4.614,0,0,0-4.614,4.614v90.228A4.616,4.616,0,0,0,6618.663,799.355Z" transform="translate(-6572.943 -694.953)" fill="#fff"/>
          </g>
          <g id="Grupo_1156387" data-name="Grupo 1156387" transform="translate(94.695 130.005)">
            <g id="Grupo_1156386" data-name="Grupo 1156386" transform="translate(38.528)">
              <path id="Trazado_990078" data-name="Trazado 990078" d="M6980.985,838.575a25.9,25.9,0,0,1-25.9,25.9V812.679A25.9,25.9,0,0,1,6980.985,838.575Z" transform="translate(-6954.78 -812.37)" fill="#fff"/>
              <path id="Trazado_990079" data-name="Trazado 990079" d="M6954.14,863.831a26.206,26.206,0,1,0,0-52.411.31.31,0,0,0-.31.31v51.792A.311.311,0,0,0,6954.14,863.831Zm.309-51.79a25.586,25.586,0,0,1,0,51.168Z" transform="translate(-6953.83 -811.42)" fill="#343a50"/>
            </g>
            <path id="Trazado_990080" data-name="Trazado 990080" d="M7139.29,820.606v25.8l-25.889-.443A25.9,25.9,0,0,1,7139.29,820.606Z" transform="translate(-7113.401 -818.352)" fill="#f2ac6e"/>
            <path id="Trazado_990081" data-name="Trazado 990081" d="M7106.206,949.918v25.988a25.9,25.9,0,0,1-25.9-25.9c0-.179,0-.357,0-.535Z" transform="translate(-7072.197 -915.6)" fill="#f17049"/>
          </g>
          <g id="Grupo_1156391" data-name="Grupo 1156391" transform="translate(195.741 14.482)">
            <path id="Trazado_990082" data-name="Trazado 990082" d="M6705.189,384.144a13.858,13.858,0,1,0-13.857-13.858A13.874,13.874,0,0,0,6705.189,384.144Zm0-26.48a12.622,12.622,0,1,1-12.622,12.622A12.636,12.636,0,0,1,6705.189,357.663Z" transform="translate(-6690.641 -352.546)" fill="#343a50"/>
            <g id="Grupo_1156389" data-name="Grupo 1156389" transform="translate(0)">
              <g id="Grupo_1156388" data-name="Grupo 1156388">
                <path id="Trazado_990083" data-name="Trazado 990083" d="M6690.916,376.562l7.336-7.081-9.917-10.274,10.3-9.944-7.082-7.336-10.3,9.944-9.972-10.331-7.336,7.081,9.973,10.331-10.246,9.889,7.081,7.336L6681,366.288Zm6.643-7.093-6.629,6.4-9.917-10.274-10.246,9.889-6.4-6.629,10.246-9.889-9.972-10.331,6.629-6.4,9.972,10.331,10.3-9.944,6.4,6.629-10.3,9.944Z" transform="translate(-6663.445 -341.312)" fill="#fff"/>
                <path id="Trazado_990084" data-name="Trazado 990084" d="M6690.214,376.087a.226.226,0,0,0,.158-.064l7.335-7.081a.229.229,0,0,0,.006-.324l-9.758-10.109,10.137-9.785a.23.23,0,0,0,.006-.324l-7.082-7.336a.229.229,0,0,0-.16-.07.219.219,0,0,0-.163.064l-10.137,9.785-9.813-10.166a.227.227,0,0,0-.16-.07.223.223,0,0,0-.163.064l-7.336,7.081a.23.23,0,0,0-.006.324l9.813,10.166-10.08,9.73a.229.229,0,0,0-.071.161.231.231,0,0,0,.064.163l7.081,7.336a.23.23,0,0,0,.324.006l10.08-9.73,9.758,10.109a.231.231,0,0,0,.161.07Zm7.013-7.315-7.007,6.763-9.757-10.109a.23.23,0,0,0-.161-.07.235.235,0,0,0-.164.064l-10.08,9.73-6.764-7.006,10.081-9.73a.229.229,0,0,0,.005-.324l-9.812-10.166,7.006-6.763,9.813,10.166a.228.228,0,0,0,.323.006l10.138-9.785,6.763,7.006-10.136,9.785a.229.229,0,0,0-.006.324Zm-7,6.621a.227.227,0,0,0,.158-.064l6.631-6.4a.24.24,0,0,0,.07-.161.231.231,0,0,0-.065-.163l-9.757-10.109,10.137-9.785a.229.229,0,0,0,.006-.324l-6.4-6.629a.232.232,0,0,0-.161-.07.228.228,0,0,0-.164.064l-10.136,9.785-9.813-10.166a.228.228,0,0,0-.323-.006l-6.63,6.4a.223.223,0,0,0-.069.161.219.219,0,0,0,.063.163l9.813,10.166-10.08,9.73a.226.226,0,0,0-.07.161.223.223,0,0,0,.064.163l6.4,6.629a.229.229,0,0,0,.324.006l10.08-9.73,9.758,10.109A.226.226,0,0,0,6690.226,375.393Zm6.306-6.634-6.3,6.081-9.758-10.109a.228.228,0,0,0-.161-.07.233.233,0,0,0-.163.064l-10.081,9.73-6.081-6.3,10.081-9.73a.228.228,0,0,0,0-.324l-9.813-10.166,6.3-6.081,9.813,10.166a.231.231,0,0,0,.161.07.222.222,0,0,0,.163-.064l10.137-9.785,6.081,6.3-10.136,9.785a.23.23,0,0,0-.006.324Z" transform="translate(-6662.742 -340.609)" fill="#343a50"/>
              </g>
            </g>
            <g id="Grupo_1156390" data-name="Grupo 1156390" transform="translate(7.254 8.277)">
              <path id="Trazado_990085" data-name="Trazado 990085" d="M6698.24,394.063l7.394-7.033,7,7.362,2.7-2.566-7-7.362,7.362-7-2.656-2.792-7.361,7-6.973-7.33-2.7,2.566,6.973,7.33-7.393,7.033Z" transform="translate(-6695.583 -374.342)" fill="#f17049"/>
            </g>
          </g>
          <g id="Grupo_1156393" data-name="Grupo 1156393" transform="translate(106.026 51.933)">
            <path id="Trazado_990086" data-name="Trazado 990086" d="M7010.741,574.042a13.985,13.985,0,1,0-13.985-13.985A14,14,0,0,0,7010.741,574.042Zm0-26.723A12.738,12.738,0,1,1,6998,560.057,12.752,12.752,0,0,1,7010.741,547.319Z" transform="translate(-6981.546 -533.108)" fill="#343a50"/>
            <path id="Trazado_990087" data-name="Trazado 990087" d="M7028.992,531.049l-15.407,17.65-22.116-30.714,22.116,18.408Z" transform="translate(-6984.516 -511.913)" fill="#f17049" fill-rule="evenodd"/>
            <g id="Grupo_1156392" data-name="Grupo 1156392" transform="translate(0)">
              <path id="Trazado_990088" data-name="Trazado 990088" d="M6996.025,535.54l20.651-23.657-20.583,7.139-29.857-24.852Zm19.064-22.588-19.029,21.8-27.168-37.732,27.1,22.557Z" transform="translate(-6966.007 -493.941)" fill="#fff"/>
              <path id="Trazado_990089" data-name="Trazado 990089" d="M6995.32,535.065a.228.228,0,0,0,.173-.078l20.651-23.657a.229.229,0,0,0-.247-.367l-20.46,7.1-29.759-24.769a.229.229,0,0,0-.332.31l29.789,41.37a.23.23,0,0,0,.175.095Zm19.913-23.388-19.9,22.791L6966.771,494.8l28.472,23.7a.229.229,0,0,0,.221.041Zm-19.875,22.6a.23.23,0,0,0,.172-.078l19.03-21.8a.229.229,0,0,0-.248-.367l-18.976,6.582-27-22.474a.228.228,0,0,0-.331.31l27.168,37.732a.228.228,0,0,0,.174.1Zm18.29-21.53-18.273,20.933-25.946-36.035,25.714,21.4a.229.229,0,0,0,.221.04Z" transform="translate(-6965.303 -493.237)" fill="#343a50"/>
            </g>
          </g>
          <g id="Grupo_1156396" data-name="Grupo 1156396" transform="translate(4.386)">
            <path id="Trazado_990090" data-name="Trazado 990090" d="M7405.057,387.392l.019-2.576-.982-.007-.018,2.576Zm.037-5.153.018-2.576-.981-.007-.019,2.576Zm.037-5.153.018-2.576-.98-.007-.019,2.576Zm.037-5.153.019-2.576-.981-.007-.019,2.576Zm.038-5.153.018-2.576-.981-.007-.019,2.576Zm.036-5.153.019-2.576-.981-.007-.019,2.576Zm.037-5.153.019-2.576-.982-.007-.018,2.576Zm.035-5.152.018-2.576-.981-.007-.018,2.576Zm.037-5.153.019-2.576-.982-.007-.019,2.576Zm.037-5.153.018-2.576-.981-.007-.018,2.576Zm.037-5.153.019-2.576-.981-.007-.019,2.576Zm.037-5.152.018-2.576-.981-.007-.019,2.576Zm.036-5.153.019-2.576-.981-.007-.018,2.576Zm.037-5.153.019-2.576-.981-.007-.018,2.576Zm.037-5.153.018-2.576-.981-.007-.019,2.576Zm.037-5.152.018-2.576-.981-.007-.019,2.576Zm.037-5.153.018-2.576-.981-.007-.019,2.576Zm.036-5.153.019-2.576-.981-.007-.019,2.576Zm.037-5.152.019-2.576-.981-.007-.018,2.576Zm.035-5.153.018-2.576-.981-.007-.019,2.576Z" transform="translate(-7360.895 -285.602)" fill="#343a50"/>
            <path id="Trazado_990091" data-name="Trazado 990091" d="M6839.637,384.1l.018-2.576-.981-.007-.019,2.576Zm.037-5.153.019-2.576-.982-.007-.018,2.576Zm.037-5.153.019-2.576-.982-.007-.019,2.576Zm.037-5.153.019-2.576-.982-.007-.019,2.576Zm.037-5.153.019-2.576-.982-.007-.018,2.576Zm.037-5.153.018-2.576-.981-.007-.019,2.576Zm.036-5.153.019-2.576-.981-.007-.019,2.576Zm.037-5.153.018-2.576-.981-.007-.018,2.576Zm.035-5.153.019-2.576-.982-.007-.019,2.576Zm.037-5.153.019-2.576-.981-.007-.019,2.576Zm.037-5.153.019-2.576-.982-.007-.018,2.576Zm.037-5.153.019-2.576-.982-.007-.019,2.576Zm.036-5.153.019-2.576-.981-.007-.018,2.576Zm.038-5.153.018-2.576-.981-.007-.019,2.576Zm.037-5.153.019-2.576-.981-.007-.019,2.576Zm.036-5.152.019-2.576-.981-.007-.018,2.576Zm.038-5.153.018-2.576-.981-.007-.019,2.576Zm.037-5.153.019-2.576-.982-.007-.018,2.576Zm.037-5.152.019-2.576-.982-.007-.018,2.576Zm.037-5.153.019-2.576-.982-.007-.018,2.576Z" transform="translate(-6656.74 -283.12)" fill="#343a50"/>
            <path id="Trazado_990092" data-name="Trazado 990092" d="M6526.511,766.12a7.225,7.225,0,1,0-7.225-7.225A7.233,7.233,0,0,0,6526.511,766.12Zm0-13.805a6.58,6.58,0,1,1-6.58,6.58A6.588,6.588,0,0,1,6526.511,752.314Z" transform="translate(-6271.759 -636.326)" fill="#343a50"/>
            <path id="Trazado_990093" data-name="Trazado 990093" d="M7385.381,710.418a7.225,7.225,0,1,0-7.225-7.225A7.233,7.233,0,0,0,7385.381,710.418Zm0-13.805a6.58,6.58,0,1,1-6.581,6.58A6.588,6.588,0,0,1,7385.381,696.613Z" transform="translate(-7341.369 -594.292)" fill="#343a50"/>
            <path id="Trazado_990094" data-name="Trazado 990094" d="M6822.3,704.045a7.225,7.225,0,1,0-7.224-7.225A7.233,7.233,0,0,0,6822.3,704.045Zm0-13.805a6.58,6.58,0,1,1-6.58,6.58A6.588,6.588,0,0,1,6822.3,690.24Z" transform="translate(-6640.126 -589.483)" fill="#343a50"/>
            <path id="Trazado_990095" data-name="Trazado 990095" d="M7535.3,641.357a7.225,7.225,0,1,0-7.225-7.225A7.233,7.233,0,0,0,7535.3,641.357Zm0-13.8a6.58,6.58,0,1,1-6.581,6.58A6.588,6.588,0,0,1,7535.3,627.552Z" transform="translate(-7528.076 -542.177)" fill="#343a50"/>
            <g id="Grupo_1156394" data-name="Grupo 1156394" transform="translate(6.341)">
              <path id="Trazado_990096" data-name="Trazado 990096" d="M6549.439,751.329l0-1.288-.709,0,0,1.288Z" transform="translate(-6301.033 -635.093)" fill="#343a50"/>
              <path id="Trazado_990097" data-name="Trazado 990097" d="M6795.737,393.967l.009-2.568-.709,0-.009,2.568Zm.017-5.137.009-2.568-.709,0-.009,2.568Zm.02-5.137.009-2.568-.71,0-.009,2.568Zm.018-5.137.009-2.568-.71,0-.009,2.568Zm.017-5.137.009-2.568-.709,0-.01,2.568Zm.017-5.137.01-2.568-.71,0-.009,2.568Zm.02-5.137.009-2.568-.709,0-.009,2.568Zm-248.258-2.071.71-.006-.011-2.568-.709.006Zm248.275-3.066.009-2.568-.71,0-.009,2.568Zm-248.3-2.071.71-.006-.011-2.568-.71.006Zm248.314-3.066.009-2.568-.71,0-.009,2.568ZM6547.543,350.8l.709-.006-.011-2.568-.709.006Zm248.354-3.066.009-2.568-.71,0-.009,2.568Zm-248.375-2.071.709-.006-.011-2.568-.71.006Zm248.395-3.066.01-2.568-.71,0-.009,2.568Zm-248.415-2.07.71-.006-.011-2.568-.71.006Zm248.433-3.066.009-2.568-.71,0-.009,2.568Zm-248.455-2.07.711-.006-.011-2.568-.71.006Zm248.475-3.066.009-2.568-.71,0-.009,2.568Zm-248.5-2.07.71-.006-.011-2.568-.71.006Zm248.513-3.066.009-2.568-.71,0-.009,2.568Zm-248.536-2.07.71-.006-.011-2.568-.709.006Zm248.553-3.066.009-2.568-.71,0-.009,2.568Zm-248.575-2.07.71-.006-.011-2.568-.71.006Zm248.592-3.066.009-2.568-.71,0-.009,2.568Zm-248.614-2.07.709-.006-.01-2.568-.71.006Zm248.634-3.066.009-2.568-.709,0-.009,2.568Zm-248.656-2.07.71-.006-.011-2.568-.709.006Zm248.672-3.066.009-2.568-.709,0-.009,2.568Zm-248.695-2.07.71-.006-.011-2.568-.71.006Zm248.712-3.066.009-2.568-.71,0-.009,2.568Zm-248.731-2.07.709-.006-.01-2.568-.71.006Zm248.037-3.061.709-.016a20.862,20.862,0,0,0-.2-2.636l-.7.187A19.356,19.356,0,0,1,6795.365,296.377Zm-247.213-1.991a18.417,18.417,0,0,1,.438-2.4l-.671-.323a19.793,19.793,0,0,0-.467,2.571Zm246.531-2.854.662-.355a17.972,17.972,0,0,0-.85-2.377l-.606.511A16.821,16.821,0,0,1,6794.683,291.532Zm-245.356-1.8a15.292,15.292,0,0,1,1.014-2.043l-.548-.624a16.175,16.175,0,0,0-1.084,2.186Zm243.5-2.411.532-.65a13.615,13.615,0,0,0-1.39-1.825l-.442.768A12.942,12.942,0,0,1,6792.825,287.317Zm-241.228-1.4a11.017,11.017,0,0,1,1.461-1.435l-.358-.847a11.823,11.823,0,0,0-1.563,1.536Zm238.431-1.672.337-.864a9.581,9.581,0,0,0-1.761-1.047l-.222.932A8.958,8.958,0,0,1,6790.028,284.246Zm-235.347-.82a8.013,8.013,0,0,1,1.729-.644l-.122-.967a8.552,8.552,0,0,0-1.852.689Zm231.956-.719.1-.972a8.008,8.008,0,0,0-1.525-.147h-.376v.981h.376A7.5,7.5,0,0,1,6786.637,282.706Zm-228.439-.137h1.857v-.981H6558.2Zm3.715,0h1.857v-.981h-1.857Zm3.715,0h1.858v-.981h-1.858Zm3.715,0h1.858v-.981h-1.858Zm3.715,0h1.857v-.981h-1.857Zm3.715,0h1.858v-.981h-1.858Zm3.718,0h1.857v-.981h-1.857Zm3.715,0h1.858v-.981H6584.2Zm3.714,0h1.858v-.981h-1.858Zm3.715,0h1.857v-.981h-1.857Zm3.715,0h1.857v-.981h-1.857Zm3.717,0h1.858v-.981h-1.858Zm3.715,0h1.857v-.981h-1.857Zm3.715,0h1.858v-.981H6606.5Zm3.715,0h1.858v-.981h-1.858Zm3.717,0h1.858v-.981h-1.858Zm3.714,0h1.858v-.981h-1.858Zm3.715,0h1.857v-.981h-1.857Zm3.715,0h1.858v-.981h-1.858Zm3.714,0h1.858v-.981h-1.858Zm3.715,0h1.857v-.981H6632.5Zm3.717,0h1.858v-.981h-1.858Zm3.715,0h1.857v-.981h-1.857Zm3.715,0h1.857v-.981h-1.857Zm3.715,0h1.858v-.981h-1.858Zm3.715,0h1.858v-.981h-1.858Zm3.718,0h1.858v-.981H6654.8Zm3.714,0h1.858v-.981h-1.858Zm3.715,0h1.858v-.981h-1.858Zm3.715,0h1.857v-.981h-1.857Zm3.715,0h1.858v-.981h-1.858Zm3.717,0h1.857v-.981h-1.857Zm3.715,0h1.858v-.981h-1.858Zm3.715,0h1.858v-.981H6680.8Zm3.715,0h1.857v-.981h-1.857Zm3.714,0h1.857v-.981h-1.857Zm3.717,0h1.858v-.981h-1.858Zm3.715,0h1.857v-.981h-1.857Zm3.715,0h1.858v-.981h-1.858Zm3.714,0h1.858v-.981H6703.1Zm3.716,0h1.857v-.981h-1.857Zm3.717,0h1.858v-.981h-1.858Zm3.715,0h1.858v-.981h-1.858Zm3.715,0h1.857v-.981h-1.857Zm3.715,0h1.858v-.981h-1.858Zm3.715,0h1.857v-.981h-1.857Zm3.717,0h1.858v-.981H6729.1Zm3.714,0h1.858v-.981h-1.858Zm3.715,0h1.857v-.981h-1.857Zm3.715,0h1.858v-.981h-1.858Zm3.715,0h1.858v-.981h-1.858Zm3.718,0h1.857v-.981h-1.857Zm3.714,0h1.858v-.981H6751.4Zm3.715,0h1.858v-.981h-1.858Zm3.715,0h1.857v-.981h-1.857Zm3.715,0h1.858v-.981h-1.858Zm3.717,0h1.857v-.981h-1.857Zm3.715,0h1.858v-.981h-1.858Zm3.715,0h1.858v-.981h-1.858Zm3.715,0h1.858v-.981H6777.4Zm3.715,0h1.857v-.981h-1.857Z" transform="translate(-6547.316 -281.587)" fill="#343a50"/>
              <path id="Trazado_990098" data-name="Trazado 990098" d="M7557.067,617.354l.709-.006,0-1.288-.711.006Z" transform="translate(-7556.779 -533.99)" fill="#343a50"/>
            </g>
            <g id="Grupo_1156395" data-name="Grupo 1156395" transform="translate(67.639 0.844)">
              <path id="Trazado_990099" data-name="Trazado 990099" d="M7259.64,577.928a7.225,7.225,0,1,0-7.224-7.225A7.233,7.233,0,0,0,7259.64,577.928Zm0-13.805a6.58,6.58,0,1,1-6.58,6.58A6.588,6.588,0,0,1,7259.64,564.123Z" transform="translate(-7252.416 -495.155)" fill="#343a50"/>
              <path id="Trazado_990100" data-name="Trazado 990100" d="M7277.6,354.6l.028-2.576-.981-.011-.028,2.576Zm.055-5.153.027-2.576-.981-.011-.028,2.576Zm.057-5.153.026-2.576-.981-.011-.026,2.576Zm.053-5.152.029-2.576-.982-.01-.027,2.576Zm.058-5.153.026-2.576-.981-.011-.027,2.576Zm.054-5.152.027-2.576-.981-.011-.027,2.576Zm.056-5.153.028-2.576-.981-.011-.027,2.576Zm.057-5.152.028-2.576-.981-.011L7277,318.52Zm.055-5.153.027-2.576-.981-.011-.027,2.576Zm.057-5.153.027-2.576-.981-.011-.027,2.576Zm.054-5.153.028-2.576-.982-.011-.028,2.576Zm.056-5.152.027-2.576-.981-.011-.026,2.576Zm.055-5.153.027-2.576-.981-.011-.027,2.576Zm.056-5.152.028-2.576-.981-.011-.028,2.576Z" transform="translate(-7269.833 -285.028)" fill="#343a50"/>
            </g>
          </g>
          <g id="Grupo_1156397" data-name="Grupo 1156397" transform="translate(0 135.616)">
            <path id="Trazado_990101" data-name="Trazado 990101" d="M7508.764,983.347c1.879,5.779,1.472,11.883.354,17.787a37.34,37.34,0,0,1-23.657-19.113c-4.411-8.561-5.511-17.955-6.211-27.2C7491.652,962.555,7504.8,971.167,7508.764,983.347Z" transform="translate(-7479.25 -925.248)" fill="#f2ac6e"/>
            <path id="Trazado_990102" data-name="Trazado 990102" d="M7280.127,984.868c-6.176,7.076-15.846,11.608-25.357,15.675a35.226,35.226,0,0,1,6.205-27.391c5.854-8.217,15.291-14.76,26.286-18.225C7288.872,965.243,7287.567,976.349,7280.127,984.868Z" transform="translate(-7201.817 -925.326)" fill="#f2ac6e"/>
            <path id="Trazado_990103" data-name="Trazado 990103" d="M7445.988,834.287c-.013.452,9.966,5.4,11.357,6.37a36.518,36.518,0,0,1,9.858,10.478c4.9,7.846,5.843,17.417,1.463,25.458-7.015-2.82-11.109-8.718-14.668-14.32C7448.207,853.157,7445.691,844.6,7445.988,834.287Z" transform="translate(-7432.491 -834.287)" fill="#67bead"/>
            <path id="Trazado_990104" data-name="Trazado 990104" d="M7467.9,923.021a123.452,123.452,0,0,0-1.358-16.435c-.408-2.659-.946-5.3-1.448-7.953a78.993,78.993,0,0,0-1.839-7.965c-1.527-5.11-4.357-9.865-7.53-14.441-2.426-3.5-5.152-6.94-6.689-10.776-.1-.259-.615-.148-.511.113,1.936,4.833,5.665,9.052,8.514,13.546a59.242,59.242,0,0,1,4.109,7.31,42.3,42.3,0,0,1,2.515,7.855c.617,2.654,1.071,5.33,1.588,8,.529,2.734.966,5.476,1.292,8.231a133.15,133.15,0,0,1,.851,16.481c-.014,2.086-.071,4.171-.16,6.256-.045,1.044-.1,2.082-.24,3.121a18.89,18.89,0,0,0-.255,3.113c.009.273.539.274.53,0a30.279,30.279,0,0,1,.374-4.1c.141-1.363.15-2.742.2-4.109Q7467.966,927.146,7467.9,923.021Z" transform="translate(-7429.561 -857.693)" fill="#343a50"/>
            <path id="Trazado_990105" data-name="Trazado 990105" d="M7477.339,1037.324a22.658,22.658,0,0,0-4.443-5.688,32.886,32.886,0,0,1-4.924-5.9c-1.338-2.258-2.262-4.657-3.673-6.889a68.185,68.185,0,0,0-5.061-6.686c-3.379-4.115-6.571-8.326-9.759-12.538-3.107-4.1-6.143-8.432-7.318-13.19-.066-.268-.576-.154-.511.113,1.184,4.792,4.248,9.155,7.372,13.291,3.251,4.3,6.525,8.6,9.976,12.8a66.981,66.981,0,0,1,4.929,6.556c1.381,2.186,2.294,4.538,3.588,6.756a30.316,30.316,0,0,0,4.68,5.652,23.364,23.364,0,0,1,4.635,5.837C7476.95,1037.69,7477.462,1037.58,7477.339,1037.324Z" transform="translate(-7437.314 -948.983)" fill="#343a50"/>
            <path id="Trazado_990106" data-name="Trazado 990106" d="M7299.837,979.977a35.339,35.339,0,0,1-3.621,7.282c-1.419,2.323-2.842,4.648-4.305,6.953a98.506,98.506,0,0,1-9.9,12.972c-3.005,3.348-7.18,5.973-9.474,9.73a16.791,16.791,0,0,0-2.208,5.858,36.817,36.817,0,0,0-.382,6.29c0,.274.529.274.53,0a32.693,32.693,0,0,1,.55-7.112,16.094,16.094,0,0,1,3.261-6.634,52.521,52.521,0,0,1,5.6-5.377,55.386,55.386,0,0,0,5.43-5.848,95.95,95.95,0,0,0,8.261-11.62c2.443-4.039,5.341-8.01,6.767-12.381C7300.434,979.824,7299.923,979.712,7299.837,979.977Z" transform="translate(-7218.186 -944.115)" fill="#343a50"/>
            <path id="Trazado_990107" data-name="Trazado 990107" d="M7476.556,984.286c-.843-5.506-1.4-11.038-2.255-16.543a124.831,124.831,0,0,0-3.693-16.128,82.587,82.587,0,0,0-5.925-15.29,64.231,64.231,0,0,0-9.185-12.567c-2.493-2.786-5.1-5.506-7.591-8.293-.2-.22-.658-.009-.458.214,3.541,3.961,7.316,7.789,10.664,11.859a59.572,59.572,0,0,1,4.56,6.288,52.257,52.257,0,0,1,3.681,7.292,112.362,112.362,0,0,1,5.142,15.672,134.524,134.524,0,0,1,3.066,16.571c.475,3.643.907,7.289,1.463,10.925C7476.068,984.556,7476.6,984.558,7476.556,984.286Z" transform="translate(-7437.928 -895.476)" fill="#343a50"/>
            <path id="Trazado_990108" data-name="Trazado 990108" d="M7542.073,880.638a8.928,8.928,0,0,0,.758,1.462c1.639,2.623,10.315,11.131,14.039,5.818.775-3.522-1.865-6.888-4.421-9.821a11.626,11.626,0,0,0-4.349-3.538c-4.9-1.944-7.175,2.521-6.154,5.718C7541.985,880.4,7542.027,880.519,7542.073,880.638Z" transform="translate(-7541.516 -864.32)" fill="#f17049"/>
            <path id="Trazado_990109" data-name="Trazado 990109" d="M7553.164,889.2a3.886,3.886,0,0,0,3.324-1.779l.025-.036.01-.047c.8-3.613-1.772-6.938-4.469-10.035a11.852,11.852,0,0,0-4.408-3.58,6.266,6.266,0,0,0-2.3-.483,4.065,4.065,0,0,0-3.717,2.328,5.607,5.607,0,0,0-.331,4.151c.042.126.085.252.135.376a9.084,9.084,0,0,0,.775,1.5C7543.357,883.429,7548.828,889.2,7553.164,889.2Zm3.067-2.024a3.6,3.6,0,0,1-3.067,1.609c-3.932,0-9.358-5.291-10.71-7.454a8.779,8.779,0,0,1-.739-1.426c-.044-.114-.086-.229-.122-.345a5.077,5.077,0,0,1,.3-3.761c1.014-2,3.157-2.672,5.661-1.679a11.593,11.593,0,0,1,4.291,3.5C7554.456,880.611,7556.942,883.816,7556.231,887.177Z" transform="translate(-7541.018 -863.684)" fill="#343a50"/>
            <path id="Trazado_990110" data-name="Trazado 990110" d="M7565.631,890.389a11.713,11.713,0,0,0-1.419-3.662,21.15,21.15,0,0,0-1.833-2.934,11.651,11.651,0,0,0-1.381-1.486,3.651,3.651,0,0,0-2.321-1.149,1.531,1.531,0,0,0-1.512,1.237,3.887,3.887,0,0,0,.3,2.177,8.238,8.238,0,0,0,1.12,1.881,5.585,5.585,0,0,0,1.925,1.792,1.565,1.565,0,0,0,1.934-.357,2.028,2.028,0,0,0-.019-2.075c-.131-.248-.644-.139-.511.113.287.545.582,1.821-.391,2.061-.952.236-1.863-.974-2.267-1.473-.952-1.176-1.989-2.815-1.508-4.258a1.015,1.015,0,0,1,.932-.674,2.357,2.357,0,0,1,1.4.572,9.506,9.506,0,0,1,1.756,1.735,17.836,17.836,0,0,1,1.763,2.752,12.061,12.061,0,0,1,1.51,3.748,1.638,1.638,0,0,1-.162,1.255c-.271.363-.9.287-1.324.2a8.935,8.935,0,0,1-5.046-3.268,10.055,10.055,0,0,1-2.161-5.189,7.28,7.28,0,0,1,.133-2.424c.063-.267-.448-.381-.511-.113a9.882,9.882,0,0,0,3.7,9.571,9.44,9.44,0,0,0,2.579,1.477,4.847,4.847,0,0,0,2.168.425C7565.648,892.2,7565.741,891.144,7565.631,890.389Z" transform="translate(-7553.64 -869.31)" fill="#343a50"/>
            <path id="Trazado_990111" data-name="Trazado 990111" d="M7368.271,1198.251h-24.159l-10.173-43.112h44.5Z" transform="translate(-7311.971 -1076.412)" fill="#f17049"/>
            <path id="Trazado_990112" data-name="Trazado 990112" d="M7456.821,1284.016a10.491,10.491,0,0,0-5.161-8.165,17.61,17.61,0,0,0-4.7-1.961l.116.492c3.458.967,6.408,2.741,8.04,5.663a10.428,10.428,0,0,1,1.214,5.243c-.009.861-.13,1.717-.2,2.575h.559A24.215,24.215,0,0,0,7456.821,1284.016Z" transform="translate(-7418.121 -1166.024)" fill="#343a50"/>
            <path id="Trazado_990113" data-name="Trazado 990113" d="M7367.144,1239.188a9.806,9.806,0,0,1-4.095,2.435c-2.13.683-4.487.75-6.574,1.507a4.85,4.85,0,0,0-3.273,3.188,7.068,7.068,0,0,0,1.135,5.021,17.762,17.762,0,0,0,4.584,4.967,46.3,46.3,0,0,0,4.627,3.139h.382l.06-.256a34.247,34.247,0,0,1-7.188-5.415c-2.338-2.447-5.124-7.123-1.41-9.615,1.807-1.213,4.356-1.257,6.524-1.774a12.307,12.307,0,0,0,4.6-2.008,12.564,12.564,0,0,0,2.564-2.764l.325-1.38A19.839,19.839,0,0,1,7367.144,1239.188Z" transform="translate(-7307.631 -1137.606)" fill="#343a50"/>
            <path id="Trazado_990114" data-name="Trazado 990114" d="M7343.073,1197.519c1.216.616,2.416,1.249,3.626,1.831a26.211,26.211,0,0,0,6.52,2.271,17.983,17.983,0,0,0,7.48-.222,11.536,11.536,0,0,0,3.36-1.379,5.885,5.885,0,0,0,2.094-2.345,17.448,17.448,0,0,1,1.5-2.7,4.568,4.568,0,0,1,2.578-1.518c2.2-.545,4.678-.266,6.928-.144a30.784,30.784,0,0,0,4.8.014l.1-.448c-.144.018-.29.034-.437.046a63.542,63.542,0,0,1-7.252-.171c-2.016-.064-4.313-.036-6,.972-1.955,1.166-2.186,3.334-3.413,4.9-1.456,1.859-4.61,2.606-7.177,2.813a18.191,18.191,0,0,1-7.354-1,60.688,60.688,0,0,1-7.479-3.453Z" transform="translate(-7317.797 -1104.779)" fill="#343a50"/>
            <path id="Trazado_990115" data-name="Trazado 990115" d="M7380.721,1174.057c-14.022-.008-28.046-.058-42.069,0-.073,0-.151,0-.233,0l.887,3.759c1,.341,1.9.6,2.361.723a188.409,188.409,0,0,0,36.509,6.307Z" transform="translate(-7315.35 -1090.667)" fill="#343a50"/>
            <rect id="Rectángulo_409592" data-name="Rectángulo 409592" width="49.965" height="9.224" transform="translate(18.945 78.728)" fill="#f17049"/>
            <path id="Trazado_990116" data-name="Trazado 990116" d="M7323.46,1164.143h50.232v-9.438h-50.233v9.438Zm49.965-.216h-49.7v-9.01h49.7Z" transform="translate(-7304.65 -1076.084)" fill="#343a50"/>
            <path id="Trazado_990117" data-name="Trazado 990117" d="M7370.564,911.359c-5.926,8.264-8.735,17.716-10.683,27.036-.986,4.719-1.819,9.475-2.464,14.232a77.221,77.221,0,0,0-.633,16.173q.188,2.5.615,4.984c.046.27.557.155.511-.113-1.775-10.4-.19-20.889,1.708-31.2,1.738-9.444,4.091-19.028,9.292-27.687q.982-1.634,2.113-3.207C7371.192,911.335,7370.734,911.121,7370.564,911.359Z" transform="translate(-7310.149 -892.37)" fill="#343a50"/>
            <path id="Trazado_990118" data-name="Trazado 990118" d="M7321.266,878.317a5.826,5.826,0,0,0,.061,3.719,4.387,4.387,0,0,0,3.31,2.489c2.307.342,4.374-1.142,5.837-2.609,2.169-2.175,4.017-4.719,4.169-7.5a3.924,3.924,0,0,0-1.12-3.186c-3.961-3.674-9.417.613-10.923,3.628A17.553,17.553,0,0,0,7321.266,878.317Z" transform="translate(-7265.003 -861.097)" fill="#f17049"/>
            <path id="Trazado_990119" data-name="Trazado 990119" d="M7324.83,884.144c1.7,0,3.471-.909,5.258-2.7,2.714-2.721,4.1-5.222,4.229-7.648a4.172,4.172,0,0,0-1.186-3.37,5.138,5.138,0,0,0-3.577-1.455c-3.263,0-6.492,2.984-7.569,5.139a17.557,17.557,0,0,0-1.351,3.506,5.986,5.986,0,0,0,.075,3.89,4.517,4.517,0,0,0,3.427,2.59A4.807,4.807,0,0,0,7324.83,884.144Zm4.726-14.76a4.873,4.873,0,0,1,3.395,1.379,3.717,3.717,0,0,1,1.054,3c-.125,2.3-1.469,4.7-4.106,7.348-1.965,1.97-3.9,2.842-5.725,2.568a4.248,4.248,0,0,1-3.19-2.388,5.5,5.5,0,0,1-.046-3.549,16.971,16.971,0,0,1,1.314-3.408C7323.287,872.26,7326.4,869.384,7329.556,869.384Z" transform="translate(-7264.522 -860.459)" fill="#343a50"/>
            <path id="Trazado_990120" data-name="Trazado 990120" d="M7344.8,877.321c-1.6-.683-3.3,1.372-3.994,2.239a13.928,13.928,0,0,0-1.389,2.12,3.071,3.071,0,0,0-.535,2.161.724.724,0,0,0,.667.574,1.408,1.408,0,0,0,.946-.521,10.636,10.636,0,0,0,1.5-2.035c.152-.244-.306-.459-.458-.214-.288.463-.585.921-.921,1.364-.106.139-.926,1.2-1.145.909-.475-.64.245-1.753.571-2.333a13.81,13.81,0,0,1,1.355-1.979,6.482,6.482,0,0,1,2.061-1.782,1.315,1.315,0,0,1,1.285-.03,1.081,1.081,0,0,1,.348,1.2,9.208,9.208,0,0,1-1.64,3.3,22.332,22.332,0,0,1-2.677,3.235,8.014,8.014,0,0,1-1.544,1.242,1.654,1.654,0,0,1-1.359.291c-.792-.317-.83-1.384-.822-1.975a8.274,8.274,0,0,1,.725-2.991,12.892,12.892,0,0,1,5.027-5.706c.268-.169-.11-.467-.375-.3a13.828,13.828,0,0,0-4.938,5.4,9.8,9.8,0,0,0-.9,2.843,3.389,3.389,0,0,0,.442,2.641c1.648,2.173,5.063-2.106,5.792-3.012a15.449,15.449,0,0,0,1.768-2.547C7345.136,880.341,7346.647,878.109,7344.8,877.321Z" transform="translate(-7279.85 -865.794)" fill="#343a50"/>
            <path id="Trazado_990121" data-name="Trazado 990121" d="M7512.758,1077.789c0-.273-.53-.274-.53,0a11.316,11.316,0,0,1-.32,3.989,3.81,3.81,0,0,1-3.653,2.348,9.472,9.472,0,0,1-4.414-1.42c-1.257-.683-2.391-1.493-3.557-2.268-.26-.173-.638.125-.375.3,1.276.848,2.52,1.723,3.9,2.462a9.579,9.579,0,0,0,4.688,1.346,4.336,4.336,0,0,0,3.731-2.229C7512.947,1080.883,7512.763,1079.3,7512.758,1077.789Z" transform="translate(-7487.015 -1017.886)" fill="#343a50"/>
            <path id="Trazado_990122" data-name="Trazado 990122" d="M7545.83,1032.159c0-.274-.531-.274-.53,0a9.871,9.871,0,0,1-.268,3.288,3.364,3.364,0,0,1-3.083,2.1,6.655,6.655,0,0,1-3.771-1.367c-1.048-.69-1.958-1.5-2.915-2.265-.241-.194-.617.106-.375.3a36.024,36.024,0,0,0,3.252,2.482,6.812,6.812,0,0,0,4.059,1.259,3.916,3.916,0,0,0,3.223-2.1A8.155,8.155,0,0,0,7545.83,1032.159Z" transform="translate(-7528.668 -983.452)" fill="#343a50"/>
            <path id="Trazado_990123" data-name="Trazado 990123" d="M7472.745,942.978c-.031-.27-.561-.273-.53,0a10.323,10.323,0,0,1-.142,3.33,3.218,3.218,0,0,1-2.171,2.737c-1.667.422-3.286-.514-4.417-1.392a16.014,16.014,0,0,1-2.949-3.128c-.175-.234-.634-.021-.458.214a16.656,16.656,0,0,0,3.235,3.369,5.928,5.928,0,0,0,4.606,1.373,3.425,3.425,0,0,0,2.564-2.672A9.824,9.824,0,0,0,7472.745,942.978Z" transform="translate(-7437.782 -916.155)" fill="#343a50"/>
            <path id="Trazado_990124" data-name="Trazado 990124" d="M7492.95,890.609a4.282,4.282,0,0,1-2.884,3.92c-1.989.546-3.981-.69-5.246-1.78-.233-.2-.606.1-.375.3,1.452,1.252,3.626,2.476,5.859,1.863,2.185-.6,2.964-2.653,3.176-4.3C7493.517,890.337,7492.987,890.34,7492.95,890.609Z" transform="translate(-7463.923 -876.636)" fill="#343a50"/>
            <path id="Trazado_990125" data-name="Trazado 990125" d="M7330.855,1065.05a8.3,8.3,0,0,1-5.051,2.971,5.427,5.427,0,0,1-3.158-.312,6.382,6.382,0,0,1-2.383-1.907c-2.242-2.875-.826-6.667-.208-9.749.054-.267-.457-.382-.511-.113-.676,3.37-2.128,7.395.568,10.447a6.886,6.886,0,0,0,2.517,1.794,6.134,6.134,0,0,0,3.177.272,8.725,8.725,0,0,0,5.507-3.189C7331.489,1065.027,7331.03,1064.814,7330.855,1065.05Z" transform="translate(-7261.104 -1001.437)" fill="#343a50"/>
            <path id="Trazado_990126" data-name="Trazado 990126" d="M7286.255,1010.532a7.445,7.445,0,0,1-1.707,1.5,13.149,13.149,0,0,1-2.7,1.459,3.9,3.9,0,0,1-2.432.286,3.078,3.078,0,0,1-1.792-1.241,5.9,5.9,0,0,1-.542-4.092c.158-1.255.513-2.482.758-3.726.053-.267-.458-.382-.511-.113-.258,1.313-.623,2.607-.789,3.932a6.205,6.205,0,0,0,.626,4.214,3.744,3.744,0,0,0,4,1.414,11.808,11.808,0,0,0,5.023-2.843,4.5,4.5,0,0,0,.522-.573C7286.891,1010.512,7286.432,1010.3,7286.255,1010.532Z" transform="translate(-7206.175 -962.696)" fill="#343a50"/>
          </g>
          <g id="Grupo_1156400" data-name="Grupo 1156400" transform="translate(154.49 33.653)">
            <g id="Grupo_1156399" data-name="Grupo 1156399">
              <path id="Trazado_990127" data-name="Trazado 990127" d="M6334.421,441c1.03-3.9,3.6-6.547,5.812-9.756a21.2,21.2,0,0,1,7.317-7.11c2.7-1.463,6.051-2.036,8.844-.77,1.869.847,3.305,2.413,5.027,3.529,1.743,1.129,3.756,1.785,5.508,2.9,4.348,2.772,6.012,8.222,7.045,13.007,1.207,5.591,1.173,11.474,3.178,16.831,3.075,8.214,10.573,14.209,13.473,22.486,1.971,5.624,1.758,12.13,5.232,16.971a19.553,19.553,0,0,1,2.154,3.1,11.242,11.242,0,0,1,.695,4.574q.04,3.358.08,6.716a5.62,5.62,0,0,1-.5,2.935,5.057,5.057,0,0,1-1.675,1.562c-7.62,5.022-17.215,5.678-26.33,6.133-5.179.258-10.477.487-15.444-1-3.354-1-6.7-3.033-7.916-6.313-2.108-5.668,2.943-11.728,2.192-17.729-.454-3.62-2.935-6.606-4.514-9.9-3.315-6.9-2.595-15.02-4.479-22.443-1.1-4.325-3.072-8.373-4.509-12.6S6333.28,445.316,6334.421,441Z" transform="translate(-6241.428 -421.703)" fill="#f2ac6e"/>
              <path id="Trazado_990128" data-name="Trazado 990128" d="M6849.425,694.633a11.92,11.92,0,0,0-1.417,4.291c-.29,4.157,3.387,7.341,5.647,10.843,3.323,5.151,3.7,11.579,4.988,17.571a1.974,1.974,0,0,0,.5,1.1,2.016,2.016,0,0,0,1.882.117,109.633,109.633,0,0,0,16.036-5.853q-1.671-5.741-3.345-11.481a10.178,10.178,0,0,1-.484-2.323c-.131-2.633,1.615-5.063,1.388-7.633a8.471,8.471,0,0,0-1.953-4.065q-2.414-3.3-4.938-6.508c-1.2-1.527-2.423-3.732-4.178-4.627-2.62-1.336-7.8-1.368-9.959.822C6851.56,688.943,6850.662,692.09,6849.425,694.633Z" transform="translate(-6845.841 -619.769)" fill="#ffaec1"/>
              <path id="Trazado_990129" data-name="Trazado 990129" d="M6891.414,622.18a20.8,20.8,0,0,0,1.461,4.37l4.108,9.8a12.265,12.265,0,0,0,1.973,3.547,4.156,4.156,0,0,0,3.6,1.512c1.772-.285,2.965-2.119,3.1-3.909a11.26,11.26,0,0,0-1.236-5.184,99.555,99.555,0,0,0-4.94-9.992,15.139,15.139,0,0,1-2.245-5.374c-.234-1.838.264-3.743-.2-5.537-.278-1.086-1.426-2.584-2.673-2.61-1.722-.035-1.437,1.1-1.67,2.5C6892.1,614.892,6890.763,618.5,6891.414,622.18Z" transform="translate(-6885.078 -562.169)" fill="#ffaec1"/>
              <path id="Trazado_990130" data-name="Trazado 990130" d="M6895.3,626.73l-3.041,1.1-15.232-40.342,4.272-1.783Z" transform="translate(-6871.21 -544.735)" fill="#343a50"/>
              <path id="Trazado_990131" data-name="Trazado 990131" d="M6864.127,654.863a6.713,6.713,0,0,1,1.619,1.087,6.071,6.071,0,0,1,1.053,1.711l2.554,5.412a12.513,12.513,0,0,1,1.344,8.594q-.28,3.054-.56,6.109a2.091,2.091,0,0,1-.3,1.068c-.649.877-2.039.265-2.858-.454a13.76,13.76,0,0,1-4.47-6.665,18.02,18.02,0,0,1,.169-8.827,1.161,1.161,0,0,0,.051-.54,1.128,1.128,0,0,0-.256-.437,44.488,44.488,0,0,1-4.177-6.186c-.545-.975-2.056-4.472.123-4.7C6859.517,650.917,6863,654.243,6864.127,654.863Z" transform="translate(-6841.932 -594.032)" fill="#ffaec1"/>
              <path id="Trazado_990132" data-name="Trazado 990132" d="M6914.41,732.037c.951.186,2.144.234,2.665-.583.552-.864-.1-1.983-.785-2.742-2.585-2.85-6-4.784-9.358-6.669a9.819,9.819,0,0,0-5.026-1.711c-1.41.058-3.538,1.257-3.459,2.923.079,1.646,2.8,3.048,4.09,3.9A33.159,33.159,0,0,0,6914.41,732.037Z" transform="translate(-6898.444 -646.327)" fill="#ffaec1"/>
              <path id="Trazado_990133" data-name="Trazado 990133" d="M6896.145,706.987c2.263.977,4.677,1.873,7.129,1.619,1.042-.108,2.249-.634,2.373-1.674a2.2,2.2,0,0,0-.436-1.413,10.7,10.7,0,0,0-4.432-3.316l-6.1-3.075c-1.639-.826-3.443-1.677-5.238-1.294-2.33.5-4.021,3.04-2.15,4.723C6889.51,704.554,6893.421,705.812,6896.145,706.987Z" transform="translate(-6883.884 -629.28)" fill="#ffaec1"/>
              <path id="Trazado_990134" data-name="Trazado 990134" d="M6888.076,682.984c1.924.957,4.019,1.831,6.154,1.583a4.162,4.162,0,0,0,2.238-.891,2.536,2.536,0,0,0,.926-2.157,3.768,3.768,0,0,0-1.517-2.254c-2.112-1.791-5.438-2.54-7.918-3.873-1.446-.777-3.455-2.68-5.2-1.684-1.637.935-2.188,4.217-1.057,5.641C6882.967,680.939,6886.284,682.092,6888.076,682.984Z" transform="translate(-6874.317 -610.932)" fill="#ffaec1"/>
              <path id="Trazado_990135" data-name="Trazado 990135" d="M6287.443,849.944a50.4,50.4,0,0,1-.721,5.153c23.112,3.82,45.49,7.085,68.979,7.31,12.1.116,24.34.231,36.26-2.16,5.853-1.174,10.8-.92,10.859-7.348.051-5.829-.376-11.779-.822-17.59q-1.1-14.281-2.474-28.534c-1.823-18.668-4.069-37.289-6.918-55.8-1.172-7.62-2.458-15.267-4.9-22.514a41.5,41.5,0,0,0-5.3-10.95c-5.293-7.4-13.69-11.486-22.141-12.957s-16.855.425-25.225-.5c-7.7-.848-15.248,1.158-22.471,4.336a14.359,14.359,0,0,0-5.888,4.065,17.482,17.482,0,0,0-2.638,6.36c-6.337,24.513-9.053,49.826-10.434,75.2C6292.6,812.582,6289.651,831.458,6287.443,849.944Z" transform="translate(-6233.889 -633.9)" fill="#f17049"/>
              <path id="Trazado_990136" data-name="Trazado 990136" d="M6671.16,731.753a7.915,7.915,0,0,0-6.521-1.063,11.534,11.534,0,0,0-4.022,2.634c-15.717,14.187-23.2,34.387-32.278,53q-5.342-20.969-12.221-41.466c.24.719-11.708,3.182-12.624,3.437-.743.207-9.984,2.348-9.911,3.089,2.576,25.8,5.53,50.684,11.9,75.839,1.11,4.383,2.526,9.046,6.085,11.833,3.882,3.04,9.5,3.024,14.07,1.18s8.322-5.239,11.888-8.643c12.186-11.632,23.606-24.346,31.564-39.193s12.279-32.063,9.665-48.705c-.551-3.508-3.123-7.87-5.626-10.383A10.764,10.764,0,0,0,6671.16,731.753Z" transform="translate(-6585.879 -653.912)" fill="#f17049"/>
              <g id="Grupo_1156398" data-name="Grupo 1156398" transform="translate(37.479 210.183)">
                <path id="Trazado_990137" data-name="Trazado 990137" d="M6652.105,1281.041c-.137.031-.273.056-.409.075-3.687.518-6.677-2.369-10.705-1.275a32.169,32.169,0,0,0-6.019,2.8,34.227,34.227,0,0,1-14.323,3.717,1.8,1.8,0,0,0,.742,2.294,5.1,5.1,0,0,0,2.567.594c5.077.245,10.192-.276,15.249.122a43.421,43.421,0,0,1-15.624,12.289,7.287,7.287,0,0,0-3.133,2.125c-1.288,1.863-.406,4.394.507,6.467a8.443,8.443,0,0,0,2.6,3.8c3.532,2.405,9.982.372,13.429-1.184,5.136-2.319,9.692-5.679,14.6-8.4,2.244-1.245,4.657-1.949,5.833-4.24,1.266-2.466,1.567-5.284,3.1-7.658,1.906-2.954,6.177-4.284,9-6.123a41.648,41.648,0,0,0-7.124-10.367,2.067,2.067,0,0,0-1.074-.728,2.119,2.119,0,0,0-1.5.566C6657.641,1277.488,6654.865,1280.418,6652.105,1281.041Z" transform="translate(-6619.804 -1275.335)" fill="#ffaec1"/>
                <path id="Trazado_990138" data-name="Trazado 990138" d="M6757.7,1368.971a.305.305,0,0,0-.065-.18.31.31,0,0,0-.435-.054,60.464,60.464,0,0,1-18.185,9.74.309.309,0,0,0,.2.587,61.039,61.039,0,0,0,18.369-9.84A.311.311,0,0,0,6757.7,1368.971Z" transform="translate(-6737.176 -1345.77)" fill="#343a50"/>
                <path id="Trazado_990139" data-name="Trazado 990139" d="M6745.879,1390.63a.306.306,0,0,0-.038-.139.31.31,0,0,0-.42-.122q-.964.532-1.926,1.067c-2.384,1.324-4.851,2.693-7.32,3.942-3.288,1.663-6.767,3.052-10.338,4.448a.309.309,0,0,0,.225.576c3.586-1.4,7.08-2.8,10.393-4.472,2.481-1.254,4.952-2.626,7.341-3.953q.962-.534,1.925-1.067A.305.305,0,0,0,6745.879,1390.63Z" transform="translate(-6722.12 -1362.115)" fill="#343a50"/>
                <path id="Trazado_990140" data-name="Trazado 990140" d="M6805.188,1393.216c-.87.582-2.579,1.5-3.674,1.291-1.029-.2-1.011-1.572-.493-2.265.674-.9,2.283-1.077,3.322-1.185C6805.821,1390.9,6806.621,1392.256,6805.188,1393.216Z" transform="translate(-6800.592 -1362.653)" fill="#f17049"/>
                <path id="Trazado_990141" data-name="Trazado 990141" d="M6799.266,1411.375a1.5,1.5,0,0,1,1.241.944.844.844,0,0,1,0,.536,1.2,1.2,0,0,1-.337.446,6.065,6.065,0,0,1-2.691,1.452,2.408,2.408,0,0,1-1.668-.079,1.517,1.517,0,0,1,.031-2.664A7.856,7.856,0,0,1,6799.266,1411.375Z" transform="translate(-6793.82 -1377.977)" fill="#f17049"/>
                <path id="Trazado_990142" data-name="Trazado 990142" d="M6786.586,1428.3a2.328,2.328,0,0,1,.886-.113.914.914,0,0,1,.728.463,1.138,1.138,0,0,1-.187,1.076,4.275,4.275,0,0,1-3.4,1.676,1.122,1.122,0,0,1-1.024-1.79C6784.115,1428.917,6785.8,1428.517,6786.586,1428.3Z" transform="translate(-6778.673 -1390.675)" fill="#f17049"/>
              </g>
              <path id="Trazado_990143" data-name="Trazado 990143" d="M6366.75,733.439c-3.562.392-6.743,2.34-9.722,4.331a14.531,14.531,0,0,0-3.451,2.891c-4.57,5.774-2.773,18.324-2.852,25.256a190.5,190.5,0,0,0,4.994,45.513c.615,2.628,1.268,5.481.156,7.94a12.147,12.147,0,0,1-4.006,4.273q-18.69,14.371-36.54,29.791c-3.1,2.681-13.968,9.412-13.934,13.371.021,2.469,5.042,7.754,6.425,9.894q3.025,4.681,5.992,9.4c11.037-7.062,22.925-11.931,33.949-19.117,11.206-7.305,21.991-15.234,32.617-23.354a26.59,26.59,0,0,0,5.7-5.33,23.449,23.449,0,0,0,3.122-7.074,148.166,148.166,0,0,0,4.765-25.652c1.549-13.511,3.09-27.51.125-40.944C6391.241,751.725,6382.844,731.67,6366.75,733.439Z" transform="translate(-6230.439 -656.138)" fill="#f17049"/>
              <path id="Trazado_990144" data-name="Trazado 990144" d="M6446.631,575.592q0,.927,0,1.854l-3.772.024c1.406,5.152,3.025,11.076,8.116,13.49a16.928,16.928,0,0,0,14.523-.344,22.415,22.415,0,0,0,10.866-13.241c-.1.307-3.666-.486-3.955-.752-.89-.821-.731-2.884-.832-4.046q-.456-5.232-.988-10.456-1.069-10.448-2.469-20.859a11.02,11.02,0,0,0-1.7-5.351c-1.608-2.1-4.529-2.775-7.163-2.538-3.164.284-4.871,1.716-7.287,3.415-2.118,1.489-4.733,2.479-5.851,5.013a10.706,10.706,0,0,0-.521,4.852C6446.048,556.306,6446.6,565.969,6446.631,575.592Z" transform="translate(-6345.738 -505.211)" fill="#ffaec1"/>
              <path id="Trazado_990145" data-name="Trazado 990145" d="M6462.461,437.369c-3.328,3.328-4.372,9.449-5.531,13.891a63.2,63.2,0,0,0-2.055,15.717,23.45,23.45,0,0,0,1.282,8.71,10.491,10.491,0,0,0,5.939,6.2c2.416.851,5.079.511,7.583-.03,7.421-1.6,13.052-7.042,16.88-13.412a48.023,48.023,0,0,0,5.142-11.54c1.109-3.915,1.8-8.532.07-12.362a19.482,19.482,0,0,0-5.245-6.826,24.161,24.161,0,0,0-9.208-4.7C6472.131,431.615,6466.215,433.614,6462.461,437.369Z" transform="translate(-6365.142 -429.177)" fill="#ffaec1"/>
              <path id="Trazado_990146" data-name="Trazado 990146" d="M6381.461,420.36a18.267,18.267,0,0,1,5.333-1.58,8.452,8.452,0,0,1,4.4.759,14.079,14.079,0,0,1,2.279.834c1.567.978,2.688,2.581,4.423,3.307a19.605,19.605,0,0,0,2.982.729,9.965,9.965,0,0,1,5.753,3.94c1.493,2.14,1.59,4.271,1.762,6.755a23.919,23.919,0,0,1-.337,7.362c-.763,3.169-2.439,6.335-1.708,9.511.662,2.878,3.168,5.006,4.087,7.812.85,2.592.249,5.424.586,8.13.9,7.186,7.924,11.872,11.2,18.328a37.433,37.433,0,0,1,2.516,7.286q1.052,3.89,2.1,7.78c1.033,3.826,2.037,8.051.311,11.619a4.472,4.472,0,0,1-1.3,1.694,6.1,6.1,0,0,1-2.334.875l-10.046,2.255c-1.426.32-3.171.543-4.121-.567a3.693,3.693,0,0,1-.7-1.835c-1-5.989.813-12.421-1.455-18.054-.856-2.123-2.252-4-3.068-6.139-1.249-3.271-1.052-6.886-1.471-10.362-.834-6.918-4.151-13.559-3.615-20.506.341-4.414,2.226-8.92.842-13.126-.935-2.84-3.309-5.281-3.238-8.27a21.6,21.6,0,0,0,.231-3.116c-.5-4.1-5.542.354-7.2,1.339a2.548,2.548,0,0,1-2.211.5,3.869,3.869,0,0,1-1-.84c-1.366-1.278-3.44-1.274-5.27-1.66-3.375-.711-5.732-3.04-7.948-5.519-2.456-2.747-.772-5.029,2.264-6.573C6377.455,422.046,6379.459,421.2,6381.461,420.36Z" transform="translate(-6280.092 -418.738)" fill="#f2ac6e"/>
              <path id="Trazado_990147" data-name="Trazado 990147" d="M6553.507,525.233a.3.3,0,0,0,.174-.055,5.723,5.723,0,0,0,2.132-2.938,1.25,1.25,0,0,0-.232-.995,2.611,2.611,0,0,0-1.238-.593,3.937,3.937,0,0,1-.709-.258,4.124,4.124,0,0,1-1.3-1.206,1.148,1.148,0,0,1-.248-.657,1.655,1.655,0,0,1,.625-.973,59.57,59.57,0,0,0,8.6-10.654.307.307,0,0,0-.519-.328,58.944,58.944,0,0,1-8.506,10.544,2.175,2.175,0,0,0-.81,1.392,1.725,1.725,0,0,0,.355,1.022,4.733,4.733,0,0,0,1.489,1.386,4.108,4.108,0,0,0,.848.319,2.9,2.9,0,0,1,.934.385.655.655,0,0,1,.107.525,5.262,5.262,0,0,1-1.875,2.525.306.306,0,0,0-.077.427A.3.3,0,0,0,6553.507,525.233Z" transform="translate(-6457.381 -484.915)" fill="#343a50"/>
              <path id="Trazado_990148" data-name="Trazado 990148" d="M6564.791,581.4a3.039,3.039,0,0,0-.6-.474c-.59-.344-1.335-.167-2.009-.277a.722.722,0,0,1-.5-.252,1.489,1.489,0,0,1-.145-.445c-.195-.664-1-.93-1.687-.957a4.614,4.614,0,0,1-2.039-.251,6.713,6.713,0,0,0,1.1,4.687,4.811,4.811,0,0,0,3.646,1.7c1.907.035,3.263-.833,4.855-1.751l-.933-.439A6.527,6.527,0,0,1,6564.791,581.4Z" transform="translate(-6464.985 -539.479)" fill="#f17049"/>
              <path id="Trazado_990149" data-name="Trazado 990149" d="M6558.822,562.679a1.308,1.308,0,0,0,1.448-1,5.276,5.276,0,0,0,.142-1.386.243.243,0,0,0-.253-.237.245.245,0,0,0-.238.253,4.753,4.753,0,0,1-.128,1.256c-.122.508-.458.669-1.288.614a.246.246,0,0,0-.032.49C6558.572,562.672,6558.689,562.679,6558.822,562.679Z" transform="translate(-6458.101 -525.377)" fill="#343a50"/>
              <path id="Trazado_990150" data-name="Trazado 990150" d="M6572.483,587.653h.093a.246.246,0,0,0,.242-.249.249.249,0,0,0-.25-.241,9.432,9.432,0,0,1-3.868-.981,3.741,3.741,0,0,1-2.214-1.9.246.246,0,0,0-.467.153,4.16,4.16,0,0,0,2.482,2.194A10.019,10.019,0,0,0,6572.483,587.653Z" transform="translate(-6472.409 -543.534)" fill="#343a50"/>
              <path id="Trazado_990151" data-name="Trazado 990151" d="M6502.447,523.825a5.229,5.229,0,0,0,1.918-.343,6.035,6.035,0,0,0,2.739-2.347h0c.685-1.023,1.72-2.57,1.425-3.985-.382-1.838-1.978-2.673-3.325-3.194a24.983,24.983,0,0,0-3.664-1.1c-2.331-.509-3.982-.258-5.051.769a5.668,5.668,0,0,0-1.326,2.618c-.425,1.492-.847,3.647.378,5.126a5.959,5.959,0,0,0,2.834,1.592A13.27,13.27,0,0,0,6502.447,523.825Zm-3.018-10.616a9.343,9.343,0,0,1,1.976.241,24.358,24.358,0,0,1,3.575,1.076c1.276.495,2.625,1.208,2.946,2.747.241,1.164-.707,2.581-1.335,3.519h0a5.518,5.518,0,0,1-2.452,2.117c-1.687.657-3.6.122-5.572-.537a5.493,5.493,0,0,1-2.556-1.4c-1.041-1.256-.647-3.207-.261-4.567a5.077,5.077,0,0,1,1.162-2.343A3.475,3.475,0,0,1,6499.43,513.21Z" transform="translate(-6390.685 -489.566)" fill="#343a50"/>
              <path id="Trazado_990152" data-name="Trazado 990152" d="M6571.961,500.875a3.893,3.893,0,0,0,.83-.085,4.491,4.491,0,0,0,2.873-2.372c.685-1.27,1.407-2.906.9-4.3h0a2.625,2.625,0,0,0-.3-.585,5.6,5.6,0,0,0-1.943-1.624,20.121,20.121,0,0,0-5.738-2.167,2.973,2.973,0,0,0-2.168.132,2.82,2.82,0,0,0-1.1,1.543c-.6,1.68-1.028,4.8.265,6.52,1.356,1.8,3.913,2.532,4.949,2.762A6.574,6.574,0,0,0,6571.961,500.875Zm-4.443-10.661a4.57,4.57,0,0,1,.942.124,19.5,19.5,0,0,1,5.563,2.1,5.058,5.058,0,0,1,1.739,1.434,2.082,2.082,0,0,1,.229.45h0c.421,1.169-.242,2.647-.866,3.8a3.884,3.884,0,0,1-2.463,2.064,4.732,4.732,0,0,1-1.992-.095,8.26,8.26,0,0,1-4.591-2.532c-1.139-1.513-.713-4.449-.178-5.944a2.141,2.141,0,0,1,.829-1.221A1.534,1.534,0,0,1,6567.518,490.214Zm8.762,4h0Z" transform="translate(-6476.018 -472.212)" fill="#343a50"/>
              <path id="Trazado_990153" data-name="Trazado 990153" d="M6494.084,464.635a.3.3,0,0,0,.091-.014,5.712,5.712,0,0,0,2.589-1.8,8.637,8.637,0,0,0,.916-1.377,8.641,8.641,0,0,1,.741-1.148,4.039,4.039,0,0,1,2.219-1.075,6.514,6.514,0,0,1,3.731.865.307.307,0,1,0,.259-.556,7.12,7.12,0,0,0-4.094-.913,4.607,4.607,0,0,0-2.592,1.293,9.254,9.254,0,0,0-.8,1.229,8.078,8.078,0,0,1-.847,1.281,5.118,5.118,0,0,1-2.307,1.618.307.307,0,0,0-.2.384A.31.31,0,0,0,6494.084,464.635Z" transform="translate(-6386.677 -448.786)" fill="#343a50"/>
              <path id="Trazado_990154" data-name="Trazado 990154" d="M6513.654,447.426a.306.306,0,0,0,.291-.211,3.92,3.92,0,0,1,.708-1.351c1.148-1.337,3.22-1.518,4.885-1.663a4.5,4.5,0,0,0,3.006-1.173c.166-.124.336-.253.506-.369a7.188,7.188,0,0,1,6.8-.647.307.307,0,0,0,.245-.562,7.812,7.812,0,0,0-7.391.7c-.181.124-.356.256-.528.384a5.326,5.326,0,0,1-1.342.82,5.383,5.383,0,0,1-1.349.233c-1.776.155-3.987.348-5.3,1.875a4.5,4.5,0,0,0-.826,1.559.308.308,0,0,0,.2.387A.323.323,0,0,0,6513.654,447.426Z" transform="translate(-6416.949 -435.41)" fill="#343a50"/>
              <path id="Trazado_990155" data-name="Trazado 990155" d="M6502.38,612.155a.312.312,0,0,0,.082-.011,23.868,23.868,0,0,0,11.087-6.743.307.307,0,0,0-.451-.416,23.24,23.24,0,0,1-10.8,6.568.307.307,0,0,0,.081.6Z" transform="translate(-6397.535 -559.211)" fill="#343a50"/>
              <path id="Trazado_990156" data-name="Trazado 990156" d="M6478.641,743.839a.3.3,0,0,0,.138-.033l9.346-4.752a.307.307,0,0,0-.278-.547l-9.346,4.752a.307.307,0,0,0,.14.58Z" transform="translate(-6366.371 -660.02)" fill="#343a50"/>
              <path id="Trazado_990157" data-name="Trazado 990157" d="M6544.694,745.189a.306.306,0,0,0,.259-.47,17.46,17.46,0,0,0-4.25-4.64.306.306,0,1,0-.37.489,16.86,16.86,0,0,1,4.1,4.477A.3.3,0,0,0,6544.694,745.189Z" transform="translate(-6438.263 -661.185)" fill="#343a50"/>
              <path id="Trazado_990158" data-name="Trazado 990158" d="M6434.078,577.514a.309.309,0,0,0,.249-.127A12.982,12.982,0,0,0,6436,565.548a25.454,25.454,0,0,0-1.535-3.262,25.7,25.7,0,0,1-1.457-3.064c-1.385-3.73-.945-7.9-.522-11.937.464-4.418.946-8.986-.952-13.021a24.5,24.5,0,0,0-2-3.294,22.327,22.327,0,0,1-2.044-3.416c-1.527-3.428-1.2-7.386-.877-11.214.342-4.105.7-8.35-1.213-12.009-.324-.619-.708-1.208-1.079-1.778a19.538,19.538,0,0,1-1.121-1.869c-1.188-2.371-1.35-5.2-1.49-7.691a.307.307,0,1,0-.612.035c.145,2.553.309,5.447,1.555,7.931a19.806,19.806,0,0,0,1.154,1.929c.363.558.74,1.134,1.048,1.727,1.828,3.5,1.481,7.656,1.146,11.674-.326,3.905-.664,7.943.927,11.515a22.94,22.94,0,0,0,2.1,3.511,23.932,23.932,0,0,1,1.951,3.209c1.824,3.881,1.354,8.362.9,12.7-.432,4.105-.877,8.35.556,12.215a26.376,26.376,0,0,0,1.49,3.137,24.854,24.854,0,0,1,1.5,3.182,12.362,12.362,0,0,1-1.59,11.273.306.306,0,0,0,.068.428A.3.3,0,0,0,6434.078,577.514Z" transform="translate(-6300.771 -474.555)" fill="#343a50"/>
              <path id="Trazado_990159" data-name="Trazado 990159" d="M6410.407,578.387a.307.307,0,0,0,.215-.088c2.541-2.5,2.054-6.712.752-9.82-.4-.958-.877-1.907-1.337-2.824a19.556,19.556,0,0,1-2.336-6.444,19.874,19.874,0,0,1,.515-5.74,16.939,16.939,0,0,0,.342-6.9,17.331,17.331,0,0,0-1.5-3.753,12.962,12.962,0,0,1-1.586-4.489,13.383,13.383,0,0,1,.177-2.974,8.115,8.115,0,0,0-1.826-7.477c-.224-.321-.456-.652-.669-.981a16.711,16.711,0,0,1-2.637-7.8c-.069-.9-.064-1.818-.061-2.709,0-.951.009-1.933-.073-2.9-.512-6.005-4.334-11.33-7.405-15.608a.307.307,0,0,0-.5.358c3.027,4.217,6.795,9.466,7.291,15.3.081.942.077,1.911.072,2.848,0,.9-.009,1.837.062,2.758a17.323,17.323,0,0,0,2.734,8.087c.219.337.454.673.68,1a7.543,7.543,0,0,1,1.721,7.045,13.879,13.879,0,0,0-.179,3.112,13.611,13.611,0,0,0,1.647,4.7,16.867,16.867,0,0,1,1.455,3.618,16.233,16.233,0,0,1-.348,6.646,20.363,20.363,0,0,0-.521,5.919,19.994,19.994,0,0,0,2.4,6.652c.454.908.925,1.848,1.318,2.787,1.225,2.922,1.706,6.859-.617,9.145a.307.307,0,0,0,.215.526Z" transform="translate(-6269.44 -478.366)" fill="#343a50"/>
              <path id="Trazado_990160" data-name="Trazado 990160" d="M6370.179,638.631h0a.306.306,0,0,0,.3-.311,14.192,14.192,0,0,0-2.72-8.13c-.354-.483-.742-.948-1.118-1.4a16.706,16.706,0,0,1-1.69-2.272,17,17,0,0,1-1.677-6.421c-.319-2.5-.649-5.083-2.119-7.175a15.746,15.746,0,0,0-2.219-2.378,12.093,12.093,0,0,1-2.476-2.83,13.5,13.5,0,0,1-1.156-3.529c-.442-1.922-.9-3.91-2.523-5.1a.307.307,0,0,0-.363.494c1.44,1.057,1.852,2.849,2.289,4.745a13.953,13.953,0,0,0,1.218,3.691,12.745,12.745,0,0,0,2.592,2.979,15.241,15.241,0,0,1,2.135,2.282c1.382,1.967,1.688,4.363,2.012,6.9a17.458,17.458,0,0,0,1.755,6.651,17.092,17.092,0,0,0,1.75,2.358c.369.442.75.9,1.094,1.366a13.57,13.57,0,0,1,2.6,7.776A.307.307,0,0,0,6370.179,638.631Z" transform="translate(-6217.641 -554.789)" fill="#343a50"/>
              <path id="Trazado_990161" data-name="Trazado 990161" d="M6462.7,1129.451a.369.369,0,0,0,.254-.1c7.582-7.224,16.11-14.629,26.071-22.638,4.521-3.635,9.2-7.294,13.723-10.833,2.438-1.907,4.96-3.88,7.429-5.826l5.035-3.97a.368.368,0,0,0-.457-.578l-5.034,3.969c-2.467,1.945-4.988,3.917-7.426,5.824-4.525,3.541-9.206,7.2-13.73,10.84-9.977,8.022-18.521,15.44-26.118,22.678a.368.368,0,0,0-.013.521A.361.361,0,0,0,6462.7,1129.451Z" transform="translate(-6389.501 -921.84)" fill="#343a50"/>
              <path id="Trazado_990162" data-name="Trazado 990162" d="M6467.431,896.419l.048,0a.368.368,0,0,0,.318-.412c-.447-3.478-.953-7.054-1.443-10.512-2.322-16.4-4.723-33.348-2.323-49.683a.368.368,0,1,0-.728-.107c-2.417,16.439-.007,33.446,2.323,49.893.489,3.456,1,7.03,1.441,10.5A.368.368,0,0,0,6467.431,896.419Z" transform="translate(-6341.945 -733.154)" fill="#343a50"/>
              <path id="Trazado_990163" data-name="Trazado 990163" d="M6413.809,1105.164a.368.368,0,0,0,.247-.641l-8.15-7.381a.368.368,0,0,0-.494.546l8.15,7.381A.368.368,0,0,0,6413.809,1105.164Z" transform="translate(-6274.333 -930.61)" fill="#343a50"/>
              <path id="Trazado_990164" data-name="Trazado 990164" d="M6439.567,1113.772a.368.368,0,0,0,.32-.548l-5.448-9.7a.368.368,0,1,0-.642.36l5.448,9.7A.367.367,0,0,0,6439.567,1113.772Z" transform="translate(-6307.075 -935.356)" fill="#343a50"/>
              <path id="Trazado_990165" data-name="Trazado 990165" d="M6298.883,890.435a.369.369,0,0,0,.184-.049l3.186-1.832c20.464-11.762,41.625-23.925,59.374-39.12,3.819-3.269,7.714-6.919,10.336-11.443,3.749-6.469,4.416-13.941,5.061-21.167.082-.917.167-1.865.256-2.791.165-1.7.34-3.435.51-5.11.985-9.719,2-19.769,1.425-29.7a59.337,59.337,0,0,0-5.011-21.544c-3.616-7.8-8.923-12.808-14.542-18.111a.368.368,0,1,0-.505.535c5.566,5.253,10.823,10.215,14.379,17.885a58.619,58.619,0,0,1,4.944,21.277c.576,9.876-.44,19.9-1.422,29.586-.17,1.677-.346,3.41-.511,5.114-.089.928-.174,1.878-.256,2.8-.638,7.146-1.3,14.535-4.964,20.863-2.566,4.429-6.409,8.025-10.178,11.253-17.7,15.15-38.827,27.3-59.262,39.041l-3.186,1.832a.368.368,0,0,0,.184.686Z" transform="translate(-6213.34 -660.768)" fill="#343a50"/>
              <path id="Trazado_990166" data-name="Trazado 990166" d="M6321.082,1090.866a.368.368,0,0,0,.365-.331,49.22,49.22,0,0,1,18.546-33.354.368.368,0,1,0-.45-.583,49.7,49.7,0,0,0-18.829,33.862.368.368,0,0,0,.329.4C6321.057,1090.864,6321.069,1090.866,6321.082,1090.866Z" transform="translate(-6179.54 -900.029)" fill="#343a50"/>
              <path id="Trazado_990167" data-name="Trazado 990167" d="M6806.755,1115.266a.368.368,0,0,0,.305-.573,23.7,23.7,0,0,0-27.5-8.546.368.368,0,1,0,.27.685,22.943,22.943,0,0,1,26.615,8.272A.365.365,0,0,0,6806.755,1115.266Z" transform="translate(-6759.058 -936.356)" fill="#343a50"/>
              <path id="Trazado_990168" data-name="Trazado 990168" d="M6804.359,999.191a.368.368,0,0,0,.366-.331c.306-3.032.519-6.115.632-9.162a.368.368,0,1,0-.735-.027c-.113,3.031-.325,6.1-.629,9.115a.368.368,0,0,0,.329.4Z" transform="translate(-6763.344 -849.314)" fill="#343a50"/>
              <path id="Trazado_990169" data-name="Trazado 990169" d="M6809.067,991.473a.37.37,0,0,0,.313-.173c1.737-2.775,3.371-5.661,4.856-8.578a.368.368,0,1,0-.656-.334c-1.476,2.9-3.1,5.764-4.824,8.521a.367.367,0,0,0,.116.507A.383.383,0,0,0,6809.067,991.473Z" transform="translate(-6773.418 -843.933)" fill="#343a50"/>
              <path id="Trazado_990170" data-name="Trazado 990170" d="M6710.491,999.255a.367.367,0,0,0,.362-.306c1.55-9.114,2.478-18.306,3.374-27.2.33-3.257.669-6.625,1.036-9.957.5-4.518.693-9.133.883-13.6.109-2.556.221-5.2.389-7.794a298.781,298.781,0,0,1,5.75-43.912.368.368,0,1,0-.719-.156,299.3,299.3,0,0,0-5.766,44.02c-.168,2.6-.281,5.251-.39,7.811-.188,4.451-.385,9.054-.879,13.548-.367,3.335-.707,6.7-1.036,9.963-.9,8.878-1.821,18.057-3.367,27.147a.367.367,0,0,0,.3.424A.443.443,0,0,0,6710.491,999.255Z" transform="translate(-6657.247 -778.93)" fill="#343a50"/>
            </g>
            <path id="Trazado_990171" data-name="Trazado 990171" d="M6901.6,723.76a4.485,4.485,0,0,0,2.407-.634,2.741,2.741,0,0,0,1.22-1.485c.583-1.926-1.646-3.472-2.978-4.4l-.3-.208a.307.307,0,1,0-.354.5l.3.211c1.272.882,3.193,2.215,2.74,3.714a2.133,2.133,0,0,1-.957,1.142,4.957,4.957,0,0,1-3.866.308,21.831,21.831,0,0,1-5.12-2.163l-.166-.087c-.885-.466-1.794-.912-2.673-1.344-1.3-.641-2.654-1.3-3.957-2.044a.307.307,0,0,0-.3.533c1.318.75,2.677,1.417,3.99,2.062.875.43,1.78.874,2.658,1.336l.166.087a22.272,22.272,0,0,0,5.268,2.218A8.53,8.53,0,0,0,6901.6,723.76Z" transform="translate(-6883.782 -643.801)" fill="#343a50"/>
            <path id="Trazado_990172" data-name="Trazado 990172" d="M6889.674,691.008c2.14,0,3.053-.829,3.426-1.677a2.393,2.393,0,0,0-.332-2.279,6.5,6.5,0,0,0-1.611-1.48,41.486,41.486,0,0,0-3.66-2.283c-1.1-.636-2.246-1.293-3.312-2.038a.307.307,0,0,0-.352.5c1.089.76,2.243,1.424,3.358,2.067a40.712,40.712,0,0,1,3.607,2.248,5.927,5.927,0,0,1,1.466,1.331,1.8,1.8,0,0,1,.275,1.683c-.8,1.823-3.905,1.422-6.366.764a30.507,30.507,0,0,1-10.2-5.321.307.307,0,0,0-.373.487,31.1,31.1,0,0,0,10.419,5.427A14.419,14.419,0,0,0,6889.674,691.008Z" transform="translate(-6868.785 -616.797)" fill="#343a50"/>
            <path id="Trazado_990173" data-name="Trazado 990173" d="M6913.681,746.639a4.258,4.258,0,0,0,1.857-.375,2.636,2.636,0,0,0,1.562-2.142c.076-1.41-1.162-2.913-2.248-4.066a.306.306,0,1,0-.445.421c.588.625,2.152,2.284,2.081,3.612a2.022,2.022,0,0,1-1.213,1.621,4.2,4.2,0,0,1-2.242.282c-4.423-.437-9.28-3.8-12.548-6.3a.307.307,0,0,0-.372.488c3.328,2.539,8.282,5.966,12.86,6.419C6913.22,746.626,6913.455,746.639,6913.681,746.639Z" transform="translate(-6898.644 -660.895)" fill="#343a50"/>
            <path id="Trazado_990174" data-name="Trazado 990174" d="M6887.459,705.285l-.028.01a2.556,2.556,0,0,1-1.592-.129,4.3,4.3,0,0,1-2.306-1.715c-.647-1.039.722-1.525,1.6-1.529a7.864,7.864,0,0,1,2.724.573.383.383,0,0,1,.183.105.377.377,0,0,1,.047.263,20.917,20.917,0,0,1-.513,2.254.239.239,0,0,1-.06.139A.2.2,0,0,1,6887.459,705.285Z" transform="translate(-6865.548 -632.437)" fill="#f17049"/>
            <path id="Trazado_990175" data-name="Trazado 990175" d="M6894.167,728.239a4.216,4.216,0,0,1-2.149-1.684,1.01,1.01,0,0,1,.562-1.5,1.5,1.5,0,0,1,.73-.052,7.465,7.465,0,0,1,2.614.924c.086.046.179.1.2.2a.352.352,0,0,1-.03.2C6895.725,727.36,6895.511,728.876,6894.167,728.239Z" transform="translate(-6875.68 -649.838)" fill="#f17049"/>
            <path id="Trazado_990176" data-name="Trazado 990176" d="M6908.978,751.6a.374.374,0,0,1-.169.176.367.367,0,0,1-.275-.045,8.234,8.234,0,0,1-2.705-2,1.38,1.38,0,0,1-.464-1.173.96.96,0,0,1,.61-.624,2.146,2.146,0,0,1,.9-.092,6.954,6.954,0,0,1,3.064,1.3.33.33,0,0,1,.135.53C6909.722,750.326,6909.358,750.973,6908.978,751.6Z" transform="translate(-6893.005 -667.082)" fill="#f17049"/>
            <path id="Trazado_990177" data-name="Trazado 990177" d="M6895.548,648.29a3.041,3.041,0,0,0-.836,1.44,1.921,1.921,0,0,0,.487,1.5,4.007,4.007,0,0,0,1.309.943,1.876,1.876,0,0,0,1.039.257,1.337,1.337,0,0,0,1-.838c.239-.583-.123-.66-.565-1.016A21.4,21.4,0,0,1,6895.548,648.29Z" transform="translate(-6878.863 -591.965)" fill="#f17049"/>
            <path id="Trazado_990178" data-name="Trazado 990178" d="M6934.836,578.979l4.271-1.783-.561-1.343a2.315,2.315,0,0,0-3.027-1.244h0a2.314,2.314,0,0,0-1.244,3.027Z" transform="translate(-6929.017 -536.227)" fill="#f2ac6e"/>
            <path id="Trazado_990179" data-name="Trazado 990179" d="M6504.548,529.837s4.683-1.277,9.707,3.065C6514.255,532.9,6508.806,535.713,6504.548,529.837Z" transform="translate(-6398.767 -502.445)" fill="#fff"/>
            <path id="Trazado_990180" data-name="Trazado 990180" d="M6578.987,511.356s-4.141,2.135-7.377-2.33c0,0,3.56-.971,7.377,2.33Z" transform="translate(-6479.953 -486.772)" fill="#fff"/>
            <path id="Trazado_990181" data-name="Trazado 990181" d="M6520.666,529.838a9.861,9.861,0,0,1,5.752.624,2.059,2.059,0,0,1-.318.713,3.989,3.989,0,0,1-2.178,1.591A9.388,9.388,0,0,1,6520.666,529.838Z" transform="translate(-6414.885 -502.445)" fill="#4f453b"/>
            <path id="Trazado_990182" data-name="Trazado 990182" d="M6587.47,509.6a2.264,2.264,0,0,1-.268.534,4.025,4.025,0,0,1-1.469,1.306,6.87,6.87,0,0,1-2.883-2.416A7.585,7.585,0,0,1,6587.47,509.6Z" transform="translate(-6491.194 -486.772)" fill="#4f453b"/>
            <path id="Trazado_990183" data-name="Trazado 990183" d="M6504.535,534.27a.245.245,0,0,0,.14-.447l-2.33-1.618a.245.245,0,0,0-.28.4l2.329,1.618A.242.242,0,0,0,6504.535,534.27Z" transform="translate(-6388.657 -504.33)" fill="#343a50"/>
            <path id="Trazado_990184" data-name="Trazado 990184" d="M6574.564,509.272a.245.245,0,0,0,.14-.447l-1.679-1.169a.246.246,0,0,0-.281.4l1.681,1.168A.249.249,0,0,0,6574.564,509.272Z" transform="translate(-6476.029 -485.805)" fill="#343a50"/>
            <path id="Trazado_990185" data-name="Trazado 990185" d="M6553.032,524.213a.307.307,0,0,0,.184-.552,10.039,10.039,0,0,0-5.187-1.948.307.307,0,0,0-.047.612,9.423,9.423,0,0,1,4.867,1.828A.307.307,0,0,0,6553.032,524.213Z" transform="translate(-6448.438 -496.445)" fill="#343a50"/>
            <path id="Trazado_990186" data-name="Trazado 990186" d="M6501.312,498a.886.886,0,0,1-.259-.536.723.723,0,0,1,.5-.614,2.539,2.539,0,0,1,2.043.4,10.265,10.265,0,0,1,2.509,1.642c.715.7,2.083,3.892.026,2.7-.76-.44-1.432-1.053-2.153-1.553A13.228,13.228,0,0,1,6501.312,498Z" transform="translate(-6390.866 -477.613)" fill="#4f453b"/>
            <path id="Trazado_990187" data-name="Trazado 990187" d="M6566.008,484.806a1.789,1.789,0,0,1-.594-.215.636.636,0,0,1-.312-.522c.009-.343.366-.561.688-.676a7.392,7.392,0,0,1,3.956-.079c.593.121,1.379.341,1.652.949a.787.787,0,0,1-.583,1.185C6569.448,485.768,6567.347,485.114,6566.008,484.806Z" transform="translate(-6470.87 -467.295)" fill="#4f453b"/>
          </g>
        </g>
        <circle id="Elipse_11733" data-name="Elipse 11733" cx="8.167" cy="8.167" r="8.167" transform="translate(102.279 140.781) rotate(-135)" fill="#67bead"/>
      </g>
    </g>
  </g>
</svg>
