<svg xmlns="http://www.w3.org/2000/svg" xmlns:xlink="http://www.w3.org/1999/xlink" width="400" height="373" viewBox="0 0 400 373">
  <defs>
    <clipPath id="clip-path">
      <rect id="Rectángulo_409650" data-name="Rectángulo 409650" width="400" height="373" transform="translate(1020 7603)" fill="#fff" stroke="#707070" stroke-width="1" opacity="0.62"/>
    </clipPath>
    <filter id="Trazado_990817" x="-37.818" y="-78.042" width="460.772" height="490.595" filterUnits="userSpaceOnUse">
      <feOffset dy="3" input="SourceAlpha"/>
      <feGaussianBlur stdDeviation="3" result="blur"/>
      <feFlood flood-opacity="0.161"/>
      <feComposite operator="in" in2="blur"/>
      <feComposite in="SourceGraphic"/>
    </filter>
  </defs>
  <g id="Enmascarar_grupo_1098779" data-name="Enmascarar grupo 1098779" transform="translate(-1020 -7603)" clip-path="url(#clip-path)">
    <g id="Grupo_1156592" data-name="Grupo 1156592">
      <g transform="matrix(1, 0, 0, 1, 1020, 7603)" filter="url(#Trazado_990817)">
        <path id="Trazado_990817-2" data-name="Trazado 990817" d="M31.313,347.459C-62.608,228.907,78.885,235.212,139.988,135.52,234.171-18.141,283.734-27.9,326.031,40.557s25.531,210.33-61.158,288.795S81.285,410.543,31.313,347.459Z" transform="translate(79.17 -72.04) rotate(16)" fill="#e89076" fill-rule="evenodd"/>
      </g>
      <g id="Grupo_1156591" data-name="Grupo 1156591" transform="translate(-47.754 -40.838)">
        <g id="Grupo_1156347" data-name="Grupo 1156347" transform="translate(1092.148 7806.087)">
          <g id="Grupo_1156345" data-name="Grupo 1156345" transform="translate(25.322)">
            <path id="Trazado_989880" data-name="Trazado 989880" d="M4968.379,749.662q-1.717-1.345-3.429-2.712a211.421,211.421,0,0,0-7.081,36.947c-2.51,24.968,7.178,53.237,19.813,74.589a205.757,205.757,0,0,0,23.425,31.486c4.285,4.832,8.739,9.511,13.289,14.095,1.891,1.905,13.209,10.487,13.122,12.745,1.245-31.982,2.021-64.99-6.67-96.1-4.138-14.811-10.585-28.987-19.883-41.289C4991.815,767.314,4980.064,758.815,4968.379,749.662Z" transform="translate(-4957.471 -746.95)" fill="#f2ac6e"/>
            <path id="Trazado_989881" data-name="Trazado 989881" d="M5007.134,801.249a.428.428,0,0,0-.191.1.435.435,0,0,0-.128.425c6.188,25.117,29.142,90.888,41.25,125.023l.7-.642c-12.135-34.219-34.943-99.591-41.1-124.59A.437.437,0,0,0,5007.134,801.249Z" transform="translate(-4992.047 -785)" fill="#fff"/>
            <path id="Trazado_989882" data-name="Trazado 989882" d="M4996.548,885.62a.435.435,0,0,0,.591-.234l11.414-28.82a.436.436,0,1,0-.811-.321L4996.5,884.633l-24.085-11.373a.436.436,0,0,0-.373.788Z" transform="translate(-4967.51 -823.363)" fill="#fff"/>
            <path id="Trazado_989883" data-name="Trazado 989883" d="M5029.934,1007.215a.434.434,0,0,0,.629-.154L5046,978.171a.436.436,0,1,0-.769-.411l-15.2,28.461-27.084-18.536a.438.438,0,0,0-.542.039.413.413,0,0,0-.063.075.435.435,0,0,0,.113.606Z" transform="translate(-4988.862 -908.565)" fill="#fff"/>
            <path id="Trazado_989884" data-name="Trazado 989884" d="M5067.985,1100.12a.436.436,0,0,0,.589-.193l13.565-27.054a.436.436,0,0,0-.78-.391l-13.367,26.661-23.944-12.311a.437.437,0,0,0-.5.067.466.466,0,0,0-.093.122.436.436,0,0,0,.188.587Z" transform="translate(-5017.708 -974.95)" fill="#fff"/>
            <path id="Trazado_989885" data-name="Trazado 989885" d="M5106.736,949.766a6.039,6.039,0,1,0-8.533-.35A6.045,6.045,0,0,0,5106.736,949.766Zm-7.594-8.242a5.167,5.167,0,1,1-.3,7.3A5.174,5.174,0,0,1,5099.143,941.524Z" transform="translate(-5054.994 -881.761)" fill="#fff"/>
            <path id="Trazado_989886" data-name="Trazado 989886" d="M5062.726,1092.769a4.171,4.171,0,1,0-5.894-.242A4.177,4.177,0,0,0,5062.726,1092.769Zm-5.06-5.494a3.3,3.3,0,1,1-.191,4.663A3.3,3.3,0,0,1,5057.666,1087.275Z" transform="translate(-5026.342 -984.265)" fill="#fff"/>
          </g>
          <g id="Grupo_1156346" data-name="Grupo 1156346" transform="translate(0 94.195)">
            <path id="Trazado_989887" data-name="Trazado 989887" d="M4875.126,1062.146q-1.157-.123-2.318-.258a112.876,112.876,0,0,0,7.243,18.726c5.926,12.011,18.307,22.066,30.064,28.158a109.809,109.809,0,0,0,19.508,7.626c3.307.975,6.646,1.833,10,2.621,1.4.328,8.945,1.01,9.543,2.057-8.481-14.828-17.465-29.988-30.2-41.613a65.691,65.691,0,0,0-20.677-13.066C4890.727,1063.507,4883,1062.983,4875.126,1062.146Z" transform="translate(-4872.808 -1061.888)" fill="#f17049"/>
            <path id="Trazado_989888" data-name="Trazado 989888" d="M4899.527,1079.116a.23.23,0,0,0-.058.1.234.234,0,0,0,.063.229c9.9,9.619,38.9,32.9,54.03,44.923l.134-.488c-15.171-12.057-43.983-35.195-53.84-44.769A.233.233,0,0,0,4899.527,1079.116Z" transform="translate(-4891.489 -1073.914)" fill="#fff"/>
            <path id="Trazado_989889" data-name="Trazado 989889" d="M4930.03,1096.5a.234.234,0,0,0,.2-.273l-2.984-16.273a.233.233,0,0,0-.458.084l2.94,16.029-14.119,1.664a.231.231,0,0,0-.2.17.231.231,0,0,0,.25.293Z" transform="translate(-4902.665 -1074.416)" fill="#fff"/>
            <path id="Trazado_989890" data-name="Trazado 989890" d="M4974.787,1137.448a.234.234,0,0,0,.242-.248l-1.185-17.441a.233.233,0,0,0-.464.032l1.168,17.182-17.5-.73a.232.232,0,0,0-.233.171.186.186,0,0,0-.008.052.231.231,0,0,0,.222.242Z" transform="translate(-4931.681 -1102.298)" fill="#fff"/>
            <path id="Trazado_989891" data-name="Trazado 989891" d="M5021.242,1172.065a.233.233,0,0,0,.213-.254l-1.512-16.082a.233.233,0,0,0-.463.044l1.489,15.848-14.319,1.2a.232.232,0,0,0-.2.17.225.225,0,0,0-.007.081.232.232,0,0,0,.251.212Z" transform="translate(-4966.47 -1127.514)" fill="#fff"/>
            <path id="Trazado_989892" data-name="Trazado 989892" d="M4989.262,1113.386a3.223,3.223,0,1,0-3.962,2.255A3.227,3.227,0,0,0,4989.262,1113.386Zm-5.77-1.582a2.758,2.758,0,1,1,1.93,3.39A2.762,2.762,0,0,1,4983.493,1111.8Z" transform="translate(-4949.994 -1095.126)" fill="#fff"/>
            <path id="Trazado_989893" data-name="Trazado 989893" d="M5008.9,1192.162a2.226,2.226,0,1,0-2.735,1.558A2.227,2.227,0,0,0,5008.9,1192.162Zm-3.843-1.056a1.762,1.762,0,1,1,1.233,2.165A1.763,1.763,0,0,1,5005.058,1191.106Z" transform="translate(-4965.132 -1151.224)" fill="#fff"/>
          </g>
        </g>
        <g id="Grupo_1156430" data-name="Grupo 1156430" transform="translate(1167.217 7890.071)">
          <path id="Trazado_990296" data-name="Trazado 990296" d="M5379.578,1202.1l-206.334.694c-10.427.035-18.918-11.152-18.964-24.987v-.506c-.046-13.835,8.369-25.079,18.8-25.114l206.335-.694Z" transform="translate(-5145.161 -1114.484)" fill="#67bead"/>
          <g id="Grupo_1156428" data-name="Grupo 1156428" transform="translate(26.621 42.687)">
            <path id="Trazado_990297" data-name="Trazado 990297" d="M5422.772,1208.445l-189.435.637a17.286,17.286,0,0,1-17.391-17.179l0-.348a17.287,17.287,0,0,1,17.277-17.3l189.433-.637Z" transform="translate(-5215.004 -1172.679)" fill="#fff"/>
            <path id="Trazado_990298" data-name="Trazado 990298" d="M5231.073,1207.81a18.246,18.246,0,0,1-18.271-18.115v-.35a18.013,18.013,0,0,1,5.31-12.869,18.207,18.207,0,0,1,12.9-5.367l190.373-.64.123,36.7-.938,0-189.433.637Zm188.443-35.455-188.5.633a16.331,16.331,0,0,0-11.577,4.814,16.142,16.142,0,0,0-4.762,11.539v.35a16.365,16.365,0,0,0,16.392,16.24h.057l188.493-.633Z" transform="translate(-5212.802 -1170.468)" fill="#5e9cf1"/>
          </g>
          <rect id="Rectángulo_409606" data-name="Rectángulo 409606" width="193.801" height="1.238" transform="translate(40.047 55.4) rotate(-0.195)" fill="#f2ac6e"/>
          <rect id="Rectángulo_409607" data-name="Rectángulo 409607" width="193.801" height="1.238" transform="translate(31.266 61.049) rotate(-0.195)" fill="#f2ac6e"/>
          <rect id="Rectángulo_409608" data-name="Rectángulo 409608" width="193.801" height="1.238" transform="translate(40.08 65.865) rotate(-0.195)" fill="#f2ac6e"/>
          <path id="Trazado_990299" data-name="Trazado 990299" d="M5344.335,1065.087l-201.994.679a18.483,18.483,0,0,1-18.545-18.421l0-.373a18.484,18.484,0,0,1,18.421-18.545l201.994-.679Z" transform="translate(-5123.794 -1027.747)" fill="#048987"/>
          <g id="Grupo_1156429" data-name="Grupo 1156429" transform="translate(12.771 4.246)">
            <path id="Trazado_990300" data-name="Trazado 990300" d="M5376.442,1072.4l-189.434.637c-9.573.032-17.354-5.992-17.379-13.455v-.273c-.025-7.464,7.715-13.54,17.288-13.572l189.434-.637Z" transform="translate(-5168.69 -1044.157)" fill="#fff"/>
            <path id="Trazado_990301" data-name="Trazado 990301" d="M5184.74,1071.765c-10.04,0-18.218-6.444-18.245-14.392v-.271c-.025-7.971,8.15-14.482,18.225-14.517l190.371-.64.1,29.179-.939,0-189.433.639Zm188.479-27.935-188.492.633c-9.041.031-16.375,5.7-16.354,12.629l0,.272c.023,6.917,7.359,12.522,16.366,12.522h.07l188.492-.635Z" transform="translate(-5166.493 -1041.944)" fill="#5e9cf1"/>
          </g>
          <rect id="Rectángulo_409609" data-name="Rectángulo 409609" width="193.801" height="0.97" transform="translate(26.198 14.547) rotate(-0.195)" fill="#f2ac6e"/>
          <rect id="Rectángulo_409610" data-name="Rectángulo 409610" width="193.801" height="0.97" transform="translate(17.411 18.983) rotate(-0.195)" fill="#f2ac6e"/>
          <rect id="Rectángulo_409611" data-name="Rectángulo 409611" width="193.801" height="0.97" transform="translate(26.225 22.751) rotate(-0.195)" fill="#f2ac6e"/>
          <path id="Trazado_990302" data-name="Trazado 990302" d="M5270.138,1075.931a89,89,0,0,0-1.718,18.889c.046,2.844.217,5.773-.756,8.446-2.514,6.9-11.336,9.3-15.3,15.487a38.984,38.984,0,0,0,25.13-11.2,49.168,49.168,0,0,1,.231,17.235,30.432,30.432,0,0,0,15.287-23.094c.947-9.133-2.052-19.458,3.4-26.849Q5283.266,1075.208,5270.138,1075.931Z" transform="translate(-5213.908 -1060.76)" fill="#f17049"/>
        </g>
        <g id="Grupo_1156437" data-name="Grupo 1156437" transform="translate(1230.369 7648)">
          <g id="Grupo_1156436" data-name="Grupo 1156436" transform="translate(0)">
            <g id="Grupo_1156434" data-name="Grupo 1156434">
              <path id="Trazado_990303" data-name="Trazado 990303" d="M5377.24,327.97c-4.583-3.158-7.4-7.683-7.261-12.634.264-9.118,10.479-16.225,22.818-15.875s22.126,8.025,21.864,17.143c-.144,4.951-3.222,9.308-7.979,12.2l-.032,1.105,41.983,1.173,1.223-42.948,2.541.443c2.892,4.756,7.249,7.83,12.2,7.969,9.116.255,16.792-9.543,17.143-21.883s-6.754-22.551-15.87-22.806c-4.95-.138-9.475,2.688-12.634,7.275l-2.568.549.724-25.442a86.151,86.151,0,0,1,17.065,156.631l-.174,51.944a36.3,36.3,0,0,1-36.421,36.177l-11.744-.039a36.3,36.3,0,0,1-36.177-36.421l.17-50.541a86.188,86.188,0,0,1-44.151-63.944l37.249,1.041Z" transform="translate(-5338.458 -229.501)" fill="#f5d278"/>
              <path id="Trazado_990304" data-name="Trazado 990304" d="M5377.24,327.97c-4.583-3.158-7.4-7.683-7.261-12.634.264-9.118,10.479-16.225,22.818-15.875s22.126,8.025,21.864,17.143c-.144,4.951-3.222,9.308-7.979,12.2l-.032,1.105,41.983,1.173,1.223-42.948,2.541.443c2.892,4.756,7.249,7.83,12.2,7.969,9.116.255,16.792-9.543,17.143-21.883s-6.754-22.551-15.87-22.806c-4.95-.138-9.475,2.688-12.634,7.275l-2.568.549.724-25.442a86.151,86.151,0,0,1,17.065,156.631l-.174,51.944a36.3,36.3,0,0,1-36.421,36.177l-11.744-.039a36.3,36.3,0,0,1-36.177-36.421l.17-50.541a86.188,86.188,0,0,1-44.151-63.944l37.249,1.041Z" transform="translate(-5338.458 -229.501)" fill="#f5d278"/>
              <g id="Grupo_1156431" data-name="Grupo 1156431">
                <path id="Trazado_990305" data-name="Trazado 990305" d="M5423.729,220.772a86.077,86.077,0,0,1,25.811,4.027l-.724,25.442,2.569-.549c3.158-4.587,7.683-7.413,12.633-7.275,9.116.255,16.222,10.465,15.87,22.806s-8.026,22.138-17.143,21.883c-4.95-.138-9.306-3.213-12.2-7.969l-2.541-.443L5446.8,321.1l-.016.54-41.984-1.173.032-1.105c4.759-2.893,7.836-7.251,7.979-12.2.264-9.118-9.525-16.793-21.864-17.143s-22.554,6.758-22.817,15.875c-.144,4.951,2.678,9.475,7.261,12.634l-.033,1.118-37.249-1.041a86.188,86.188,0,0,1,85.621-97.832Z" transform="translate(-5336.607 -220.06)" fill="#ff5b05"/>
                <path id="Trazado_990306" data-name="Trazado 990306" d="M5402.4,319.494l.064-2.2.331-.2c4.723-2.872,7.507-7.106,7.638-11.614.121-4.178-1.987-8.184-5.934-11.279a25.953,25.953,0,0,0-15.238-5.132c-.251-.007-.5-.011-.752-.012A25.678,25.678,0,0,0,5373.5,293.5c-3.963,2.848-6.21,6.665-6.329,10.749-.13,4.508,2.4,8.892,6.955,12.027l.318.22-.064,2.215-38.563-1.078-.082-.6a87.863,87.863,0,0,1-.8-12.1,86.9,86.9,0,0,1,113.149-82.48l.512.162-.714,25.073,1.408-.3c3.4-4.8,8.16-7.484,13.076-7.349,4.641.13,8.92,2.678,12.051,7.176a28.975,28.975,0,0,1-.818,32.307c-3.307,4.293-7.648,6.65-12.222,6.634q-.162,0-.323-.005c-4.91-.137-9.493-3.06-12.617-8.034l-1.415-.247-1.22,42.837Zm46.919-42.669.167.276c2.872,4.721,7.1,7.5,11.612,7.627,4.228.123,8.276-2.049,11.377-6.075a27.556,27.556,0,0,0,.776-30.625c-2.865-4.117-6.744-6.449-10.922-6.566-.1,0-.192,0-.288,0-4.4-.015-8.679,2.526-11.74,6.971l-.16.233-3.731.8.734-25.809a85.473,85.473,0,0,0-110.782,81.289,86.436,86.436,0,0,0,.7,11.305l35.932,1v-.024c-4.753-3.4-7.391-8.125-7.25-13.017.131-4.538,2.589-8.751,6.92-11.864a27.107,27.107,0,0,1,15.842-4.714c.261,0,.524.005.787.013a27.387,27.387,0,0,1,16.077,5.435c4.312,3.381,6.612,7.8,6.479,12.44-.142,4.892-3.047,9.46-7.991,12.584v.01l40.562,1.134,1.226-43.058Z" transform="translate(-5334.94 -218.393)" fill="#f17049"/>
              </g>
              <g id="Grupo_1156432" data-name="Grupo 1156432" transform="translate(0.683 69.235)">
                <path id="Trazado_990307" data-name="Trazado 990307" d="M5377.207,481.9l.032-1.118c-4.583-3.158-7.4-7.683-7.262-12.634.263-9.118,10.479-16.225,22.818-15.875s22.126,8.025,21.863,17.143c-.144,4.951-3.222,9.308-7.979,12.2l-.032,1.105,13.956.39-2.432,41.511-2.526-.519c-2.748-4.841-7.011-8.045-11.954-8.331-9.1-.529-17.07,9.034-17.793,21.358s6.073,22.744,15.18,23.272c4.942.287,9.551-2.4,12.846-6.892l2.583-.471-1.489,25.408a86.582,86.582,0,0,0,53.316,1.236l-.054,15.942a36.3,36.3,0,0,1-36.422,36.177l-11.743-.039a36.3,36.3,0,0,1-36.178-36.421l.171-50.541a86.19,86.19,0,0,1-44.152-63.944Z" transform="translate(-5339.139 -451.547)" fill="#f5d278"/>
                <path id="Trazado_990308" data-name="Trazado 990308" d="M5381.312,593.671l.169-50.118a86.9,86.9,0,0,1-44.144-64.268l-.113-.831L5374.6,479.5v-.024c-4.753-3.4-7.392-8.125-7.25-13.017.13-4.538,2.588-8.751,6.92-11.864a27.112,27.112,0,0,1,15.842-4.715c.262,0,.523.005.787.013a27.385,27.385,0,0,1,16.077,5.435c4.312,3.381,6.613,7.8,6.479,12.44-.141,4.892-3.048,9.46-7.991,12.584v.01l13.976.391-2.522,43.065-3.648-.75-.159-.281c-2.728-4.805-6.874-7.711-11.377-7.972-.211-.012-.427-.019-.639-.02-4.052-.014-7.975,2.084-11.042,5.906a27.582,27.582,0,0,0-1.57,30.432c2.741,4.2,6.547,6.648,10.719,6.891.212.012.427.019.64.02,4.33.015,8.447-2.337,11.591-6.622l.168-.229,3.753-.684-1.51,25.775a85.415,85.415,0,0,0,24.961,4.585c.867.029,1.746.045,2.612.048a85.229,85.229,0,0,0,24.8-3.583l.919-.276-.057,16.9a37.054,37.054,0,0,1-37.135,36.886l-11.744-.039A37.052,37.052,0,0,1,5381.312,593.671Zm60.1-11.331c-.88,0-1.773-.019-2.654-.049a86.845,86.845,0,0,1-25.892-4.84l-.5-.178,1.466-25.04-1.417.258c-3.357,4.452-7.926,6.991-12.575,6.975-.238,0-.479-.008-.717-.022-4.634-.269-8.835-2.945-11.828-7.534a27.4,27.4,0,0,1-4.019-16.49c.727-12.4,8.557-22.081,17.828-22.049.237,0,.479.008.717.022,4.9.285,9.4,3.344,12.369,8.409l1.407.289,2.341-39.957L5404,481.743l.064-2.2.33-.2c4.724-2.872,7.508-7.106,7.638-11.614.121-4.178-1.986-8.184-5.934-11.279a25.954,25.954,0,0,0-15.239-5.132c-.251-.007-.5-.011-.751-.012a25.675,25.675,0,0,0-15.006,4.447c-3.963,2.848-6.211,6.665-6.329,10.749-.131,4.508,2.4,8.892,6.954,12.027l.319.22-.064,2.215-37.118-1.037a85.721,85.721,0,0,0,43.67,62.584l.373.2-.172,50.965a35.627,35.627,0,0,0,35.468,35.707l11.744.04a35.628,35.628,0,0,0,35.707-35.467l.05-14.988A86.642,86.642,0,0,1,5441.411,582.339Z" transform="translate(-5337.224 -449.878)" fill="#f17049"/>
              </g>
              <g id="Grupo_1156433" data-name="Grupo 1156433" transform="translate(46.678 100.068)">
                <path id="Trazado_990309" data-name="Trazado 990309" d="M5548.239,655.547a86.084,86.084,0,0,1-25.679-4.8l1.487-25.408-2.583.471c-3.295,4.49-7.9,7.179-12.846,6.892-9.1-.528-15.9-10.948-15.179-23.272s8.688-21.887,17.792-21.359c4.944.287,9.206,3.491,11.955,8.332l2.525.519,2.432-41.511,28.028.783.016-.54,13.967.811-.065,1.1c-4.842,2.749-8.051,7.012-8.342,11.957-.538,9.106,9.016,17.072,21.339,17.792s22.747-6.077,23.284-15.183c.292-4.944-2.392-9.552-6.878-12.847l.065-1.116,17.562,1.019A86.24,86.24,0,0,1,5576,615.982l-.121,36A86.038,86.038,0,0,1,5548.239,655.547Z" transform="translate(-5492.676 -554.679)" fill="#67bead"/>
                <path id="Trazado_990310" data-name="Trazado 990310" d="M5546.546,654.546a86.844,86.844,0,0,1-25.891-4.84l-.506-.178,1.467-25.04-1.417.258c-3.357,4.452-7.926,6.99-12.575,6.975-.238,0-.479-.008-.717-.022-4.634-.269-8.836-2.945-11.829-7.534a27.4,27.4,0,0,1-4.019-16.49c.727-12.4,8.557-22.081,17.828-22.049.238,0,.479.008.716.022,4.9.285,9.4,3.344,12.37,8.409l1.406.289,2.425-41.379,28.007.783.017-.562,15.409.895-.13,2.2-.337.191c-4.807,2.729-7.717,6.877-7.982,11.379-.247,4.173,1.74,8.24,5.592,11.452a25.953,25.953,0,0,0,15.078,5.588c.547.032,1.1.049,1.646.051,11.228.038,20.4-6.359,20.887-14.565.265-4.5-2.136-8.96-6.59-12.231l-.312-.229.13-2.212,19.1,1.109-.169.809a86.964,86.964,0,0,1-41.109,57.055l-.122,36.122-.506.152a86.65,86.65,0,0,1-25.21,3.643C5548.32,654.592,5547.429,654.576,5546.546,654.546Zm27.071-40.688.354-.205a85.547,85.547,0,0,0,40.611-55.513l-16.023-.93v.024c4.649,3.541,7.145,8.343,6.856,13.229-.26,4.409-2.729,8.469-6.954,11.431a26.733,26.733,0,0,1-15.358,4.474c-.571,0-1.152-.02-1.725-.053a27.386,27.386,0,0,1-15.907-5.916c-4.208-3.509-6.374-7.994-6.1-12.629.288-4.886,3.33-9.364,8.364-12.339v-.01l-12.523-.727-.015.519-28.05-.784-2.439,41.643-3.648-.75-.159-.281c-2.728-4.805-6.875-7.711-11.376-7.972-4.269-.249-8.45,1.862-11.682,5.886a27.579,27.579,0,0,0-1.569,30.432c2.741,4.2,6.547,6.648,10.719,6.891,4.483.261,8.978-2.17,12.231-6.6l.167-.228,3.753-.684-1.51,25.775a85.423,85.423,0,0,0,24.961,4.585c.867.029,1.746.045,2.612.048a85.24,85.24,0,0,0,24.29-3.433Z" transform="translate(-5491.006 -552.967)" fill="#fff"/>
              </g>
              <path id="Trazado_990311" data-name="Trazado 990311" d="M5523.068,912.861l11.745.04c20.046.067,36.333-9.711,36.372-21.841l.127-37.467-84.342-.284-.126,37.467C5486.8,902.907,5503.023,912.795,5523.068,912.861Z" transform="translate(-5441.411 -663.41)" fill="#fff" stroke="#201f1a" stroke-miterlimit="10" stroke-width="7"/>
              <path id="Trazado_990312" data-name="Trazado 990312" d="M5634.528,472.531c.909-2.02,1.673-4.1,2.6-6.114.242-.527.959-.2.994.273.291,3.927-1.215,7.945-.7,11.848,2.462-2.665,2.646-7.2,6.2-8.843a.542.542,0,0,1,.8.464c.177,3.62-1.1,7.17-2.591,10.41-.288.625-1.206.078-.92-.542a22.923,22.923,0,0,0,2.451-8.935,9.7,9.7,0,0,0-2.7,4.032,12.117,12.117,0,0,1-3.225,4.851.54.54,0,0,1-.891-.239c-.761-3.445.222-6.945.481-10.43-.521,1.258-1.025,2.524-1.583,3.766C5635.169,473.7,5634.251,473.154,5634.528,472.531Z" transform="translate(-5544.887 -392.046)" fill="#f2ac6e"/>
              <path id="Trazado_990313" data-name="Trazado 990313" d="M5583.721,304.191a.537.537,0,0,1,.658-.371c2.58,1.008,3.94,3.442,5.182,5.857a25.653,25.653,0,0,1-.225-8.854.54.54,0,0,1,.786-.316c1.756.868,2.649,2.805,3.283,4.555a37.523,37.523,0,0,1,1.517,6.6c.114.674-.915.958-1.03.28a46.964,46.964,0,0,0-1.229-5.724,8.641,8.641,0,0,0-2.42-4.366c-.5,3.563.319,7.213.859,10.726a.536.536,0,0,1-.977.408c-1.556-2.563-2.692-6.442-5.542-7.912-.952,3.809.584,7.662.732,11.5.027.689-1.04.682-1.068,0C5584.089,312.414,5582.4,308.319,5583.721,304.191Z" transform="translate(-5508.96 -275.904)" fill="#f2ac6e"/>
              <path id="Trazado_990314" data-name="Trazado 990314" d="M5648.475,627.871a.541.541,0,0,1,.73-.189c3.131,1.374,3.758,4.987,5.436,7.681-.08-2.108-.559-4.219-.719-6.31-.186-2.438.015-5.224,2.051-6.88a.54.54,0,0,1,.648-.081c3.353,2.49,3.625,6.969,5.012,10.594.247.644-.787.916-1.031.28-1.214-3.17-1.471-7.4-4.227-9.718-1.6,1.618-1.531,4.121-1.348,6.274.208,2.458.85,4.941.657,7.418a.539.539,0,0,1-.912.374c-2.2-2.434-2.653-6.712-5.578-8.437-1.114,2.831-.292,6.449,1.156,8.982a.534.534,0,0,1-.924.536C5647.69,635.361,5646.893,631.123,5648.475,627.871Z" transform="translate(-5554.103 -501.294)" fill="#f2ac6e"/>
              <path id="Trazado_990315" data-name="Trazado 990315" d="M5667.294,795.982c.215-.651,1.245-.368,1.027.287-.767,2.315-2.447,4.56-2.276,7.077,3.071-.618,5-4.566,6.17-7.1.252-.547,1.206-.143.975.415a51.673,51.673,0,0,0-2,5.269,8.65,8.65,0,0,0-.224,5.242c3.023-1.285,3.724-5.654,4.328-8.493.144-.673,1.172-.384,1.029.287-.729,3.419-1.654,8.225-5.516,9.4a.532.532,0,0,1-.6-.247,8.921,8.921,0,0,1-.174-6.178,6.745,6.745,0,0,1-4.452,2.545.525.525,0,0,1-.513-.394C5664.59,801.088,5666.393,798.7,5667.294,795.982Z" transform="translate(-5566.272 -622.971)" fill="#f2ac6e"/>
              <path id="Trazado_990316" data-name="Trazado 990316" d="M5559.344,731.288c.417-.536,1.342,0,.92.542-1.323,1.706-3.877,3.611-3.364,5.978,2.147-.672,3.968-2.194,6.218-2.558.494-.079.937.494.517.894-1.824,1.741-4.41,3.6-4.292,6.36,2.938-.714,5.013-3.308,7.006-5.428.473-.5,1.224.257.752.758-2.25,2.394-4.633,5.312-8.084,5.819a.542.542,0,0,1-.656-.375c-.42-2.684,1.073-4.571,2.821-6.282a25.994,25.994,0,0,1-4.5,1.982.547.547,0,0,1-.655-.375C5554.822,735.59,5557.706,733.4,5559.344,731.288Z" transform="translate(-5489.702 -577.729)" fill="#f2ac6e"/>
              <path id="Trazado_990317" data-name="Trazado 990317" d="M5495.622,318.783a.535.535,0,0,1,1.029.287,22.2,22.2,0,0,0-.747,5.529c.01,1.606.333,3.606,1.946,4.232.973-2.279,1.3-4.772,2.061-7.122a.536.536,0,0,1,1.047.145,26.738,26.738,0,0,0,.536,5.336c.3,1.381.854,3.193,2.209,3.875,1.083-3.347.277-7.069-.614-10.371a.534.534,0,0,1,1.03-.28c.985,3.654,1.852,7.839.417,11.492a.545.545,0,0,1-.658.371c-1.9-.522-2.771-2.447-3.263-4.193a18.058,18.058,0,0,1-.542-2.907,25.038,25.038,0,0,1-1.468,4.57.538.538,0,0,1-.6.243C5493.412,329.043,5494.833,321.915,5495.622,318.783Z" transform="translate(-5446.973 -288.491)" fill="#f5d278"/>
              <path id="Trazado_990318" data-name="Trazado 990318" d="M5364.818,482.83c1.179-3.477,1.847-8.883,6.366-9.4a.512.512,0,0,1,.459.266,8.531,8.531,0,0,1,.21,5.412,9.622,9.622,0,0,1,4.517-3.533.528.528,0,0,1,.6.247c1.288,3.071-1.488,5.734-2.589,8.392-.26.627-1.292.349-1.028-.287a33.642,33.642,0,0,1,1.9-3.56,5.19,5.19,0,0,0,.93-3.579c-2.673,1.16-4.517,4.07-5.427,6.719a.535.535,0,0,1-1.03-.287c.523-2.689,2.1-5.925,1.117-8.668-3.486.7-4.061,5.8-5,8.567C5365.625,483.765,5364.6,483.484,5364.818,482.83Z" transform="translate(-5355.86 -397.149)" fill="#f5d278"/>
              <path id="Trazado_990319" data-name="Trazado 990319" d="M5468.517,906.351l88.725.3a3.5,3.5,0,0,0,3.512-3.488v-.07a3.5,3.5,0,0,0-3.488-3.511l-88.726-.3a3.5,3.5,0,0,0-3.51,3.488v.071A3.5,3.5,0,0,0,5468.517,906.351Z" transform="translate(-5426.121 -695.634)" fill="#343a50"/>
              <path id="Trazado_990320" data-name="Trazado 990320" d="M5468.368,951.452l88.726.3a3.5,3.5,0,0,0,3.511-3.488v-.07a3.5,3.5,0,0,0-3.488-3.511l-88.725-.3a3.5,3.5,0,0,0-3.512,3.488v.07A3.5,3.5,0,0,0,5468.368,951.452Z" transform="translate(-5426.016 -727.245)" fill="#343a50"/>
              <ellipse id="Elipse_11737" data-name="Elipse 11737" cx="3.587" cy="21.56" rx="3.587" ry="21.56" transform="translate(65.793 251.374) rotate(-89.805)" fill="#343a50"/>
              <path id="Trazado_990321" data-name="Trazado 990321" d="M5560.165,606.882c1.169-.469,1.9-1.6,2.928-2.3a.537.537,0,0,1,.8.464,34.918,34.918,0,0,0-.523,3.582,27,27,0,0,0,2.97-3.46c.422-.543,1.17.222.752.758a21.881,21.881,0,0,1-3.883,4.212.535.535,0,0,1-.783-.322,8.991,8.991,0,0,1,.2-3.5,7.384,7.384,0,0,1-2.186,1.594C5559.806,608.169,5559.537,607.135,5560.165,606.882Z" transform="translate(-5492.553 -489.028)" fill="#67bead"/>
              <path id="Trazado_990322" data-name="Trazado 990322" d="M5518.27,508.119c0,.01,0,.021,0,.031a4.358,4.358,0,0,1,2.111-1.043c.366-.055.8.234.655.659a14,14,0,0,0-1.086,3.319,17.817,17.817,0,0,1,2.478-2.261c.539-.415,1.3.337.753.758a14.768,14.768,0,0,0-3.154,3.1.54.54,0,0,1-.975-.131,5.811,5.811,0,0,1,.56-4.042,6.753,6.753,0,0,0-1.254.988.534.534,0,0,1-.754,0,1.944,1.944,0,0,1-.4-1.379A.534.534,0,0,1,5518.27,508.119Z" transform="translate(-5462.689 -420.75)" fill="#67bead"/>
              <path id="Trazado_990323" data-name="Trazado 990323" d="M5475.113,595.492a2.927,2.927,0,0,1,2.8-.647.552.552,0,0,1,.371.658c-.12.845-.311,1.675-.4,2.519a13.575,13.575,0,0,1,3.554-2,.54.54,0,0,1,.673.517c.146,2.564-1.572,4.729-2.489,7-.254.63-1.286.351-1.028-.287.774-1.917,2.222-3.826,2.431-5.931a31.7,31.7,0,0,0-3.462,2.193.539.539,0,0,1-.8-.464,17.628,17.628,0,0,1,.407-3.26,1.875,1.875,0,0,0-1.021.278c-.33.179-.617.63-1.02.628a1.084,1.084,0,0,1-1.046-.915A.535.535,0,0,1,5475.113,595.492Z" transform="translate(-5432.451 -482.153)" fill="#67bead"/>
              <path id="Trazado_990324" data-name="Trazado 990324" d="M5383.3,589.671a9.764,9.764,0,0,1,2.914-.776.532.532,0,0,1,.532.536c-.026.477.017.953.033,1.428a6.412,6.412,0,0,1,2.759-1.462.546.546,0,0,1,.675.517c.2,2.106-1.146,3.882-2.2,5.575-.364.583-1.285.044-.921-.542.832-1.338,1.915-2.73,2.053-4.332a15.69,15.69,0,0,0-2.687,1.783c-.42.277-.871-.18-.781-.606a6.857,6.857,0,0,0,.006-1.756,8.328,8.328,0,0,0-1.849.558C5383.211,590.864,5382.67,589.942,5383.3,589.671Z" transform="translate(-5368.64 -478.079)" fill="#67bead"/>
              <path id="Trazado_990325" data-name="Trazado 990325" d="M5450.924,675.451c1.534-1.039,2.476-.108,2.969,1.233a5.951,5.951,0,0,1,2.9-1.343.537.537,0,0,1,.513.677c-.651,2.243-2.163,4.032-3.276,6.045-.333.6-1.253.061-.92-.542a50,50,0,0,0,2.854-4.9,21.4,21.4,0,0,0-2.115,1.352.539.539,0,0,1-.784-.322,6.224,6.224,0,0,0-.36-1.13c-.3-.66-.733-.492-1.249-.142C5450.888,676.762,5450.359,675.835,5450.924,675.451Z" transform="translate(-5416.065 -538.437)" fill="#67bead"/>
            </g>
            <g id="Grupo_1156435" data-name="Grupo 1156435" transform="translate(109.459 3.775)">
              <path id="Trazado_990326" data-name="Trazado 990326" d="M5746.659,334.174c4.486,3.295,7.171,7.9,6.879,12.847-.537,9.106-10.962,15.9-23.285,15.183s-21.876-8.686-21.339-17.792c.293-4.944,3.5-9.207,8.343-11.956l.064-1.1-13.967-.811,1.208-42.407,2.541.443c2.893,4.756,7.248,7.831,12.2,7.969,9.116.255,16.791-9.543,17.143-21.883s-6.755-22.551-15.871-22.806c-4.949-.138-9.475,2.688-12.633,7.275l-2.567.549.724-25.442a86.25,86.25,0,0,1,58.189,99.84l-17.562-1.019Z" transform="translate(-5702.624 -233.274)" fill="#f2ac6e"/>
              <path id="Trazado_990327" data-name="Trazado 990327" d="M5728.5,360.655a27.383,27.383,0,0,1-15.906-5.915c-4.208-3.509-6.375-7.994-6.1-12.629.288-4.885,3.33-9.364,8.365-12.338v-.01l-13.945-.809,1.251-43.92,3.668.639.168.276c2.871,4.721,7.1,7.5,11.61,7.627.1,0,.193,0,.289,0,4.12.014,8.059-2.145,11.09-6.079a27.557,27.557,0,0,0,.776-30.625c-2.865-4.117-6.744-6.449-10.921-6.566-.1,0-.192,0-.289,0-4.4-.015-8.678,2.526-11.739,6.971l-.161.233-3.731.8.776-27.291.9.286a86.747,86.747,0,0,1,60.517,83.065,87.528,87.528,0,0,1-1.847,17.6l-.126.6-17.463-1.014,0,.024c4.65,3.541,7.145,8.343,6.856,13.229-.259,4.409-2.729,8.468-6.953,11.43a26.744,26.744,0,0,1-15.359,4.474h0C5729.654,360.707,5729.075,360.688,5728.5,360.655Zm33.5-29.583a86.144,86.144,0,0,0,1.693-16.712,85.049,85.049,0,0,0-58.625-81.412l-.671,23.587,1.408-.3c3.4-4.8,8.155-7.487,13.076-7.349,4.642.13,8.921,2.678,12.052,7.176a28.975,28.975,0,0,1-.817,32.307c-3.307,4.293-7.648,6.65-12.223,6.634-.107,0-.215,0-.323-.005-4.909-.137-9.492-3.06-12.616-8.034l-1.415-.247-1.165,40.894,13.987.812-.129,2.2-.336.191c-4.808,2.729-7.718,6.877-7.983,11.38-.247,4.173,1.739,8.24,5.593,11.452a25.952,25.952,0,0,0,15.077,5.588c.548.032,1.1.049,1.645.051h0c11.228.037,20.4-6.36,20.886-14.565.266-4.5-2.136-8.96-6.589-12.231l-.312-.229.13-2.212Z" transform="translate(-5700.912 -231.015)" fill="#fff"/>
            </g>
          </g>
          <path id="Trazado_990328" data-name="Trazado 990328" d="M5438.391,391.676c.366-.581,1.288-.042.92.542-1.648,2.615-4.776,5.589-3.453,8.883,2.867-1.4,4.256-4.7,6.29-6.995a.537.537,0,0,1,.89.523c-.516,1.826-1.365,3.543-1.971,5.34-.548,1.628-1.095,3.722-.064,5.237,2.767-2.42,4.221-5.985,6.53-8.8.437-.533,1.185.23.752.758-2.438,2.973-3.9,6.756-6.981,9.181a.544.544,0,0,1-.755,0c-2.2-2.355-1.045-5.65.168-8.609-1.345,1.872-2.736,3.678-4.985,4.585a.528.528,0,0,1-.6-.247C5433.073,398.1,5436.4,394.84,5438.391,391.676Z" transform="translate(-5404.71 -339.674)" fill="#f2ac6e"/>
        </g>
      </g>
    </g>
  </g>
</svg>
