<svg xmlns="http://www.w3.org/2000/svg" width="342.578" height="294.383" viewBox="0 0 342.578 294.383">
  <g id="Grupo_1156427" data-name="Grupo 1156427" transform="translate(0)">
    <g id="Grupo_1156426" data-name="Grupo 1156426">
      <g id="Grupo_1156404" data-name="Grupo 1156404" transform="translate(88.653 252.983)">
        <g id="Grupo_1156403" data-name="Grupo 1156403" transform="translate(0 2.539)">
          <circle id="Elipse_11734" data-name="Elipse 11734" cx="11.852" cy="11.852" r="11.852" transform="translate(0 12.462) rotate(-31.714)" fill="#fff"/>
          <path id="Trazado_990188" data-name="Trazado 990188" d="M3699.336,2641.841a12.211,12.211,0,1,1,12.211-12.211A12.224,12.224,0,0,1,3699.336,2641.841Zm0-23.7a11.493,11.493,0,1,0,11.494,11.493A11.507,11.507,0,0,0,3699.336,2618.137Z" transform="translate(-3683.045 -2613.372)" fill="#343a50"/>
        </g>
        <path id="Trazado_990189" data-name="Trazado 990189" d="M3763.571,2589.06l-16.982,20.421,25.292-14.7Z" transform="translate(-3728.701 -2589.06)" fill="#f17049"/>
      </g>
      <g id="Grupo_1156407" data-name="Grupo 1156407" transform="translate(0 100.384)">
        <g id="Grupo_1156405" data-name="Grupo 1156405">
          <path id="Trazado_990190" data-name="Trazado 990190" d="M3363.6,2092.993a11,11,0,0,1-7.035-4.893l-64.949-101.279a10.726,10.726,0,0,1,2.743-14.674l54.4-36.46a10.145,10.145,0,0,1,7.787-1.483,10.993,10.993,0,0,1,7.034,4.893l64.948,101.279a10.724,10.724,0,0,1-2.743,14.673l-54.4,36.46A10.134,10.134,0,0,1,3363.6,2092.993Zm-7.584-156.244a7.566,7.566,0,0,0-5.807,1.1l-54.4,36.46a8.114,8.114,0,0,0-2,11.11l64.949,101.278a8.41,8.41,0,0,0,5.377,3.751,7.563,7.563,0,0,0,5.807-1.1l54.4-36.46a8.113,8.113,0,0,0,2-11.11L3361.4,1940.5A8.426,8.426,0,0,0,3356.019,1936.749Z" transform="translate(-3289.374 -1933.497)" fill="#fff"/>
          <path id="Trazado_990191" data-name="Trazado 990191" d="M3364.169,2092.107a11.051,11.051,0,0,1-2.261-.236,11.474,11.474,0,0,1-7.343-5.1l-64.949-101.279a11.211,11.211,0,0,1,2.88-15.334l54.4-36.461a10.623,10.623,0,0,1,8.153-1.554,11.469,11.469,0,0,1,7.342,5.1l64.949,101.279a11.209,11.209,0,0,1-2.88,15.334l-54.4,36.46A10.539,10.539,0,0,1,3364.169,2092.107Zm-2.064-1.179a9.666,9.666,0,0,0,7.418-1.411l54.4-36.46a10.241,10.241,0,0,0,2.605-14.012l-64.949-101.279a10.511,10.511,0,0,0-6.727-4.681,9.664,9.664,0,0,0-7.419,1.411l-54.4,36.46a10.24,10.24,0,0,0-2.605,14.012l64.949,101.279a10.527,10.527,0,0,0,6.728,4.681Zm2.06-1.421a8.386,8.386,0,0,1-1.724-.18,8.887,8.887,0,0,1-5.685-3.963l-64.949-101.278a8.6,8.6,0,0,1,2.139-11.771l54.4-36.46a8.042,8.042,0,0,1,6.174-1.168,8.889,8.889,0,0,1,5.685,3.963l64.948,101.279a8.6,8.6,0,0,1-2.139,11.771l-54.4,36.46A7.958,7.958,0,0,1,3364.165,2089.507ZM3352.8,1935.469a6.994,6.994,0,0,0-3.915,1.185l-54.4,36.46a7.63,7.63,0,0,0-1.865,10.449l64.949,101.279a7.934,7.934,0,0,0,5.07,3.54,7.086,7.086,0,0,0,5.44-1.026l54.4-36.46a7.629,7.629,0,0,0,1.864-10.449L3359.4,1939.168a7.93,7.93,0,0,0-5.07-3.54h0A7.517,7.517,0,0,0,3352.8,1935.469Z" transform="translate(-3287.779 -1931.903)" fill="#343a50"/>
        </g>
        <g id="Grupo_1156406" data-name="Grupo 1156406" transform="translate(9.083 10.31)">
          <path id="Trazado_990192" data-name="Trazado 990192" d="M3389.728,2111.345a9.116,9.116,0,0,1-5.851-4.031l-53.467-83.374a9.228,9.228,0,0,1,2.624-12.587l46.974-31.419a9.182,9.182,0,0,1,12.833,2.675l53.466,83.374a9.228,9.228,0,0,1-2.624,12.587l-46.974,31.419A9.111,9.111,0,0,1,3389.728,2111.345Z" transform="translate(-3328.49 -1977.899)" fill="#fff"/>
          <path id="Trazado_990193" data-name="Trazado 990193" d="M3390.033,2110.43a9.772,9.772,0,0,1-2-.208,9.594,9.594,0,0,1-6.159-4.243l-53.466-83.374a9.713,9.713,0,0,1,2.762-13.249l46.975-31.419a9.663,9.663,0,0,1,13.507,2.816l53.467,83.374a9.713,9.713,0,0,1-2.763,13.249l-46.973,31.419A9.583,9.583,0,0,1,3390.033,2110.43Zm-6.535-133.162a8.634,8.634,0,0,0-4.815,1.471l-46.974,31.42a8.743,8.743,0,0,0-2.486,11.926l53.466,83.374a8.7,8.7,0,0,0,12.158,2.535l46.975-31.419a8.744,8.744,0,0,0,2.487-11.926l-53.466-83.374a8.636,8.636,0,0,0-5.544-3.819A8.85,8.85,0,0,0,3383.5,1977.268Z" transform="translate(-3326.895 -1976.303)" fill="#343a50"/>
        </g>
      </g>
      <circle id="Elipse_11735" data-name="Elipse 11735" cx="8.269" cy="8.269" r="8.269" transform="translate(66.632 213.612) rotate(-80.782)" fill="#67bead"/>
      <g id="Grupo_1156417" data-name="Grupo 1156417" transform="translate(57.94 22.997)">
        <g id="Grupo_1156408" data-name="Grupo 1156408" transform="translate(154.068 225.046)">
          <path id="Trazado_990194" data-name="Trazado 990194" d="M4231.131,2590.721l-28.8-5.492-1.151,30.578-.409,11.71h36.774Zm-22.753,23.988-.841-.054.89-13.788.842.054Zm4.053-.474v-12.009h.844v12.009Z" transform="translate(-4200.774 -2581.178)" fill="#67bead"/>
          <path id="Trazado_990195" data-name="Trazado 990195" d="M4485.335,2711.369a.334.334,0,0,0,.389.045l-.245-.388a.27.27,0,0,0-.228.136C4485.214,2711.236,4485.3,2711.339,4485.335,2711.369Z" transform="translate(-4419.186 -2677.764)" fill="#67bead"/>
          <path id="Trazado_990196" data-name="Trazado 990196" d="M4339.359,2614.124l-3.1-23.457.836-.111,3.112,23.567h47.177v-30.146h.843v30.146h8.052l1.763-46.339-68.459,7,.444,2.542,6.418,36.8h2.91Zm30.629-27.589,2.668,15.123-.831.147-2.668-15.123Zm-5.336,1.366,1.321,12.74a.49.49,0,0,1,.412.119.69.69,0,0,1,.115.791.58.58,0,0,1-.523.34.564.564,0,0,1-.1-.009c-.236-.041-.643-.229-.726-1.021l-1.335-12.873Z" transform="translate(-4299.675 -2567.785)" fill="#67bead"/>
          <path id="Trazado_990197" data-name="Trazado 990197" d="M4358.33,2665.962l3.1,23.456h.85l-3.111-23.567Z" transform="translate(-4321.743 -2643.078)" fill="#343a50"/>
          <rect id="Rectángulo_409593" data-name="Rectángulo 409593" width="0.843" height="30.146" transform="translate(87.712 16.193)" fill="#343a50"/>
          <rect id="Rectángulo_409594" data-name="Rectángulo 409594" width="13.817" height="0.843" transform="matrix(0.064, -0.998, 0.998, 0.064, 6.787, 33.518)" fill="#343a50"/>
          <rect id="Rectángulo_409595" data-name="Rectángulo 409595" width="0.843" height="12.009" transform="translate(11.656 21.049)" fill="#343a50"/>
          <path id="Trazado_990198" data-name="Trazado 990198" d="M4479.039,2668.395a.551.551,0,0,0,.1.009.578.578,0,0,0,.523-.34.689.689,0,0,0-.115-.79.489.489,0,0,0-.412-.12l-1.321-12.739-.839.087,1.335,12.873C4478.4,2668.165,4478.8,2668.353,4479.039,2668.395Zm-.133-.7a.271.271,0,0,1,.227-.135l.246.387a.335.335,0,0,1-.389-.045C4478.957,2667.872,4478.87,2667.77,4478.906,2667.7Z" transform="translate(-4412.841 -2634.298)" fill="#343a50"/>
          <rect id="Rectángulo_409596" data-name="Rectángulo 409596" width="0.843" height="15.356" transform="translate(69.506 18.897) rotate(-10.009)" fill="#343a50"/>
        </g>
        <path id="Trazado_990199" data-name="Trazado 990199" d="M3905.128,2072.973c-1.015,2.5-2.039,5.227-3.792,7-2.009,2.036-5.426,2.891-7.632,4.855-5.7,5.081-6.271,14.516-2.133,20.936s12.078,9.79,19.712,9.584,14.918-3.6,20.943-8.3,10.936-10.645,15.644-16.657c10.385-13.263,20.25-27.533,24.208-43.907,2.633-10.893,1.141-20.313-1.206-30.99-1.882-8.561-8-16.187-14.032-22.469a1.5,1.5,0,0,0-2.118-.387,37.361,37.361,0,0,0-17.476,15.655c-7.764,13.553-14.782,27.517-21.483,41.621-3.352,7.057-6.622,14.153-9.872,21.257C3905.632,2071.752,3905.381,2072.356,3905.128,2072.973Z" transform="translate(-3807.235 -1900.952)" fill="#f17049"/>
        <path id="Trazado_990200" data-name="Trazado 990200" d="M4274.792,1661.816a11.575,11.575,0,0,0,5.741,8.3c.822-3.234,2.549-6.15,4.011-9.148a.849.849,0,0,0,.122-.428.879.879,0,0,0-.425-.568,22.685,22.685,0,0,1-2.773-2.383,15.644,15.644,0,0,1-3.41-6.579c-1.787.1-2.39,2.666-2.782,3.992A15.206,15.206,0,0,0,4274.792,1661.816Z" transform="translate(-4103.389 -1638.848)" fill="#343a50"/>
        <g id="Grupo_1156416" data-name="Grupo 1156416" transform="translate(0 39.593)">
          <g id="Grupo_1156415" data-name="Grupo 1156415">
            <g id="Grupo_1156413" data-name="Grupo 1156413" transform="translate(0 0.276)">
              <path id="Trazado_990201" data-name="Trazado 990201" d="M3610.586,1865.891c-4.443-.9-8-3.4-9.476-7.153-2.712-6.919,2.677-15.507,12.038-19.183s19.148-1.046,21.861,5.873c1.473,3.757.556,8.006-2.087,11.693l.329.839,31.846-12.52-12.79-32.584,2.045-.479c3.687,2.642,7.934,3.556,11.688,2.08,6.915-2.719,9.542-12.513,5.866-21.875s-12.26-14.749-19.175-12.03c-3.755,1.476-6.245,5.039-7.148,9.485l-1.75,1.231-7.577-19.3a70.189,70.189,0,0,1,62.782,111.966l16.447,38.993a29.574,29.574,0,0,1-15.755,38.743l-8.816,3.718a29.574,29.574,0,0,1-38.743-15.755l-16-37.94a70.22,70.22,0,0,1-53.5-33.842l28.255-11.108Z" transform="translate(-3572.128 -1771.345)" fill="#f5d278"/>
              <path id="Trazado_990202" data-name="Trazado 990202" d="M3610.586,1865.891c-4.443-.9-8-3.4-9.476-7.153-2.712-6.919,2.677-15.507,12.038-19.183s19.148-1.046,21.861,5.873c1.473,3.757.556,8.006-2.087,11.693l.329.839,31.846-12.52-12.79-32.584,2.045-.479c3.687,2.642,7.934,3.556,11.688,2.08,6.915-2.719,9.542-12.513,5.866-21.875s-12.26-14.749-19.175-12.03c-3.755,1.476-6.245,5.039-7.148,9.485l-1.75,1.231-7.577-19.3a70.189,70.189,0,0,1,62.782,111.966l16.447,38.993a29.574,29.574,0,0,1-15.755,38.743l-8.816,3.718a29.574,29.574,0,0,1-38.743-15.755l-16-37.94a70.22,70.22,0,0,1-53.5-33.842l28.255-11.108Z" transform="translate(-3572.128 -1771.345)" fill="#f5d278"/>
              <g id="Grupo_1156409" data-name="Grupo 1156409">
                <path id="Trazado_990203" data-name="Trazado 990203" d="M3582.7,1778.213a70.132,70.132,0,0,1,20.634-5.219l7.577,19.3,1.75-1.231c.9-4.447,3.393-8.009,7.148-9.485,6.916-2.719,15.5,2.668,19.175,12.03s1.049,19.157-5.866,21.875c-3.755,1.476-8,.562-11.688-2.08l-2.046.479,12.629,32.174.161.41-31.846,12.52-.329-.838c2.643-3.687,3.56-7.937,2.087-11.693-2.712-6.919-12.5-9.548-21.861-5.873s-14.75,12.264-12.038,19.183c1.473,3.757,5.032,6.248,9.476,7.153l.333.848-28.255,11.108a70.22,70.22,0,0,1,32.958-100.664Z" transform="translate(-3539.209 -1772.376)" fill="#f17049"/>
                <path id="Trazado_990204" data-name="Trazado 990204" d="M3598.087,1857.7l-.656-1.672.184-.256c2.625-3.66,3.36-7.722,2.019-11.144-1.243-3.171-4.1-5.5-8.048-6.561a21.143,21.143,0,0,0-13.061,1.016c-.19.075-.38.152-.567.231a20.927,20.927,0,0,0-9.83,8.123c-2.062,3.4-2.527,6.978-1.312,10.077,1.341,3.421,4.64,5.9,9.051,6.8l.309.063.659,1.681-29.252,11.5-.252-.423a71.545,71.545,0,0,1-4.458-8.816,70.8,70.8,0,0,1,58.494-97.941l.435-.041,7.467,19.022.96-.675c1.014-4.681,3.729-8.215,7.457-9.682,3.52-1.384,7.542-.839,11.323,1.533a23.608,23.608,0,0,1,9.7,24.479c-1.109,4.274-3.611,7.426-7.045,8.874q-.121.051-.244.1c-3.724,1.464-8.092.735-12.021-2l-1.14.267,12.757,32.5Zm21.554-46.96.214.153c3.659,2.623,7.719,3.356,11.138,2.012,3.209-1.257,5.551-4.177,6.591-8.186a22.454,22.454,0,0,0-9.192-23.2c-3.462-2.172-7.114-2.682-10.283-1.436l-.218.089c-3.3,1.393-5.7,4.664-6.574,8.972l-.046.226-2.542,1.788-7.686-19.581a69.638,69.638,0,0,0-57.1,96.293,70.552,70.552,0,0,0,4.136,8.25l27.256-10.715-.007-.018c-4.649-1.031-8.135-3.732-9.59-7.444-1.351-3.444-.853-7.386,1.4-11.1a22.09,22.09,0,0,1,10.371-8.59c.2-.083.4-.164.594-.242a22.309,22.309,0,0,1,13.786-1.057c4.311,1.158,7.446,3.736,8.827,7.258,1.455,3.712.735,8.064-1.974,11.984l0,.008,30.767-12.1-12.823-32.669Z" transform="translate(-3537.292 -1770.334)" fill="#f2ac6e"/>
              </g>
              <g id="Grupo_1156410" data-name="Grupo 1156410" transform="translate(9.687 65.965)">
                <path id="Trazado_990205" data-name="Trazado 990205" d="M3610.916,2085.767l-.332-.848c-4.444-.9-8-3.4-9.476-7.153-2.712-6.919,2.677-15.507,12.038-19.183s19.148-1.046,21.861,5.873c1.472,3.757.556,8.006-2.087,11.693l.329.839,10.585-4.162,11.426,31.893-2.06.417c-3.6-2.751-7.823-3.793-11.62-2.43-6.994,2.51-9.914,12.22-6.521,21.689s11.812,15.111,18.806,12.6c3.8-1.362,6.393-4.849,7.43-9.266l1.787-1.178,6.994,19.522a70.542,70.542,0,0,0,40.36-16.089l5.048,11.967a29.574,29.574,0,0,1-15.755,38.743l-8.816,3.718a29.574,29.574,0,0,1-38.743-15.756l-16-37.94a70.219,70.219,0,0,1-53.5-33.842C3590.989,2093.6,3610.916,2085.767,3610.916,2085.767Z" transform="translate(-3581.813 -2056.338)" fill="#f5d278"/>
                <path id="Trazado_990206" data-name="Trazado 990206" d="M3648.831,2166.952l-15.869-37.623a70.8,70.8,0,0,1-53.6-34.088l-.35-.587,28.352-11.146-.007-.018c-4.648-1.031-8.134-3.731-9.589-7.444-1.35-3.444-.853-7.386,1.4-11.1a22.085,22.085,0,0,1,10.371-8.59q.294-.124.594-.242a22.311,22.311,0,0,1,13.786-1.057c4.311,1.158,7.446,3.736,8.826,7.258,1.456,3.712.735,8.063-1.973,11.983l0,.008,10.6-4.168,11.854,33.087-2.974.6-.209-.16c-3.579-2.731-7.614-3.586-11.072-2.345-.164.058-.327.122-.486.189-3.042,1.283-5.312,4.107-6.394,7.952a22.474,22.474,0,0,0,8.537,23.313c3.4,2.275,7.03,2.894,10.234,1.744.163-.059.326-.122.486-.189,3.25-1.372,5.586-4.448,6.576-8.664l.052-.225,2.6-1.711,7.095,19.8a69.607,69.607,0,0,0,20.174-4.53c.659-.255,1.323-.523,1.974-.8a69.438,69.438,0,0,0,17.443-10.6l.6-.5,5.352,12.688a30.188,30.188,0,0,1-16.064,39.5l-8.816,3.719A30.188,30.188,0,0,1,3648.831,2166.952Zm41.438-27.677c-.661.279-1.335.552-2.005.811a70.736,70.736,0,0,1-20.953,4.635l-.436.028-6.893-19.238-.979.646c-1.1,4.409-3.71,7.77-7.2,9.242-.179.075-.362.147-.544.212-3.56,1.277-7.563.613-11.272-1.872a22.318,22.318,0,0,1-8.275-11.079c-3.412-9.523-.633-19.283,6.327-22.218.178-.076.361-.147.544-.213,3.767-1.351,8.111-.492,11.957,2.356l1.147-.232-11-30.7-10.569,4.156-.656-1.672.184-.256c2.625-3.661,3.36-7.723,2.019-11.144-1.243-3.171-4.1-5.5-8.048-6.561a21.143,21.143,0,0,0-13.061,1.016c-.191.075-.38.152-.567.231a20.926,20.926,0,0,0-9.83,8.123c-2.062,3.4-2.527,6.979-1.313,10.078,1.341,3.421,4.64,5.9,9.052,6.8l.309.063.659,1.681-28.156,11.069a69.84,69.84,0,0,0,52.71,32.976l.344.033L3649.9,2166.5a29.027,29.027,0,0,0,37.983,15.446l8.816-3.719a29.027,29.027,0,0,0,15.446-37.983l-4.746-11.251A70.581,70.581,0,0,1,3690.269,2139.274Z" transform="translate(-3579.01 -2054.408)" fill="#f2ac6e"/>
              </g>
              <g id="Grupo_1156411" data-name="Grupo 1156411" transform="translate(60.933 56.117)">
                <path id="Trazado_990207" data-name="Trazado 990207" d="M3859.436,2109.527a70.141,70.141,0,0,1-20.781,4.6l-6.994-19.521-1.787,1.178c-1.037,4.417-3.632,7.9-7.43,9.266-6.994,2.51-15.413-3.132-18.805-12.6s-.473-19.18,6.521-21.689c3.8-1.362,8.015-.321,11.62,2.43l2.059-.417-11.426-31.893,21.261-8.358-.161-.41,10.728-3.85.3.848c-2.753,3.606-3.8,7.825-2.437,11.625,2.5,7,12.208,9.919,21.675,6.527s15.112-11.816,12.608-18.812c-1.359-3.8-4.842-6.4-9.256-7.435l-.307-.858,13.49-4.841a70.262,70.262,0,0,1-12.7,55.7l11.4,27.026A70.076,70.076,0,0,1,3859.436,2109.527Z" transform="translate(-3801.637 -2014.542)" fill="#67bead"/>
                <path id="Trazado_990208" data-name="Trazado 990208" d="M3857.7,2107.524a70.741,70.741,0,0,1-20.953,4.635l-.436.029-6.893-19.238-.979.646c-1.1,4.409-3.71,7.769-7.2,9.241-.178.075-.361.146-.544.212-3.56,1.278-7.563.613-11.272-1.872a22.314,22.314,0,0,1-8.275-11.079c-3.412-9.523-.633-19.283,6.326-22.218.179-.075.362-.147.545-.212,3.766-1.352,8.11-.492,11.956,2.355l1.147-.232L3809.736,2038l21.245-8.352-.167-.427,11.836-4.248.605,1.691-.191.25c-2.732,3.58-3.59,7.618-2.353,11.078,1.147,3.207,3.934,5.622,7.847,6.8a21.143,21.143,0,0,0,13.085-.624c.42-.15.841-.314,1.25-.487,8.429-3.555,13.264-11.279,11.008-17.584-1.238-3.46-4.461-6.035-8.844-7.065l-.307-.072-.608-1.7,14.668-5.264.131.66a70.854,70.854,0,0,1-12.607,55.89l11.438,27.116-.331.275a70.59,70.59,0,0,1-17.735,10.777C3859.048,2106.99,3858.374,2107.264,3857.7,2107.524Zm7.308-39.142.2-.267a69.7,69.7,0,0,0,12.726-54.575l-12.308,4.417.006.018c4.616,1.17,8.019,3.974,9.362,7.728a12.359,12.359,0,0,1-1.564,10.788,21.78,21.78,0,0,1-10.085,8.256c-.429.181-.87.353-1.31.51a22.311,22.311,0,0,1-13.812.642c-4.274-1.287-7.331-3.958-8.6-7.52-1.343-3.754-.492-8.082,2.332-11.919l0-.008-9.62,3.452.154.394-21.276,8.365,11.462,31.994-2.974.6-.209-.16c-3.579-2.731-7.614-3.586-11.073-2.345-3.279,1.176-5.74,4.093-6.878,8.141a22.471,22.471,0,0,0,8.537,23.313c3.4,2.275,7.03,2.894,10.234,1.744,3.444-1.235,6.038-4.492,7.062-8.853l.052-.225,2.6-1.711,7.094,19.8a69.591,69.591,0,0,0,20.174-4.53c.66-.255,1.323-.523,1.974-.8a69.461,69.461,0,0,0,17.113-10.326Z" transform="translate(-3799.696 -2011.996)" fill="#fff"/>
              </g>
              <g id="Grupo_1156412" data-name="Grupo 1156412" transform="translate(72.088 133.582)">
                <path id="Trazado_990209" data-name="Trazado 990209" d="M3896.523,2408.141l8.816-3.718c15.049-6.348,24.135-18.875,20.295-27.981l-11.864-28.126-63.314,26.706,11.864,28.126C3866.159,2412.253,3881.474,2414.487,3896.523,2408.141Z" transform="translate(-3849.823 -2347.683)" fill="#fff"/>
                <path id="Trazado_990210" data-name="Trazado 990210" d="M3877.649,2410.15a31.827,31.827,0,0,1-4.593-.323c-6.634-.969-11.348-4.016-13.273-8.582l-12.05-28.57,64.2-27.081,12.051,28.571c1.926,4.566.819,10.069-3.118,15.5-3.884,5.355-10.076,10.014-17.434,13.118l-8.816,3.718A44.3,44.3,0,0,1,3877.649,2410.15Zm-28.655-36.961,11.676,27.681c3.731,8.845,18.792,10.97,33.572,4.737l8.816-3.719c14.78-6.234,23.77-18.5,20.038-27.35l-11.676-27.681Z" transform="translate(-3847.732 -2345.594)" fill="#343a50"/>
              </g>
              <path id="Trazado_990211" data-name="Trazado 990211" d="M3842.315,2030.431c.036-1.8-.055-3.608,0-5.412.014-.472.654-.458.832-.113,1.471,2.85,1.625,6.343,3.256,9.1,1-2.784-.314-6.242,1.823-8.607a.442.442,0,0,1,.75.092,18.5,18.5,0,0,1,1.381,8.63c-.017.56-.879.444-.863-.113a18.675,18.675,0,0,0-1.014-7.48,7.893,7.893,0,0,0-.733,3.883,9.887,9.887,0,0,1-.869,4.666.441.441,0,0,1-.745.105c-1.669-2.34-2.05-5.276-2.967-7.972.011,1.109.037,2.219.015,3.328C3843.165,2031.1,3842.3,2030.986,3842.315,2030.431Z" transform="translate(-3771.47 -1965.598)" fill="#f2ac6e"/>
              <path id="Trazado_990212" data-name="Trazado 990212" d="M3722.594,1885.594a.437.437,0,0,1,.375-.488c2.255-.068,4.053,1.323,5.754,2.737a20.876,20.876,0,0,1-2.994-6.565c-.063-.292.228-.5.487-.488,1.593.09,2.881,1.257,3.915,2.366a30.608,30.608,0,0,1,3.243,4.461c.3.469-.381,1.011-.683.539a38.371,38.371,0,0,0-2.749-3.9,7.037,7.037,0,0,0-3.207-2.5c.764,2.83,2.542,5.3,4.067,7.766.25.4-.178.923-.6.618-1.983-1.425-4.074-3.969-6.68-4.162.5,3.159,2.884,5.558,4.221,8.388.239.508-.563.844-.8.338C3725.492,1891.64,3722.917,1889.112,3722.594,1885.594Z" transform="translate(-3679.563 -1855.14)" fill="#f2ac6e"/>
              <path id="Trazado_990213" data-name="Trazado 990213" d="M3920.973,2168.868a.442.442,0,0,1,.488-.375c2.785.031,4.409,2.539,6.526,4.023-.733-1.555-1.766-2.984-2.553-4.5-.918-1.768-1.657-3.921-.659-5.812a.439.439,0,0,1,.459-.267c3.309.8,4.941,4.068,7.139,6.341.39.4-.3.938-.683.539-1.922-1.989-3.466-5.079-6.27-5.936-.684,1.724.167,3.578.991,5.134a37.477,37.477,0,0,1,2.86,5.351c.113.335-.194.743-.564.572-2.424-1.123-4.13-4.185-6.874-4.544.068,2.478,1.839,4.927,3.733,6.364a.435.435,0,0,1-.521.7C3922.775,2174.731,3920.824,2171.81,3920.973,2168.868Z" transform="translate(-3831.872 -2070.994)" fill="#f2ac6e"/>
              <path id="Trazado_990214" data-name="Trazado 990214" d="M4006.274,2326.811c-.046-.557.816-.674.863-.113.164,1.98-.379,4.2.551,6.032,2.106-1.444,2.292-5.019,2.359-7.293.014-.49.858-.492.863,0a42.2,42.2,0,0,0,.181,4.589,7.053,7.053,0,0,0,1.506,4c1.857-1.928.987-5.427.534-7.748-.107-.55.755-.662.862-.113.546,2.795,1.386,6.693-1.134,8.8a.432.432,0,0,1-.53.007,7.257,7.257,0,0,1-2.1-4.575,5.5,5.5,0,0,1-2.525,3.329.428.428,0,0,1-.51-.132C4005.877,2331.5,4006.467,2329.137,4006.274,2326.811Z" transform="translate(-3897.37 -2196.253)" fill="#f2ac6e"/>
              <path id="Trazado_990215" data-name="Trazado 990215" d="M3874.71,2311.747c.141-.534,1.006-.43.863.113-.448,1.7-1.754,3.944-.614,5.555,1.395-1.189,2.274-2.911,3.845-3.9.344-.217.858.072.672.505-.812,1.887-2.156,4.108-1.187,6.137,1.975-1.473,2.7-4.079,3.52-6.3.193-.527,1-.2.806.328-.923,2.513-1.778,5.461-4.2,6.943a.441.441,0,0,1-.611-.073c-1.171-1.878-.655-3.769.109-5.609a21.2,21.2,0,0,1-2.739,2.922.447.447,0,0,1-.611-.073C3872.693,2316.415,3874.158,2313.851,3874.71,2311.747Z" transform="translate(-3795.536 -2185.755)" fill="#f2ac6e"/>
              <path id="Trazado_990216" data-name="Trazado 990216" d="M3641.04,1938.371a.436.436,0,0,1,.863-.113,18.033,18.033,0,0,0,1.205,4.383c.52,1.2,1.4,2.6,2.809,2.551,0-2.019-.552-3.991-.728-6a.437.437,0,0,1,.832-.225,21.748,21.748,0,0,0,2.1,3.829c.668.938,1.659,2.121,2.893,2.2-.256-2.854-2.049-5.387-3.771-7.578a.435.435,0,0,1,.683-.539c1.905,2.424,3.891,5.285,3.98,8.482a.444.444,0,0,1-.375.488c-1.592.216-2.858-.95-3.784-2.1a14.732,14.732,0,0,1-1.335-2.006,20.449,20.449,0,0,1,.358,3.9.438.438,0,0,1-.375.375C3642.658,1946.768,3641.446,1940.972,3641.04,1938.371Z" transform="translate(-3616.944 -1898.081)" fill="#f5d278"/>
              <path id="Trazado_990217" data-name="Trazado 990217" d="M3587.676,2146.709c-.225-2.982-1.45-7.249,1.772-9.078a.419.419,0,0,1,.43.052,6.951,6.951,0,0,1,1.884,3.99,7.837,7.837,0,0,1,2.26-4.09.429.429,0,0,1,.53-.007c1.946,1.891.715,4.773.737,7.117.005.553-.857.674-.862.113a27.388,27.388,0,0,1,.288-3.275,4.23,4.23,0,0,0-.445-2.98c-1.634,1.723-2.088,4.493-1.924,6.769a.436.436,0,0,1-.863.113c-.466-2.182-.313-5.113-1.93-6.854-2.39,1.637-1.193,5.643-1.014,8.017C3588.582,2147.153,3587.72,2147.269,3587.676,2146.709Z" transform="translate(-3575.657 -2052.23)" fill="#f5d278"/>
              <path id="Trazado_990218" data-name="Trazado 990218" d="M3855.692,2423.689l66.6-28.094a2.852,2.852,0,0,0,1.52-3.735l-.023-.053a2.85,2.85,0,0,0-3.735-1.519l-66.6,28.094a2.851,2.851,0,0,0-1.519,3.734l.022.053A2.851,2.851,0,0,0,3855.692,2423.689Z" transform="translate(-3778.698 -2246.156)" fill="#343a50"/>
              <path id="Trazado_990219" data-name="Trazado 990219" d="M3874.083,2467.3l66.6-28.094a2.852,2.852,0,0,0,1.519-3.735l-.022-.053a2.851,2.851,0,0,0-3.735-1.519l-66.6,28.094a2.85,2.85,0,0,0-1.519,3.734l.022.053A2.85,2.85,0,0,0,3874.083,2467.3Z" transform="translate(-3792.818 -2279.639)" fill="#343a50"/>
              <ellipse id="Elipse_11736" data-name="Elipse 11736" cx="17.565" cy="2.922" rx="17.565" ry="2.922" transform="translate(105.173 195.222) rotate(-22.868)" fill="#343a50"/>
            </g>
            <g id="Grupo_1156414" data-name="Grupo 1156414" transform="translate(63.308)">
              <path id="Trazado_990220" data-name="Trazado 990220" d="M3875.757,1833.932c4.415,1.038,7.9,3.635,9.256,7.434,2.5,7-3.141,15.42-12.608,18.813s-19.171.471-21.674-6.527c-1.359-3.8-.315-8.019,2.438-11.625l-.3-.848-10.728,3.85-12.629-32.174,2.045-.479c3.686,2.642,7.933,3.556,11.688,2.08,6.915-2.719,9.542-12.513,5.866-21.875s-12.26-14.749-19.175-12.03c-3.754,1.476-6.245,5.039-7.148,9.485l-1.75,1.231-7.577-19.3a70.267,70.267,0,0,1,75.484,56.269l-13.49,4.841Z" transform="translate(-3812.636 -1771.069)" fill="#f2ac6e"/>
              <path id="Trazado_990221" data-name="Trazado 990221" d="M3869.889,1858.8a22.31,22.31,0,0,1-13.812.642c-4.274-1.287-7.33-3.958-8.6-7.519-1.343-3.754-.492-8.083,2.332-11.919l0-.008-10.712,3.844-13.08-33.322,2.954-.692.214.153c3.659,2.623,7.719,3.356,11.138,2.012.073-.029.146-.058.218-.089,3.094-1.3,5.357-4.18,6.373-8.1a22.453,22.453,0,0,0-9.193-23.2c-3.461-2.172-7.114-2.682-10.283-1.436-.072.029-.146.058-.217.089-3.3,1.393-5.7,4.663-6.574,8.972l-.046.226-2.543,1.788-8.127-20.706.766-.073a70.676,70.676,0,0,1,71.875,42.952,71.226,71.226,0,0,1,4.233,13.782l.1.49-13.415,4.814.007.018c4.615,1.17,8.019,3.974,9.362,7.728a12.36,12.36,0,0,1-1.564,10.788,21.786,21.786,0,0,1-10.085,8.256h0C3870.769,1858.472,3870.328,1858.643,3869.889,1858.8Zm15.672-32.867a70.144,70.144,0,0,0-4.065-13.068,69.291,69.291,0,0,0-69.929-42.317l7.024,17.9.96-.675c1.014-4.68,3.723-8.215,7.457-9.682,3.52-1.384,7.542-.839,11.323,1.533a23.609,23.609,0,0,1,9.7,24.479c-1.109,4.274-3.611,7.426-7.045,8.874-.081.034-.162.067-.244.1-3.724,1.464-8.092.736-12.021-2l-1.139.267,12.179,31.026,10.745-3.856.605,1.691-.191.25c-2.733,3.58-3.59,7.618-2.353,11.078,1.147,3.206,3.934,5.621,7.847,6.8a21.143,21.143,0,0,0,13.085-.624c.421-.151.841-.314,1.25-.487h0c8.428-3.555,13.264-11.28,11.008-17.584-1.238-3.46-4.461-6.035-8.843-7.065l-.307-.072-.608-1.7Z" transform="translate(-3809.924 -1769.146)" fill="#fff"/>
            </g>
          </g>
          <path id="Trazado_990222" data-name="Trazado 990222" d="M3619.91,2033.3c.089-.552.952-.443.863.113-.4,2.486-1.8,5.714.248,7.76,1.7-1.961,1.691-4.879,2.482-7.25a.438.438,0,0,1,.834.108c.2,1.533.107,3.092.227,4.632.109,1.395.368,3.139,1.623,3.946,1.3-2.7,1.254-5.834,2.086-8.682.158-.539.961-.206.806.328-.879,3.006-.768,6.309-2.3,9.11a.443.443,0,0,1-.567.239c-2.4-1.061-2.586-3.9-2.621-6.507a9.625,9.625,0,0,1-2.275,5.028.43.43,0,0,1-.53.007C3617.973,2039.81,3619.427,2036.306,3619.91,2033.3Z" transform="translate(-3600.105 -1971.681)" fill="#f2ac6e"/>
        </g>
        <path id="Trazado_990223" data-name="Trazado 990223" d="M4208.177,1936.43a114.809,114.809,0,0,1,25.114-2.13c5.932.136,17.589-.573,21.432,5.184,1.1,1.657,1.225,3.76,1.31,5.75.846,19.893,2.154,39.691,3.289,59.573.57,9.959,1.119,19.929,1,29.9q-.029,2.526-.112,5.049c-.664,18.184-1.54,36.578-3.344,54.751-7.818,1.753-16.144,1.677-24.172,2.083q-12.675.641-25.368.861c-4.259.073-50.732.32-50.752-.812q-.484-26.642-.967-53.284c-.157-8.627.785-18.1-.484-26.627-2.824-18.981-8.347-37.4-10.846-56.445-.44-3.355-.631-7.263,1.834-9.581,5.353-5.033,12.466-8.017,19.484-10.138a95.19,95.19,0,0,1,21.109-3.573C4193.611,1936.526,4201.443,1937.78,4208.177,1936.43Z" transform="translate(-4003.125 -1856.332)" fill="#f17049"/>
        <path id="Trazado_990224" data-name="Trazado 990224" d="M4333.766,1846.613a4.06,4.06,0,0,1-.243,2.447,4.5,4.5,0,0,1-1.149,1.257c-7.507,6.312-16.79,11.411-26.583,10.867a5.478,5.478,0,0,1-2.559-.613c-1.929-1.165-1.965-4.052-.956-6.067s2.754-3.576,3.848-5.546c2.52-4.533,1.526-10.946.927-15.855-.731-5.988-1.986-11.924-2.177-17.969a4,4,0,0,1,.278-1.946,3.708,3.708,0,0,1,1.514-1.39c4.666-2.763,12.1-3.729,16.92-.843,5.192,3.108,5.371,9.78,6.487,15.058q2.123,10.04,3.636,20.2C4333.729,1846.342,4333.747,1846.476,4333.766,1846.613Z" transform="translate(-4124.134 -1760.31)" fill="#ffaec1"/>
        <path id="Trazado_990225" data-name="Trazado 990225" d="M4328.941,1800.718a1.432,1.432,0,0,1,.854.2,1.451,1.451,0,0,1,.4,1.134q.458,9.7.914,19.41c.286,6.076,1.7,12.026,2.6,18.042.02.134.039.269.058.4a4.056,4.056,0,0,1-.243,2.447,4.481,4.481,0,0,1-1.149,1.257c-7.507,6.312-16.79,11.411-26.583,10.867a5.483,5.483,0,0,1-2.559-.613c-1.93-1.165-1.964-4.052-.955-6.067s2.753-3.576,3.848-5.546c2.52-4.534,1.526-10.946.927-15.855-.731-5.988-1.985-11.924-2.178-17.969-.126-4.034,5.733-5.412,8.713-6.124,1.88-.45,3.787-1.133,5.646-1.518C4322.241,1800.166,4325.873,1800.656,4328.941,1800.718Z" transform="translate(-4124.13 -1753.608)" fill="#ffaec1"/>
        <path id="Trazado_990226" data-name="Trazado 990226" d="M4301.913,1696.135c-3.958,4.02-8.618,6.937-13.508,7.855a10.215,10.215,0,0,1-8.195-1.612,11.269,11.269,0,0,1-3.42-5.421c-4.777-14.46.007-41.341,17.646-44.963,8.582-1.763,17.158,4.6,18.848,12.99C4315.265,1674.818,4310.086,1687.831,4301.913,1696.135Z" transform="translate(-4103.732 -1639.378)" fill="#ffaec1"/>
        <path id="Trazado_990227" data-name="Trazado 990227" d="M4428.021,1864.594c-.571-4.575-1.076-9.236-1.563-13.744q-.216-1.995-.434-3.99c-.386-3.519-.532-7.092-.673-10.547-.085-2.072-.172-4.215-.311-6.332l.646-.058c.139,2.128.227,4.277.312,6.354.141,3.44.286,7,.669,10.486q.218,1.995.434,3.99c.487,4.5.992,9.162,1.562,13.729Z" transform="translate(-4218.894 -1776.217)" fill="#343a50"/>
        <path id="Trazado_990228" data-name="Trazado 990228" d="M4170.64,2234.225l-.844-.011q.047-3.541.1-7.006c.272-19.592.53-38.1-.667-58.383-.636-10.784-2.41-21.735-4.125-32.325-1.217-7.517-2.476-15.289-3.322-22.956l.838-.093c.844,7.646,2.1,15.407,3.316,22.914,1.718,10.61,3.495,21.583,4.134,32.409,1.2,20.315.941,38.836.668,58.445Q4170.686,2230.688,4170.64,2234.225Z" transform="translate(-4016.765 -1993.907)" fill="#a61001"/>
        <path id="Trazado_990229" data-name="Trazado 990229" d="M4061,2270.541c-1.967-.189-3.95.153-5.924.057-3.812-.184-7.252-1.968-10.515-3.794-1.757-.983-5.679-4.507-7.214-1.415a4.689,4.689,0,0,0,.321,4,15.725,15.725,0,0,0,8.666,7.841,24.929,24.929,0,0,1,2.623.994,18.094,18.094,0,0,1,4.15,3.451,19.169,19.169,0,0,0,4.952,3.594,22.627,22.627,0,0,0,7.657,1.794,16.015,16.015,0,0,0,4.848-.092,6.375,6.375,0,0,0,4.028-2.513c2.334-3.51-1.382-7.653-4.076-9.619C4067.87,2272.912,4064.325,2270.859,4061,2270.541Z" transform="translate(-3920.976 -2109.608)" fill="#ffaec1"/>
        <path id="Trazado_990230" data-name="Trazado 990230" d="M4003.5,2061.305a5.423,5.423,0,0,1,.657-.653c1.17-.983,2.144-2.228,3.273-3.277,2.358-2.19,4.944-4.114,7.392-6.2,1.785-1.52,3.631-2.975,5.4-4.517,1.477-1.292,3.817-1.405,5.7-1.87,9.926-2.454,20.278-1.949,30.309-3.732,12.821-2.278,25.436-5.557,38.029-8.835,5.8-1.51,11.612-3.023,17.3-4.931a130.038,130.038,0,0,0,17.154-7.16q-5.094-16.627-10.189-33.255c-1.488-4.856-2.939-9.814-2.711-14.947.2-4.574,2.51-6.462,6.265-8.929,14.879-9.775,21.868-8.335,29.951,6.766a235.665,235.665,0,0,1,18.906,47.148c1.531,5.427,2.71,11.784-.708,16.269-1.592,2.09-3.962,3.419-6.282,4.654q-.845.449-1.693.893a257.208,257.208,0,0,1-59.628,22.243c-11.642,2.766-23.535,2.438-35.494,2.9a130.077,130.077,0,0,0-16.529,1.351,114.157,114.157,0,0,0-17.666,4,112.894,112.894,0,0,0-11.066,4.845c-2.857,1.344-7.292,4.18-10.544,2.847a4.753,4.753,0,0,1-2.72-3.027,2.391,2.391,0,0,0-.264-.7,1.969,1.969,0,0,0-.723-.555c-.94-.517-1.948-1.2-2.132-2.258a9.486,9.486,0,0,0-.138-1.567,3.2,3.2,0,0,0-1.02-1.2,5.142,5.142,0,0,1-1.851-3.218A4.153,4.153,0,0,1,4003.5,2061.305Z" transform="translate(-3894.438 -1873.632)" fill="#ffaec1"/>
        <path id="Trazado_990231" data-name="Trazado 990231" d="M4343.992,1732.483a4.312,4.312,0,0,1-1.082-.939,1.742,1.742,0,0,1-.376-1.346.484.484,0,0,1,.113-.254.553.553,0,0,1,.368-.125,6.57,6.57,0,0,1,3.342.906,8.558,8.558,0,0,1,2.934,2.2,1.239,1.239,0,0,1,.327,1.209C4348.806,1735.917,4344.789,1733.017,4343.992,1732.483Z" transform="translate(-4155.529 -1699.351)" fill="#343a50"/>
        <path id="Trazado_990232" data-name="Trazado 990232" d="M4283.166,1721.906a.812.812,0,0,1-.385-.359.847.847,0,0,1,.117-.757,3.13,3.13,0,0,1,2.494-1.293,6.127,6.127,0,0,1,2.173.211c1.394.4,1.968,1.789.324,2.169C4286.607,1722.173,4284.356,1722.521,4283.166,1721.906Z" transform="translate(-4109.632 -1691.417)" fill="#343a50"/>
        <path id="Trazado_990233" data-name="Trazado 990233" d="M4284.179,1997.544a11.615,11.615,0,0,1-6.146-1.466,9.537,9.537,0,0,1-4.143-6.936,16.144,16.144,0,0,1,1.285-8l.782.314a15.3,15.3,0,0,0-1.23,7.581,8.689,8.689,0,0,0,3.752,6.327c2.167,1.353,4.919,1.4,6.8,1.311,6.134-.278,12.619-2.348,19.274-6.153,5.953-3.4,11.394-7.78,16.655-12.012l.528.657c-5.287,4.253-10.754,8.65-16.765,12.087-6.772,3.872-13.385,5.98-19.654,6.264C4284.965,1997.532,4284.582,1997.544,4284.179,1997.544Z" transform="translate(-4102.771 -1890.3)" fill="#a61001"/>
        <path id="Trazado_990234" data-name="Trazado 990234" d="M4018.4,2398.387a4.182,4.182,0,0,1-3.266-1.57c-1.435-1.83-1.044-4.086.992-5.75,4.74-3.87,9.607-7.717,14.465-11.436l.513.67c-4.852,3.713-9.711,7.555-14.445,11.419-.637.519-2.58,2.385-.862,4.576a3.362,3.362,0,0,0,3.33,1.162,6.6,6.6,0,0,0,1.483-.62,110.7,110.7,0,0,0,10.02-6.141c1.634-1.083,3.323-2.2,5.022-3.264l.446.715c-1.689,1.054-3.374,2.171-5,3.251a111.648,111.648,0,0,1-10.1,6.187,7.307,7.307,0,0,1-1.677.692A3.928,3.928,0,0,1,4018.4,2398.387Z" transform="translate(-3903.513 -2198.277)" fill="#343a50"/>
        <rect id="Rectángulo_409597" data-name="Rectángulo 409597" width="4.556" height="0.843" transform="translate(158.642 188.537) rotate(-66.252)" fill="#343a50"/>
        <path id="Trazado_990235" data-name="Trazado 990235" d="M4030.783,2448.781h-.085a4.43,4.43,0,0,1-3-1.427,7.686,7.686,0,0,1-1.695-3.185l.8-.266a6.905,6.905,0,0,0,1.5,2.865,3.585,3.585,0,0,0,2.417,1.17,5.773,5.773,0,0,0,2.022-.452,132.976,132.976,0,0,0,17.473-7.62l.392.747a133.815,133.815,0,0,1-17.584,7.668A6.8,6.8,0,0,1,4030.783,2448.781Z" transform="translate(-3912.517 -2244.524)" fill="#343a50"/>
        <path id="Trazado_990236" data-name="Trazado 990236" d="M4005.05,2365.309a5.251,5.251,0,0,1-3.57-5.012c.068-2.346,1.681-4.26,3.414-5.979a86.643,86.643,0,0,1,14.384-11.508l.453.711a85.773,85.773,0,0,0-14.243,11.4c-1.608,1.6-3.105,3.355-3.165,5.406a4.383,4.383,0,0,0,2.98,4.183Z" transform="translate(-3893.689 -2170.005)" fill="#343a50"/>
        <path id="Trazado_990237" data-name="Trazado 990237" d="M4297.484,1622.369a17.54,17.54,0,0,1,6.8,2.18,4.732,4.732,0,0,1,2.069,1.912,7.374,7.374,0,0,1,.346,3.05c.068,3.06,1.469,5.905,2.409,8.818,1.582,4.908,2.052,9.967,4.19,14.733a4.676,4.676,0,0,0,1.858,2.407c1.617.837,3.668-.424,4.4-2.094s.542-3.572.47-5.392c-.157-3.977-.049-9.256,1.725-12.906,1.6-3.291,3.24-7,2.128-10.487a10.844,10.844,0,0,0-1.781-3.2,6.931,6.931,0,0,0-1.907-1.856c-.451-.266-.95-.444-1.389-.728a7.783,7.783,0,0,1-2.353-3.336,28.009,28.009,0,0,0-4.485-6.521,9.76,9.76,0,0,0-2.789-2.26c-1.745-.854-3.78-.794-5.678-1.208-3.953-.862-7.111-3.71-10.319-6.175a2.444,2.444,0,0,0-1.459-.662,2.061,2.061,0,0,0-1.11.45,7.519,7.519,0,0,0-2.885,6.144c0,1.384.143,3.105-1.056,3.8-.715.412-1.639.241-2.388.586-3.293,1.515-.1,7.311,1.7,8.817a19.133,19.133,0,0,0,4.407,2.932C4292.636,1622.332,4295.1,1622.119,4297.484,1622.369Z" transform="translate(-4109.726 -1598.642)" fill="#343a50"/>
        <path id="Trazado_990238" data-name="Trazado 990238" d="M4397.753,1765.338c2.791.044,5.394-1.869,7.1-3.93a8.785,8.785,0,0,0,1.4-7.547c-.734-2.519-3.162-3.523-5.67-3.563-5.962-.094-10.475,9.009-6.444,13.525a4.069,4.069,0,0,0,1.5,1.089A5.952,5.952,0,0,0,4397.753,1765.338Z" transform="translate(-4193.987 -1715.082)" fill="#ffaec1"/>
        <rect id="Rectángulo_409598" data-name="Rectángulo 409598" width="0.647" height="2.813" transform="translate(188.081 30.744) rotate(-18.439)" fill="#f17049"/>
        <path id="Trazado_990239" data-name="Trazado 990239" d="M4354.5,1735.244a21.912,21.912,0,0,0-1.174-2.895l.58-.286a22.544,22.544,0,0,1,1.209,2.98Z" transform="translate(-4163.83 -1701.082)" fill="#f17049"/>
        <rect id="Rectángulo_409599" data-name="Rectángulo 409599" width="0.647" height="2.175" transform="translate(174.219 28.831) rotate(-32.471)" fill="#f17049"/>
        <rect id="Rectángulo_409600" data-name="Rectángulo 409600" width="0.647" height="1.804" transform="translate(175.468 28.841) rotate(-33.63)" fill="#f17049"/>
        <path id="Trazado_990240" data-name="Trazado 990240" d="M4392.813,1702.148l-.316-.564a27.974,27.974,0,0,0,8.112-6.9,3.915,3.915,0,0,0,.793-1.353l.625.167a4.428,4.428,0,0,1-.912,1.589A28.631,28.631,0,0,1,4392.813,1702.148Z" transform="translate(-4193.908 -1671.343)" fill="#343a50"/>
        <rect id="Rectángulo_409601" data-name="Rectángulo 409601" width="0.647" height="3.126" transform="matrix(0.996, -0.091, 0.091, 0.996, 200.386, 32.428)" fill="#343a50"/>
        <path id="Trazado_990241" data-name="Trazado 990241" d="M4244.4,2054.4a389.934,389.934,0,0,0,77.3-12.9c10.813-2.947,21.69-6.452,30.871-12.879,3.139-2.2,6.145-4.845,7.671-8.359,1.551-3.57,1.405-7.633.937-11.5-2.73-22.472-15.185-42.413-27.33-61.517-1.771-2.785-3.613-5.646-6.321-7.532-6.177-4.3-14.743-2.229-21.408,1.265-3.2,1.677-6.381,3.781-8.1,6.96-1.65,3.056-1.729,6.687-1.727,10.159a423.617,423.617,0,0,0,2.763,48.044c.254,2.211-51.073,15.982-55.207,16.655-1.42.231-3.021.541-3.8,1.751C4240.505,2026.632,4244.62,2054.382,4244.4,2054.4Z" transform="translate(-4076.866 -1858.658)" fill="#f17049"/>
        <path id="Trazado_990242" data-name="Trazado 990242" d="M4245.005,2128.709l-.265-.8c5.251-1.733,10.641-3.259,15.853-4.734,5.291-1.5,10.761-3.046,16.086-4.812,3.748-1.243,28.388-10.038,30.847-11.478a164.4,164.4,0,0,1-6.948-33.566l.839-.084a163.568,163.568,0,0,0,7,33.652c.148.462-.322.695-1.4,1.177-.739.331-1.835.783-3.257,1.342-2.444.96-5.849,2.24-10.121,3.8-7.5,2.743-15.373,5.517-16.69,5.955-5.344,1.772-10.824,3.323-16.123,4.823C4255.62,2125.458,4250.239,2126.979,4245.005,2128.709Z" transform="translate(-4080.463 -1963.029)" fill="#a61001"/>
        <path id="Trazado_990243" data-name="Trazado 990243" d="M4264.591,2077.953a10.1,10.1,0,0,1-1.648-.128l.138-.832a16.055,16.055,0,0,0,4.932-.223c2.2-.327,4.439-.589,6.607-.843,2.626-.308,5.342-.625,7.989-1.059,2.943-.482,5.954-.807,8.865-1.12,2.035-.22,4.139-.446,6.195-.725a296.669,296.669,0,0,0,37.715-7.652,144.015,144.015,0,0,0,20.2-7.225q1.012-.446,2.038-.889c5.252-2.279,10.683-4.635,14.962-8.481,4.242-3.813,5.786-9.146,4.859-16.782a104.377,104.377,0,0,0-10.77-34.275q-.716-1.421-1.433-2.853c-4.712-9.407-9.586-19.135-16.325-27.288l.65-.537c6.8,8.227,11.695,18,16.429,27.448q.717,1.43,1.431,2.851a105.192,105.192,0,0,1,10.855,34.553c.963,7.933-.668,13.5-5.133,17.511-4.381,3.938-9.876,6.321-15.19,8.627q-1.021.443-2.034.887a144.851,144.851,0,0,1-20.318,7.267,297.617,297.617,0,0,1-37.823,7.674c-2.067.279-4.177.507-6.218.727-2.9.313-5.9.635-8.819,1.114-2.666.437-5.391.756-8.028,1.064-2.161.253-4.4.515-6.581.839A24.19,24.19,0,0,1,4264.591,2077.953Z" transform="translate(-4094.438 -1881.495)" fill="#a61001"/>
        <path id="Trazado_990244" data-name="Trazado 990244" d="M4335.491,2323.946a248.729,248.729,0,0,0-4.815-30.65l.823-.183a249.552,249.552,0,0,1,4.832,30.754Z" transform="translate(-4146.442 -2131.85)" fill="#a61001"/>
        <rect id="Rectángulo_409602" data-name="Rectángulo 409602" width="0.843" height="27.131" transform="translate(162.712 167.912) rotate(-10.009)" fill="#a61001"/>
        <path id="Trazado_990245" data-name="Trazado 990245" d="M4259.394,2332.709l-.089-.839c4.5-.48,9.062-.89,13.571-1.221l.062.841C4268.437,2331.819,4263.881,2332.23,4259.394,2332.709Z" transform="translate(-4091.645 -2160.669)" fill="#a61001"/>
        <path id="Trazado_990246" data-name="Trazado 990246" d="M4262.221,2358.393l-.151-.83c4.629-.842,9.342-1.571,14.01-2.167l.106.836C4271.533,2356.825,4266.835,2357.552,4262.221,2358.393Z" transform="translate(-4093.769 -2179.669)" fill="#a61001"/>
        <rect id="Rectángulo_409603" data-name="Rectángulo 409603" width="15.593" height="0.843" transform="translate(170.143 184.821) rotate(-3.377)" fill="#a61001"/>
        <rect id="Rectángulo_409604" data-name="Rectángulo 409604" width="0.843" height="14.191" transform="translate(230.83 146.967) rotate(-57.426)" fill="#a61001"/>
        <rect id="Rectángulo_409605" data-name="Rectángulo 409605" width="0.843" height="13.344" transform="matrix(0.412, -0.911, 0.911, 0.412, 234.74, 144.83)" fill="#a61001"/>
        <path id="Trazado_990247" data-name="Trazado 990247" d="M4511.037,2575.435c-.079-3.626-.05-7.3.088-10.923l.843.032c-.138,3.6-.167,7.262-.088,10.873Z" transform="translate(-4284.889 -2340.226)" fill="#a61001"/>
        <path id="Trazado_990248" data-name="Trazado 990248" d="M4530.592,2579.241l-.84-.073c.257-2.935.395-5.917.413-8.864l.843.005C4530.99,2573.281,4530.85,2576.286,4530.592,2579.241Z" transform="translate(-4299.292 -2344.674)" fill="#a61001"/>
        <path id="Trazado_990249" data-name="Trazado 990249" d="M4196.041,2105.2c1.612,4.656,3.5,9.474,7.255,12.667,2.771-1.241,2.956-5.076,2.464-8.072a55.851,55.851,0,0,0-4.048-13.572,48.5,48.5,0,0,0,25.623,9.748,31.225,31.225,0,0,0-20.667-14.96c-.968-.2-2.109-.472-2.465-1.393a2.847,2.847,0,0,1,.066-1.69q1.973-8.005,3.946-16.009c-3.089-.531-5.534,2.6-6.677,5.519s-2.025,6.333-4.76,7.863l-5.144-8.082c-1.487-2.337-2.981-2.955-3.644-.573-.6,2.175,1.781,7.568,2.355,9.766Q4192.825,2095.911,4196.041,2105.2Z" transform="translate(-4036.817 -1961.973)" fill="#343a50"/>
        <path id="Trazado_990250" data-name="Trazado 990250" d="M4532.368,2001.745c0,1.7.127,3.622,1.416,4.732,1.528,1.315,4.037.736,5.438-.713a11.365,11.365,0,0,0,2.427-5.457,126.328,126.328,0,0,0,2.5-14.094l11.425,5.023c.848.373,1.981.691,2.584-.013a1.827,1.827,0,0,0,.347-1.164c.06-2.721-1.951-5.03-4.055-6.757-3.414-2.8-15.96-10.481-20.076-6.16-1.927,2.024-1.367,8.147-1.541,10.657Q4532.351,1994.764,4532.368,2001.745Z" transform="translate(-4301.299 -1888.26)" fill="#343a50"/>
        <path id="Trazado_990251" data-name="Trazado 990251" d="M4591.28,2215.267a29.478,29.478,0,0,0-3.591,8.435,5.727,5.727,0,0,0,.1,3.177,2.629,2.629,0,0,0,2.44,1.765,4.6,4.6,0,0,0,1.792-.686c3.612-1.91,7.779-2.38,11.788-3.169s8.171-2.062,10.915-5.089a4.978,4.978,0,0,0-3.349-1.4c1.951-2.738,2.511-6.25,2.4-9.611a33.467,33.467,0,0,0-3.213-12.819c-.7-1.514-1.595-3.092-3.124-3.758C4602.146,2189.81,4593.365,2211.517,4591.28,2215.267Z" transform="translate(-4343.641 -2054.173)" fill="#343a50"/>
        <path id="Trazado_990252" data-name="Trazado 990252" d="M4623.728,2256.454c-.134.438-.217,1.017.169,1.262a1.078,1.078,0,0,0,.947-.056,68.032,68.032,0,0,0,7.252-3.329,2.894,2.894,0,0,0,1.515-1.378,3.678,3.678,0,0,0-.081-1.866c-.392-2.243,2.25-11.884-3-9.388C4627.349,2243.213,4624.7,2253.316,4623.728,2256.454Z" transform="translate(-4371.36 -2092.06)" fill="#f17049"/>
        <path id="Trazado_990253" data-name="Trazado 990253" d="M4389.014,2321.171c.5.7,1.152,1.48,2.014,1.44a2.568,2.568,0,0,0,1.157-.452,53.514,53.514,0,0,0,18.831-19.221c.418-.729.812-1.672.326-2.357a2.237,2.237,0,0,0-1.447-.716,8.62,8.62,0,0,0-3.5-.19c-1.755.367-3.141,1.671-4.428,2.92l-7.958,7.727a2.6,2.6,0,0,1-1.248.81,2.538,2.538,0,0,1-1.779-.594,40.37,40.37,0,0,1-10.6-10.268c-.987-1.391-3.543-3.437-4.361-.674-.354,1.2,2.782,5.241,3.356,6.274A165.545,165.545,0,0,0,4389.014,2321.171Z" transform="translate(-4181.241 -2135.776)" fill="#343a50"/>
        <path id="Trazado_990254" data-name="Trazado 990254" d="M4405.789,2464.855c-.175,1.222.025,2.9,1.249,3.064.762.1,1.412-.518,1.91-1.1,7.554-8.85,10.1-21.3,18.266-29.588q.869,7.495,1.738,14.99a2.132,2.132,0,0,0,.4,1.2c.827.935,2.309-.13,2.995-1.172,3.045-4.618,5.021-10.322,9.729-13.228a156.774,156.774,0,0,0,3.264,24.912c.271,1.27.947,2.847,2.242,2.757a89.911,89.911,0,0,0,4.033-32.148,7.119,7.119,0,0,0-.724-3.234,4.886,4.886,0,0,0-4.839-2.043,11.53,11.53,0,0,0-5.017,2.276,38.634,38.634,0,0,0-8.968,8.784c.065-3.781-.267-8.3-3.555-10.175C4416.387,2423.252,4406.806,2457.771,4405.789,2464.855Z" transform="translate(-4204.072 -2236.351)" fill="#343a50"/>
        <path id="Trazado_990255" data-name="Trazado 990255" d="M4372.06,2061.083c-3.16,2.675-4.949,7.746-2.325,10.948,1.833,2.236,5,2.691,7.653,3.845,3.473,1.513,6.476,5.183,5.522,8.849-.775,2.98-3.772,4.793-5.336,7.446a2.282,2.282,0,0,0-.41,1.567c.227,1.1,1.651,1.413,2.774,1.348a12.662,12.662,0,0,0,10.29-6.362,11.119,11.119,0,0,0-.878-11.9c-2.868-3.633-7.733-4.868-12.2-6.094a2.337,2.337,0,0,1-1.3-.689c-.574-.753-.063-1.832.511-2.585a17.54,17.54,0,0,1,5.443-4.707c2.2-1.218,4.77-2.049,6.258-4.074a2.844,2.844,0,0,0,.635-1.61C4388.76,2050.406,4373.708,2059.685,4372.06,2061.083Z" transform="translate(-4175.46 -1948.786)" fill="#343a50"/>
        <path id="Trazado_990256" data-name="Trazado 990256" d="M4190.146,1997.81c1.418,1.034,2.707,1.915,3.259,2.429a3.6,3.6,0,0,0,.54,3.137,2.4,2.4,0,0,0,2.954.668,3.2,3.2,0,0,0,1.2-1.546c1.446-3.322.171-8.093-3.043-9.98-1.831-1.074-8.575-3.171-10.066-1.08C4183.877,1993,4187.276,1995.717,4190.146,1997.81Z" transform="translate(-4034.421 -1899.541)" fill="#343a50"/>
        <path id="Trazado_990257" data-name="Trazado 990257" d="M4242.879,2498.823c1.777,3.52,4.293,7.222,8.168,7.958a4.812,4.812,0,0,0,3.207-.387c1.5-.827,2.2-2.575,2.709-4.21a52.924,52.924,0,0,0,2.058-21.51c-.061-.544-.2-1.182-.7-1.392-.545-.227-1.134.207-1.518.656-1.69,1.977-2.179,4.681-2.607,7.247q-.754,4.529-1.507,9.056c-.13.787-.557,1.8-1.343,1.664a1.434,1.434,0,0,1-.684-.408c-3.528-3.212-5.646-16.1-10.114-16.811C4233.145,2479.5,4241.666,2496.417,4242.879,2498.823Z" transform="translate(-4074.947 -2274.739)" fill="#343a50"/>
        <path id="Trazado_990258" data-name="Trazado 990258" d="M4262.1,2581.622a87.06,87.06,0,0,1-.553-12.3l.843.022a86.172,86.172,0,0,0,.547,12.18Z" transform="translate(-4093.348 -2343.919)" fill="#a61001"/>
        <path id="Trazado_990259" data-name="Trazado 990259" d="M4288.981,2582.08c-.387-4.211-.588-8.491-.6-12.719l.844,0c.01,4.2.21,8.457.594,12.644Z" transform="translate(-4113.97 -2343.947)" fill="#a61001"/>
        <path id="Trazado_990260" data-name="Trazado 990260" d="M4230.909,2549.529a66.285,66.285,0,0,1-11.935-.924l.152-.829c6.476,1.185,13.219.952,19.741.728l1.091-.037c10.325-.35,20.834-.285,31-.223,12.951.079,26.343.161,39.465-.614l.05.842c-13.149.776-26.555.694-39.521.615-10.155-.062-20.656-.126-30.964.223l-1.09.038C4236.259,2549.438,4233.586,2549.529,4230.909,2549.529Z" transform="translate(-4060.679 -2327.263)" fill="#a61001"/>
        <path id="Trazado_990261" data-name="Trazado 990261" d="M4298.915,1747.88a1.994,1.994,0,0,1-1-.261c-.09-.052-.172-.109-.252-.163a1.625,1.625,0,0,0-.335-.2,1.771,1.771,0,0,0-.865.024,1.875,1.875,0,0,1-1.427-.128,1.405,1.405,0,0,1-.59-1.141,2.982,2.982,0,0,1,.218-1.1,26.032,26.032,0,0,1,2.354-4.6c.532-.887,1.083-1.805,1.547-2.733a14.13,14.13,0,0,0,1.485-6.56.355.355,0,0,1,.349-.362h.006a.355.355,0,0,1,.354.348,14.831,14.831,0,0,1-1.561,6.891c-.476.952-1.034,1.882-1.572,2.781a25.419,25.419,0,0,0-2.294,4.467,2.315,2.315,0,0,0-.178.839.713.713,0,0,0,.271.573,1.316,1.316,0,0,0,.914.023,2.339,2.339,0,0,1,1.234.008,2.221,2.221,0,0,1,.493.278c.072.049.138.095.2.133a1.391,1.391,0,0,0,1.748-.364.355.355,0,0,1,.571.422A2.091,2.091,0,0,1,4298.915,1747.88Z" transform="translate(-4118.625 -1700.005)" fill="#343a50"/>
        <path id="Trazado_990262" data-name="Trazado 990262" d="M4298.139,1816.8a1.441,1.441,0,0,0-.667-.93,1.7,1.7,0,0,0-.884-.1c-.988.077-2.231.613-3.191.5-.879-.1-1.788-.922-2.637-1.2a7.755,7.755,0,0,0-1.863-.321,3.018,3.018,0,0,0-1.053.055c-1.4.4-1.343,1.965-.9,3.017a7.476,7.476,0,0,0,2.562,3.214,5.424,5.424,0,0,0,5.688.708C4296.875,1820.918,4298.724,1818.777,4298.139,1816.8Z" transform="translate(-4112.651 -1764.549)" fill="#f17049"/>
        <path id="Trazado_990263" data-name="Trazado 990263" d="M4302.966,1825.8c.29-.186.585-.467.551-.81a.862.862,0,0,0-.547-.625c-.913-.429-1.938-.149-2.9-.24-.69-.065-2.063-1.076-2.691-.667-1.369.894,1.663,2.742,2.284,2.893A4.33,4.33,0,0,0,4302.966,1825.8Z" transform="translate(-4120.608 -1771.176)" fill="#343a50"/>
        <path id="Trazado_990264" data-name="Trazado 990264" d="M4286.678,1745.862s-1.309-2.669-6.978-1.151C4279.7,1744.712,4283.019,1749.1,4286.678,1745.862Z" transform="translate(-4107.305 -1710.434)" fill="#fff"/>
        <path id="Trazado_990265" data-name="Trazado 990265" d="M4332.58,1753.99s3.442-1.967,8.224,2.9C4340.8,1756.888,4336.241,1759.331,4332.58,1753.99Z" transform="translate(-4147.904 -1717.615)" fill="#fff"/>
        <path id="Trazado_990266" data-name="Trazado 990266" d="M4279.7,1744.719a6.473,6.473,0,0,0,3.525,2.288,2.756,2.756,0,0,0,.175-2.175,2.676,2.676,0,0,0-.284-.575A11.842,11.842,0,0,0,4279.7,1744.719Z" transform="translate(-4107.305 -1710.441)" fill="#343a50"/>
        <path id="Trazado_990267" data-name="Trazado 990267" d="M4332.58,1753.989a8.255,8.255,0,0,0,3.057,2.825,4.039,4.039,0,0,0,.251-3.038A4.734,4.734,0,0,0,4332.58,1753.989Z" transform="translate(-4147.904 -1717.613)" fill="#343a50"/>
        <path id="Trazado_990268" data-name="Trazado 990268" d="M4309.081,1806.117a.289.289,0,0,1-.123-.028.284.284,0,0,1-.132-.379,6.005,6.005,0,0,0,.586-2.84.284.284,0,0,1,.567-.023,6.566,6.566,0,0,1-.643,3.11A.283.283,0,0,1,4309.081,1806.117Z" transform="translate(-4129.645 -1755.219)" fill="#343a50"/>
        <path id="Trazado_990269" data-name="Trazado 990269" d="M4417.681,1771.83a.283.283,0,0,1-.248-.144c-.873-1.537-1.692-3.13-2.433-4.737a.284.284,0,0,1,.515-.239c.736,1.593,1.547,3.172,2.412,4.7a.284.284,0,0,1-.106.387A.272.272,0,0,1,4417.681,1771.83Z" transform="translate(-4211.167 -1727.557)" fill="#343a50"/>
        <path id="Trazado_990270" data-name="Trazado 990270" d="M4399.055,1765.915a.361.361,0,0,1-.088-.011.357.357,0,0,1-.257-.432,9.3,9.3,0,0,1,2.944-4.854,6.965,6.965,0,0,1,5.445-1.6.355.355,0,0,1-.112.7,6.245,6.245,0,0,0-4.879,1.444,8.581,8.581,0,0,0-2.71,4.483A.351.351,0,0,1,4399.055,1765.915Z" transform="translate(-4198.67 -1721.721)" fill="#343a50"/>
        <path id="Trazado_990271" data-name="Trazado 990271" d="M4396.516,1709.56a.355.355,0,0,1-.274-.58,23.26,23.26,0,0,1,7.9-6.2.355.355,0,1,1,.307.64,22.549,22.549,0,0,0-7.66,6.006A.356.356,0,0,1,4396.516,1709.56Z" transform="translate(-4196.723 -1678.574)" fill="#f17049"/>
        <path id="Trazado_990272" data-name="Trazado 990272" d="M4420.615,1725.2a.356.356,0,0,1-.351-.3,13.089,13.089,0,0,0-.951-3.167.355.355,0,0,1,.649-.289,13.8,13.8,0,0,1,1,3.339.354.354,0,0,1-.292.408A.25.25,0,0,1,4420.615,1725.2Z" transform="translate(-4214.474 -1692.769)" fill="#f17049"/>
        <path id="Trazado_990273" data-name="Trazado 990273" d="M4436.365,1738.416a.336.336,0,0,1-.047,0,.355.355,0,0,1-.306-.4c.114-.88.188-1.776.217-2.663a.355.355,0,0,1,.355-.343h.012a.355.355,0,0,1,.343.367c-.031.91-.105,1.828-.223,2.73A.354.354,0,0,1,4436.365,1738.416Z" transform="translate(-4227.317 -1703.343)" fill="#f17049"/>
        <path id="Trazado_990274" data-name="Trazado 990274" d="M4399.27,1743.089a.355.355,0,0,1-.354-.322l-.168-1.8a.355.355,0,1,1,.706-.066l.169,1.8a.356.356,0,0,1-.321.387C4399.292,1743.087,4399.281,1743.089,4399.27,1743.089Z" transform="translate(-4198.707 -1707.622)" fill="#f17049"/>
        <path id="Trazado_990275" data-name="Trazado 990275" d="M4333.341,1856.482a.284.284,0,0,1-.046-.564,23.669,23.669,0,0,0,12.013-5.881.284.284,0,1,1,.385.417,24.238,24.238,0,0,1-12.3,6.023A.181.181,0,0,1,4333.341,1856.482Z" transform="translate(-4148.272 -1791.603)" fill="#343a50"/>
        <path id="Trazado_990276" data-name="Trazado 990276" d="M4328.412,1989.472a.283.283,0,0,1-.219-.1l-3.221-3.9a.284.284,0,0,1,.438-.362l3.221,3.9a.285.285,0,0,1-.038.4A.3.3,0,0,1,4328.412,1989.472Z" transform="translate(-4142.013 -1895.29)" fill="#343a50"/>
        <path id="Trazado_990277" data-name="Trazado 990277" d="M4360.069,1995.62a.284.284,0,0,1-.119-.542,49.7,49.7,0,0,1,5.2-2.042.284.284,0,0,1,.178.539,49.175,49.175,0,0,0-5.136,2.018A.293.293,0,0,1,4360.069,1995.62Z" transform="translate(-4168.793 -1901.443)" fill="#343a50"/>
        <path id="Trazado_990278" data-name="Trazado 990278" d="M4368.828,1682.7a.373.373,0,0,1-.076-.008,11.4,11.4,0,0,1-4.23-1.889,5.819,5.819,0,0,1-2.22-2.682,3.225,3.225,0,0,1,.718-3.453.355.355,0,0,1,.471.531,2.5,2.5,0,0,0-.521,2.681,5.149,5.149,0,0,0,1.967,2.347,10.68,10.68,0,0,0,3.966,1.771.355.355,0,0,1-.076.7Z" transform="translate(-4170.564 -1656.942)" fill="#f17049"/>
        <path id="Trazado_990279" data-name="Trazado 990279" d="M4330.627,1635.171a.35.35,0,0,1-.15-.034,18.246,18.246,0,0,1-4.749-2.856,6.445,6.445,0,0,1-2.281-5.092.355.355,0,1,1,.707.058,5.736,5.736,0,0,0,2.055,4.511,17.72,17.72,0,0,0,4.57,2.736.355.355,0,0,1,.17.472A.349.349,0,0,1,4330.627,1635.171Z" transform="translate(-4140.881 -1620.31)" fill="#f17049"/>
        <path id="Trazado_990280" data-name="Trazado 990280" d="M4305.263,1664.327h0a4.806,4.806,0,0,1-3.092-1.18,6.056,6.056,0,0,1-1.137-1.383,4.709,4.709,0,0,1-.832-2.934.355.355,0,0,1,.707.071,4.02,4.02,0,0,0,.729,2.489,5.364,5.364,0,0,0,1,1.224,4.086,4.086,0,0,0,2.628,1,.355.355,0,0,1,0,.71Z" transform="translate(-4123.03 -1644.609)" fill="#f17049"/>
        <path id="Trazado_990281" data-name="Trazado 990281" d="M4401.358,1679.138a.35.35,0,0,1-.131-.025,6.452,6.452,0,0,1-3.053-2.343,4.3,4.3,0,0,1-.523-3.844.355.355,0,1,1,.663.255,3.582,3.582,0,0,0,.453,3.2,5.826,5.826,0,0,0,2.723,2.075.355.355,0,0,1,.2.461A.359.359,0,0,1,4401.358,1679.138Z" transform="translate(-4197.679 -1655.502)" fill="#f17049"/>
      </g>
      <g id="Grupo_1156422" data-name="Grupo 1156422" transform="translate(4.981 55.837)">
        <g id="Grupo_1156421" data-name="Grupo 1156421" transform="translate(0.562)">
          <g id="Grupo_1156420" data-name="Grupo 1156420" transform="translate(4.441)">
            <g id="Grupo_1156418" data-name="Grupo 1156418" transform="translate(0)">
              <path id="Trazado_990282" data-name="Trazado 990282" d="M3339.624,1756.906c1.991-5.209,7.994-14.649,14.642-14.705a13.682,13.682,0,0,1,8.18,3.039,40.764,40.764,0,0,1,6.228,6.313c2.483,2.914,4.887,5.925,7.461,8.757,2.109,2.321,5.085,3.384,7.979,4.644q9.371,4.081,18.615,8.448c6.543,3.091,12.77,5.828,13.728,13.818a12.919,12.919,0,0,1-4.976,11.408,18.694,18.694,0,0,1-11.951,3.779,41.383,41.383,0,0,1-2.84,4.874,57.635,57.635,0,0,1-16.219,16.551,7.022,7.022,0,0,1-4.1,1.495c-2.1-.131-3.656-1.922-4.958-3.573-2.282-2.894-4.653-6-5.048-9.662a2.972,2.972,0,0,1,.036-1.074c.34-1.287,1.9-1.717,3.152-2.154,2.8-.975,5.117-2.971,7.354-4.923l5.109-4.458a27.972,27.972,0,0,0-7.405-.239c-7.707.9-14.723,5.184-22.343,6.7-4.616.921-9.909,1.121-13.493-1.929-2.664-2.267-3.769-5.824-4.75-9.182a30.873,30.873,0,0,1-1.111-9.162C3332.815,1775.2,3335.96,1766.494,3339.624,1756.906Z" transform="translate(-3332.412 -1741.705)" fill="#fff"/>
              <path id="Trazado_990283" data-name="Trazado 990283" d="M3374.969,1824.191c-.091,0-.181,0-.272-.009-2.281-.142-3.94-2.016-5.317-3.761-2.107-2.672-4.729-6-5.152-9.917a3.45,3.45,0,0,1,.049-1.254c.382-1.443,1.929-1.97,3.172-2.394l.3-.1c2.753-.957,5.111-3.014,7.191-4.828l4.286-3.739a25.706,25.706,0,0,0-6.2-.089c-4.172.487-8.237,2.018-12.168,3.5a65.614,65.614,0,0,1-10.135,3.2c-6.278,1.252-10.829.586-13.912-2.038-2.866-2.439-4-6.311-4.9-9.421a31.4,31.4,0,0,1-1.131-9.3c-.094-10.216,2.866-18.8,6.746-28.946h0a34.6,34.6,0,0,1,5.661-9.43c2.167-2.534,5.563-5.561,9.44-5.594a14.254,14.254,0,0,1,8.484,3.139,41.169,41.169,0,0,1,6.306,6.388c.83.974,1.664,1.975,2.471,2.942,1.609,1.928,3.271,3.923,4.98,5.8,1.774,1.951,4.177,2.974,6.722,4.057q.543.231,1.087.466c6.226,2.712,12.494,5.556,18.629,8.454l.5.238c6.448,3.041,12.539,5.913,13.5,13.97a13.424,13.424,0,0,1-5.162,11.859,18.964,18.964,0,0,1-11.946,3.883,42.21,42.21,0,0,1-2.737,4.653,57.832,57.832,0,0,1-16.361,16.692A7.841,7.841,0,0,1,3374.969,1824.191Zm.647-27.234a32.568,32.568,0,0,1,4.832.395.5.5,0,0,1,.253.866l-5.11,4.458c-2.148,1.874-4.583,4-7.518,5.018l-.3.1c-1.124.383-2.286.779-2.531,1.707a2.516,2.516,0,0,0-.022.894c.392,3.635,2.916,6.836,4.944,9.408,1.3,1.649,2.726,3.268,4.6,3.385a6.625,6.625,0,0,0,3.8-1.415,56.835,56.835,0,0,0,16.077-16.41,40.336,40.336,0,0,0,2.807-4.815.5.5,0,0,1,.447-.281.368.368,0,0,1,.054,0,18.1,18.1,0,0,0,11.591-3.674,12.411,12.411,0,0,0,4.787-10.957c-.9-7.511-6.748-10.269-12.941-13.189l-.505-.238c-6.126-2.894-12.384-5.734-18.6-8.441-.36-.156-.719-.31-1.079-.463-2.531-1.077-5.149-2.191-7.068-4.3-1.723-1.9-3.393-3.9-5.008-5.834-.805-.966-1.638-1.964-2.464-2.934a40.465,40.465,0,0,0-6.148-6.24,13.29,13.29,0,0,0-7.877-2.939c-6.583.057-12.4,9.717-14.181,14.386h0c-3.97,10.388-6.774,18.519-6.681,28.587a30.528,30.528,0,0,0,1.091,9.027c.871,2.983,1.955,6.7,4.594,8.943,2.836,2.414,7.113,3.009,13.074,1.82a64.89,64.89,0,0,0,9.979-3.156c3.988-1.5,8.111-3.053,12.4-3.555A23.145,23.145,0,0,1,3375.616,1796.957Zm-37.632-41.691h0Z" transform="translate(-3330.773 -1740.064)" fill="#343a50"/>
            </g>
            <g id="Grupo_1156419" data-name="Grupo 1156419" transform="translate(0 0.664)">
              <path id="Trazado_990284" data-name="Trazado 990284" d="M3342.115,1805.477a3.944,3.944,0,0,1-.767.255c-4.853,1.062-6.3-5.2-7.325-8.692a30.87,30.87,0,0,1-1.111-9.161c-.1-10.476,3.049-19.182,6.714-28.769,1.315-3.44,9.351-18.623,13.958-12.671,2.977,3.846,2.424,12.606,2.494,17.257a21.836,21.836,0,0,0-11.886,14.973c-1.461,6.856.8,12.967,4.647,18.519C3346.968,1799.463,3345.027,1804.177,3342.115,1805.477Z" transform="translate(-3332.413 -1744.572)" fill="#fff"/>
              <path id="Trazado_990285" data-name="Trazado 990285" d="M3338.635,1804.7c-4.11,0-5.611-5.255-6.539-8.5-.066-.231-.13-.455-.192-.668a31.4,31.4,0,0,1-1.131-9.3c-.094-10.217,2.867-18.794,6.747-28.946a46.377,46.377,0,0,1,4.3-7.9c2.667-3.951,5.076-6.11,7.161-6.418a3.445,3.445,0,0,1,3.352,1.523c2.643,3.414,2.615,10.264,2.595,15.265,0,.827-.007,1.607,0,2.288a.5.5,0,0,1-.286.457,21.392,21.392,0,0,0-11.611,14.627c-1.266,5.937.229,11.868,4.57,18.132a.5.5,0,0,1-.024.6,26.382,26.382,0,0,0-1.8,2.674c-1.4,2.253-2.982,4.807-5.1,5.755h0a4.48,4.48,0,0,1-.863.286A5.47,5.47,0,0,1,3338.635,1804.7Zm1.837-.873h0Zm9.019-59.911a2.446,2.446,0,0,0-.362.027c-1.771.262-4.013,2.334-6.482,5.991a46.116,46.116,0,0,0-4.2,7.7c-3.97,10.388-6.773,18.519-6.681,28.587a30.533,30.533,0,0,0,1.091,9.027c.063.215.127.441.194.674.975,3.413,2.446,8.568,6.547,7.672a3.476,3.476,0,0,0,.671-.223c1.844-.824,3.343-3.24,4.666-5.372.566-.913,1.1-1.781,1.643-2.486-4.343-6.39-5.821-12.479-4.516-18.6a22.419,22.419,0,0,1,11.871-15.18c-.005-.61,0-1.283,0-1.989.019-4.583.047-11.509-2.386-14.653A2.582,2.582,0,0,0,3349.491,1743.92Z" transform="translate(-3330.771 -1742.926)" fill="#343a50"/>
            </g>
          </g>
          <path id="Trazado_990286" data-name="Trazado 990286" d="M3392.027,1857.89a.5.5,0,0,1-.41-.778,55.926,55.926,0,0,0,4.745-8.409,36.433,36.433,0,0,0,2.272-8.311l.067-.353c1.262-6.618,2.358-13.089,1.921-19.494a.5.5,0,0,1,.992-.067c.445,6.522-.662,13.063-1.937,19.747l-.067.353a37.16,37.16,0,0,1-2.343,8.537,56.994,56.994,0,0,1-4.829,8.558A.5.5,0,0,1,3392.027,1857.89Z" transform="translate(-3372.981 -1801.45)" fill="#343a50"/>
          <path id="Trazado_990287" data-name="Trazado 990287" d="M3350.858,1780.6a.493.493,0,0,1-.342-.137c-2.572-2.445-5.081-5.019-7.458-7.651a.5.5,0,0,1,.738-.666c2.359,2.614,4.851,5.17,7.4,7.6a.5.5,0,0,1,.018.7A.506.506,0,0,1,3350.858,1780.6Z" transform="translate(-3335.667 -1764.574)" fill="#343a50"/>
          <path id="Trazado_990288" data-name="Trazado 990288" d="M3340.167,1799.175a.491.491,0,0,1-.225-.054,88,88,0,0,1-9.615-5.7.5.5,0,1,1,.56-.822,87,87,0,0,0,9.506,5.632.5.5,0,0,1-.226.94Z" transform="translate(-3325.823 -1780.337)" fill="#343a50"/>
          <path id="Trazado_990289" data-name="Trazado 990289" d="M3312.145,1940.878a.5.5,0,0,1-.226-.94c2.889-1.469,5.88-2.828,8.889-4.039a.5.5,0,0,1,.371.922c-2.982,1.2-5.945,2.547-8.809,4A.471.471,0,0,1,3312.145,1940.878Z" transform="translate(-3311.647 -1890.396)" fill="#343a50"/>
        </g>
        <path id="Trazado_990290" data-name="Trazado 990290" d="M3309.725,1970.557a.5.5,0,0,1-.184-.959,76.8,76.8,0,0,0,9.647-4.659.5.5,0,0,1,.494.863,77.725,77.725,0,0,1-9.773,4.72A.471.471,0,0,1,3309.725,1970.557Z" transform="translate(-3309.228 -1912.67)" fill="#343a50"/>
      </g>
      <g id="Grupo_1156423" data-name="Grupo 1156423" transform="translate(79.833)">
        <path id="Trazado_990291" data-name="Trazado 990291" d="M3812.573,1505.7a6.241,6.241,0,0,0-6.386-6.092l-65.012,1.533a6.241,6.241,0,0,0-6.092,6.386l.123,5.2a6.241,6.241,0,0,0,6.386,6.092l1.647-.039-.83,7.007,6.92-7.151,57.274-1.35a6.24,6.24,0,0,0,6.091-6.386Z" transform="translate(-3711.046 -1499.608)" fill="#67bead"/>
        <path id="Trazado_990292" data-name="Trazado 990292" d="M3702.677,1638.774l-65.011,1.533a6.241,6.241,0,0,0-6.092,6.386l.123,5.2a6.241,6.241,0,0,0,6.386,6.092l6.077-.143-.115,10.271,7.713-10.45,51.336-1.211a6.24,6.24,0,0,0,6.091-6.386l-.123-5.2A6.239,6.239,0,0,0,3702.677,1638.774Z" transform="translate(-3631.573 -1606.457)" fill="#67bead"/>
      </g>
      <g id="Grupo_1156425" data-name="Grupo 1156425" transform="translate(172.957 32.773)">
        <path id="Trazado_990293" data-name="Trazado 990293" d="M4037.545,1718.584a18.7,18.7,0,0,0,26.42,1.091l-25.33-27.511A18.7,18.7,0,0,0,4037.545,1718.584Z" transform="translate(-4032.602 -1680.224)" fill="#f17049"/>
        <g id="Grupo_1156424" data-name="Grupo 1156424" transform="translate(15.322)">
          <path id="Trazado_990294" data-name="Trazado 990294" d="M4118.136,1642.29,4100.13,1670.1l29.313-20.595Z" transform="translate(-4099.771 -1641.931)" fill="#fff"/>
          <path id="Trazado_990295" data-name="Trazado 990295" d="M4098.943,1669.268a.359.359,0,0,1-.3-.554l18.006-27.807a.358.358,0,0,1,.494-.107l11.306,7.212a.359.359,0,0,1,.013.6l-29.312,20.594A.349.349,0,0,1,4098.943,1669.268Zm18.115-27.67-16.809,25.958,27.364-19.225Z" transform="translate(-4098.585 -1640.744)" fill="#343a50"/>
        </g>
      </g>
    </g>
  </g>
</svg>
