<svg id="Grupo_1156494" data-name="Grupo 1156494" xmlns="http://www.w3.org/2000/svg" width="398.131" height="282.492" viewBox="0 0 398.131 282.492">
  <g id="Grupo_1156455" data-name="Grupo 1156455" transform="translate(48.043 38.356)">
    <path id="Trazado_990379" data-name="Trazado 990379" d="M583.764,960.842a.2.2,0,0,0,.062-.01.206.206,0,0,0,.134-.259c-7.462-23.559,1.148-51.839,20.473-67.243,10.877-8.67,24.979-13.123,39.024-13.123a61.472,61.472,0,0,1,31.091,8.159.206.206,0,0,0,.209-.355,59.62,59.62,0,0,0-17.392-6.781,65.647,65.647,0,0,0-36.926,2.614,58.634,58.634,0,0,0-28.822,22.974,65.65,65.65,0,0,0-10.782,35.413,59.622,59.622,0,0,0,2.732,18.466A.206.206,0,0,0,583.764,960.842Z" transform="translate(-578.268 -876.084)" fill="#343a50"/>
    <path id="Trazado_990380" data-name="Trazado 990380" d="M566.409,936.275a.21.21,0,0,0,.062-.01.206.206,0,0,0,.134-.259c-7.462-23.559,1.148-51.839,20.473-67.243,10.877-8.67,24.979-13.122,39.024-13.122a61.473,61.473,0,0,1,31.092,8.159.206.206,0,0,0,.209-.355,59.622,59.622,0,0,0-17.392-6.781,65.65,65.65,0,0,0-36.926,2.614,58.634,58.634,0,0,0-28.822,22.974,65.65,65.65,0,0,0-10.782,35.413,59.617,59.617,0,0,0,2.732,18.466A.206.206,0,0,0,566.409,936.275Z" transform="translate(-563.479 -855.148)" fill="#343a50"/>
  </g>
  <path id="Trazado_990381" data-name="Trazado 990381" d="M817.375,1034.445l-301.365,1.524,15.074-35.381-55.091-78.613,32.314-84.193s72.912-44.3,75.249-45.852,125.911,4.126,125.911,4.126l10.15,53.735,40.951-50.257L832.575,847.2v96.418l-45.495,47.218Z" transform="translate(-440.884 -762.692)" fill="#f7e9da"/>
  <g id="Grupo_1156461" data-name="Grupo 1156461" transform="translate(333.172 74.244)">
    <g id="Grupo_1156456" data-name="Grupo 1156456" transform="translate(0 7.034)">
      <rect id="Rectángulo_409625" data-name="Rectángulo 409625" width="57.865" height="76.928" transform="translate(0.327 0.327)" fill="#fff"/>
      <path id="Trazado_990382" data-name="Trazado 990382" d="M2550.369,1223.075H2492.5a.328.328,0,0,1-.328-.328v-76.928a.328.328,0,0,1,.328-.328h57.865a.328.328,0,0,1,.328.328v76.928A.33.33,0,0,1,2550.369,1223.075Zm-57.537-.656h57.209v-76.272h-57.209Z" transform="translate(-2492.176 -1145.491)" fill="#343a50"/>
    </g>
    <g id="Grupo_1156457" data-name="Grupo 1156457" transform="translate(4.632 12.733)">
      <path id="Trazado_990383" data-name="Trazado 990383" d="M2572.311,1248.618l-47.421-.831,1.425-62.367h46Z" transform="translate(-2524.686 -1185.216)" fill="#fff" fill-rule="evenodd"/>
      <path id="Trazado_990384" data-name="Trazado 990384" d="M2571.133,1247.648h0l-47.421-.83a.2.2,0,0,1-.2-.208l1.426-62.368a.2.2,0,0,1,.2-.2h46a.2.2,0,0,1,.2.2v63.2a.2.2,0,0,1-.2.2Zm-47.212-1.234,47.009.823v-62.787h-45.593Z" transform="translate(-2523.508 -1184.042)" fill="#343a50"/>
    </g>
    <g id="Grupo_1156458" data-name="Grupo 1156458" transform="translate(2.51 72.267)">
      <path id="Trazado_990385" data-name="Trazado 990385" d="M2560.076,1591.786H2514.16a3.628,3.628,0,0,1-3.628-3.628v-.037h49.544Z" transform="translate(-2510.328 -1587.917)" fill="#fff" fill-rule="evenodd"/>
      <path id="Trazado_990386" data-name="Trazado 990386" d="M2558.9,1590.815h-45.916a3.836,3.836,0,0,1-3.832-3.832v-.037a.2.2,0,0,1,.2-.2H2558.9a.2.2,0,0,1,.2.2v3.665A.2.2,0,0,1,2558.9,1590.815Zm-49.335-3.665a3.429,3.429,0,0,0,3.42,3.257H2558.7v-3.257Z" transform="translate(-2509.153 -1586.743)" fill="#343a50"/>
    </g>
    <path id="Trazado_990387" data-name="Trazado 990387" d="M2603.537,1132.878h-8.7a3.967,3.967,0,0,1-3.287-1.678,5.834,5.834,0,0,0-9.209,0,3.968,3.968,0,0,1-3.287,1.678h-8.7a3.02,3.02,0,0,1-3.155-2.855v-5.591a3.02,3.02,0,0,1,3.155-2.855h33.181a3.02,3.02,0,0,1,3.155,2.855v5.591A3.021,3.021,0,0,1,2603.537,1132.878Zm-16.592-5.034a6.859,6.859,0,0,1,5.641,2.772,2.719,2.719,0,0,0,2.251,1.158h8.7a1.852,1.852,0,0,0,1.935-1.75v-5.591a1.852,1.852,0,0,0-1.935-1.75h-33.181a1.852,1.852,0,0,0-1.935,1.75v5.591a1.851,1.851,0,0,0,1.935,1.75h8.7a2.72,2.72,0,0,0,2.251-1.158A6.857,6.857,0,0,1,2586.945,1127.844Z" transform="translate(-2556.109 -1118.078)" fill="#343a50"/>
    <path id="Trazado_990388" data-name="Trazado 990388" d="M2629.306,1392.022h-34.736a.252.252,0,0,1-.252-.252v-.005a.252.252,0,0,1,.252-.252h34.736a.252.252,0,0,1,.252.252v.005A.252.252,0,0,1,2629.306,1392.022Z" transform="translate(-2579.217 -1348.107)" fill="#343a50" fill-rule="evenodd"/>
    <path id="Trazado_990389" data-name="Trazado 990389" d="M2629.306,1413.282h-34.736a.252.252,0,0,1-.252-.252v-.005a.252.252,0,0,1,.252-.252h34.736a.252.252,0,0,1,.252.252v.005A.251.251,0,0,1,2629.306,1413.282Z" transform="translate(-2579.217 -1366.224)" fill="#343a50" fill-rule="evenodd"/>
    <path id="Trazado_990390" data-name="Trazado 990390" d="M2629.306,1434.542h-34.736a.252.252,0,0,1-.252-.252v-.005a.252.252,0,0,1,.252-.252h34.736a.252.252,0,0,1,.252.252v.005A.251.251,0,0,1,2629.306,1434.542Z" transform="translate(-2579.217 -1384.341)" fill="#343a50" fill-rule="evenodd"/>
    <path id="Trazado_990391" data-name="Trazado 990391" d="M2632.414,1508.9h-34.2a.252.252,0,0,1-.252-.252v-.005a.252.252,0,0,1,.252-.252h34.2a.252.252,0,0,1,.252.252v.005A.251.251,0,0,1,2632.414,1508.9Z" transform="translate(-2582.325 -1447.708)" fill="#343a50" fill-rule="evenodd"/>
    <path id="Trazado_990392" data-name="Trazado 990392" d="M2632.414,1530.172h-34.2a.252.252,0,0,1-.252-.252v0a.252.252,0,0,1,.252-.252h34.2a.252.252,0,0,1,.252.252v0A.252.252,0,0,1,2632.414,1530.172Z" transform="translate(-2582.325 -1465.834)" fill="#343a50" fill-rule="evenodd"/>
    <path id="Trazado_990393" data-name="Trazado 990393" d="M2632.414,1551.431h-34.2a.252.252,0,0,1-.252-.252v-.005a.252.252,0,0,1,.252-.252h34.2a.252.252,0,0,1,.252.252v.005A.251.251,0,0,1,2632.414,1551.431Z" transform="translate(-2582.325 -1483.95)" fill="#343a50" fill-rule="evenodd"/>
    <rect id="Rectángulo_409626" data-name="Rectángulo 409626" width="26.125" height="6.247" transform="translate(17.178)" fill="#f2ac6e"/>
    <path id="Trazado_990394" data-name="Trazado 990394" d="M2553.954,1327.348a3.934,3.934,0,1,1,3.934-3.934A3.938,3.938,0,0,1,2553.954,1327.348Zm0-7.517a3.583,3.583,0,1,0,3.583,3.583A3.587,3.587,0,0,0,2553.954,1319.83Z" transform="translate(-2541.469 -1286.724)" fill="#343a50"/>
    <path id="Trazado_990395" data-name="Trazado 990395" d="M2553.954,1456.148a3.934,3.934,0,1,1,3.934-3.934A3.938,3.938,0,0,1,2553.954,1456.148Zm0-7.517a3.583,3.583,0,1,0,3.583,3.583A3.587,3.587,0,0,0,2553.954,1448.63Z" transform="translate(-2541.469 -1396.483)" fill="#343a50"/>
    <g id="Grupo_1156459" data-name="Grupo 1156459" transform="translate(11.139 34.186)">
      <path id="Trazado_990396" data-name="Trazado 990396" d="M2568.582,1334.357v-4.545h-.016l-.9.488-.136-.536,1.136-.608h.6v5.2h-.68Z" transform="translate(-2567.525 -1329.155)" fill="#f17049"/>
    </g>
    <g id="Grupo_1156460" data-name="Grupo 1156460" transform="translate(10.666 52.963)">
      <path id="Trazado_990397" data-name="Trazado 990397" d="M2567.647,1461.46h-3.321v-.432l.552-.536a14.328,14.328,0,0,0,1.512-1.6,1.877,1.877,0,0,0,.424-1.12,1.094,1.094,0,0,0-.24-.732.974.974,0,0,0-.784-.284,1.707,1.707,0,0,0-1.1.44l-.224-.5a2.2,2.2,0,0,1,1.464-.528,1.518,1.518,0,0,1,1.188.448,1.537,1.537,0,0,1,.4,1.064,2.21,2.21,0,0,1-.424,1.276,10.764,10.764,0,0,1-1.368,1.516l-.408.384v.016h2.329Z" transform="translate(-2564.326 -1456.17)" fill="#f17049"/>
    </g>
    <rect id="Rectángulo_409627" data-name="Rectángulo 409627" width="0.38" height="12.321" transform="translate(12.173 18.153)" fill="#f17049"/>
    <rect id="Rectángulo_409628" data-name="Rectángulo 409628" width="0.38" height="9.146" transform="translate(12.173 41.069)" fill="#f17049"/>
  </g>
  <g id="Grupo_1156466" data-name="Grupo 1156466" transform="translate(58.651 42.006)">
    <path id="Trazado_990398" data-name="Trazado 990398" d="M1367.365,1174.571a92.464,92.464,0,0,0-1.279-12.054c2.9-.1,4.951,2.86,5.747,5.647s.993,5.883,2.781,8.165c.9,1.154,2.153,2,3.054,3.157,2.119,2.719.1,6.528-.794,9.472a4.455,4.455,0,0,1-.677,1.5,4.579,4.579,0,0,1-1.982,1.228,1.986,1.986,0,0,1-1.312.2,1.9,1.9,0,0,1-.867-.752C1368.283,1186.1,1367.608,1180.6,1367.365,1174.571Z" transform="translate(-1258.041 -1120.725)" fill="#ffaec1"/>
    <g id="Grupo_1156465" data-name="Grupo 1156465">
      <path id="Trazado_990399" data-name="Trazado 990399" d="M654.048,1360.726c-3.8,6.059-6.2,13-8.009,20.032a278.118,278.118,0,0,0-5.159,27.66c-3.622,23.853-6.336,47.909-5.481,72.138l59.943,2.668c8.105.361,16.218.722,24.327.5,10.731-.3,21.411-1.626,32.073-2.951.585-.078-.068-17.972-.078-19.583q-.094-15.07.167-30.14c4.9,4.167,10.778,7.436,16.421,10.273a82.81,82.81,0,0,0,19.2,6.865c2.7.6,5.534,1.055,8.173.213,3.616-1.153,6.2-4.521,8.163-7.959,9.784-17.163,9.049-39.314,2.577-58.175s-18.032-35.168-29.428-51.161c-2.2-3.06-4.194-6.217-6.183-9.437a54.054,54.054,0,0,0-8.594,4.988,40.756,40.756,0,0,0-8.7,9.052.626.626,0,0,0-.032.877c2.709,4.287,5.562,8.366,8.036,12.823a153.275,153.275,0,0,1,7.672,15.922q1.692,4.1,3.151,8.3.729,2.1,1.4,4.222.348,1.1.679,2.213a6.591,6.591,0,0,0,.549,1.881l-20.742-22c-7.034-7.459-14.2-15.021-22.909-20.079C707.05,1325.812,669.295,1336.438,654.048,1360.726Z" transform="translate(-635.24 -1256.345)" fill="#67bead"/>
      <path id="Trazado_990400" data-name="Trazado 990400" d="M1026.866,1153.207q-.83,2.376-1.629,4.763c-.143-.009-.006-.266.125-.206s.161.226.223.356a1.236,1.236,0,0,0,.349.39c3.237,2.714,6.355,5.671,9.981,7.768,3.054,1.766,6.884,4.907,10.626,4.907,7.278,1.463,16.2-2.586,17.182-9.944l-7.5-3.718c-1.733-.859,5.637-27.036,6.4-29.588,1.917-6.417,3.4-12.743-1.205-18.168a16.271,16.271,0,0,0-13.849-5.552,2.664,2.664,0,0,0-1.315.4,2.906,2.906,0,0,0-.852,1.331C1039.054,1121.635,1032.448,1137.234,1026.866,1153.207Z" transform="translate(-967.53 -1070.974)" fill="#ffaec1"/>
      <path id="Trazado_990401" data-name="Trazado 990401" d="M1153.08,978.4c2.849,3.135,7.117,5.51,11.23,4.5a12.639,12.639,0,0,0,6.324-4.45c4.513-5.337,9.2-10.722,11.524-17.452,4.015-11.641,5.966-34.08-11.844-34.153a19.538,19.538,0,0,0-12.656,4.489,25.2,25.2,0,0,0-3.887,4.26C1144.839,947.672,1142.108,966.326,1153.08,978.4Z" transform="translate(-1070.412 -919.894)" fill="#ffaec1"/>
      <path id="Trazado_990402" data-name="Trazado 990402" d="M1400.381,1137.1c1.357-4.7,4.721-8.588,6.387-13.192a34.952,34.952,0,0,0,1.643-10.041,5.18,5.18,0,0,1,.673-2.768,1.753,1.753,0,0,1,2.495-.49,2.46,2.46,0,0,1,.57,1.33,43.375,43.375,0,0,1-.019,17.154,7.42,7.42,0,0,0-.12,4.084,6.808,6.808,0,0,0,1.743,2.3c3.193,3.15,6.092,6.556,9.229,9.795a.154.154,0,0,1-.017.279c-2.53,1.872-5.074,3.756-7.658,5.58-.7.494-7.972,5.374-8.374,4.812a74.833,74.833,0,0,1-6.015-9.213C1399.462,1143.923,1399.506,1140.133,1400.381,1137.1Z" transform="translate(-1286.742 -1076.195)" fill="#ffaec1"/>
      <path id="Trazado_990403" data-name="Trazado 990403" d="M1173.455,902.051c2.216-1.756,4.338-3.626,5.3-6.39a1.866,1.866,0,0,0,.095-1.3,2,2,0,0,0-1.432-.944,32.245,32.245,0,0,0-5.74-1.055,17.685,17.685,0,0,0,9.124-8.476,2.817,2.817,0,0,0,.3-2.478,2.481,2.481,0,0,0-1.327-1.036c-2.925-1.193-6.279-.212-9.114,1.181s-5.539,3.214-8.645,3.79c1.323-.443,1.217-2.6.05-3.361a4.283,4.283,0,0,0-4.009.1,17.292,17.292,0,0,1-3.841,1.624c-2.226.394-4.4-.778-6.622-1.176s-5.17.639-5.183,2.9a2.444,2.444,0,0,1-.1,1.167,1.44,1.44,0,0,1-1.014.6c-1.845.4-3.747-.113-5.617-.377s-3.983-.2-5.366,1.084c-1.46,1.358-.818,3.294-1.84,4.673-1.2,1.621-3.721,1.538-4.879,3.542-1.13,1.955-.461,4.057-.371,6.141.1,2.329.191,4.669.4,7.015.244,2.772.5,5.544.731,8.318.221,2.7-.043,5.518-.094,8.231,1.053-2.253,2.3-4.418,3.338-6.671,1.84-4,3.122-8.335,4.854-12.443.7-1.653,1.514-3.438,3.12-4.236,2.464-1.225,5.777.388,8.036-1.183a9.676,9.676,0,0,0,2.213-2.9c1.574-2.4,3.215-2.292,5.278-.948,4.085,2.661,9.049,3.978,13.52,5.931a22.763,22.763,0,0,1,.5,5.709c.089-2.283,6.013-5.2,7.6-6.445C1172.96,902.441,1173.208,902.248,1173.455,902.051Z" transform="translate(-1050.842 -879.839)" fill="#343a50"/>
      <path id="Trazado_990404" data-name="Trazado 990404" d="M1268.985,1042.147a4.027,4.027,0,0,0,1.668-.078.347.347,0,0,0,.19-.12c.113-.172-.1-.372-.277-.47a24.289,24.289,0,0,0-6.887-2.464c-.438-.085-1.016-.089-1.19.322a1.009,1.009,0,0,0-.027.515c.2,1.667.627,1.661,2.242,1.844C1266.13,1041.854,1267.557,1042.011,1268.985,1042.147Z" transform="translate(-1169.72 -1015.443)" fill="#343a50"/>
      <path id="Trazado_990405" data-name="Trazado 990405" d="M1358.313,1076.7c.223-.01.444-.018.664-.023a.746.746,0,0,0,.5-.135c.338-.312.212-.952.078-1.319a1.124,1.124,0,0,0-.553-.654,1.59,1.59,0,0,0-.7-.094,11.929,11.929,0,0,0-5.042,1.026,3.492,3.492,0,0,0-.859.58c-.129.128-.237.351-.1.474a.364.364,0,0,0,.183.073A25.173,25.173,0,0,0,1358.313,1076.7Z" transform="translate(-1246.238 -1045.698)" fill="#343a50"/>
      <g id="Grupo_1156462" data-name="Grupo 1156462" transform="translate(90.175 31.628)">
        <path id="Trazado_990406" data-name="Trazado 990406" d="M1253.781,1097.066a9.117,9.117,0,0,1-4.943-.151,9.794,9.794,0,0,1-3.629-2.753,13.47,13.47,0,0,1,4.641-.26c1.838.352,3.175,1.719,4.39,3.047C1254.087,1096.99,1253.935,1097.03,1253.781,1097.066Z" transform="translate(-1245.21 -1093.781)" fill="#fff"/>
        <path id="Trazado_990407" data-name="Trazado 990407" d="M1280.366,1097a4.142,4.142,0,0,0-.64,2.548,4.42,4.42,0,0,0,.059.46,10.173,10.173,0,0,0,3.4-.2q.231-.053.459-.117A10.579,10.579,0,0,0,1280.366,1097Z" transform="translate(-1274.616 -1096.524)" fill="#343a50"/>
      </g>
      <g id="Grupo_1156463" data-name="Grupo 1156463" transform="translate(104.967 36.594)">
        <path id="Trazado_990408" data-name="Trazado 990408" d="M1353.261,1130.438a8.5,8.5,0,0,1-4.611-.141,9.134,9.134,0,0,1-3.385-2.568,12.567,12.567,0,0,1,4.329-.243,7.875,7.875,0,0,1,4.095,2.842C1353.547,1130.368,1353.406,1130.4,1353.261,1130.438Z" transform="translate(-1345.265 -1127.374)" fill="#fff"/>
        <path id="Trazado_990409" data-name="Trazado 990409" d="M1378.068,1130.38a3.862,3.862,0,0,0-.6,2.377,4.107,4.107,0,0,0,.055.429,9.488,9.488,0,0,0,3.173-.187q.216-.05.428-.109A9.886,9.886,0,0,0,1378.068,1130.38Z" transform="translate(-1372.703 -1129.936)" fill="#343a50"/>
      </g>
      <path id="Trazado_990410" data-name="Trazado 990410" d="M1330.35,982.554h-.149l-.135,0c-2-.032-4.266-.069-6.058-1.251a.383.383,0,1,1,.421-.639c1.606,1.059,3.754,1.094,5.649,1.124l.135,0a8.711,8.711,0,0,0,5.521-1.871.383.383,0,0,1,.479.6A9.494,9.494,0,0,1,1330.35,982.554Z" transform="translate(-1222.037 -965.049)" fill="#fff"/>
      <path id="Trazado_990411" data-name="Trazado 990411" d="M1142.871,1007a.383.383,0,0,1-.376-.458,9.987,9.987,0,0,1,1.7-3.877.383.383,0,0,1,.62.45,9.212,9.212,0,0,0-1.565,3.577A.383.383,0,0,1,1142.871,1007Z" transform="translate(-1067.498 -984.374)" fill="#fff"/>
      <path id="Trazado_990412" data-name="Trazado 990412" d="M1146.29,1058.058a.383.383,0,0,1-.383-.374c-.041-1.879-.092-4.217,1.037-6.1a.383.383,0,0,1,.656.394c-1.015,1.69-.966,3.905-.928,5.686a.383.383,0,0,1-.374.391Z" transform="translate(-1070.399 -1026.039)" fill="#fff"/>
      <path id="Trazado_990413" data-name="Trazado 990413" d="M1220.412,953.69a7.408,7.408,0,0,1-2.715-.511.383.383,0,0,1,.281-.712,6.728,6.728,0,0,0,5.712-.391,14.663,14.663,0,0,0,1.76-1.239,8.025,8.025,0,0,1,3.57-1.917.383.383,0,0,1,.12.756,7.354,7.354,0,0,0-3.219,1.765,15.253,15.253,0,0,1-1.855,1.3A7.47,7.47,0,0,1,1220.412,953.69Z" transform="translate(-1131.383 -938.702)" fill="#fff"/>
      <path id="Trazado_990414" data-name="Trazado 990414" d="M1366.552,933.71a.383.383,0,0,1-.221-.7,31.651,31.651,0,0,1,4.285-2.7,10.789,10.789,0,0,1,4.994-1.226.383.383,0,0,1,.373.393.387.387,0,0,1-.392.373,10.043,10.043,0,0,0-4.637,1.149,31.1,31.1,0,0,0-4.18,2.636A.38.38,0,0,1,1366.552,933.71Z" transform="translate(-1258.112 -921.806)" fill="#fff"/>
      <path id="Trazado_990415" data-name="Trazado 990415" d="M1404.746,1007.961a11.312,11.312,0,0,1-1.7-.127.383.383,0,0,1,.115-.757,10.816,10.816,0,0,0,7.923-1.932.383.383,0,1,1,.45.619A11.6,11.6,0,0,1,1404.746,1007.961Z" transform="translate(-1289.263 -986.557)" fill="#fff"/>
      <path id="Trazado_990416" data-name="Trazado 990416" d="M1092.549,1466.752a.381.381,0,0,1-.286-.128,19.923,19.923,0,0,0-5.594-3.926l-6.5-3.534a.383.383,0,0,1,.366-.673l6.5,3.534a20.813,20.813,0,0,1,5.8,4.09.383.383,0,0,1-.032.541A.387.387,0,0,1,1092.549,1466.752Z" transform="translate(-1014.218 -1372.906)" fill="#343a50"/>
      <path id="Trazado_990417" data-name="Trazado 990417" d="M1190.361,1492.084a.383.383,0,0,1-.218-.7c2.432-1.68,4.838-3.162,7.534-2.839a.383.383,0,1,1-.091.76c-2.431-.29-4.7,1.116-7.008,2.709A.38.38,0,0,1,1190.361,1492.084Z" transform="translate(-1107.968 -1398.521)" fill="#343a50"/>
      <path id="Trazado_990418" data-name="Trazado 990418" d="M1253.634,1214.759a4.888,4.888,0,0,0,2.895,1.793c1.8.334,3.955-.319,3.833-2.512a2.637,2.637,0,0,0-1.157-2.019,6.693,6.693,0,0,0-1.41-.612,14.946,14.946,0,0,1-3.018-1.572,2.048,2.048,0,0,0-1.7-.514c-.665.234-.859,1.083-.827,1.786A6.364,6.364,0,0,0,1253.634,1214.759Z" transform="translate(-1161.03 -1160.565)" fill="#f17049"/>
      <path id="Trazado_990419" data-name="Trazado 990419" d="M1272.192,1226.978a.719.719,0,0,0,.617-.357c.231-.448-.4-.9-.718-1.146-.622-.481-1.258-.85-1.85-1.368-.4-.35-.712-.455-.782.163a2.719,2.719,0,0,0,1.761,2.53A2.107,2.107,0,0,0,1272.192,1226.978Z" transform="translate(-1175.689 -1172.972)" fill="#343a50"/>
      <path id="Trazado_990420" data-name="Trazado 990420" d="M1297.317,1205.6h0a.192.192,0,0,1-.191-.192,4.371,4.371,0,0,1,.856-2.58.192.192,0,1,1,.308.228,3.981,3.981,0,0,0-.78,2.352A.191.191,0,0,1,1297.317,1205.6Z" transform="translate(-1199.275 -1155.011)" fill="#343a50"/>
      <path id="Trazado_990421" data-name="Trazado 990421" d="M1127.933,1053.847c1.089-2.066,2.132-5.63,1.159-7.865-.611-1.4-1.1-2.98-2.443-3.8a6.034,6.034,0,0,0-6.957.614,8.846,8.846,0,0,0-2.458,4.518,10.511,10.511,0,0,0,.116,6.366,5.918,5.918,0,0,0,4.76,3.876C1124.539,1057.752,1126.8,1056,1127.933,1053.847Z" transform="translate(-1045.607 -1017.476)" fill="#ffaec1"/>
      <path id="Trazado_990422" data-name="Trazado 990422" d="M1155.021,1066.355a.383.383,0,0,1-.383-.379,6.514,6.514,0,0,0-1.123-4.209c-.894-1.036-2.3-1.443-3.911-1.832a.383.383,0,1,1,.18-.744c1.344.325,3.183.77,4.311,2.076a7.168,7.168,0,0,1,1.309,4.7.383.383,0,0,1-.378.387Z" transform="translate(-1073.314 -1032.668)" fill="#343a50"/>
      <path id="Trazado_990423" data-name="Trazado 990423" d="M1151.67,1067.837a.453.453,0,0,1-.366-.166.639.639,0,0,1-.11-.464,11.5,11.5,0,0,1,1.37-4.2.191.191,0,1,1,.345.165,11.209,11.209,0,0,0-1.333,4.052.377.377,0,0,0,.024.2c.045.055.209.017.382-.089a21.947,21.947,0,0,0,3.368-2.541.191.191,0,0,1,.259.282,22.333,22.333,0,0,1-3.427,2.585A1.021,1.021,0,0,1,1151.67,1067.837Z" transform="translate(-1074.916 -1035.84)" fill="#343a50"/>
      <path id="Trazado_990424" data-name="Trazado 990424" d="M1180.7,1041.156a.191.191,0,0,1-.181-.13,11.889,11.889,0,0,0-3.32-5.039.192.192,0,1,1,.256-.285,12.273,12.273,0,0,1,3.427,5.2.191.191,0,0,1-.12.243A.182.182,0,0,1,1180.7,1041.156Z" transform="translate(-1097.027 -1012.618)" fill="#343a50"/>
      <path id="Trazado_990425" data-name="Trazado 990425" d="M1251.456,1093.74a.191.191,0,0,1-.159-.084,5.319,5.319,0,0,0-2.448-2.05c-1.475-.545-3.084-.192-4.884.287a.191.191,0,1,1-.1-.37c1.864-.5,3.535-.859,5.115-.276a5.7,5.7,0,0,1,2.632,2.194.191.191,0,0,1-.051.266A.186.186,0,0,1,1251.456,1093.74Z" transform="translate(-1153.77 -1059.738)" fill="#343a50"/>
      <path id="Trazado_990426" data-name="Trazado 990426" d="M1350.959,1127.611a.19.19,0,0,1-.135-.056,5.193,5.193,0,0,0-3.128-1.34,15.794,15.794,0,0,0-3.545.167.191.191,0,0,1-.047-.38,16.084,16.084,0,0,1,3.631-.167,5.566,5.566,0,0,1,3.359,1.449.191.191,0,0,1,0,.271A.194.194,0,0,1,1350.959,1127.611Z" transform="translate(-1239.166 -1089.426)" fill="#343a50"/>
      <path id="Trazado_990427" data-name="Trazado 990427" d="M975.342,1504.082a.382.382,0,0,1-.22-.07c-12.095-8.5-21.02-19.177-25.811-30.873a.383.383,0,0,1,.709-.29c4.684,11.436,13.379,21.893,25.157,30.264a85.332,85.332,0,0,1,7.474-13.729.383.383,0,1,1,.636.426,84.56,84.56,0,0,0-7.591,14.039.383.383,0,0,1-.247.219A.364.364,0,0,1,975.342,1504.082Z" transform="translate(-902.856 -1384.978)" fill="#343a50"/>
      <path id="Trazado_990428" data-name="Trazado 990428" d="M1205.62,1526.664a.4.4,0,0,1-.084-.009.383.383,0,0,1-.287-.278,35.3,35.3,0,0,0-7.256-14.013.383.383,0,0,1,.583-.5,36.092,36.092,0,0,1,7.219,13.589c3.51-4.472,5.446-9.951,6.88-14.761,1.094-3.671,2.034-7.435,2.791-11.189a.383.383,0,1,1,.75.151c-.762,3.776-1.706,7.563-2.808,11.256-1.519,5.095-3.6,10.934-7.5,15.613A.384.384,0,0,1,1205.62,1526.664Z" transform="translate(-1114.72 -1407.636)" fill="#343a50"/>
      <path id="Trazado_990429" data-name="Trazado 990429" d="M1144.45,1716.6a.39.39,0,0,1-.073-.007.383.383,0,0,1-.3-.448c2.161-11.2,4.4-22.788,5.965-34.54a198.02,198.02,0,0,0,1.866-36.958c-.241-4.441-.318-8.942-.394-13.295a207.15,207.15,0,0,0-1.277-23.2.383.383,0,0,1,.759-.1,207.72,207.72,0,0,1,1.283,23.284c.075,4.346.153,8.84.393,13.266a198.77,198.77,0,0,1-1.871,37.1c-1.573,11.774-3.81,23.37-5.972,34.584A.382.382,0,0,1,1144.45,1716.6Z" transform="translate(-1068.844 -1500.11)" fill="#343a50"/>
      <path id="Trazado_990430" data-name="Trazado 990430" d="M1419.719,1755.014h-.014a.383.383,0,0,1-.368-.4,242.942,242.942,0,0,0-1.48-37.06.383.383,0,1,1,.76-.089,243.68,243.68,0,0,1,1.484,37.177A.383.383,0,0,1,1419.719,1755.014Z" transform="translate(-1302.156 -1593.349)" fill="#343a50"/>
      <path id="Trazado_990431" data-name="Trazado 990431" d="M1596.754,1730.776a.383.383,0,0,1-.378-.324,16.293,16.293,0,0,0-3.146-7.379.383.383,0,1,1,.608-.465,17.061,17.061,0,0,1,3.294,7.727.383.383,0,0,1-.32.437A.412.412,0,0,1,1596.754,1730.776Z" transform="translate(-1451.538 -1597.888)" fill="#343a50"/>
      <path id="Trazado_990432" data-name="Trazado 990432" d="M1496.13,1430.389a.383.383,0,0,1-.2-.707,74.88,74.88,0,0,0,14.962-12.446.383.383,0,0,1,.562.52,75.638,75.638,0,0,1-15.115,12.573A.382.382,0,0,1,1496.13,1430.389Z" transform="translate(-1368.534 -1337.685)" fill="#343a50"/>
      <path id="Trazado_990433" data-name="Trazado 990433" d="M1532.9,1509.746a.923.923,0,0,1-.6-.289,14.268,14.268,0,0,1-2.376-2.682,28.382,28.382,0,0,1-2.523-5.005q-.374-.884-.757-1.77a81.45,81.45,0,0,1-3.113-8.007.191.191,0,0,1,.316-.194,38.542,38.542,0,0,1,5.682,7.733,35.812,35.812,0,0,1,3.941,8.836,1.422,1.422,0,0,1-.113,1.149.558.558,0,0,1-.459.229Zm-8.756-17.109c.809,2.449,1.848,4.867,2.857,7.212q.381.887.758,1.771h0a28.093,28.093,0,0,0,2.487,4.939,13.884,13.884,0,0,0,2.313,2.611.622.622,0,0,0,.343.194h0a.179.179,0,0,0,.155-.076,1.086,1.086,0,0,0,.05-.815,35.423,35.423,0,0,0-3.9-8.741A41.917,41.917,0,0,0,1524.144,1492.637Z" transform="translate(-1392.207 -1401.284)" fill="#343a50"/>
      <path id="Trazado_990434" data-name="Trazado 990434" d="M1461.447,1416.346a1.468,1.468,0,1,1-2.272-.713A1.73,1.73,0,0,1,1461.447,1416.346Z" transform="translate(-1336.985 -1336.244)" fill="#343a50"/>
      <path id="Trazado_990435" data-name="Trazado 990435" d="M1487.787,1457.514a1.468,1.468,0,1,1-2.272-.713A1.73,1.73,0,0,1,1487.787,1457.514Z" transform="translate(-1359.43 -1371.326)" fill="#343a50"/>
      <path id="Trazado_990436" data-name="Trazado 990436" d="M969.1,1946.79c-13,2.462-12.77-12.74-10.877-21.323a66.264,66.264,0,0,1,12.521-25.815,3.489,3.489,0,0,1,1.1-1.038c1.254-.633,2.827.491,3.159,1.855a6.271,6.271,0,0,1-.8,4.05c-1.258,2.67-2.854,5.189-3.849,7.968-.976,2.724-.305,5.134.111,7.94a112.632,112.632,0,0,1,19.262-13.349c1.881-1.032,3.444-1.554,5.444-.433a2.806,2.806,0,0,1,1.509,2.054c.033.332.02.737.3.911a1.121,1.121,0,0,0,.488.1,2.544,2.544,0,0,1,1.981,1.722,7.489,7.489,0,0,1,.315,2.731,4.148,4.148,0,0,1,2.573,3.027c.361,1.836-.872,3.674-1.762,5.2a31.528,31.528,0,0,1-4.6,5.7,85.111,85.111,0,0,1-18.412,15.052A27.663,27.663,0,0,1,969.1,1946.79Z" transform="translate(-909.669 -1747.848)" fill="#ffaec1"/>
      <path id="Trazado_990437" data-name="Trazado 990437" d="M1074.491,1988.623a.383.383,0,0,1-.215-.7c7.241-4.915,14.5-10.023,21.573-15.181a.383.383,0,1,1,.451.619c-7.081,5.163-14.346,10.276-21.594,15.2A.389.389,0,0,1,1074.491,1988.623Z" transform="translate(-1009.227 -1811.11)" fill="#343a50"/>
      <path id="Trazado_990438" data-name="Trazado 990438" d="M1111.321,2026.194a.383.383,0,0,1-.226-.692,157.922,157.922,0,0,0,18.721-16.088.383.383,0,1,1,.543.54,158.686,158.686,0,0,1-18.812,16.167A.382.382,0,0,1,1111.321,2026.194Z" transform="translate(-1040.613 -1842.326)" fill="#343a50"/>
      <path id="Trazado_990439" data-name="Trazado 990439" d="M890.8,2130.564a2.059,2.059,0,0,0-.5.6,1.912,1.912,0,0,0-.135.789,14.157,14.157,0,0,0,4.309,10.109,18.863,18.863,0,0,0,9.955,4.962q2.854-5.39,6.162-10.522a13.371,13.371,0,0,0,1.614-3.018,6.432,6.432,0,0,0-.042-4.083,11.232,11.232,0,0,0-2.985-4.14,13.35,13.35,0,0,0-3.484-2.635,7.805,7.805,0,0,0-4.133-.664c-1.194.151-2.1,1.1-2.988,1.828Q894.58,2127.052,890.8,2130.564Z" transform="translate(-852.477 -1938.285)" fill="#ffaec1"/>
      <path id="Trazado_990440" data-name="Trazado 990440" d="M902.181,2181.894l-.037,0a20.166,20.166,0,0,1-18.183-21.182.383.383,0,1,1,.765.042,19.4,19.4,0,0,0,17.492,20.378.383.383,0,0,1-.037.764Z" transform="translate(-847.166 -1971.044)" fill="#343a50"/>
      <path id="Trazado_990441" data-name="Trazado 990441" d="M781.271,2176.752a.383.383,0,0,1-.183-.719c4.2-2.287,8.342-4.809,12.3-7.495a.383.383,0,0,1,.43.634c-3.981,2.7-8.141,5.235-12.366,7.533A.379.379,0,0,1,781.271,2176.752Z" transform="translate(-759.356 -1977.967)" fill="#343a50"/>
      <path id="Trazado_990442" data-name="Trazado 990442" d="M881.037,1988.494a.383.383,0,0,1-.38-.341,91.551,91.551,0,0,1-.333-16.5.383.383,0,1,1,.764.054,90.766,90.766,0,0,0,.33,16.365.383.383,0,0,1-.338.423A.264.264,0,0,1,881.037,1988.494Z" transform="translate(-843.9 -1809.938)" fill="#343a50"/>
      <path id="Trazado_990443" data-name="Trazado 990443" d="M1582.3,1749.385a.383.383,0,0,1-.378-.329,95.6,95.6,0,0,1-.913-10.949.383.383,0,1,1,.766-.02,94.807,94.807,0,0,0,.905,10.861.383.383,0,0,1-.325.433A.442.442,0,0,1,1582.3,1749.385Z" transform="translate(-1441.189 -1610.89)" fill="#343a50"/>
      <path id="Trazado_990444" data-name="Trazado 990444" d="M1545.595,1972.976a.383.383,0,0,1-.312-.6,41.669,41.669,0,0,1,38.7-16.862.383.383,0,1,1-.1.759,40.983,40.983,0,0,0-37.978,16.545A.382.382,0,0,1,1545.595,1972.976Z" transform="translate(-1410.686 -1796.199)" fill="#343a50"/>
      <g id="Grupo_1156464" data-name="Grupo 1156464" transform="translate(13.927 94.881)">
        <path id="Trazado_990445" data-name="Trazado 990445" d="M1251.938,1789.164c-4.72.644-2.43-12.082-.756-14.162,1.934-2.4,5.5-3.043,8.444-2.143a15.423,15.423,0,0,1,7.266,5.491,3.187,3.187,0,0,1,.781,1.5,2.25,2.25,0,0,1-1.743,2.251,5.484,5.484,0,0,1-3.051-.263,10.846,10.846,0,0,0-3.014-.7c.513,1.064.966,2.438.192,3.33a2.13,2.13,0,0,1-2.332.42,6.25,6.25,0,0,1-2.021-1.479,7.634,7.634,0,0,1-2.194,4.837A2.865,2.865,0,0,1,1251.938,1789.164Z" transform="translate(-1172.302 -1735.389)" fill="#fff"/>
        <path id="Trazado_990446" data-name="Trazado 990446" d="M996.589,1676.15a11.532,11.532,0,0,1,7,5.363,6.577,6.577,0,0,1,.838,3.3,8.828,8.828,0,0,1-2.1,4.77c-1.589,2.114-3.757,4.17-6.4,4.182a1.741,1.741,0,0,1-1.163-.328,1.793,1.793,0,0,1-.5-1.164c-.268-2.13,1.4-4.084,1.278-5.931-.079-1.2-1.266-1.979-2.137-2.842-1.47-1.456-4.733-3.922-4.465-6.308C989.28,1674.131,994.728,1675.6,996.589,1676.15Z" transform="translate(-950.559 -1652.593)" fill="#fff"/>
        <path id="Trazado_990447" data-name="Trazado 990447" d="M892.081,1877.351c4.051,3.847,7.786-5.012,9.006-7.716,1.171-2.6,3.45-6.8,2.66-9.768a2.01,2.01,0,0,0-1.865-1.593,2.514,2.514,0,0,0-1.38.648,13.753,13.753,0,0,0-3.877,6.049c-.32.83-1.1,4.636-2.551,4.253a1.475,1.475,0,0,1-.6-.4l-4.7-4.43a10.339,10.339,0,0,0-4.323-2.866,1.437,1.437,0,0,0-.856-.011,1.328,1.328,0,0,0-.7.891C881.478,1866.9,889.148,1874.565,892.081,1877.351Z" transform="translate(-860.06 -1808.505)" fill="#fff"/>
        <path id="Trazado_990448" data-name="Trazado 990448" d="M1534.333,1883.428a4.487,4.487,0,0,0,1.308,1.691,1.712,1.712,0,0,0,2.01.045,2.134,2.134,0,0,0,.576-.935,30.891,30.891,0,0,0,.832-4.614,4.887,4.887,0,0,1,2.511-3.743,7.549,7.549,0,0,1,2.857-.3,15.967,15.967,0,0,0,7.292-1.84c.8-.423,1.665-1.1,1.6-2-.068-.887-.991-1.422-1.812-1.766-4.6-1.931-13.481-4.568-18.261-1.89S1532.515,1879.973,1534.333,1883.428Z" transform="translate(-1412.496 -1815.885)" fill="#fff"/>
        <path id="Trazado_990449" data-name="Trazado 990449" d="M1222.167,2244.341c-1.154,2.548-2.1,6.319-3.839,8.488-1.274,1.586-2.982,1.625-3.1-.966a21.67,21.67,0,0,1,2.827-11.188,4.882,4.882,0,0,1,3.074-2.6c1.761-.279,3.291,1.15,4.462,2.5,2.925,3.36,5.706,7.231,5.97,11.678a1.087,1.087,0,0,1-.151.758,1.012,1.012,0,0,1-.926.243c-2.079-.25-3.631-2.017-4.715-3.808S1223.8,2245.651,1222.167,2244.341Z" transform="translate(-1143.398 -2132.132)" fill="#fff"/>
        <path id="Trazado_990450" data-name="Trazado 990450" d="M1661.012,1537.287c.606,2.679,2,5.013,5.135,4.466a9.5,9.5,0,0,0,4.866-2.935,6.256,6.256,0,0,0,1.75-2.585,2.562,2.562,0,0,0-.846-2.824,3.859,3.859,0,0,0-1.865-.461l-2.747-.2a1.512,1.512,0,0,1-1.061-.364,1.535,1.535,0,0,1-.279-.87,27.11,27.11,0,0,0-1.987-8.491c-1.736-3.574-2.5.7-2.816,2.623a42.333,42.333,0,0,0-.6,6.969A22.043,22.043,0,0,0,1661.012,1537.287Z" transform="translate(-1522.913 -1521.641)" fill="#fff"/>
        <path id="Trazado_990451" data-name="Trazado 990451" d="M777.7,1605.172c2.664.667,5.758.677,7.85-1.1a9.039,9.039,0,0,0,2.263-3.366,23.868,23.868,0,0,0,.9-16.489,3.354,3.354,0,0,0-1.251-1.992,2.344,2.344,0,0,0-2.529.271,5.328,5.328,0,0,0-1.55,2.172,15.562,15.562,0,0,0-1.351,5.891,2.436,2.436,0,0,0-3.359.276c-1.211,1.48-.262,3.74-.8,5.575a12.952,12.952,0,0,0-5.547-2.287,4.363,4.363,0,0,0-3.165.443c-2.253,1.557-.882,5.077.572,6.728C771.551,1603.358,775.13,1604.529,777.7,1605.172Z" transform="translate(-762.275 -1573.046)" fill="#fff"/>
        <path id="Trazado_990452" data-name="Trazado 990452" d="M739.177,2241.232c2.664.667,5.758.677,7.85-1.1a9.041,9.041,0,0,0,2.263-3.366,23.868,23.868,0,0,0,.9-16.489,3.354,3.354,0,0,0-1.251-1.992,2.343,2.343,0,0,0-2.529.271,5.329,5.329,0,0,0-1.55,2.172,15.561,15.561,0,0,0-1.351,5.891,2.436,2.436,0,0,0-3.359.276c-1.211,1.48-.262,3.74-.8,5.575a12.951,12.951,0,0,0-5.547-2.287,4.363,4.363,0,0,0-3.165.443c-2.253,1.557-.882,5.077.572,6.728C733.031,2239.418,736.61,2240.591,739.177,2241.232Z" transform="translate(-729.45 -2115.074)" fill="#fff"/>
      </g>
      <path id="Trazado_990453" data-name="Trazado 990453" d="M1410.559,1097.623q.008.222.009.445a34.743,34.743,0,0,1-2.449,13c-.488,1.223-1.009,2.738-.159,3.744a2.312,2.312,0,0,0,2.779.351,5.391,5.391,0,0,0,2.012-2.207,17.556,17.556,0,0,0,1.8-4.447c.958-3.788,2.275-7.106,1.5-10.964-.854-4.245-2.607-8.244-3.7-12.425a2.094,2.094,0,0,0-.721-1.313,1.419,1.419,0,0,0-1.808.5,3.941,3.941,0,0,0-.565,1.966C1408.887,1090.1,1410.429,1093.734,1410.559,1097.623Z" transform="translate(-1293.339 -1053.515)" fill="#ffaec1"/>
      <path id="Trazado_990454" data-name="Trazado 990454" d="M814.18,1625.778a.383.383,0,0,1-.379-.331,124.249,124.249,0,0,0-3.082-16.807,41.084,41.084,0,0,0-7.458-15.135.383.383,0,0,1,.591-.487,41.835,41.835,0,0,1,7.6,15.415,124.857,124.857,0,0,1,3.1,16.911.383.383,0,0,1-.328.431A.419.419,0,0,1,814.18,1625.778Z" transform="translate(-778.347 -1487.466)" fill="#343a50"/>
    </g>
    <path id="Trazado_990455" data-name="Trazado 990455" d="M1338.857,1110.44a13.814,13.814,0,0,1-5.271-2.054,3.273,3.273,0,0,1-1.228-1.474,3.67,3.67,0,0,1-.131-1.419,31.33,31.33,0,0,1,1.427-7.957,1.484,1.484,0,0,1,1.751-1.2c1.154,0,4.153.02,7.073.311,3.75.373,5.9,1.027,6.585,2,.973,1.39-1.837,5.5-4.713,9.341-.138.184-.255.34-.344.461a5.226,5.226,0,0,1-2.38,2.065,3.393,3.393,0,0,1-1.069.16A7.905,7.905,0,0,1,1338.857,1110.44Zm4.627-2.373c.09-.122.208-.279.347-.465.759-1.013,2.173-2.9,3.272-4.7,1.745-2.856,1.581-3.667,1.429-3.884-1.069-1.527-7.738-2.05-13.126-2.034a1.316,1.316,0,0,0-.868.2,1.285,1.285,0,0,0-.268.544,30.691,30.691,0,0,0-1.4,7.793,3.14,3.14,0,0,0,.1,1.174,2.573,2.573,0,0,0,1,1.166,13.006,13.006,0,0,0,5.029,1.945,3.478,3.478,0,0,0,4.488-1.743Z" transform="translate(-1229.177 -1064.332)" fill="#343a50"/>
    <path id="Trazado_990456" data-name="Trazado 990456" d="M1229.2,1059.459a42.3,42.3,0,0,1-5.364-2.154,4.347,4.347,0,0,1-1.472-1,4.613,4.613,0,0,1-.748-3.255l.2-6.826c.012-.417.049-1.684.986-2.032a1.954,1.954,0,0,1,1.067-.011,28.062,28.062,0,0,1,10.969,4.727c1.464,1.051,2.316,1.792,1.414,3.687-.486,1.023-1,2.052-1.5,3.046q-.423.844-.843,1.688h0a4.219,4.219,0,0,1-2.01,2.315,2.586,2.586,0,0,1-.94.166A5.88,5.88,0,0,1,1229.2,1059.459Zm-6.172-14.662c-.356.132-.541.6-.565,1.445l-.2,6.826a4.052,4.052,0,0,0,.59,2.813,3.834,3.834,0,0,0,1.264.842,41.7,41.7,0,0,0,5.281,2.121,3.533,3.533,0,0,0,2.267.2,3.664,3.664,0,0,0,1.662-2h0q.419-.847.845-1.692c.5-.992,1.013-2.017,1.5-3.034.681-1.431.221-1.859-1.208-2.885a27.411,27.411,0,0,0-10.715-4.617,2.509,2.509,0,0,0-.462-.058A.774.774,0,0,0,1223.026,1044.8Z" transform="translate(-1134.921 -1019.826)" fill="#343a50"/>
    <path id="Trazado_990457" data-name="Trazado 990457" d="M1310.834,1122.771a.323.323,0,0,0,.186-.588,8.416,8.416,0,0,0-4.594-1.511.323.323,0,0,0-.016.646,7.764,7.764,0,0,1,4.238,1.394A.317.317,0,0,0,1310.834,1122.771Z" transform="translate(-1206.919 -1085.068)" fill="#343a50"/>
    <path id="Trazado_990458" data-name="Trazado 990458" d="M1191.976,1042.444a.323.323,0,0,0,.257-.519c-1.824-2.391-3.59-4.876-5.247-7.385a.323.323,0,1,0-.539.356c1.666,2.521,3.439,5.017,5.273,7.42A.32.32,0,0,0,1191.976,1042.444Z" transform="translate(-1104.913 -1011.546)" fill="#343a50"/>
    <path id="Trazado_990459" data-name="Trazado 990459" d="M1278.176,1124.252a1.051,1.051,0,0,0,.622-.2,1.728,1.728,0,0,0,.557-1.314l1.077-12.262a.323.323,0,1,0-.644-.057l-1.077,12.262c-.029.329-.078.693-.289.844-.252.18-.678.007-.97-.256-.108-.1-.211-.206-.319-.321a2.285,2.285,0,0,0-2.129-.907,3.716,3.716,0,0,1-.711-.044c-1.233-.244-1.764-1.775-1.935-2.423a.323.323,0,1,0-.625.165c.2.765.844,2.577,2.435,2.892a4.215,4.215,0,0,0,.837.056,1.682,1.682,0,0,1,1.659.7c.112.119.229.242.356.357A1.813,1.813,0,0,0,1278.176,1124.252Z" transform="translate(-1177.629 -1076.084)" fill="#343a50"/>
    <path id="Trazado_990460" data-name="Trazado 990460" d="M1404.128,1148.447a.323.323,0,0,0,.311-.412,10.318,10.318,0,0,1,.521-7.01,20.929,20.929,0,0,1,1.586-2.714,18.864,18.864,0,0,0,1.8-3.194,40.175,40.175,0,0,0,2.094-9.562c.257-1.891.523-3.846.932-5.656.14-.618.227-1.227.312-1.816a8.99,8.99,0,0,1,1.121-3.763.323.323,0,1,0-.545-.347,9.486,9.486,0,0,0-1.215,4.018c-.083.576-.168,1.172-.3,1.765-.415,1.837-.683,3.807-.942,5.711a39.7,39.7,0,0,1-2.053,9.407,18.383,18.383,0,0,1-1.744,3.083,21.412,21.412,0,0,0-1.634,2.8,10.973,10.973,0,0,0-.555,7.455A.324.324,0,0,0,1404.128,1148.447Z" transform="translate(-1289.847 -1079.232)" fill="#343a50"/>
    <path id="Trazado_990461" data-name="Trazado 990461" d="M1191.659,1245.3a5.387,5.387,0,0,0,.751-.051c2.193-.31,3.823-1.948,5.437-3.745a.323.323,0,0,0-.481-.432c-1.531,1.7-3.068,3.257-5.046,3.537a7.759,7.759,0,0,1-3.312-.449,26.379,26.379,0,0,1-4.316-1.777c-2.486-1.293-3.712-4.183-4.794-6.734-.127-.3-.252-.595-.378-.884a.323.323,0,1,0-.593.257c.125.288.25.582.376.879,1.124,2.651,2.4,5.655,5.09,7.055a27,27,0,0,0,4.422,1.821A9.685,9.685,0,0,0,1191.659,1245.3Z" transform="translate(-1098.529 -1182.13)" fill="#343a50"/>
    <path id="Trazado_990462" data-name="Trazado 990462" d="M1150.137,1156.865a.314.314,0,0,0,.056-.005.323.323,0,0,0,.263-.374,31.536,31.536,0,0,1-.464-5.91.323.323,0,0,0-.318-.328h-.005a.323.323,0,0,0-.323.318,32.2,32.2,0,0,0,.473,6.031A.324.324,0,0,0,1150.137,1156.865Z" transform="translate(-1073.34 -1110.272)" fill="#343a50"/>
  </g>
  <g id="Grupo_1156480" data-name="Grupo 1156480" transform="translate(224.939 43.799)">
    <path id="Trazado_990463" data-name="Trazado 990463" d="M1780.818,1456.019c5.875-3.939,12.762-5.933,19.655-7.082a140.326,140.326,0,0,1,20.042-1.9c15.844-.316,32.825,2.418,43.74,12.311a26.581,26.581,0,0,1,4.381,5.241c13.747,11.385,23.244,27.712,30.033,44.562,9.88,24.524,17.33,50.656,19.308,77.259a5.78,5.78,0,0,1-.3,2.959c-.7,1.441-2.394,1.954-3.906,2.3q-2.186.5-4.386.924H1771.912c-2.621-10.912-4.555-21.8-6.371-33.02-2.838-17.531-5.684-35.177-5.469-52.956C1760.3,1487.48,1765.409,1466.352,1780.818,1456.019Z" transform="translate(-1760.06 -1364.955)" fill="#f17049"/>
    <g id="Grupo_1156467" data-name="Grupo 1156467" transform="translate(37.833 81.596)">
      <path id="Trazado_990464" data-name="Trazado 990464" d="M2041.087,1447.131c10.36-.2,23.322,3.892,23.7,15.619a56.326,56.326,0,0,1-4.14,22.316c-2.9,7.208-5.253,14.389-9.013,21.254l-10.536-12.155c-7.327-8.453-14.744-17.043-19.546-27.146-1.358-2.859-2.517-5.934-2.36-9.1C2019.713,1447.551,2033.478,1447.276,2041.087,1447.131Z" transform="translate(-2018.709 -1446.649)" fill="#fff"/>
      <path id="Trazado_990465" data-name="Trazado 990465" d="M2048.547,1503.889l-10.536-12.155c-7.253-8.368-14.753-17.021-19.615-27.254-1.284-2.7-2.574-5.924-2.405-9.322.539-10.827,14.73-11.1,22.355-11.243h0a33.167,33.167,0,0,1,15.827,3.394c5.292,2.844,8.182,7.23,8.361,12.684a56.79,56.79,0,0,1-4.175,22.509c-.757,1.88-1.488,3.788-2.194,5.633a126.059,126.059,0,0,1-6.842,15.672.474.474,0,0,1-.366.244.434.434,0,0,1-.05,0A.47.47,0,0,1,2048.547,1503.889Zm-10.185-59.025c-7.315.139-20.93.4-21.425,10.341-.159,3.188,1.081,6.272,2.315,8.868,4.807,10.116,12.264,18.719,19.475,27.04l10.087,11.637a128.274,128.274,0,0,0,6.463-14.954c.708-1.849,1.44-3.761,2.2-5.648a55.833,55.833,0,0,0,4.106-22.124c-.392-12-14.083-15.166-22.585-15.166C2038.784,1444.857,2038.572,1444.86,2038.363,1444.864Z" transform="translate(-2015.976 -1443.907)" fill="#343a50"/>
    </g>
    <path id="Trazado_990466" data-name="Trazado 990466" d="M2044.575,1228.9q0,.543,0,1.086c-.134-.127-.348.008-.478.14a45.865,45.865,0,0,0-4.386,5.18c4.436,1.869,9.03,2.317,13.765,2.793a60,60,0,0,0,14.808-.313c3.5-.521,7.114-1.221,9.962-3.317l-3.155-3.626a3.143,3.143,0,0,1-.98-2.708,327.963,327.963,0,0,0-1.949-34.523,5.953,5.953,0,0,0-.729-2.663,6.016,6.016,0,0,0-2.364-1.812c-2.469-1.3-5.022-3.605-7.8-4a23.078,23.078,0,0,0-9.2.784c-4.465,2.028-6.263,8.145-7.141,12.483-1.189,5.877-.558,11.464-.443,17.329q.076,3.864.054,7.73C2044.535,1225.281,2044.571,1227.092,2044.575,1228.9Z" transform="translate(-1998.368 -1141.649)" fill="#ffaec1"/>
    <path id="Trazado_990467" data-name="Trazado 990467" d="M2099.359,1505.844a.364.364,0,0,1-.135-.026c-1.96-.787-3.924-1.638-5.838-2.527a.363.363,0,1,1,.306-.658c1.9.884,3.854,1.729,5.8,2.512a.363.363,0,0,1-.135.7Z" transform="translate(-2043.93 -1412.326)" fill="#343a50"/>
    <path id="Trazado_990468" data-name="Trazado 990468" d="M2204.147,1506.8a.363.363,0,0,1-.18-.678l4.878-2.774a.363.363,0,0,1,.359.63l-4.878,2.774A.37.37,0,0,1,2204.147,1506.8Z" transform="translate(-2138.186 -1412.925)" fill="#343a50"/>
    <path id="Trazado_990469" data-name="Trazado 990469" d="M2192.9,1559.323h.015a1.007,1.007,0,0,0,.749-.484l9.494-12.7a.363.363,0,0,0-.581-.434l-9.494,12.7c-.121.162-.171.189-.187.194s-.061-.03-.187-.189c-3.135-3.939-6.14-8.06-8.931-12.249a.363.363,0,0,0-.6.4c2.8,4.206,5.82,8.344,8.968,12.3A1.011,1.011,0,0,0,2192.9,1559.323Z" transform="translate(-2120.57 -1448.938)" fill="#343a50"/>
    <g id="Grupo_1156468" data-name="Grupo 1156468" transform="translate(41.837 95.994)">
      <path id="Trazado_990470" data-name="Trazado 990470" d="M2065.461,1544.52q-3.623,6.45-6.894,13.089a72.32,72.32,0,0,1-12.3-7.97Z" transform="translate(-2045.796 -1544.045)" fill="#fff"/>
      <path id="Trazado_990471" data-name="Trazado 990471" d="M2055.826,1555.342a.475.475,0,0,0,.426-.265c2.167-4.4,4.483-8.794,6.882-13.066a.474.474,0,0,0-.827-.465c-2.329,4.147-4.579,8.41-6.692,12.678a71.952,71.952,0,0,1-11.788-7.7.474.474,0,1,0-.594.74,72.88,72.88,0,0,0,12.377,8.023A.478.478,0,0,0,2055.826,1555.342Z" transform="translate(-2043.055 -1541.305)" fill="#343a50"/>
    </g>
    <g id="Grupo_1156469" data-name="Grupo 1156469" transform="translate(62.073 99.17)">
      <path id="Trazado_990472" data-name="Trazado 990472" d="M2183.15,1566a198.108,198.108,0,0,0,6.142,35.345Z" transform="translate(-2182.675 -1565.525)" fill="#fff"/>
      <path id="Trazado_990473" data-name="Trazado 990473" d="M2186.555,1599.08a.481.481,0,0,0,.124-.016.474.474,0,0,0,.335-.581,198,198,0,0,1-6.127-35.26.474.474,0,1,0-.946.077,198.951,198.951,0,0,0,6.156,35.43A.474.474,0,0,0,2186.555,1599.08Z" transform="translate(-2179.939 -1562.786)" fill="#343a50"/>
    </g>
    <g id="Grupo_1156470" data-name="Grupo 1156470" transform="translate(56.804 111.671)">
      <path id="Trazado_990474" data-name="Trazado 990474" d="M2151.462,1650.685l-3.953-.128Z" transform="translate(-2147.034 -1650.083)" fill="#fff"/>
      <path id="Trazado_990475" data-name="Trazado 990475" d="M2148.726,1648.424a.474.474,0,0,0,.015-.949l-3.953-.128a.474.474,0,1,0-.031.948l3.953.128Z" transform="translate(-2144.298 -1647.347)" fill="#343a50"/>
    </g>
    <g id="Grupo_1156471" data-name="Grupo 1156471" transform="translate(58.079 117.282)">
      <path id="Trazado_990476" data-name="Trazado 990476" d="M2159.708,1688.635l-3.571-.128Z" transform="translate(-2155.662 -1688.032)" fill="#fff"/>
      <path id="Trazado_990477" data-name="Trazado 990477" d="M2156.971,1686.374a.474.474,0,0,0,.017-.948l-3.571-.128a.469.469,0,0,0-.491.457.474.474,0,0,0,.457.491l3.571.127Z" transform="translate(-2152.926 -1685.297)" fill="#343a50"/>
    </g>
    <path id="Trazado_990478" data-name="Trazado 990478" d="M1933.455,1744.889a.474.474,0,0,0,.45-.326,65.227,65.227,0,0,0,3.073-25.18.474.474,0,0,0-.946.072,64.266,64.266,0,0,1-3.028,24.811.474.474,0,0,0,.45.623Z" transform="translate(-1907.417 -1596.689)" fill="#343a50"/>
    <path id="Trazado_990479" data-name="Trazado 990479" d="M2514.727,1726.826l.052,0a.475.475,0,0,0,.421-.523c-3.141-28.93-7.1-62.508-14.342-94.9a.474.474,0,1,0-.926.207c7.234,32.347,11.187,65.894,14.324,94.8A.474.474,0,0,0,2514.727,1726.826Z" transform="translate(-2390.543 -1521.769)" fill="#343a50"/>
    <g id="Grupo_1156472" data-name="Grupo 1156472" transform="translate(19.331 146.669)">
      <path id="Trazado_990480" data-name="Trazado 990480" d="M1891.884,1906.314c8.848-2.082,17.853-3.338,26.562-4.553,2.772-.387,5.638-.786,8.473-1.209,20.019-2.982,42.674-6.358,63.734-.387,6.164-6.352,12.995-10.916,20.214-15.74l.517-.346q.522,1.309,1.034,2.624l-.02.013c-7.315,4.888-14.224,9.5-20.326,15.951a1.378,1.378,0,0,1-1.391.374c-20.7-6.118-43.362-2.742-63.355.236-2.847.424-5.72.825-8.5,1.212-9.045,1.262-17.589,2.454-26.312,4.506a1.378,1.378,0,0,1-.631-2.683Z" transform="translate(-1890.821 -1884.08)" fill="#343a50"/>
      <path id="Trazado_990481" data-name="Trazado 990481" d="M1908.879,2017.658a1.378,1.378,0,0,1-.772-2.646,102.252,102.252,0,0,1,22.073-3.88c5.244-.336,10.6-.488,15.775-.634,7.772-.22,15.809-.448,23.671-1.3l.769-.084c11.775-1.283,23.942-2.61,35.858-.281a69.092,69.092,0,0,1,24.709-19.948q.442,1.318.871,2.64a66.237,66.237,0,0,0-23.9,19.657,1.377,1.377,0,0,1-1.386.522c-11.76-2.475-24.006-1.141-35.849.15l-.77.084c-7.971.868-16.065,1.1-23.891,1.319-5.153.146-10.482.3-15.676.63A99.544,99.544,0,0,0,1908.879,2017.658Z" transform="translate(-1904.706 -1973.388)" fill="#343a50"/>
    </g>
    <path id="Trazado_990482" data-name="Trazado 990482" d="M2345.472,1554.084a.475.475,0,0,0,.068-.944l-9.267-1.363a.474.474,0,1,0-.138.939l9.267,1.363A.68.68,0,0,0,2345.472,1554.084Z" transform="translate(-2250.626 -1454.23)" fill="#343a50"/>
    <path id="Trazado_990483" data-name="Trazado 990483" d="M2333.181,1598.409a.474.474,0,0,0,.1-.939,92.352,92.352,0,0,0-11.774-1.7.474.474,0,1,0-.074.946,91.436,91.436,0,0,1,11.653,1.681A.546.546,0,0,0,2333.181,1598.409Z" transform="translate(-2238.067 -1491.724)" fill="#343a50"/>
    <path id="Trazado_990484" data-name="Trazado 990484" d="M2077.958,1731.172a.474.474,0,0,0,.37-.176l5.726-7.085a.474.474,0,0,0-.738-.6l-5.726,7.085a.474.474,0,0,0,.368.773Z" transform="translate(-2030.557 -1600.262)" fill="#343a50"/>
    <path id="Trazado_990485" data-name="Trazado 990485" d="M2054.235,1710.561a.472.472,0,0,0,.322-.126l7.086-6.542a.474.474,0,0,0-.644-.7l-7.086,6.542a.475.475,0,0,0,.322.823Z" transform="translate(-2010.341 -1583.161)" fill="#343a50"/>
    <path id="Trazado_990486" data-name="Trazado 990486" d="M1961.935,1498.289a.472.472,0,0,0,.16-.028l7.632-2.725a.474.474,0,0,0-.319-.894l-7.632,2.725a.475.475,0,0,0,.16.921Z" transform="translate(-1931.686 -1405.522)" fill="#343a50"/>
    <path id="Trazado_990487" data-name="Trazado 990487" d="M1958.244,1533.589a.473.473,0,0,0,.173-.033l7.632-3a.474.474,0,1,0-.347-.883l-7.632,3a.474.474,0,0,0,.174.916Z" transform="translate(-1928.541 -1435.372)" fill="#343a50"/>
    <path id="Trazado_990488" data-name="Trazado 990488" d="M2309.83,1741.721a.475.475,0,0,0,.267-.867l-6.814-4.634a.474.474,0,0,0-.533.784l6.814,4.634A.469.469,0,0,0,2309.83,1741.721Z" transform="translate(-2222.344 -1611.341)" fill="#343a50"/>
    <path id="Trazado_990489" data-name="Trazado 990489" d="M2292.141,1767.863a.475.475,0,0,0,.363-.78l-5.724-6.814a.475.475,0,0,0-.727.61l5.724,6.814A.476.476,0,0,0,2292.141,1767.863Z" transform="translate(-2208.199 -1631.76)" fill="#343a50"/>
    <g id="Grupo_1156479" data-name="Grupo 1156479" transform="translate(40.478)">
      <path id="Trazado_990490" data-name="Trazado 990490" d="M2033.874,996.464c.055,3.645.561,7.623,3.179,10.16,2.947,2.855,7.671,2.933,11.6,1.746,6.965-2.105,12.579-7.493,16.343-13.72,6.445-10.663,16.983-33.715,1.833-41.361a17.542,17.542,0,0,0-17.019,1.061C2037.348,962.338,2033.67,982.924,2033.874,996.464Z" transform="translate(-2033.866 -942.76)" fill="#ffaec1"/>
      <path id="Trazado_990491" data-name="Trazado 990491" d="M2250.324,1118.261l.094.124a8.824,8.824,0,0,0,1.289,1.349,5.853,5.853,0,0,0,1.7,1.044c3.608,1.352,7.062-2.1,8.459-5.14a10.8,10.8,0,0,0,.4-7.913,6.169,6.169,0,0,0-1.733-2.764,5.5,5.5,0,0,0-5.586-.594c-4.514,1.891-7.415,8.564-5.142,13.078A5.552,5.552,0,0,0,2250.324,1118.261Z" transform="translate(-2217.213 -1072.552)" fill="#ffaec1"/>
      <path id="Trazado_990492" data-name="Trazado 990492" d="M2073.4,913.044q-.085,1.524-.064,3.051c2.079-3.313,4.612-6.568,8.183-8.162,1.253-.559,1.292.74,1.952,1.506a4.8,4.8,0,0,0,2.788,1.6c.88.151,1.784.049,2.674.125a3.08,3.08,0,0,1,2.338,1.118,11.953,11.953,0,0,1,.614,1.317,4.4,4.4,0,0,0,2.515,1.942c1.021.367,2.1.535,3.132.882,1.383.467.592,4.43.572,5.729,2.981-1.317,6.41-.674,9.636-.214a1.116,1.116,0,0,0,.671-.044,1.1,1.1,0,0,0,.312-.281,23.972,23.972,0,0,0,5.182-10.6,5.326,5.326,0,0,0-.163-3.509,2.154,2.154,0,0,0-2.988-.985l.594-3.19a4.418,4.418,0,0,0,.075-1.889,1.51,1.51,0,0,0-1.3-1.2,2.241,2.241,0,0,0-1.561.979,8.413,8.413,0,0,0,.4-2.682,2.847,2.847,0,0,0-1.254-2.3,3,3,0,0,0-2.359-.143,5.019,5.019,0,0,0-1.926,1.1c-.83.76-1.438,1.823-2.478,2.255a15.966,15.966,0,0,0,.507-2.344c-.026-.8-.938-1.633-1.577-1.147A2.63,2.63,0,0,0,2099.4,894c-2.215-2.787-4.37,3.4-6.679,2.276-1.106-.537-1.025-2.279-2.029-2.99-1.112-.788-2.574.187-3.681.982s-2.992,1.258-3.558.017c-.306-.671-.03-1.6-.588-2.085a1.472,1.472,0,0,0-1.422-.1c-3.873,1.309-4.963,6.637-6.051,10.07A44.308,44.308,0,0,0,2073.4,913.044Z" transform="translate(-2067.493 -891.971)" fill="#f2ac6e"/>
      <path id="Trazado_990493" data-name="Trazado 990493" d="M2086.651,1111.91a3.241,3.241,0,0,1-1.007.078,3.02,3.02,0,0,1-2.138-1.09,2.876,2.876,0,0,0-.9.175c-.17.051-.345.1-.527.144a1.62,1.62,0,0,1-1.99-.865,1.83,1.83,0,0,1,.086-1.067,20.438,20.438,0,0,1,2.534-5.956,20.732,20.732,0,0,1,1.462-1.784,10.942,10.942,0,0,0,3.259-7.563.41.41,0,1,1,.812.123,11.71,11.71,0,0,1-3.455,7.984,20.053,20.053,0,0,0-1.405,1.712,19.828,19.828,0,0,0-2.421,5.724,1.2,1.2,0,0,0-.084.594c.087.293.6.39,1.026.3.151-.033.3-.079.468-.128a2.985,2.985,0,0,1,1.438-.178.41.41,0,0,1,.263.175,2.287,2.287,0,0,0,3.387.264.411.411,0,1,1,.6.557A2.824,2.824,0,0,1,2086.651,1111.91Z" transform="translate(-2073.215 -1063.819)" fill="#343a50"/>
      <path id="Trazado_990494" data-name="Trazado 990494" d="M2269.941,1130.435a.41.41,0,0,1-.425-.645c.181-.243.382-.523.6-.826,1.393-1.945,3.3-4.6,5.3-5.083l.033-.008,1.643-.374a.411.411,0,0,1,.187.8h0l-1.643.374-.024.006c-1.7.407-3.576,3.027-4.82,4.763-.22.307-.424.591-.608.838A.4.4,0,0,1,2269.941,1130.435Z" transform="translate(-2234.609 -1089.263)" fill="#343a50"/>
      <path id="Trazado_990495" data-name="Trazado 990495" d="M2088.723,1212.2a.411.411,0,0,1-.489-.516l1.032-3.493a.411.411,0,1,1,.787.233l-1.032,3.493A.413.413,0,0,1,2088.723,1212.2Z" transform="translate(-2080.182 -1161.19)" fill="#343a50"/>
      <g id="Grupo_1156473" data-name="Grupo 1156473" transform="translate(32.179 27.585)">
        <path id="Trazado_990496" data-name="Trazado 990496" d="M2254.26,1081.02q-.133,1.7-.265,3.407Z" transform="translate(-2253.632 -1080.657)" fill="#fff"/>
        <path id="Trazado_990497" data-name="Trazado 990497" d="M2251.983,1082.685a.367.367,0,0,1-.113.009.363.363,0,0,1-.333-.39l.265-3.407a.363.363,0,1,1,.723.056l-.265,3.407A.362.362,0,0,1,2251.983,1082.685Z" transform="translate(-2251.536 -1078.562)" fill="#343a50"/>
      </g>
      <g id="Grupo_1156474" data-name="Grupo 1156474" transform="translate(32.803 30.595)">
        <path id="Trazado_990498" data-name="Trazado 990498" d="M2259.654,1101.38l-1.445,3Z" transform="translate(-2257.846 -1101.017)" fill="#fff"/>
        <path id="Trazado_990499" data-name="Trazado 990499" d="M2256.2,1102.643a.363.363,0,0,1-.411-.51l1.445-3a.363.363,0,1,1,.653.315l-1.444,3A.36.36,0,0,1,2256.2,1102.643Z" transform="translate(-2255.757 -1098.926)" fill="#343a50"/>
      </g>
      <g id="Grupo_1156475" data-name="Grupo 1156475" transform="translate(36.494 28.301)">
        <path id="Trazado_990500" data-name="Trazado 990500" d="M2283.18,1088.5q.175-1.321.351-2.641Z" transform="translate(-2282.817 -1085.493)" fill="#fff"/>
        <path id="Trazado_990501" data-name="Trazado 990501" d="M2281.171,1086.762a.363.363,0,0,1-.444-.4l.351-2.641a.363.363,0,1,1,.719.1l-.351,2.641A.361.361,0,0,1,2281.171,1086.762Z" transform="translate(-2280.724 -1083.406)" fill="#343a50"/>
      </g>
      <g id="Grupo_1156476" data-name="Grupo 1156476" transform="translate(38.143 27.854)">
        <path id="Trazado_990502" data-name="Trazado 990502" d="M2294.33,1085.832l.563-2.987Z" transform="translate(-2293.967 -1082.482)" fill="#fff"/>
        <path id="Trazado_990503" data-name="Trazado 990503" d="M2292.323,1084.088a.363.363,0,0,1-.441-.42l.563-2.987a.363.363,0,1,1,.713.134l-.563,2.987A.36.36,0,0,1,2292.323,1084.088Z" transform="translate(-2291.876 -1080.386)" fill="#343a50"/>
      </g>
      <g id="Grupo_1156477" data-name="Grupo 1156477" transform="translate(34.298 24.751)">
        <path id="Trazado_990504" data-name="Trazado 990504" d="M2268.32,1065.028l.124-3.177Z" transform="translate(-2267.957 -1061.487)" fill="#fff"/>
        <path id="Trazado_990505" data-name="Trazado 990505" d="M2266.312,1063.284a.367.367,0,0,1-.1.01.363.363,0,0,1-.348-.377l.124-3.177a.363.363,0,0,1,.725.028l-.124,3.177A.362.362,0,0,1,2266.312,1063.284Z" transform="translate(-2265.865 -1059.392)" fill="#343a50"/>
      </g>
      <g id="Grupo_1156478" data-name="Grupo 1156478" transform="translate(10.378 6.686)">
        <path id="Trazado_990506" data-name="Trazado 990506" d="M2106.52,946.631l.948-3.25a6.893,6.893,0,0,0,.22-.9,23.553,23.553,0,0,1,.151-2.826Z" transform="translate(-2106.157 -939.288)" fill="#fff"/>
        <path id="Trazado_990507" data-name="Trazado 990507" d="M2104.513,944.893a.363.363,0,0,1-.433-.454l.949-3.249a4.89,4.89,0,0,0,.244-2.033,5.629,5.629,0,0,1,.126-1.693.363.363,0,0,1,.7.194,5.016,5.016,0,0,0-.1,1.479,5.564,5.564,0,0,1-.273,2.257l-.948,3.249A.362.362,0,0,1,2104.513,944.893Z" transform="translate(-2104.066 -937.197)" fill="#343a50"/>
      </g>
      <path id="Trazado_990508" data-name="Trazado 990508" d="M2140.274,938.19a.363.363,0,0,1-.422-.485,9.529,9.529,0,0,0,.315-1.026,4.9,4.9,0,0,1,1.085-2.336c.125-.159.243-.309.345-.467a4.8,4.8,0,0,0,.623-1.715,10.734,10.734,0,0,0,.158-3.058.363.363,0,0,1,.722-.066,11.457,11.457,0,0,1-.169,3.264,5.653,5.653,0,0,1-.726,1.969c-.12.186-.254.356-.383.521a4.224,4.224,0,0,0-.954,2.076,10.3,10.3,0,0,1-.341,1.1A.364.364,0,0,1,2140.274,938.19Z" transform="translate(-2124.163 -923.276)" fill="#343a50"/>
      <path id="Trazado_990509" data-name="Trazado 990509" d="M2168.524,950.439a.363.363,0,0,1-.427-.472,9.1,9.1,0,0,1,2.143-3.417l.145-.143a2.028,2.028,0,0,0,.779-2.054c0-.132-.008-.264-.007-.4a9.555,9.555,0,0,1,.615-3.067.363.363,0,1,1,.685.24,8.865,8.865,0,0,0-.574,2.828c0,.123,0,.248.007.373a2.7,2.7,0,0,1-1,2.592l-.139.137a8.363,8.363,0,0,0-1.971,3.142A.365.365,0,0,1,2168.524,950.439Z" transform="translate(-2148.236 -933.452)" fill="#343a50"/>
      <path id="Trazado_990510" data-name="Trazado 990510" d="M2228.553,966.7a.363.363,0,0,1-.422-.486l.808-2.046a1.355,1.355,0,0,1,.829-.909l.069-.034a3.316,3.316,0,0,0,1.574-4.273.363.363,0,1,1,.667-.285,4.041,4.041,0,0,1-1.918,5.207l-.076.037a1.09,1.09,0,0,0-.283.17,1.1,1.1,0,0,0-.186.352l-.808,2.046A.367.367,0,0,1,2228.553,966.7Z" transform="translate(-2199.39 -948.621)" fill="#343a50"/>
      <path id="Trazado_990511" data-name="Trazado 990511" d="M2254.782,977.532a.363.363,0,0,1-.4-.54,12.358,12.358,0,0,1,1.72-2.392c.217-.219.448-.421.672-.616a4.937,4.937,0,0,0,1.88-2.95,6.941,6.941,0,0,1,1.06-2.248.363.363,0,0,1,.565.454,6.3,6.3,0,0,0-.937,2.021,5.617,5.617,0,0,1-2.092,3.269c-.224.2-.436.38-.634.58a11.791,11.791,0,0,0-1.614,2.256A.365.365,0,0,1,2254.782,977.532Z" transform="translate(-2221.742 -957.314)" fill="#343a50"/>
      <path id="Trazado_990512" data-name="Trazado 990512" d="M2143.654,1245.155a.363.363,0,0,1-.183-.7,14.793,14.793,0,0,0,5.4-3.033,45.5,45.5,0,0,0,9.664-11.217.363.363,0,1,1,.617.382,46.192,46.192,0,0,1-9.816,11.392,15.5,15.5,0,0,1-5.668,3.173Z" transform="translate(-2127.042 -1180.054)" fill="#343a50"/>
      <path id="Trazado_990513" data-name="Trazado 990513" d="M2161.339,1133.239c-.054-.6-1.172-1.215-1.628-1.531a8.936,8.936,0,0,0-2.11-1.1,8.688,8.688,0,0,0-4.294-.129c-1.431.194-1.564.531-.369,1.423a9.149,9.149,0,0,0,2.663,1.367C2156.092,1133.422,2161.419,1134.133,2161.339,1133.239Z" transform="translate(-2134.645 -1095.04)" fill="#fff"/>
      <path id="Trazado_990514" data-name="Trazado 990514" d="M2067.542,1102.736c-.014-.016-.03-.031-.045-.046a8.925,8.925,0,0,0-3.361-2.186,9.5,9.5,0,0,0-4.076-.116,8.242,8.242,0,0,0,3.084,2.577,7.587,7.587,0,0,0,4.174.109c.13-.023.293-.088.283-.22A.228.228,0,0,0,2067.542,1102.736Z" transform="translate(-2056.188 -1069.437)" fill="#fff"/>
      <path id="Trazado_990515" data-name="Trazado 990515" d="M2084.211,1058.485a.724.724,0,0,0,.651.151.478.478,0,0,0,.219-.529,1.335,1.335,0,0,0-.294-.536,18.962,18.962,0,0,0-5.425-4.726,2.005,2.005,0,0,0-.944-.341,1.311,1.311,0,0,0-1.037.561c-.352.475-.707,1.627-.2,2.106.39.366,1.414.456,1.911.668A39.312,39.312,0,0,1,2084.211,1058.485Z" transform="translate(-2070.563 -1028.772)" fill="#343a50"/>
      <path id="Trazado_990516" data-name="Trazado 990516" d="M2170.786,1097.457a8.364,8.364,0,0,0,2.183,1,1.344,1.344,0,0,0,1.344-.359,1.127,1.127,0,0,0-.014-1.23,2.769,2.769,0,0,0-.966-.861,11.259,11.259,0,0,0-5.8-1.656,2.872,2.872,0,0,0-2.562,1.019c-.855,1.4,1.514.945,2.161,1.007A9.958,9.958,0,0,1,2170.786,1097.457Z" transform="translate(-2145.431 -1064.428)" fill="#343a50"/>
      <path id="Trazado_990517" data-name="Trazado 990517" d="M2063.814,1229.417c1.192-.045,1.81-.221,2.712.721a6.772,6.772,0,0,0,2.428,1.655c.121.049.261.119.277.248a.358.358,0,0,1-.116.257,6.838,6.838,0,0,1-6.2,2.325c-2.745-.467-4.6-3.1-5.447-5.589a1.38,1.38,0,0,0,1.109-.047c.354-.143.68-.354,1.044-.467C2061.217,1228.025,2062.321,1229.474,2063.814,1229.417Z" transform="translate(-2053.978 -1178.679)" fill="#f17049"/>
      <path id="Trazado_990518" data-name="Trazado 990518" d="M2078.794,1241.565c.27-.045.581-.185.609-.457a.488.488,0,0,0-.252-.436,1.588,1.588,0,0,0-.5-.168,10.884,10.884,0,0,1-2.8-1.108c-.374-.2-1.588-.764-1.422.143.1.528,1.347,1.155,1.76,1.4A3.86,3.86,0,0,0,2078.794,1241.565Z" transform="translate(-2068.419 -1187.729)" fill="#343a50"/>
      <path id="Trazado_990519" data-name="Trazado 990519" d="M2060.05,1100.4a10.081,10.081,0,0,0,2.359,2.216.782.782,0,0,0,.072-.079,1.365,1.365,0,0,0,.213-.632,6.459,6.459,0,0,0,.039-1.651A16.989,16.989,0,0,0,2060.05,1100.4Z" transform="translate(-2056.179 -1069.446)" fill="#343a50"/>
      <path id="Trazado_990520" data-name="Trazado 990520" d="M2152.938,1132.126a9.108,9.108,0,0,0,2.338,1.254c0-.025,0-.05,0-.074a8.01,8.01,0,0,0-.562-2.77c-.459.039-.924.1-1.4.167C2151.876,1130.9,2151.743,1131.233,2152.938,1132.126Z" transform="translate(-2134.645 -1095.268)" fill="#343a50"/>
    </g>
  </g>
  <g id="Grupo_1156481" data-name="Grupo 1156481" transform="translate(38.779 266.657)">
    <ellipse id="Elipse_11738" data-name="Elipse 11738" cx="179.281" cy="7.348" rx="179.281" ry="7.348" transform="translate(0.395 0.571)" fill="#fff"/>
    <path id="Trazado_990521" data-name="Trazado 990521" d="M553.71,2413.128c-16.47-.675-29.4-1.461-38.437-2.337-4.586-.444-8.11-.91-10.474-1.384-3.348-.67-3.983-1.236-3.983-2.045s.635-1.375,3.983-2.045c2.365-.474,5.889-.939,10.474-1.383,9.035-.875,21.967-1.661,38.437-2.336,33.866-1.388,78.891-2.152,126.782-2.152s92.917.764,126.782,2.152c16.47.675,29.4,1.461,38.437,2.336,4.586.444,8.109.91,10.474,1.383,3.348.671,3.982,1.236,3.982,2.045s-.635,1.375-3.982,2.045c-2.365.474-5.889.939-10.474,1.384-9.035.875-21.967,1.662-38.437,2.337-33.865,1.388-78.891,2.152-126.782,2.152S587.575,2414.516,553.71,2413.128Zm301.477-6.849c-2.568-.459-6.249-.91-10.94-1.34-9.279-.851-22.284-1.615-38.652-2.268-33.661-1.344-78.09-2.085-125.1-2.085s-91.441.74-125.1,2.085c-16.369.654-29.373,1.417-38.652,2.268-4.691.43-8.372.881-10.94,1.34a13.963,13.963,0,0,0-3.99,1.085,13.963,13.963,0,0,0,3.99,1.085c2.568.459,6.249.91,10.94,1.34,9.279.852,22.283,1.615,38.652,2.269,33.661,1.344,78.09,2.085,125.1,2.085s91.441-.74,125.1-2.085c16.369-.654,29.373-1.417,38.652-2.269,4.691-.43,8.372-.881,10.94-1.34a13.964,13.964,0,0,0,3.99-1.085A13.932,13.932,0,0,0,855.186,2406.279Zm-353.625,1.276h0Z" transform="translate(-500.816 -2399.445)" fill="#343a50"/>
  </g>
  <g id="Grupo_1156488" data-name="Grupo 1156488" transform="translate(147.658 156.588)">
    <g id="Grupo_1156482" data-name="Grupo 1156482" transform="translate(13.289 104.898)">
      <path id="Trazado_990522" data-name="Trazado 990522" d="M1330.29,2376.418c0,2.444,19.673,4.425,43.94,4.425s43.94-1.981,43.94-4.425-20.186-8.85-44.454-8.85S1330.29,2373.973,1330.29,2376.418Z" transform="translate(-1329.834 -2367.111)" fill="#fff"/>
      <path id="Trazado_990523" data-name="Trazado 990523" d="M1340.484,2377.359a76.791,76.791,0,0,1-9.477-1.417c-2.631-.626-3.8-1.295-3.8-2.167,0-2.5,10.8-5.258,12.962-5.785a133.574,133.574,0,0,1,30.922-3.521,140.271,140.271,0,0,1,31.432,3.521c2.251.531,13.479,3.306,13.479,5.786,0,.872-1.173,1.54-3.8,2.167a76.8,76.8,0,0,1-9.477,1.417c-8.314.837-19.365,1.3-31.116,1.3S1348.8,2378.2,1340.484,2377.359Zm-.1-8.48a59.366,59.366,0,0,0-9.166,2.9c-3.007,1.3-3.1,1.985-3.1,1.994s.231,1.449,12.544,2.683c8.275.829,19.262,1.285,30.939,1.285s22.665-.456,30.939-1.285c12.319-1.234,12.543-2.668,12.544-2.682s-.117-.7-3.3-2.014a65.192,65.192,0,0,0-9.533-2.9,139.446,139.446,0,0,0-31.16-3.481A132.666,132.666,0,0,0,1340.381,2368.879Z" transform="translate(-1327.203 -2364.469)" fill="#343a50"/>
    </g>
    <g id="Grupo_1156483" data-name="Grupo 1156483" transform="translate(40.586 70.415)">
      <path id="Trazado_990524" data-name="Trazado 990524" d="M1548.29,2137.706l-6.339,37.018h-17.925l-9-40.324Z" transform="translate(-1514.56 -2133.929)" fill="#fff"/>
      <path id="Trazado_990525" data-name="Trazado 990525" d="M1520.856,2172.113l-9-40.324a.47.47,0,0,1,.505-.57l33.26,3.307a.47.47,0,0,1,.417.547l-6.34,37.017a.47.47,0,0,1-.463.391h-17.924A.471.471,0,0,1,1520.856,2172.113Zm24.174-36.7-32.112-3.193,8.773,39.323h17.151Z" transform="translate(-1511.848 -2131.217)" fill="#343a50"/>
    </g>
    <g id="Grupo_1156487" data-name="Grupo 1156487">
      <g id="Grupo_1156484" data-name="Grupo 1156484">
        <rect id="Rectángulo_409629" data-name="Rectángulo 409629" width="121.779" height="80.832" transform="translate(0.514 0.513)" fill="#fff"/>
        <path id="Trazado_990526" data-name="Trazado 990526" d="M1237.31,1736.255v-80.832a.514.514,0,0,1,.514-.514H1359.6a.514.514,0,0,1,.514.514v80.832a.514.514,0,0,1-.514.514H1237.824A.514.514,0,0,1,1237.31,1736.255Zm121.778-80.319H1238.337v79.8h120.751Z" transform="translate(-1237.31 -1654.908)" fill="#343a50"/>
      </g>
      <g id="Grupo_1156485" data-name="Grupo 1156485" transform="translate(6.826 4.549)">
        <rect id="Rectángulo_409630" data-name="Rectángulo 409630" width="108.24" height="71.846" transform="translate(0.457 0.458)" fill="#fff"/>
        <path id="Trazado_990527" data-name="Trazado 990527" d="M1283.48,1757.985v-71.846a.457.457,0,0,1,.457-.457h108.24a.457.457,0,0,1,.457.457v71.846a.457.457,0,0,1-.457.457h-108.24A.458.458,0,0,1,1283.48,1757.985Zm108.24-71.388H1284.395v70.932H1391.72Z" transform="translate(-1283.48 -1685.682)" fill="#343a50"/>
      </g>
      <g id="Grupo_1156486" data-name="Grupo 1156486" transform="translate(63.908 10.954)">
        <ellipse id="Elipse_11739" data-name="Elipse 11739" cx="21.938" cy="1.679" rx="21.938" ry="1.679" transform="translate(0.513 0.515)" fill="#fff"/>
        <path id="Trazado_990528" data-name="Trazado 990528" d="M1676.5,1732.893c-2.032-.156-3.632-.337-4.754-.54-1.36-.246-2.147-.514-2.147-1.159s.787-.913,2.147-1.159c1.122-.2,2.721-.385,4.754-.54,4.156-.318,9.679-.493,15.552-.493s11.4.175,15.552.493c2.032.156,3.631.337,4.754.54,1.36.246,2.147.514,2.147,1.159s-.787.913-2.147,1.159c-1.122.2-2.722.385-4.754.54-4.156.318-9.679.493-15.552.493S1680.66,1733.211,1676.5,1732.893Zm15.551-2.864c-11.22,0-18.644.616-20.87,1.164,2.226.548,9.65,1.164,20.87,1.164s18.644-.616,20.87-1.164C1710.7,1730.646,1703.276,1730.03,1692.055,1730.03Zm-21.517,1.4h0Z" transform="translate(-1669.604 -1729.001)" fill="#343a50"/>
      </g>
    </g>
  </g>
  <g id="Grupo_1156490" data-name="Grupo 1156490" transform="translate(190.941 0)">
    <g id="Grupo_1156489" data-name="Grupo 1156489" transform="translate(4.143 1.92)">
      <path id="Trazado_990529" data-name="Trazado 990529" d="M1560.24,637.226a26.4,26.4,0,0,0,26.4,26.4V610.822A26.4,26.4,0,0,0,1560.24,637.226Z" transform="translate(-1559.925 -610.506)" fill="#fff"/>
      <path id="Trazado_990530" data-name="Trazado 990530" d="M1584.828,662.126a26.72,26.72,0,1,1,0-53.44.316.316,0,0,1,.316.316V661.81A.317.317,0,0,1,1584.828,662.126Zm-.316-52.806a26.088,26.088,0,0,0,0,52.173Z" transform="translate(-1558.108 -608.686)" fill="#343a50"/>
    </g>
    <path id="Trazado_990531" data-name="Trazado 990531" d="M1828.15,624.237v26.31l26.4-.451A26.4,26.4,0,0,0,1828.15,624.237Z" transform="translate(-1784.086 -620.018)" fill="#f2ac6e"/>
    <circle id="Elipse_11740" data-name="Elipse 11740" cx="7.284" cy="7.284" r="7.284" transform="matrix(0.976, -0.219, 0.219, 0.976, 0, 3.196)" fill="#67bead"/>
    <path id="Trazado_990532" data-name="Trazado 990532" d="M1772.16,842.779v26.5a26.4,26.4,0,0,0,26.4-26.4c0-.182,0-.364-.006-.545Z" transform="translate(-1736.373 -805.867)" fill="#f17049"/>
  </g>
  <g id="Grupo_1156492" data-name="Grupo 1156492" transform="translate(212.877 92.847)">
    <g id="Grupo_1156491" data-name="Grupo 1156491" transform="translate(7.818 2.007)">
      <circle id="Elipse_11741" data-name="Elipse 11741" cx="8.492" cy="8.492" r="8.492" transform="translate(0 7.84) rotate(-27.49)" fill="#fff"/>
      <path id="Trazado_990533" data-name="Trazado 990533" d="M1749.62,1264.389a8.749,8.749,0,1,1,8.749,8.749A8.759,8.759,0,0,1,1749.62,1264.389Zm.513,0a8.235,8.235,0,1,0,8.235-8.235A8.244,8.244,0,0,0,1750.133,1264.389Z" transform="translate(-1746.92 -1252.931)" fill="#343a50"/>
    </g>
    <path id="Trazado_990534" data-name="Trazado 990534" d="M1684.425,1223.74l12.167,14.628-18.122-10.533Z" transform="translate(-1678.47 -1223.74)" fill="#f2ac6e"/>
  </g>
  <g id="Grupo_1156493" data-name="Grupo 1156493" transform="translate(0 142.945)">
    <path id="Trazado_990535" data-name="Trazado 990535" d="M270.5,1810.4c2.036,6.264,1.595,12.881.383,19.281a40.476,40.476,0,0,1-25.644-20.718c-4.781-9.279-5.974-19.462-6.733-29.482C251.95,1787.86,266.208,1797.2,270.5,1810.4Z" transform="translate(-238.505 -1747.42)" fill="#f2ac6e"/>
    <path id="Trazado_990536" data-name="Trazado 990536" d="M650.221,1812.132c-6.695,7.67-17.176,12.583-27.486,16.991a38.18,38.18,0,0,1,6.726-29.691c6.344-8.907,16.574-16,28.493-19.755C659.7,1790.859,658.283,1802.9,650.221,1812.132Z" transform="translate(-565.333 -1747.589)" fill="#f2ac6e"/>
    <path id="Trazado_990537" data-name="Trazado 990537" d="M337.328,1562.62c-.014.49,10.8,5.854,12.311,6.905a39.567,39.567,0,0,1,10.685,11.358c5.314,8.5,6.335,18.88,1.587,27.6-7.6-3.057-12.042-9.451-15.9-15.522C339.734,1583.074,337.009,1573.8,337.328,1562.62Z" transform="translate(-322.697 -1562.62)" fill="#67bead"/>
    <path id="Trazado_990538" data-name="Trazado 990538" d="M398.428,1680.985a133.684,133.684,0,0,0-1.472-17.815c-.443-2.882-1.025-5.75-1.569-8.621a85.633,85.633,0,0,0-1.994-8.634c-1.655-5.539-4.723-10.693-8.163-15.654-2.631-3.794-5.585-7.523-7.251-11.681-.113-.281-.667-.161-.554.122,2.1,5.239,6.14,9.812,9.229,14.684a64.219,64.219,0,0,1,4.455,7.924,45.885,45.885,0,0,1,2.727,8.515c.668,2.877,1.161,5.778,1.72,8.669.574,2.964,1.048,5.936,1.4,8.922a144.345,144.345,0,0,1,.922,17.864c-.014,2.261-.076,4.522-.173,6.781-.049,1.131-.109,2.257-.259,3.383a20.506,20.506,0,0,0-.276,3.374c.01.3.584.3.574,0a32.836,32.836,0,0,1,.4-4.441c.153-1.478.163-2.972.212-4.454Q398.509,1685.457,398.428,1680.985Z" transform="translate(-356.875 -1610.172)" fill="#343a50"/>
    <path id="Trazado_990539" data-name="Trazado 990539" d="M308.947,1891.4a24.557,24.557,0,0,0-4.816-6.166,35.626,35.626,0,0,1-5.338-6.4c-1.45-2.447-2.452-5.048-3.981-7.468a74.133,74.133,0,0,0-5.486-7.247c-3.663-4.461-7.123-9.025-10.578-13.591-3.367-4.449-6.658-9.141-7.933-14.3-.072-.291-.625-.167-.554.122,1.284,5.2,4.6,9.923,7.99,14.407,3.524,4.666,7.074,9.319,10.813,13.877a72.669,72.669,0,0,1,5.343,7.106c1.5,2.37,2.486,4.919,3.89,7.323a32.868,32.868,0,0,0,5.073,6.127,25.338,25.338,0,0,1,5.024,6.327C308.524,1891.8,309.079,1891.68,308.947,1891.4Z" transform="translate(-265.56 -1795.644)" fill="#343a50"/>
    <path id="Trazado_990540" data-name="Trazado 990540" d="M650.438,1824.626a38.249,38.249,0,0,1-3.926,7.893c-1.538,2.518-3.08,5.039-4.666,7.537a106.819,106.819,0,0,1-10.73,14.061c-3.258,3.629-7.783,6.475-10.27,10.547a18.213,18.213,0,0,0-2.394,6.349,39.905,39.905,0,0,0-.414,6.818c0,.3.573.3.574,0a35.5,35.5,0,0,1,.6-7.709,17.446,17.446,0,0,1,3.535-7.191,57.045,57.045,0,0,1,6.072-5.829,60.011,60.011,0,0,0,5.886-6.339,103.979,103.979,0,0,0,8.955-12.6c2.648-4.378,5.79-8.682,7.336-13.421C651.086,1824.46,650.532,1824.339,650.438,1824.626Z" transform="translate(-561.93 -1785.753)" fill="#343a50"/>
    <path id="Trazado_990541" data-name="Trazado 990541" d="M339.585,1783.214c-.914-5.969-1.52-11.964-2.445-17.932a134.973,134.973,0,0,0-4-17.483,89.515,89.515,0,0,0-6.421-16.573,69.663,69.663,0,0,0-9.956-13.622c-2.7-3.02-5.527-5.968-8.228-8.989-.213-.239-.712-.01-.5.232,3.838,4.293,7.93,8.443,11.558,12.855a64.413,64.413,0,0,1,4.943,6.817,56.538,56.538,0,0,1,3.99,7.9,121.88,121.88,0,0,1,5.575,16.987,145.836,145.836,0,0,1,3.323,17.962c.515,3.948.984,7.9,1.588,11.842C339.056,1783.5,339.63,1783.508,339.585,1783.214Z" transform="translate(-297.711 -1686.945)" fill="#343a50"/>
    <path id="Trazado_990542" data-name="Trazado 990542" d="M240.3,1641.327a9.709,9.709,0,0,0,.821,1.585c1.777,2.844,11.181,12.065,15.218,6.306.84-3.817-2.023-7.466-4.793-10.646a12.6,12.6,0,0,0-4.714-3.835c-5.309-2.108-7.777,2.733-6.671,6.2Q240.227,1641.134,240.3,1641.327Z" transform="translate(-239.698 -1623.638)" fill="#f17049"/>
    <path id="Trazado_990543" data-name="Trazado 990543" d="M240,1641.761a9.947,9.947,0,0,1-.841-1.625q-.079-.2-.145-.407a6.082,6.082,0,0,1,.358-4.5,4.408,4.408,0,0,1,4.03-2.524,6.784,6.784,0,0,1,2.491.523,12.852,12.852,0,0,1,4.778,3.88c2.924,3.357,5.707,6.961,4.845,10.877l-.011.051-.027.039a4.212,4.212,0,0,1-3.6,1.928C247.175,1650,241.243,1643.748,240,1641.761Zm10.445-4.312a12.566,12.566,0,0,0-4.651-3.789c-2.715-1.077-5.037-.352-6.137,1.82a5.513,5.513,0,0,0-.327,4.077q.061.189.134.375a9.449,9.449,0,0,0,.8,1.546c1.465,2.345,7.347,8.08,11.608,8.08a3.905,3.905,0,0,0,3.324-1.745C255.969,1644.167,253.274,1640.694,250.446,1637.449Z" transform="translate(-238.707 -1622.345)" fill="#343a50"/>
    <path id="Trazado_990544" data-name="Trazado 990544" d="M265.18,1656.632a12.7,12.7,0,0,0-1.538-3.97,22.844,22.844,0,0,0-1.986-3.18,12.621,12.621,0,0,0-1.5-1.61,3.957,3.957,0,0,0-2.516-1.246,1.659,1.659,0,0,0-1.639,1.341,4.212,4.212,0,0,0,.322,2.36,8.961,8.961,0,0,0,1.215,2.039,6.054,6.054,0,0,0,2.086,1.943,1.7,1.7,0,0,0,2.1-.387,2.2,2.2,0,0,0-.021-2.249c-.141-.269-.7-.151-.554.122.311.59.631,1.974-.424,2.234-1.033.255-2.019-1.056-2.458-1.6-1.032-1.274-2.155-3.052-1.634-4.615a1.1,1.1,0,0,1,1.01-.731,2.552,2.552,0,0,1,1.512.62,10.286,10.286,0,0,1,1.9,1.88,19.31,19.31,0,0,1,1.911,2.983,13.061,13.061,0,0,1,1.636,4.063,1.773,1.773,0,0,1-.176,1.361c-.293.393-.972.311-1.434.217a9.687,9.687,0,0,1-5.471-3.542,10.9,10.9,0,0,1-2.341-5.625,7.874,7.874,0,0,1,.144-2.627c.067-.29-.486-.413-.554-.122-.841,3.617.789,7.759,4.006,10.374a10.253,10.253,0,0,0,2.8,1.6,5.25,5.25,0,0,0,2.35.461C265.2,1658.59,265.3,1657.449,265.18,1656.632Z" transform="translate(-252.182 -1633.782)" fill="#343a50"/>
    <path id="Trazado_990545" data-name="Trazado 990545" d="M436.8,2186.6H410.613l-11.026-46.732h48.24Z" transform="translate(-375.773 -2054.532)" fill="#f17049"/>
    <path id="Trazado_990546" data-name="Trazado 990546" d="M460.683,2364.5a11.373,11.373,0,0,0-5.593-8.851,19.1,19.1,0,0,0-5.09-2.126l.126.533c3.748,1.049,6.946,2.972,8.715,6.139a11.293,11.293,0,0,1,1.316,5.683c-.01.933-.141,1.861-.221,2.791h.607A26.463,26.463,0,0,0,460.683,2364.5Z" transform="translate(-418.733 -2236.604)" fill="#343a50"/>
    <path id="Trazado_990547" data-name="Trazado 990547" d="M586.957,2288.976a10.623,10.623,0,0,1-4.439,2.639c-2.309.74-4.864.813-7.125,1.634a5.258,5.258,0,0,0-3.549,3.456c-.46,1.835.294,3.783,1.231,5.442a19.235,19.235,0,0,0,4.969,5.384,49.967,49.967,0,0,0,5.016,3.4h.414l.066-.278a37.1,37.1,0,0,1-7.792-5.87c-2.534-2.653-5.554-7.721-1.529-10.422,1.958-1.314,4.723-1.363,7.073-1.923a13.342,13.342,0,0,0,4.987-2.176,13.616,13.616,0,0,0,2.779-3l.353-1.5A21.763,21.763,0,0,1,586.957,2288.976Z" transform="translate(-522.446 -2178.864)" fill="#343a50"/>
    <path id="Trazado_990548" data-name="Trazado 990548" d="M423.036,2212.693c1.318.668,2.618,1.354,3.931,1.984a28.424,28.424,0,0,0,7.066,2.462,19.493,19.493,0,0,0,8.108-.241,12.484,12.484,0,0,0,3.642-1.5,6.371,6.371,0,0,0,2.269-2.542,18.938,18.938,0,0,1,1.624-2.931,4.952,4.952,0,0,1,2.794-1.646c2.382-.591,5.071-.288,7.511-.156a33.37,33.37,0,0,0,5.2.015l.115-.485c-.157.02-.315.036-.474.05a68.757,68.757,0,0,1-7.861-.185c-2.185-.069-4.676-.039-6.506,1.053-2.119,1.264-2.369,3.613-3.7,5.313-1.577,2.015-5,2.825-7.78,3.049a19.722,19.722,0,0,1-7.971-1.086,65.8,65.8,0,0,1-8.106-3.743Z" transform="translate(-395.638 -2112.165)" fill="#343a50"/>
    <path id="Trazado_990549" data-name="Trazado 990549" d="M453.51,2173.89c-15.2-.009-30.4-.062-45.6,0-.08,0-.165,0-.254,0l.962,4.075c1.079.37,2.059.645,2.56.784a204.213,204.213,0,0,0,39.574,6.837Z" transform="translate(-382.649 -2083.498)" fill="#343a50"/>
    <rect id="Rectángulo_409631" data-name="Rectángulo 409631" width="54.16" height="9.999" transform="translate(20.535 85.338)" fill="#f17049"/>
    <path id="Trazado_990550" data-name="Trazado 990550" d="M376.431,2139.08h54.45v10.231h-54.45Zm54.16.234h-53.87v9.766h53.87v-9.766Z" transform="translate(-356.041 -2053.859)" fill="#343a50"/>
    <path id="Trazado_990551" data-name="Trazado 990551" d="M594.258,1701.208c-6.424,8.958-9.469,19.2-11.58,29.306-1.069,5.115-1.973,10.27-2.671,15.427a83.7,83.7,0,0,0-.686,17.531q.2,2.71.667,5.4c.05.292.6.167.554-.122-1.924-11.277-.206-22.643,1.851-33.823,1.884-10.237,4.435-20.625,10.073-30.012q1.064-1.771,2.29-3.476C594.938,1701.183,594.442,1700.952,594.258,1701.208Z" transform="translate(-528.769 -1680.625)" fill="#343a50"/>
    <path id="Trazado_990552" data-name="Trazado 990552" d="M649.339,1635.755a6.306,6.306,0,0,0,.065,4.031,4.753,4.753,0,0,0,3.587,2.7c2.5.371,4.741-1.237,6.328-2.828,2.351-2.357,4.353-5.115,4.518-8.128a4.248,4.248,0,0,0-1.214-3.453c-4.294-3.983-10.207.664-11.84,3.933A19.063,19.063,0,0,0,649.339,1635.755Z" transform="translate(-588.352 -1617.089)" fill="#f17049"/>
    <path id="Trazado_990553" data-name="Trazado 990553" d="M651.987,1641.41a4.9,4.9,0,0,1-3.715-2.807,6.488,6.488,0,0,1-.081-4.216,18.993,18.993,0,0,1,1.464-3.8c1.167-2.335,4.667-5.57,8.2-5.57a5.569,5.569,0,0,1,3.878,1.577,4.527,4.527,0,0,1,1.286,3.653c-.144,2.629-1.644,5.34-4.585,8.29-1.938,1.943-3.856,2.929-5.7,2.929A4.968,4.968,0,0,1,651.987,1641.41Zm-2.045-10.576a18.46,18.46,0,0,0-1.425,3.694,5.955,5.955,0,0,0,.05,3.847,4.6,4.6,0,0,0,3.459,2.589c1.978.3,4.075-.648,6.2-2.784,2.859-2.866,4.315-5.472,4.451-7.965a4.034,4.034,0,0,0-1.142-3.253,5.284,5.284,0,0,0-3.68-1.495C654.443,1625.466,651.066,1628.584,649.941,1630.834Z" transform="translate(-587.366 -1615.792)" fill="#343a50"/>
    <path id="Trazado_990554" data-name="Trazado 990554" d="M662.936,1639.125c-1.739-.741-3.579,1.488-4.33,2.427a15,15,0,0,0-1.505,2.3,3.332,3.332,0,0,0-.581,2.343.786.786,0,0,0,.723.622,1.522,1.522,0,0,0,1.025-.565,11.508,11.508,0,0,0,1.63-2.206c.165-.264-.33-.5-.5-.232-.314.5-.635,1-1,1.478-.115.151-1,1.3-1.24.985-.515-.693.265-1.9.619-2.529a14.88,14.88,0,0,1,1.469-2.145,7.022,7.022,0,0,1,2.234-1.932,1.424,1.424,0,0,1,1.392-.032,1.172,1.172,0,0,1,.376,1.3,9.964,9.964,0,0,1-1.777,3.572,24.19,24.19,0,0,1-2.9,3.506,8.752,8.752,0,0,1-1.675,1.347,1.792,1.792,0,0,1-1.473.315c-.858-.344-.9-1.5-.891-2.141a9,9,0,0,1,.785-3.243,13.987,13.987,0,0,1,5.45-6.185c.29-.184-.119-.507-.406-.325a15,15,0,0,0-5.353,5.854,10.674,10.674,0,0,0-.974,3.081,3.678,3.678,0,0,0,.479,2.862c1.787,2.355,5.489-2.282,6.278-3.265a16.721,16.721,0,0,0,1.915-2.761C663.3,1642.4,664.942,1639.979,662.936,1639.125Z" transform="translate(-592.535 -1626.63)" fill="#343a50"/>
    <path id="Trazado_990555" data-name="Trazado 990555" d="M346.431,2000.558c0-.3-.575-.3-.574,0a12.272,12.272,0,0,1-.347,4.324,4.13,4.13,0,0,1-3.96,2.545,10.266,10.266,0,0,1-4.785-1.539c-1.362-.74-2.591-1.618-3.856-2.458-.283-.188-.691.135-.406.325,1.383.919,2.731,1.868,4.228,2.668a10.385,10.385,0,0,0,5.082,1.459,4.7,4.7,0,0,0,4.044-2.416C346.637,2003.914,346.436,2002.195,346.431,2000.558Z" transform="translate(-318.525 -1935.626)" fill="#343a50"/>
    <path id="Trazado_990556" data-name="Trazado 990556" d="M295.489,1918.468c0-.3-.575-.3-.574,0a10.658,10.658,0,0,1-.29,3.564,3.646,3.646,0,0,1-3.341,2.278,7.217,7.217,0,0,1-4.089-1.482c-1.136-.748-2.122-1.624-3.16-2.455-.262-.21-.668.115-.406.325a38.87,38.87,0,0,0,3.525,2.69,7.382,7.382,0,0,0,4.4,1.365,4.245,4.245,0,0,0,3.493-2.278A8.863,8.863,0,0,0,295.489,1918.468Z" transform="translate(-276.885 -1865.672)" fill="#343a50"/>
    <path id="Trazado_990557" data-name="Trazado 990557" d="M427.976,1758.028c-.032-.293-.607-.3-.574,0a11.2,11.2,0,0,1-.154,3.609,3.486,3.486,0,0,1-2.352,2.967c-1.807.457-3.562-.557-4.787-1.509a17.351,17.351,0,0,1-3.2-3.39c-.19-.254-.687-.023-.5.232a18.049,18.049,0,0,0,3.506,3.652,6.431,6.431,0,0,0,4.994,1.489,3.712,3.712,0,0,0,2.779-2.9A10.617,10.617,0,0,0,427.976,1758.028Z" transform="translate(-390.077 -1728.952)" fill="#343a50"/>
    <path id="Trazado_990558" data-name="Trazado 990558" d="M397.76,1663.8c-.21,1.636-.966,3.656-3.125,4.25s-4.316-.747-5.688-1.93c-.252-.218-.658.108-.406.325,1.573,1.357,3.93,2.684,6.351,2.019,2.368-.65,3.213-2.876,3.442-4.664C398.372,1663.51,397.8,1663.513,397.76,1663.8Z" transform="translate(-366.293 -1648.659)" fill="#343a50"/>
    <path id="Trazado_990559" data-name="Trazado 990559" d="M673.02,1971.168a9,9,0,0,1-5.475,3.22,5.882,5.882,0,0,1-3.423-.338,6.917,6.917,0,0,1-2.584-2.067c-2.429-3.116-.9-7.226-.225-10.568.058-.29-.5-.414-.554-.122-.733,3.653-2.306,8.015.616,11.323a7.47,7.47,0,0,0,2.727,1.945,6.653,6.653,0,0,0,3.444.3,9.459,9.459,0,0,0,5.969-3.457C673.706,1971.145,673.209,1970.912,673.02,1971.168Z" transform="translate(-597.411 -1902.214)" fill="#343a50"/>
    <path id="Trazado_990560" data-name="Trazado 990560" d="M764.373,1875.363a8.055,8.055,0,0,1-1.85,1.624,14.252,14.252,0,0,1-2.929,1.582,4.219,4.219,0,0,1-2.635.31,3.331,3.331,0,0,1-1.942-1.346c-.894-1.308-.767-3-.588-4.436.17-1.36.556-2.691.822-4.039.057-.29-.5-.414-.554-.122-.281,1.423-.675,2.826-.855,4.262a6.725,6.725,0,0,0,.679,4.568,4.059,4.059,0,0,0,4.338,1.533,12.8,12.8,0,0,0,5.445-3.082,4.889,4.889,0,0,0,.566-.621C765.06,1875.339,764.563,1875.108,764.373,1875.363Z" transform="translate(-677.566 -1823.509)" fill="#343a50"/>
  </g>
</svg>
