<svg xmlns="http://www.w3.org/2000/svg" xmlns:xlink="http://www.w3.org/1999/xlink" width="310.849" height="279.391" viewBox="0 0 310.849 279.391">
  <defs>
    <filter id="Trazado_990260" x="0" y="0" width="310.849" height="279.391" filterUnits="userSpaceOnUse">
      <feOffset dy="3" input="SourceAlpha"/>
      <feGaussianBlur stdDeviation="3" result="blur"/>
      <feFlood flood-opacity="0.161"/>
      <feComposite operator="in" in2="blur"/>
      <feComposite in="SourceGraphic"/>
    </filter>
  </defs>
  <g id="Grupo_1156499" data-name="Grupo 1156499" transform="translate(-172.836 -2338.864)">
    <g transform="matrix(1, 0, 0, 1, 172.84, 2338.86)" filter="url(#Trazado_990260)">
      <path id="Trazado_990260-2" data-name="Trazado 990260" d="M23.052,255.8c-69.144-87.277,35.021-82.635,80-156.027C172.394-13.355,208.881-20.543,240.02,29.858S258.815,184.7,195,242.464,59.841,302.236,23.052,255.8Z" transform="translate(297.37 6) rotate(89)" fill="#e89076" fill-rule="evenodd"/>
    </g>
    <g id="Grupo_1156495" data-name="Grupo 1156495" transform="translate(-173.882 -1257.153)">
      <g id="Grupo_1156450" data-name="Grupo 1156450" transform="translate(399.882 3601.153)">
        <rect id="Rectángulo_409614" data-name="Rectángulo 409614" width="154.21" height="205.012" transform="translate(0 19.618)" fill="#343a50"/>
        <path id="Trazado_990354" data-name="Trazado 990354" d="M6813.417,2026.2l-126.377-2.213,3.8-166.209h122.577Z" transform="translate(-6675.024 -1823.304)" fill="#fff" fill-rule="evenodd"/>
        <path id="Trazado_990355" data-name="Trazado 990355" d="M6792.823,2603.908H6670.459a9.669,9.669,0,0,1-9.669-9.668v-.1h132.033Z" transform="translate(-6654.43 -2401.011)" fill="#aaceff" fill-rule="evenodd"/>
        <path id="Trazado_990356" data-name="Trazado 990356" d="M6861.245,1771.168h-23.182a10.572,10.572,0,0,1-8.76-4.473,15.548,15.548,0,0,0-24.543,0,10.572,10.572,0,0,1-8.76,4.473h-23.182c-4.637,0-8.409-3.413-8.409-7.608v-14.9c0-4.2,3.771-7.608,8.409-7.608h88.427c4.637,0,8.408,3.413,8.408,7.608v14.9C6869.655,1767.755,6865.882,1771.168,6861.245,1771.168Zm-44.214-13.419c6.136,0,11.9,2.831,15.034,7.388a7.248,7.248,0,0,0,6,3.085h23.182a4.935,4.935,0,0,0,5.156-4.665v-14.9a4.935,4.935,0,0,0-5.156-4.665h-88.427a4.934,4.934,0,0,0-5.156,4.665v14.9a4.935,4.935,0,0,0,5.156,4.665H6796a7.247,7.247,0,0,0,6-3.085C6805.136,1760.58,6810.895,1757.749,6817.031,1757.749Z" transform="translate(-6735.723 -1731.726)" fill="#a8abb4"/>
        <path id="Trazado_990357" data-name="Trazado 990357" d="M6907.245,2235.983h-92.572a.673.673,0,0,1-.672-.673v-.013a.673.673,0,0,1,.672-.673h92.572a.673.673,0,0,1,.673.673v.013A.673.673,0,0,1,6907.245,2235.983Z" transform="translate(-6774.63 -2118.955)" fill="#343a50" fill-rule="evenodd"/>
        <path id="Trazado_990358" data-name="Trazado 990358" d="M6907.245,2274.863h-92.572a.672.672,0,0,1-.672-.672v-.014a.672.672,0,0,1,.672-.672h92.572a.673.673,0,0,1,.673.672v.014A.672.672,0,0,1,6907.245,2274.863Z" transform="translate(-6774.63 -2149.458)" fill="#343a50" fill-rule="evenodd"/>
        <path id="Trazado_990359" data-name="Trazado 990359" d="M6907.245,2313.753h-92.572a.672.672,0,0,1-.672-.672v-.014a.673.673,0,0,1,.672-.672h92.572a.673.673,0,0,1,.673.672v.014A.673.673,0,0,1,6907.245,2313.753Z" transform="translate(-6774.63 -2179.968)" fill="#343a50" fill-rule="evenodd"/>
        <path id="Trazado_990360" data-name="Trazado 990360" d="M6912.478,2449.723h-91.134a.672.672,0,0,1-.672-.672v-.014a.672.672,0,0,1,.672-.672h91.134a.672.672,0,0,1,.672.672v.014A.672.672,0,0,1,6912.478,2449.723Z" transform="translate(-6779.863 -2286.642)" fill="#343a50" fill-rule="evenodd"/>
        <path id="Trazado_990361" data-name="Trazado 990361" d="M6912.478,2488.6h-91.134a.672.672,0,0,1-.672-.672v-.013a.672.672,0,0,1,.672-.673h91.134a.672.672,0,0,1,.672.673v.013A.672.672,0,0,1,6912.478,2488.6Z" transform="translate(-6779.863 -2317.145)" fill="#343a50" fill-rule="evenodd"/>
        <path id="Trazado_990362" data-name="Trazado 990362" d="M6912.478,2527.483h-91.134a.672.672,0,0,1-.672-.673v-.013a.672.672,0,0,1,.672-.673h91.134a.672.672,0,0,1,.672.673v.013A.672.672,0,0,1,6912.478,2527.483Z" transform="translate(-6779.863 -2347.648)" fill="#343a50" fill-rule="evenodd"/>
        <path id="Trazado_990363" data-name="Trazado 990363" d="M7000.727,1909.42H6886.494a5.334,5.334,0,0,0-5.334,5.334v17.252a5.334,5.334,0,0,0,5.334,5.334h43.65a5.335,5.335,0,0,1,4.716,2.842l.061.115a5.334,5.334,0,0,0,9.329.185l.281-.484a5.334,5.334,0,0,1,4.613-2.656h51.582a5.334,5.334,0,0,0,5.334-5.334v-17.252A5.335,5.335,0,0,0,7000.727,1909.42Z" transform="translate(-6827.319 -1863.818)" fill="#edae3b" fill-rule="evenodd"/>
        <rect id="Rectángulo_409615" data-name="Rectángulo 409615" width="76.472" height="80.186" transform="translate(87.864 138.153) rotate(-11.484)" fill="#fff" stroke="#201f1a" stroke-miterlimit="10" stroke-width="7"/>
        <rect id="Rectángulo_409616" data-name="Rectángulo 409616" width="76.472" height="17.467" transform="translate(87.864 138.153) rotate(-11.484)" fill="#67bead"/>
        <path id="Trazado_990364" data-name="Trazado 990364" d="M7168.587,2242.305l-.294-.854-2.183-6.338-.294-.854-1.068-3.1-.294-.854-1.354-3.932-2.262-6.567-.294-.854a4.561,4.561,0,0,0-8.6,2.96l.294.854,1.871,5.433,1.319-.268-1.928-5.6a3.221,3.221,0,0,1,6.072-2.092l2.2,6.4,2.774,8.055.294.854.043-.015,2.183,6.338a4.459,4.459,0,0,1-8.424,2.9l-2.143-6.223.044-.015-.294-.854-3.192-9.27-4.645-13.488a5.624,5.624,0,0,1,10.6-3.65l5.126,14.886,1.319-.268-5.184-15.053-.294-.854a6.963,6.963,0,0,0-13.125,4.52l.294.854,4.588,13.321,1.847,5.366.294.854,1.107,3.217.294.854,2.143,6.223.294.854a5.749,5.749,0,0,0,10.861-3.74Z" transform="translate(-7035.52 -2096.321)" fill="#343a50"/>
        <rect id="Rectángulo_409617" data-name="Rectángulo 409617" width="69.623" height="16.647" transform="translate(44.908)" fill="#67bead"/>
        <path id="Trazado_990365" data-name="Trazado 990365" d="M6743.5,2123.882a10.484,10.484,0,1,1,10.484-10.484A10.5,10.5,0,0,1,6743.5,2123.882Zm0-20.033a9.549,9.549,0,1,0,9.548,9.549A9.56,9.56,0,0,0,6743.5,2103.848Z" transform="translate(-6711.091 -2015.622)" fill="#343a50"/>
        <path id="Trazado_990366" data-name="Trazado 990366" d="M6743.5,2359.4a10.484,10.484,0,1,1,10.484-10.484A10.5,10.5,0,0,1,6743.5,2359.4Zm0-20.033a9.549,9.549,0,1,0,9.548,9.549A9.56,9.56,0,0,0,6743.5,2339.368Z" transform="translate(-6711.091 -2200.397)" fill="#343a50"/>
        <g id="Grupo_1156448" data-name="Grupo 1156448" transform="translate(28.814 91.103)">
          <path id="Trazado_990367" data-name="Trazado 990367" d="M6767.819,2134.464v-12.114h-.043l-2.41,1.3-.362-1.429,3.028-1.621h1.6v13.862h-1.812Z" transform="translate(-6765.004 -2120.602)" fill="#343a50"/>
        </g>
        <g id="Grupo_1156449" data-name="Grupo 1156449" transform="translate(27.556 141.146)">
          <path id="Trazado_990368" data-name="Trazado 990368" d="M6768.014,2366.962h-8.851v-1.151l1.472-1.429a38.263,38.263,0,0,0,4.03-4.265,5,5,0,0,0,1.131-2.986,2.921,2.921,0,0,0-.64-1.951,2.6,2.6,0,0,0-2.09-.757,4.547,4.547,0,0,0-2.943,1.173l-.6-1.322a5.854,5.854,0,0,1,3.9-1.407,4.049,4.049,0,0,1,3.167,1.194,4.1,4.1,0,0,1,1.077,2.836,5.888,5.888,0,0,1-1.131,3.4,28.667,28.667,0,0,1-3.646,4.041l-1.088,1.024v.043h6.206Z" transform="translate(-6759.163 -2352.865)" fill="#343a50"/>
        </g>
        <rect id="Rectángulo_409618" data-name="Rectángulo 409618" width="1.012" height="32.834" transform="translate(31.573 48.377)" fill="#343a50"/>
        <rect id="Rectángulo_409619" data-name="Rectángulo 409619" width="1.012" height="24.373" transform="translate(31.573 109.447)" fill="#343a50"/>
      </g>
      <g id="Grupo_1156454" data-name="Grupo 1156454" transform="translate(559.335 3630.688)">
        <g id="Grupo_1156451" data-name="Grupo 1156451" transform="translate(26.79 1.424)">
          <path id="Trazado_990369" data-name="Trazado 990369" d="M7512.118,1998.053l-16.448-3.187,18.628-96.129,19.219-55.157-2.771,58.344Z" transform="translate(-7495.67 -1843.123)" fill="#67bead"/>
          <path id="Trazado_990370" data-name="Trazado 990370" d="M7582.47,1896.613l19.236-55.153-2.76,58.346Z" transform="translate(-7563.768 -1841.46)" fill="#f2ac6e"/>
          <path id="Trazado_990371" data-name="Trazado 990371" d="M7651.353,1858.4l.77-16.235-5.352,15.345Z" transform="translate(-7614.215 -1842.017)" fill="#343a50"/>
          <rect id="Rectángulo_409620" data-name="Rectángulo 409620" width="98.064" height="1.597" transform="matrix(0.19, -0.982, 0.982, 0.19, 3.045, 152.405)" fill="#f17049"/>
          <rect id="Rectángulo_409621" data-name="Rectángulo 409621" width="98.064" height="1.597" transform="matrix(0.19, -0.982, 0.982, 0.19, 11.773, 154.102)" fill="#f17049"/>
        </g>
        <g id="Grupo_1156452" data-name="Grupo 1156452" transform="translate(30.526)">
          <path id="Trazado_990372" data-name="Trazado 990372" d="M7530.385,1992.686l-16.754.093-.541-97.917,8.058-57.851,8.7,57.758Z" transform="translate(-7513.073 -1836.545)" fill="#343a50"/>
          <path id="Trazado_990373" data-name="Trazado 990373" d="M7513.01,1892.7l8.073-57.851,8.709,57.758Z" transform="translate(-7513.01 -1834.85)" fill="#f2ac6e"/>
          <path id="Trazado_990374" data-name="Trazado 990374" d="M7544.729,1851.641l-2.424-16.071-2.245,16.1Z" transform="translate(-7534.232 -1835.415)" fill="#343a50"/>
          <rect id="Rectángulo_409622" data-name="Rectángulo 409622" width="1.597" height="98.064" transform="matrix(1, -0.005, 0.005, 1, 3.174, 58.197)" fill="#f17049"/>
          <rect id="Rectángulo_409623" data-name="Rectángulo 409623" width="1.597" height="98.064" transform="matrix(1, -0.005, 0.005, 1, 12.043, 58.151)" fill="#f17049"/>
        </g>
        <path id="Trazado_990375" data-name="Trazado 990375" d="M7400.861,2537.493h33.2l13.983-74.023H7386.88Z" transform="translate(-7383.53 -2328.028)" fill="#edae3b"/>
        <g id="Grupo_1156453" data-name="Grupo 1156453" transform="translate(6.387 151.281)">
          <path id="Trazado_990376" data-name="Trazado 990376" d="M7563.852,2713.068a18.946,18.946,0,0,1,7.092-14.02,21.9,21.9,0,0,1,6.455-3.367l-.16.844a18.07,18.07,0,0,0-11.051,9.724,21.624,21.624,0,0,0-1.669,9c.013,1.478.18,2.947.281,4.421h-.77A52.293,52.293,0,0,1,7563.852,2713.068Z" transform="translate(-7528.718 -2661.488)" fill="#fff"/>
          <path id="Trazado_990377" data-name="Trazado 990377" d="M7419.941,2627.127a13.292,13.292,0,0,0,5.629,4.18c2.927,1.172,6.167,1.288,9.035,2.587a7.669,7.669,0,0,1,4.5,5.473c.583,2.907-.373,5.993-1.562,8.621a29.028,29.028,0,0,1-6.3,8.528,64.7,64.7,0,0,1-6.36,5.389h-.525l-.083-.44a49.749,49.749,0,0,0,9.88-9.3c3.213-4.2,7.042-12.23,1.939-16.509-2.483-2.082-5.989-2.159-8.968-3.046a15.463,15.463,0,0,1-6.325-3.447,20.48,20.48,0,0,1-3.523-4.747l-.448-2.368A34.957,34.957,0,0,0,7419.941,2627.127Z" transform="translate(-7413.415 -2603.723)" fill="#fff"/>
          <path id="Trazado_990378" data-name="Trazado 990378" d="M7454.561,2545.206c-1.67,1.058-3.32,2.145-4.985,3.143a31.565,31.565,0,0,1-8.96,3.9,19.925,19.925,0,0,1-10.282-.381,14.282,14.282,0,0,1-4.618-2.368,9.719,9.719,0,0,1-2.877-4.026,32.835,32.835,0,0,0-2.06-4.643,6.2,6.2,0,0,0-3.543-2.606c-3.02-.936-6.431-.456-9.523-.247a33.879,33.879,0,0,1-6.592.024l-.145-.769c.2.031.4.058.6.079,3.31.344,6.66-.162,9.968-.293,2.771-.11,5.929-.062,8.25,1.668,2.687,2,3,5.723,4.691,8.415,2,3.191,6.336,4.474,9.865,4.829a20.439,20.439,0,0,0,10.107-1.72,76.936,76.936,0,0,0,10.279-5.929Z" transform="translate(-7400.976 -2536.983)" fill="#fff"/>
        </g>
        <rect id="Rectángulo_409624" data-name="Rectángulo 409624" width="68.676" height="15.838" transform="translate(0 135.442)" fill="#edae3b"/>
      </g>
    </g>
  </g>
</svg>
