<svg xmlns="http://www.w3.org/2000/svg" xmlns:xlink="http://www.w3.org/1999/xlink" width="110" height="110" viewBox="0 0 110 110">
  <defs>
    <filter id="Trazado_982547" x="0" y="0" width="110" height="110" filterUnits="userSpaceOnUse">
      <feOffset dy="3" input="SourceAlpha"/>
      <feGaussianBlur stdDeviation="3" result="blur"/>
      <feFlood flood-opacity="0.161"/>
      <feComposite operator="in" in2="blur"/>
      <feComposite in="SourceGraphic"/>
    </filter>
  </defs>
  <g id="Grupo_1157017" data-name="Grupo 1157017" transform="translate(-1115 -790)">
    <g id="Grupo_1155793" data-name="Grupo 1155793" transform="translate(-0.999 -3894)">
      <g id="Grupo_1154704" data-name="Grupo 1154704" transform="translate(0 1466)">
        <g id="Grupo_1150790" data-name="Grupo 1150790" transform="translate(3 2320)">
          <g id="Grupo_1154214" data-name="Grupo 1154214" transform="translate(79 -5809)">
            <g id="Grupo_1152583" data-name="Grupo 1152583" transform="translate(1043 6713)">
              <g id="Grupo_1146973" data-name="Grupo 1146973" transform="translate(0 0)">
                <g id="Grupo_1146954" data-name="Grupo 1146954">
                  <g transform="matrix(1, 0, 0, 1, -9, -6)" filter="url(#Trazado_982547)">
                    <g id="Trazado_982547-2" data-name="Trazado 982547" transform="translate(9 6)" fill="#fcf3f0">
                      <path d="M 46 90.49987030029297 C 39.99187850952148 90.49987030029297 34.16426849365234 89.32350921630859 28.67905426025391 87.00345611572266 C 23.38019943237305 84.76224517822266 18.62104034423828 81.55341339111328 14.53374671936035 77.46613311767578 C 10.44646644592285 73.37885284423828 7.237639904022217 68.61969757080078 4.996413230895996 63.32085418701172 C 2.676359891891479 57.83565521240234 1.5 52.008056640625 1.5 45.99993515014648 C 1.5 39.99181365966797 2.676359891891479 34.16421508789062 4.996413230895996 28.67901420593262 C 7.237639904022217 23.38017463684082 10.44646644592285 18.62101554870605 14.53374671936035 14.53373527526855 C 18.62104034423828 10.44645500183105 23.38019943237305 7.23762845993042 28.67905426025391 4.996415138244629 C 34.16426849365234 2.676361799240112 39.99187850952148 1.500001788139343 46 1.500001788139343 C 52.00812149047852 1.500001788139343 57.83573150634766 2.676361799240112 63.32094573974609 4.996415138244629 C 68.61979675292969 7.23762845993042 73.37895965576172 10.44645500183105 77.46625518798828 14.53373527526855 C 81.55353546142578 18.62101554870605 84.76235961914062 23.38017463684082 87.00358581542969 28.67901420593262 C 89.32363891601562 34.16421508789062 90.5 39.99181365966797 90.5 45.99993515014648 C 90.5 52.008056640625 89.32363891601562 57.83565521240234 87.00358581542969 63.32085418701172 C 84.76235961914062 68.61969757080078 81.55353546142578 73.37885284423828 77.46625518798828 77.46613311767578 C 73.37895965576172 81.55341339111328 68.61979675292969 84.76224517822266 63.32094573974609 87.00345611572266 C 57.83573150634766 89.32350921630859 52.00812149047852 90.49987030029297 46 90.49987030029297 Z" stroke="none"/>
                      <path d="M 46 2.999992370605469 C 40.1937141418457 2.999992370605469 34.56269836425781 4.136489868164062 29.26337051391602 6.377906799316406 C 24.14332580566406 8.543502807617188 19.54441070556641 11.64437866210938 15.59439849853516 15.59437561035156 C 11.64440155029297 19.54439544677734 8.54351806640625 24.14329528808594 6.377914428710938 29.26333618164062 C 4.136497497558594 34.56264877319336 3 40.19366455078125 3 45.99993515014648 C 3 51.80620574951172 4.136497497558594 57.43720626831055 6.377914428710938 62.73651885986328 C 8.54351806640625 67.8565673828125 11.64440155029297 72.45545959472656 15.59439849853516 76.40547943115234 C 19.54441070556641 80.35547637939453 24.14332580566406 83.45635223388672 29.26337051391602 85.6219482421875 C 34.56269836425781 87.86336517333984 40.1937141418457 88.99986267089844 46 88.99986267089844 C 51.8062858581543 88.99986267089844 57.43730163574219 87.86336517333984 62.73661422729492 85.6219482421875 C 67.85667419433594 83.45635223388672 72.45557403564453 80.35547637939453 76.40558624267578 76.40547943115234 C 80.35559844970703 72.45545959472656 83.45647430419922 67.8565673828125 85.6220703125 62.73651885986328 C 87.86350250244141 57.43720626831055 89 51.80620574951172 89 45.99993515014648 C 89 40.19366455078125 87.86350250244141 34.56264877319336 85.6220703125 29.26333618164062 C 83.45647430419922 24.14329528808594 80.35559844970703 19.54439544677734 76.40558624267578 15.59437561035156 C 72.45557403564453 11.64437866210938 67.85667419433594 8.543502807617188 62.73661422729492 6.377906799316406 C 57.43730163574219 4.136489868164062 51.8062858581543 2.999992370605469 46 2.999992370605469 M 46 -7.62939453125e-06 C 71.40509033203125 -7.62939453125e-06 92 20.59486389160156 92 45.99993515014648 C 92 71.40499114990234 71.40509033203125 91.99986267089844 46 91.99986267089844 C 20.59490203857422 91.99986267089844 0 71.40499114990234 0 45.99993515014648 C 0 20.59486389160156 20.59490203857422 -7.62939453125e-06 46 -7.62939453125e-06 Z" stroke="none" fill="#e89076"/>
                    </g>
                  </g>
                </g>
              </g>
            </g>
          </g>
        </g>
      </g>
    </g>
    <g id="Page-1" transform="translate(1140 812)">
      <g id="_067---Analytics" data-name="067---Analytics">
        <path id="Shape" d="M10,36V57a2,2,0,0,1-2,2H3a2.006,2.006,0,0,1-2-2V36a2.006,2.006,0,0,1,2-2H8A2.006,2.006,0,0,1,10,36Z" fill="#02a9f4"/>
        <path id="Shape-2" data-name="Shape" d="M8,34H5a2.006,2.006,0,0,1,2,2V57a2,2,0,0,1-2,2H8a2,2,0,0,0,2-2V36A2.006,2.006,0,0,0,8,34Z" fill="#0377bc"/>
        <path id="Shape-3" data-name="Shape" d="M57.68,45.57,38.94,56.98A7,7,0,0,1,35.3,58H10l-.24-.05A2.028,2.028,0,0,0,10,57V36h2.8a9.017,9.017,0,0,1,2.2.27A9.192,9.192,0,0,1,18.5,38,9.05,9.05,0,0,0,23,39.91a8.079,8.079,0,0,0,1.2.09h5.23a5.158,5.158,0,0,1,1.57.25,4.961,4.961,0,0,1,2.72,2.18l.09.15A3.618,3.618,0,0,1,33.26,47h2.35a3.933,3.933,0,0,0,1.27-.21L39,46.08l8-2.66,8-2.67.39-.13a2.755,2.755,0,0,1,3.06.96v.01a2.73,2.73,0,0,1-.77,3.98Z" fill="#ffe0b2"/>
        <g id="Grupo_1157016" data-name="Grupo 1157016">
          <path id="Shape-4" data-name="Shape" d="M15.5,38a9.159,9.159,0,0,0,5.7,2h3a9.159,9.159,0,0,1-5.7-2,9.159,9.159,0,0,0-5.7-2H10v.009A9.158,9.158,0,0,1,15.5,38Z" fill="#dfc49c"/>
          <path id="Shape-5" data-name="Shape" d="M30.72,42.43l.09.15A3.618,3.618,0,0,1,30.26,47h2.35a3.914,3.914,0,0,0,.708-.069,3.614,3.614,0,0,0,.492-4.351l-.09-.15A4.989,4.989,0,0,0,29.43,40h-3a4.989,4.989,0,0,1,4.29,2.43Z" fill="#dfc49c"/>
          <path id="Shape-6" data-name="Shape" d="M58.45,41.59v-.01a2.755,2.755,0,0,0-3.06-.96l-.749.25a2.735,2.735,0,0,1,.809.71v.01a2.73,2.73,0,0,1-.77,3.98L35.94,56.98A7,7,0,0,1,32.3,58h3a7,7,0,0,0,3.64-1.02L57.68,45.57a2.73,2.73,0,0,0,.77-3.98Z" fill="#dfc49c"/>
        </g>
        <path id="Shape-7" data-name="Shape" d="M55,8V40.75l-8,2.67V8a2.006,2.006,0,0,1,2-2h4A2.006,2.006,0,0,1,55,8Z" fill="#ffdc00"/>
        <path id="Shape-8" data-name="Shape" d="M53,6H50a2.006,2.006,0,0,1,2,2V40.75l-5,1.669v1l8-2.67V8A2.006,2.006,0,0,0,53,6Z" fill="#fec108"/>
        <path id="Shape-9" data-name="Shape" d="M47,18V43.42l-8,2.66V18a2.006,2.006,0,0,1,2-2h4a2.006,2.006,0,0,1,2,2Z" fill="#a4c400"/>
        <path id="Shape-10" data-name="Shape" d="M39,28V46.08l-2.12.71a3.933,3.933,0,0,1-1.27.21H33.26a3.618,3.618,0,0,0,.55-4.42l-.09-.15A4.961,4.961,0,0,0,31,40.25V28a2.006,2.006,0,0,1,2-2h4A2.006,2.006,0,0,1,39,28Z" fill="#60a917"/>
        <path id="Shape-11" data-name="Shape" d="M31,23V40.25A5.158,5.158,0,0,0,29.43,40H24.2a8.079,8.079,0,0,1-1.2-.09V23a2.006,2.006,0,0,1,2-2h4A2.006,2.006,0,0,1,31,23Z" fill="#009688"/>
        <path id="Shape-12" data-name="Shape" d="M23,33v6.91A9.05,9.05,0,0,1,18.5,38,9.192,9.192,0,0,0,15,36.27V33a2.006,2.006,0,0,1,2-2h4A2.006,2.006,0,0,1,23,33Z" fill="#00bcd4"/>
        <path id="Shape-13" data-name="Shape" d="M38.39,2.243,35.161,15.162a1,1,0,0,1-1.771.357L29.671,10.56l-21.75,15A2.5,2.5,0,1,1,5.08,21.44L26.671,6.55,23.691,2.6a1,1,0,0,1,.8-1.6H37.42a1,1,0,0,1,.97,1.243Z" fill="#f44335"/>
        <path id="Shape-14" data-name="Shape" d="M37.42,1h-3a1,1,0,0,1,.97,1.242L32.4,14.2l.989,1.319a1,1,0,0,0,1.771-.357l3.23-12.92A1,1,0,0,0,37.42,1Z" fill="#c81e1e"/>
        <path id="Shape-15" data-name="Shape" d="M3,60H8a2.985,2.985,0,0,0,2.22-1H35.3a8,8,0,0,0,4.159-1.166L58.2,46.424a3.745,3.745,0,0,0,1.728-2.487,3.68,3.68,0,0,0-.626-2.872c-.018-.029-.037-.057-.058-.086a3.732,3.732,0,0,0-4.175-1.3l-18.51,6.169a3,3,0,0,1-.95.154h-.574a4.6,4.6,0,0,0-.372-3.937l-.09-.15A6.033,6.033,0,0,0,29.432,39H24.2a8.154,8.154,0,0,1-5.076-1.781A10.115,10.115,0,0,0,16,35.527V33a1,1,0,0,1,1-1h4a1,1,0,0,1,1,1v3a1,1,0,0,0,2,0V23a1,1,0,0,1,1-1h4a1,1,0,0,1,1,1,1,1,0,1,0,2,0,3,3,0,0,0-3-3H25a3,3,0,0,0-3,3v7.171A3.009,3.009,0,0,0,21,30H17a3,3,0,0,0-3,3v2.081A10.024,10.024,0,0,0,12.8,35H10.816A3,3,0,0,0,8,33H3a3,3,0,0,0-3,3v4a1,1,0,0,0,2,0V36a1,1,0,0,1,1-1H8a1,1,0,0,1,1,1V57a1,1,0,0,1-1,1H3a1,1,0,0,1-1-1V45a1,1,0,0,0-2,0V57a3,3,0,0,0,3,3ZM17.875,38.781A10.161,10.161,0,0,0,24.2,41h5.231a4.02,4.02,0,0,1,3.429,1.941l.09.15A2.613,2.613,0,0,1,32.8,46H26.725a9.966,9.966,0,0,0-5.547,1.68l-.733.488a1,1,0,0,0,1.11,1.664l.732-.488A7.979,7.979,0,0,1,26.725,48h8.888a4.979,4.979,0,0,0,1.582-.257l18.511-6.17a1.728,1.728,0,0,1,1.888.527c.017.029.037.057.057.085a1.739,1.739,0,0,1-.486,2.53L38.42,56.125A6.009,6.009,0,0,1,35.3,57H11V37h1.8a8.154,8.154,0,0,1,5.075,1.781Z"/>
        <path id="Shape-16" data-name="Shape" d="M55,37a1,1,0,0,0,1-1V8a3,3,0,0,0-3-3H49a3,3,0,0,0-3,3v7.184A2.966,2.966,0,0,0,45,15H41a3,3,0,0,0-3,3v7.184A2.966,2.966,0,0,0,37,25H33a3,3,0,0,0-3,3v5a1,1,0,0,0,2,0V28a1,1,0,0,1,1-1h4a1,1,0,0,1,1,1V42a1,1,0,0,0,2,0V18a1,1,0,0,1,1-1h4a1,1,0,0,1,1,1V38a1,1,0,0,0,2,0V8a1,1,0,0,1,1-1h4a1,1,0,0,1,1,1V36A1,1,0,0,0,55,37Z"/>
        <path id="Shape-17" data-name="Shape" d="M3.622,25.493A3.516,3.516,0,0,0,6.5,27a3.448,3.448,0,0,0,1.987-.617l20.96-14.454,3.144,4.191a2,2,0,0,0,3.539-.72L39.36,2.48A2,2,0,0,0,37.42,0H24.489a2,2,0,0,0-1.6,3.205L25.24,6.319,4.512,20.618a3.519,3.519,0,0,0-.89,4.875Zm2.026-3.229L27.238,7.373a1,1,0,0,0,.231-1.426L24.489,2H37.421L34.19,14.92,30.471,9.96A1,1,0,0,0,29.1,9.736l-21.756,15A1.472,1.472,0,0,1,6.5,25a1.5,1.5,0,0,1-.853-2.736Z"/>
      </g>
    </g>
  </g>
</svg>
