<svg xmlns="http://www.w3.org/2000/svg" xmlns:xlink="http://www.w3.org/1999/xlink" width="110" height="110" viewBox="0 0 110 110">
  <defs>
    <filter id="Trazado_982547" x="0" y="0" width="110" height="110" filterUnits="userSpaceOnUse">
      <feOffset dy="3" input="SourceAlpha"/>
      <feGaussianBlur stdDeviation="3" result="blur"/>
      <feFlood flood-opacity="0.161"/>
      <feComposite operator="in" in2="blur"/>
      <feComposite in="SourceGraphic"/>
    </filter>
  </defs>
  <g id="Grupo_1157020" data-name="Grupo 1157020" transform="translate(-6476 -384)">
    <g id="Grupo_1155796" data-name="Grupo 1155796" transform="translate(5675 -4299.666)">
      <g id="Grupo_1154703" data-name="Grupo 1154703" transform="translate(0 1465.666)">
        <g id="Grupo_1150789" data-name="Grupo 1150789" transform="translate(3 2320)">
          <g id="Grupo_1154212" data-name="Grupo 1154212" transform="translate(-236 -5809)">
            <g id="Grupo_1152583" data-name="Grupo 1152583" transform="translate(1043 6713)">
              <g id="Grupo_1146973" data-name="Grupo 1146973" transform="translate(0 0)">
                <g id="Grupo_1146954" data-name="Grupo 1146954">
                  <g transform="matrix(1, 0, 0, 1, -9, -6)" filter="url(#Trazado_982547)">
                    <g id="Trazado_982547-2" data-name="Trazado 982547" transform="translate(9 6)" fill="#fcf3f0">
                      <path d="M 46 90.49987030029297 C 39.99187850952148 90.49987030029297 34.16426849365234 89.32350921630859 28.67905426025391 87.00345611572266 C 23.38019943237305 84.76224517822266 18.62104034423828 81.55341339111328 14.53374671936035 77.46613311767578 C 10.44646644592285 73.37885284423828 7.237639904022217 68.61969757080078 4.996413230895996 63.32085418701172 C 2.676359891891479 57.83565521240234 1.5 52.008056640625 1.5 45.99993515014648 C 1.5 39.99181365966797 2.676359891891479 34.16421508789062 4.996413230895996 28.67901420593262 C 7.237639904022217 23.38017463684082 10.44646644592285 18.62101554870605 14.53374671936035 14.53373527526855 C 18.62104034423828 10.44645500183105 23.38019943237305 7.23762845993042 28.67905426025391 4.996415138244629 C 34.16426849365234 2.676361799240112 39.99187850952148 1.500001788139343 46 1.500001788139343 C 52.00812149047852 1.500001788139343 57.83573150634766 2.676361799240112 63.32094573974609 4.996415138244629 C 68.61979675292969 7.23762845993042 73.37895965576172 10.44645500183105 77.46625518798828 14.53373527526855 C 81.55353546142578 18.62101554870605 84.76235961914062 23.38017463684082 87.00358581542969 28.67901420593262 C 89.32363891601562 34.16421508789062 90.5 39.99181365966797 90.5 45.99993515014648 C 90.5 52.008056640625 89.32363891601562 57.83565521240234 87.00358581542969 63.32085418701172 C 84.76235961914062 68.61969757080078 81.55353546142578 73.37885284423828 77.46625518798828 77.46613311767578 C 73.37895965576172 81.55341339111328 68.61979675292969 84.76224517822266 63.32094573974609 87.00345611572266 C 57.83573150634766 89.32350921630859 52.00812149047852 90.49987030029297 46 90.49987030029297 Z" stroke="none"/>
                      <path d="M 46 2.999992370605469 C 40.1937141418457 2.999992370605469 34.56269836425781 4.136489868164062 29.26337051391602 6.377906799316406 C 24.14332580566406 8.543502807617188 19.54441070556641 11.64437866210938 15.59439849853516 15.59437561035156 C 11.64440155029297 19.54439544677734 8.54351806640625 24.14329528808594 6.377914428710938 29.26333618164062 C 4.136497497558594 34.56264877319336 3 40.19366455078125 3 45.99993515014648 C 3 51.80620574951172 4.136497497558594 57.43720626831055 6.377914428710938 62.73651885986328 C 8.54351806640625 67.8565673828125 11.64440155029297 72.45545959472656 15.59439849853516 76.40547943115234 C 19.54441070556641 80.35547637939453 24.14332580566406 83.45635223388672 29.26337051391602 85.6219482421875 C 34.56269836425781 87.86336517333984 40.1937141418457 88.99986267089844 46 88.99986267089844 C 51.8062858581543 88.99986267089844 57.43730163574219 87.86336517333984 62.73661422729492 85.6219482421875 C 67.85667419433594 83.45635223388672 72.45557403564453 80.35547637939453 76.40558624267578 76.40547943115234 C 80.35559844970703 72.45545959472656 83.45647430419922 67.8565673828125 85.6220703125 62.73651885986328 C 87.86350250244141 57.43720626831055 89 51.80620574951172 89 45.99993515014648 C 89 40.19366455078125 87.86350250244141 34.56264877319336 85.6220703125 29.26333618164062 C 83.45647430419922 24.14329528808594 80.35559844970703 19.54439544677734 76.40558624267578 15.59437561035156 C 72.45557403564453 11.64437866210938 67.85667419433594 8.543502807617188 62.73661422729492 6.377906799316406 C 57.43730163574219 4.136489868164062 51.8062858581543 2.999992370605469 46 2.999992370605469 M 46 -7.62939453125e-06 C 71.40509033203125 -7.62939453125e-06 92 20.59486389160156 92 45.99993515014648 C 92 71.40499114990234 71.40509033203125 91.99986267089844 46 91.99986267089844 C 20.59490203857422 91.99986267089844 0 71.40499114990234 0 45.99993515014648 C 0 20.59486389160156 20.59490203857422 -7.62939453125e-06 46 -7.62939453125e-06 Z" stroke="none" fill="#e89076"/>
                    </g>
                  </g>
                </g>
              </g>
            </g>
          </g>
        </g>
      </g>
    </g>
    <g id="estadisticas" transform="translate(6502 396.6)">
      <g id="Grupo_1157018" data-name="Grupo 1157018" transform="translate(0.846 13.246)">
        <path id="Trazado_991086" data-name="Trazado 991086" d="M18.358,392.243h-7.7A3.155,3.155,0,0,0,7.5,395.4V403.5H21.513V395.4A3.155,3.155,0,0,0,18.358,392.243Z" transform="translate(-7.5 -350.251)" fill="#61a2f9"/>
        <path id="Trazado_991087" data-name="Trazado 991087" d="M13.678,392.237a3.156,3.156,0,0,0-3.156,3.156V403.5H7.5v-8.107a3.155,3.155,0,0,1,3.154-3.156Z" transform="translate(-7.5 -350.245)" fill="#4073c8"/>
        <path id="Trazado_991088" data-name="Trazado 991088" d="M142.609,326.693h-7.7a3.155,3.155,0,0,0-3.155,3.155v15.5h14.013v-15.5A3.155,3.155,0,0,0,142.609,326.693Z" transform="translate(-117.738 -292.093)" fill="#78d0b1"/>
        <path id="Trazado_991089" data-name="Trazado 991089" d="M137.928,326.687a3.156,3.156,0,0,0-3.156,3.156v15.5H131.75v-15.5a3.155,3.155,0,0,1,3.154-3.156Z" transform="translate(-117.737 -292.088)" fill="#57988b"/>
        <path id="Trazado_991090" data-name="Trazado 991090" d="M266.859,235.944h-7.7A3.155,3.155,0,0,0,256,239.1v25.734h14.013V239.1A3.155,3.155,0,0,0,266.859,235.944Z" transform="translate(-227.975 -211.579)" fill="#f6e266"/>
        <path id="Trazado_991091" data-name="Trazado 991091" d="M262.178,235.938a3.156,3.156,0,0,0-3.156,3.156v25.734H256V239.094a3.155,3.155,0,0,1,3.154-3.156Z" transform="translate(-227.975 -211.574)" fill="#eab14d"/>
        <path id="Trazado_991092" data-name="Trazado 991092" d="M391.109,122.345h-7.7a3.155,3.155,0,0,0-3.155,3.155v38.546h14.013V125.5A3.155,3.155,0,0,0,391.109,122.345Z" transform="translate(-338.213 -110.791)" fill="#dd636e"/>
        <path id="Trazado_991093" data-name="Trazado 991093" d="M386.428,122.34a3.156,3.156,0,0,0-3.156,3.156v38.545H380.25V125.5a3.155,3.155,0,0,1,3.154-3.156Z" transform="translate(-338.212 -110.787)" fill="#c10a54"/>
        <path id="Trazado_991094" data-name="Trazado 991094" d="M93.22,19.9l-12.1,1,1.527,2.2L58.925,39.557l3.864,5.571L86.513,28.676l1.527,2.2Z" transform="translate(-53.125 -19.9)" fill="#dd636e"/>
      </g>
      <g id="Grupo_1157019" data-name="Grupo 1157019" transform="translate(0 12.4)">
        <path id="Trazado_991095" data-name="Trazado 991095" d="M56.9,150.207a.846.846,0,0,0,.846-.846V118.85a4,4,0,0,0-4-4h-7.7a4,4,0,0,0-4,4V128.4a3.978,3.978,0,0,0-2.309-.737h-7.7a4.005,4.005,0,0,0-4,4v6.97a3.977,3.977,0,0,0-2.309-.737h-7.7a4.005,4.005,0,0,0-4,4v4.129a3.977,3.977,0,0,0-2.309-.737H4a4.005,4.005,0,0,0-4,4V157.4a.846.846,0,0,0,.846.846H56.9a.846.846,0,0,0,.846-.846v-4.651a.846.846,0,1,0-1.692,0v3.805H43.73v-37.7a2.311,2.311,0,0,1,2.309-2.309h7.7a2.311,2.311,0,0,1,2.309,2.309v30.511A.846.846,0,0,0,56.9,150.207Zm-55.205-.918A2.312,2.312,0,0,1,4,146.98h7.7a2.312,2.312,0,0,1,2.309,2.309v7.261H1.692ZM15.7,141.9a2.312,2.312,0,0,1,2.309-2.309h7.7a2.312,2.312,0,0,1,2.309,2.309V156.55H15.7Zm14.013-10.235a2.312,2.312,0,0,1,2.309-2.309h7.7a2.312,2.312,0,0,1,2.309,2.309V156.55H29.717Z" transform="translate(0 -103.296)"/>
        <path id="Trazado_991096" data-name="Trazado 991096" d="M55.442,38.956a.846.846,0,0,0,1.177.213L79.65,23.2l1.045,1.506a.846.846,0,0,0,1.46-.121l5.179-10.978a.846.846,0,0,0-.835-1.2l-12.1,1a.846.846,0,0,0-.625,1.325l1.045,1.508L60.028,26.5a.846.846,0,1,0,.964,1.39L76.481,17.146a.846.846,0,0,0,.213-1.177l-.692-1,9.177-.761L81.25,22.538l-.692-1a.846.846,0,0,0-1.177-.213L56.35,37.3l-2.9-4.181,4.77-3.309a.846.846,0,1,0-.964-1.39l-5.465,3.79a.846.846,0,0,0-.213,1.177Z" transform="translate(-45.629 -12.4)"/>
      </g>
    </g>
  </g>
</svg>
