<svg xmlns="http://www.w3.org/2000/svg" xmlns:xlink="http://www.w3.org/1999/xlink" width="110" height="110" viewBox="0 0 110 110">
  <defs>
    <filter id="Trazado_982547" x="0" y="0" width="110" height="110" filterUnits="userSpaceOnUse">
      <feOffset dy="3" input="SourceAlpha"/>
      <feGaussianBlur stdDeviation="3" result="blur"/>
      <feFlood flood-opacity="0.161"/>
      <feComposite operator="in" in2="blur"/>
      <feComposite in="SourceGraphic"/>
    </filter>
  </defs>
  <g id="Grupo_1157028" data-name="Grupo 1157028" transform="translate(-6791 -385)">
    <g id="Grupo_1155797" data-name="Grupo 1155797" transform="translate(5675 -4299)">
      <g id="Grupo_1154704" data-name="Grupo 1154704" transform="translate(0 1466)">
        <g id="Grupo_1150790" data-name="Grupo 1150790" transform="translate(3 2320)">
          <g id="Grupo_1154214" data-name="Grupo 1154214" transform="translate(79 -5809)">
            <g id="Grupo_1152583" data-name="Grupo 1152583" transform="translate(1043 6713)">
              <g id="Grupo_1146973" data-name="Grupo 1146973" transform="translate(0 0)">
                <g id="Grupo_1146954" data-name="Grupo 1146954">
                  <g transform="matrix(1, 0, 0, 1, -9, -6)" filter="url(#Trazado_982547)">
                    <g id="Trazado_982547-2" data-name="Trazado 982547" transform="translate(9 6)" fill="#fcf3f0">
                      <path d="M 46 90.49987030029297 C 39.99187850952148 90.49987030029297 34.16426849365234 89.32350921630859 28.67905426025391 87.00345611572266 C 23.38019943237305 84.76224517822266 18.62104034423828 81.55341339111328 14.53374671936035 77.46613311767578 C 10.44646644592285 73.37885284423828 7.237639904022217 68.61969757080078 4.996413230895996 63.32085418701172 C 2.676359891891479 57.83565521240234 1.5 52.008056640625 1.5 45.99993515014648 C 1.5 39.99181365966797 2.676359891891479 34.16421508789062 4.996413230895996 28.67901420593262 C 7.237639904022217 23.38017463684082 10.44646644592285 18.62101554870605 14.53374671936035 14.53373527526855 C 18.62104034423828 10.44645500183105 23.38019943237305 7.23762845993042 28.67905426025391 4.996415138244629 C 34.16426849365234 2.676361799240112 39.99187850952148 1.500001788139343 46 1.500001788139343 C 52.00812149047852 1.500001788139343 57.83573150634766 2.676361799240112 63.32094573974609 4.996415138244629 C 68.61979675292969 7.23762845993042 73.37895965576172 10.44645500183105 77.46625518798828 14.53373527526855 C 81.55353546142578 18.62101554870605 84.76235961914062 23.38017463684082 87.00358581542969 28.67901420593262 C 89.32363891601562 34.16421508789062 90.5 39.99181365966797 90.5 45.99993515014648 C 90.5 52.008056640625 89.32363891601562 57.83565521240234 87.00358581542969 63.32085418701172 C 84.76235961914062 68.61969757080078 81.55353546142578 73.37885284423828 77.46625518798828 77.46613311767578 C 73.37895965576172 81.55341339111328 68.61979675292969 84.76224517822266 63.32094573974609 87.00345611572266 C 57.83573150634766 89.32350921630859 52.00812149047852 90.49987030029297 46 90.49987030029297 Z" stroke="none"/>
                      <path d="M 46 2.999992370605469 C 40.1937141418457 2.999992370605469 34.56269836425781 4.136489868164062 29.26337051391602 6.377906799316406 C 24.14332580566406 8.543502807617188 19.54441070556641 11.64437866210938 15.59439849853516 15.59437561035156 C 11.64440155029297 19.54439544677734 8.54351806640625 24.14329528808594 6.377914428710938 29.26333618164062 C 4.136497497558594 34.56264877319336 3 40.19366455078125 3 45.99993515014648 C 3 51.80620574951172 4.136497497558594 57.43720626831055 6.377914428710938 62.73651885986328 C 8.54351806640625 67.8565673828125 11.64440155029297 72.45545959472656 15.59439849853516 76.40547943115234 C 19.54441070556641 80.35547637939453 24.14332580566406 83.45635223388672 29.26337051391602 85.6219482421875 C 34.56269836425781 87.86336517333984 40.1937141418457 88.99986267089844 46 88.99986267089844 C 51.8062858581543 88.99986267089844 57.43730163574219 87.86336517333984 62.73661422729492 85.6219482421875 C 67.85667419433594 83.45635223388672 72.45557403564453 80.35547637939453 76.40558624267578 76.40547943115234 C 80.35559844970703 72.45545959472656 83.45647430419922 67.8565673828125 85.6220703125 62.73651885986328 C 87.86350250244141 57.43720626831055 89 51.80620574951172 89 45.99993515014648 C 89 40.19366455078125 87.86350250244141 34.56264877319336 85.6220703125 29.26333618164062 C 83.45647430419922 24.14329528808594 80.35559844970703 19.54439544677734 76.40558624267578 15.59437561035156 C 72.45557403564453 11.64437866210938 67.85667419433594 8.543502807617188 62.73661422729492 6.377906799316406 C 57.43730163574219 4.136489868164062 51.8062858581543 2.999992370605469 46 2.999992370605469 M 46 -7.62939453125e-06 C 71.40509033203125 -7.62939453125e-06 92 20.59486389160156 92 45.99993515014648 C 92 71.40499114990234 71.40509033203125 91.99986267089844 46 91.99986267089844 C 20.59490203857422 91.99986267089844 0 71.40499114990234 0 45.99993515014648 C 0 20.59486389160156 20.59490203857422 -7.62939453125e-06 46 -7.62939453125e-06 Z" stroke="none" fill="#e89076"/>
                    </g>
                  </g>
                </g>
              </g>
            </g>
          </g>
        </g>
      </g>
    </g>
    <g id="administracion-de-empresas_1_" data-name="administracion-de-empresas (1)" transform="translate(6787.144 399.003)">
      <g id="Grupo_1157027" data-name="Grupo 1157027" transform="translate(32.815 14.126)">
        <g id="Grupo_1157024" data-name="Grupo 1157024" transform="translate(8.817)">
          <path id="Trazado_991108" data-name="Trazado 991108" d="M136.116,62.292a16.132,16.132,0,0,1,4.723,1.958l3.069-1.363,3.617,3.617-1.363,3.068a16.128,16.128,0,0,1,1.958,4.724l3.131,1.205v5.116l-3.132,1.205a16.134,16.134,0,0,1-1.958,4.723l1.363,3.069-3.617,3.617L140.84,91.87a16.128,16.128,0,0,1-4.724,1.958l-1.205,3.131h-5.116l-1.205-3.132a16.131,16.131,0,0,1-4.723-1.958L120.8,93.233l-3.617-3.617,1.363-3.068a16.129,16.129,0,0,1-1.958-4.724l-3.131-1.205V75.5l3.132-1.205a16.126,16.126,0,0,1,1.958-4.724L117.18,66.5l3.617-3.617,3.069,1.363a16.132,16.132,0,0,1,4.723-1.958L129.8,59.16h5.116Z" transform="translate(-113.453 -59.16)" fill="#ffe177" fill-rule="evenodd"/>
          <path id="Trazado_991109" data-name="Trazado 991109" d="M174.354,91.871l-3.069,1.363-.473-.473,2.878-1.278Q174.017,91.685,174.354,91.871ZM186.6,62.293a16.132,16.132,0,0,1,4.723,1.958l-.872.387a21.276,21.276,0,0,0-5.387-2.345l-1.206-3.132H185.4Zm4.724,29.578A16.128,16.128,0,0,1,186.6,93.83L185.4,96.961h-1.537l1.205-3.131a21.27,21.27,0,0,0,5.389-2.346ZM170.812,63.361l.473-.473,3.069,1.363q-.336.186-.664.387Zm22.52,0,1.064-.473,3.617,3.617-1.363,3.068a16.129,16.129,0,0,1,1.958,4.724L201.74,75.5v5.116l-3.132,1.205a16.134,16.134,0,0,1-1.958,4.723l1.363,3.069L194.4,93.234l-1.064-.473,3.145-3.145-1.363-3.069a16.131,16.131,0,0,0,1.958-4.723l3.132-1.205V75.5L197.072,74.3a16.126,16.126,0,0,0-1.959-4.724l1.363-3.068Z" transform="translate(-163.94 -59.161)" fill="#ffd064" fill-rule="evenodd"/>
          <ellipse id="Elipse_11767" data-name="Elipse 11767" cx="12.497" cy="12.497" rx="12.497" ry="12.497" transform="translate(1.223 18.901) rotate(-45)" fill="#eceff1"/>
          <path id="Trazado_991110" data-name="Trazado 991110" d="M179.4,112.606a12.5,12.5,0,0,0,0,24.994c.253,0,.5-.008.753-.023a12.5,12.5,0,0,1,0-24.948C179.9,112.615,179.649,112.606,179.4,112.606Z" transform="translate(-160.496 -106.203)" fill="#d1d1d6" fill-rule="evenodd"/>
        </g>
        <g id="Grupo_1157025" data-name="Grupo 1157025" transform="translate(0 32.28)">
          <path id="Trazado_991111" data-name="Trazado 991111" d="M66.966,335.282l9.231-5.348c1.732-1,3.494-1.715,5.4-1.1a64.927,64.927,0,0,0,9.125,2.8,2.564,2.564,0,0,1,1.773,3.072,2.482,2.482,0,0,1-3.072,1.774l1.236.2A5.754,5.754,0,0,0,94.613,336l8.875-5.169c6.9-4.018,7.912,2.163,5.618,3.575L93,344.319a5.906,5.906,0,0,1-4.782.674l-11.682-3.13-4.326,2.5a1.747,1.747,0,0,1-2.382-.638l-3.5-6.059a1.747,1.747,0,0,1,.636-2.381Z" transform="translate(-62.953 -328.606)" fill="#f6dccd" fill-rule="evenodd"/>
          <path id="Trazado_991112" data-name="Trazado 991112" d="M216.27,368a2.533,2.533,0,0,1-2.861,1.221c-1.914-.506-3.825-1.025-5.737-1.537a.96.96,0,1,1,.5-1.855Z" transform="translate(-186.941 -361.344)" fill="#f1cbbc" fill-rule="evenodd"/>
          <path id="Trazado_991113" data-name="Trazado 991113" d="M66.966,335.282l9.231-5.348c1.732-1,3.494-1.715,5.4-1.1,1.136.368,2.656.963,4.366,1.533L68.079,340.694l-1.75-3.031A1.747,1.747,0,0,1,66.966,335.282Z" transform="translate(-62.953 -328.606)" fill="#f1cbbc" fill-rule="evenodd"/>
          <path id="Trazado_991114" data-name="Trazado 991114" d="M44.79,355.154l7.321,12.935a1.311,1.311,0,0,1-.494,1.781l-2.49,1.409a1.31,1.31,0,0,1-1.781-.494l-7.321-12.935a1.31,1.31,0,0,1,.494-1.781l2.49-1.409A1.31,1.31,0,0,1,44.79,355.154Z" transform="translate(-39.857 -351.391)" fill="#d1d1d6" fill-rule="evenodd"/>
          <path id="Trazado_991115" data-name="Trazado 991115" d="M73.7,364.042l1.3,2.289,1.281,2.264a1.311,1.311,0,0,1-.49,1.779l.89-.5a1.31,1.31,0,0,0,.494-1.781l-1.286-2.272-2.581-4.561-2.584-4.566-.869-1.536a1.312,1.312,0,0,0-1.522-.605l1.5,2.659,2.581,4.561,1.286,2.272Z" transform="translate(-64.919 -351.391)" fill="#b1b1b5" fill-rule="evenodd"/>
        </g>
        <g id="Grupo_1157026" data-name="Grupo 1157026" transform="translate(19.748 13.759)">
          <path id="Trazado_991116" data-name="Trazado 991116" d="M205.418,232h1.943a.72.72,0,0,1,.719.719v2.448a.72.72,0,0,1-.719.719h-1.943a.72.72,0,0,1-.719-.719v-2.448A.72.72,0,0,1,205.418,232Z" transform="translate(-204.699 -225.05)" fill="#fe646f" fill-rule="evenodd"/>
          <path id="Trazado_991117" data-name="Trazado 991117" d="M218.261,232H219.3a.72.72,0,0,1,.719.719v2.448a.72.72,0,0,1-.719.719h-1.037a.72.72,0,0,0,.719-.719v-2.448A.72.72,0,0,0,218.261,232Z" transform="translate(-216.636 -225.05)" fill="#fd4755" fill-rule="evenodd"/>
          <path id="Trazado_991118" data-name="Trazado 991118" d="M257.824,203.63h1.943a.72.72,0,0,1,.719.719V210.2a.72.72,0,0,1-.719.719h-1.943a.72.72,0,0,1-.719-.719v-5.847A.72.72,0,0,1,257.824,203.63Z" transform="translate(-250.827 -200.081)" fill="#6cf5c2" fill-rule="evenodd"/>
          <path id="Trazado_991119" data-name="Trazado 991119" d="M270.666,203.63H271.7a.72.72,0,0,1,.719.719V210.2a.72.72,0,0,1-.719.719h-1.037a.72.72,0,0,0,.719-.719v-5.847A.72.72,0,0,0,270.666,203.63Z" transform="translate(-262.763 -200.081)" fill="#00e499" fill-rule="evenodd"/>
          <path id="Trazado_991120" data-name="Trazado 991120" d="M310.229,174.005h1.943a.72.72,0,0,1,.719.719v9.4a.72.72,0,0,1-.719.719h-1.943a.72.72,0,0,1-.719-.719v-9.4A.72.72,0,0,1,310.229,174.005Z" transform="translate(-296.953 -174.005)" fill="#8ac9fe" fill-rule="evenodd"/>
          <path id="Trazado_991121" data-name="Trazado 991121" d="M323.072,174.005h1.037a.72.72,0,0,1,.719.719v9.4a.72.72,0,0,1-.719.719h-1.037a.72.72,0,0,0,.719-.719v-9.4A.72.72,0,0,0,323.072,174.005Z" transform="translate(-308.891 -174.005)" fill="#60b7ff" fill-rule="evenodd"/>
        </g>
      </g>
      <path id="Trazado_991122" data-name="Trazado 991122" d="M66.078,37.761h1.464V28.844H66.078Zm-1.917.958V27.885a.958.958,0,0,1,.959-.958H68.5a.958.958,0,0,1,.958.958V38.719a.958.958,0,0,1-.958.959H65.12A.958.958,0,0,1,64.162,38.719Zm-2.9-6.326H59.8V37.76h1.463Zm1.917-.959v7.284a.959.959,0,0,1-.959.959H58.842a.959.959,0,0,1-.959-.959V31.435a.959.959,0,0,1,.959-.959h3.379A.959.959,0,0,1,63.18,31.435ZM53.522,37.76h1.464V35.792H53.522Zm-.959,1.917a.959.959,0,0,1-.959-.959V34.833a.959.959,0,0,1,.959-.959h3.381a.958.958,0,0,1,.958.959v3.886a.958.958,0,0,1-.958.959ZM54.283,32.4a.958.958,0,0,1-.589-1.715l5.652-4.4a.958.958,0,0,1,.319-1.861h0l2.4,0a.958.958,0,0,1,.927,1.192l-.585,2.325a.958.958,0,0,1-.928.725.932.932,0,0,1-.235-.029.957.957,0,0,1-.72-.842l-5.652,4.4A.956.956,0,0,1,54.283,32.4ZM36.069,52.1a.889.889,0,1,0,1.009.751A.89.89,0,0,0,36.069,52.1ZM48.994,33.027A11.539,11.539,0,1,1,60.531,44.566,11.552,11.552,0,0,1,48.994,33.027Zm-1.917,0A13.456,13.456,0,1,1,60.531,46.483,13.47,13.47,0,0,1,47.076,33.027ZM78.86,48.991c-.685-1.144-2.565-.971-5.028.465l-8.876,5.17a6.68,6.68,0,0,1-4.591.807l-1.1-.179-.019,0-.019,0c-1.385-.283-2.667-.65-4.025-1.037-.616-.176-1.254-.358-1.9-.532a.958.958,0,1,1,.5-1.851c.664.178,1.309.362,1.934.54,1.307.373,2.542.726,3.84.993a1.5,1.5,0,0,0,1.863-1.092,1.594,1.594,0,0,0-1.089-1.894,46.188,46.188,0,0,1-7.3-2.165c-.719-.26-1.339-.484-1.877-.659-1.615-.524-3.176.178-4.622,1.016l-6.47,3.746,4.224,7.464,1.627-.939a.954.954,0,0,1,.727-.1L58.326,61.87a4.967,4.967,0,0,0,4.032-.565l16.108-9.918a1.89,1.89,0,0,0,.394-2.4ZM44.236,63.574a.352.352,0,0,1-.131.474l-2.491,1.41a.346.346,0,0,1-.264.031.35.35,0,0,1-.211-.162L33.818,52.389a.352.352,0,0,1,.131-.475l2.491-1.409a.337.337,0,0,1,.167-.045.384.384,0,0,1,.1.013.342.342,0,0,1,.21.163Zm3.7-17.772L46.5,44.37,47.6,41.9a.96.96,0,0,0-.06-.892A15.154,15.154,0,0,1,45.7,36.568a.956.956,0,0,0-.587-.673l-2.518-.969v-3.8l2.518-.969a.957.957,0,0,0,.588-.672,15.163,15.163,0,0,1,1.841-4.443.956.956,0,0,0,.06-.892l-1.1-2.468L49.189,19l2.468,1.1a.958.958,0,0,0,.891-.06,15.154,15.154,0,0,1,4.442-1.842.959.959,0,0,0,.673-.588l.969-2.518h3.8L63.4,17.6a.96.96,0,0,0,.673.588,15.155,15.155,0,0,1,4.442,1.842.957.957,0,0,0,.891.06L71.876,19l2.687,2.687-1.1,2.466a.961.961,0,0,0,.06.891,15.156,15.156,0,0,1,1.843,4.444.957.957,0,0,0,.587.673l2.518.969v3.8l-2.518.969a.957.957,0,0,0-.588.672,15.154,15.154,0,0,1-1.842,4.443.958.958,0,0,0-.06.891l1.1,2.468-2.687,2.687-2.467-1.1a.956.956,0,0,0-.891.06,15.153,15.153,0,0,1-4.445,1.842.959.959,0,0,0-.672.588l-.592,1.537a3.671,3.671,0,0,0-1.935-1.458.892.892,0,0,0-.125-.032A44.3,44.3,0,0,1,53.686,46.4c-.7-.255-1.371-.5-1.938-.679a6,6,0,0,0-3.815.076ZM63.05,53.394a3.667,3.667,0,0,0,.194-.522.957.957,0,0,0,.74-.6L65.012,49.6a17.073,17.073,0,0,0,4.072-1.688l2.033.9-7.126,4.151a4.83,4.83,0,0,1-.942.426Zm17.49-5.326a3.8,3.8,0,0,1-1.068,4.952L63.364,62.938a6.853,6.853,0,0,1-3.624,1.042,7.371,7.371,0,0,1-1.91-.258l-11.3-3.028-1.3.749.671,1.186a2.267,2.267,0,0,1-.856,3.087l-2.491,1.409a2.245,2.245,0,0,1-1.109.294,2.294,2.294,0,0,1-.611-.083,2.257,2.257,0,0,1-1.367-1.066L32.149,53.333A2.268,2.268,0,0,1,33,50.246l2.491-1.41a2.27,2.27,0,0,1,3.087.855l.537.95,6.454-3.737c.159-.091.319-.181.482-.271L44.682,45.26a.957.957,0,0,1-.2-1.066l1.162-2.615a16.992,16.992,0,0,1-1.688-4.072l-2.669-1.027a.958.958,0,0,1-.615-.894V30.469a.958.958,0,0,1,.615-.894l2.669-1.027a17.037,17.037,0,0,1,1.688-4.071L44.483,21.86a.957.957,0,0,1,.2-1.066L48.3,17.176a.96.96,0,0,1,1.067-.2l2.615,1.162a17.068,17.068,0,0,1,4.071-1.688l1.028-2.669a.958.958,0,0,1,.894-.614h5.114a.959.959,0,0,1,.895.614l1.028,2.669a17.071,17.071,0,0,1,4.071,1.688L71.7,16.978a.961.961,0,0,1,1.067.2l3.617,3.617a.959.959,0,0,1,.2,1.067l-1.162,2.615a16.993,16.993,0,0,1,1.688,4.072l2.669,1.027a.958.958,0,0,1,.615.894v5.116a.958.958,0,0,1-.615.894l-2.669,1.027a17.043,17.043,0,0,1-1.688,4.071l1.162,2.616a.958.958,0,0,1-.2,1.066l-1.6,1.6a5.193,5.193,0,0,1,4.361-.124,22.848,22.848,0,0,0,4.5-13.712,23.086,23.086,0,0,0-3.128-11.618.959.959,0,0,1,1.657-.965,25.019,25.019,0,0,1,3.388,12.584,24.747,24.747,0,0,1-5.023,15.041ZM39.056,45.887A25.03,25.03,0,0,1,74.949,12.567l-.4-1.387a.959.959,0,0,1,1.844-.526l1.218,4.27a.959.959,0,0,1-.887,1.221l-4.437.16h-.036a.958.958,0,0,1-.033-1.916l1.888-.068A23.116,23.116,0,0,0,40.7,44.9a.958.958,0,1,1-1.643.986Z" transform="translate(0 0)" fill="#242222" fill-rule="evenodd"/>
    </g>
  </g>
</svg>
