<svg xmlns="http://www.w3.org/2000/svg" xmlns:xlink="http://www.w3.org/1999/xlink" width="110" height="110" viewBox="0 0 110 110">
  <defs>
    <filter id="Trazado_982547" x="0" y="0" width="110" height="110" filterUnits="userSpaceOnUse">
      <feOffset dy="3" input="SourceAlpha"/>
      <feGaussianBlur stdDeviation="3" result="blur"/>
      <feFlood flood-opacity="0.161"/>
      <feComposite operator="in" in2="blur"/>
      <feComposite in="SourceGraphic"/>
    </filter>
  </defs>
  <g id="Grupo_1157023" data-name="Grupo 1157023" transform="translate(-6791 -385)">
    <g id="Grupo_1155797" data-name="Grupo 1155797" transform="translate(5675 -4299)">
      <g id="Grupo_1154704" data-name="Grupo 1154704" transform="translate(0 1466)">
        <g id="Grupo_1150790" data-name="Grupo 1150790" transform="translate(3 2320)">
          <g id="Grupo_1154214" data-name="Grupo 1154214" transform="translate(79 -5809)">
            <g id="Grupo_1152583" data-name="Grupo 1152583" transform="translate(1043 6713)">
              <g id="Grupo_1146973" data-name="Grupo 1146973" transform="translate(0 0)">
                <g id="Grupo_1146954" data-name="Grupo 1146954">
                  <g transform="matrix(1, 0, 0, 1, -9, -6)" filter="url(#Trazado_982547)">
                    <g id="Trazado_982547-2" data-name="Trazado 982547" transform="translate(9 6)" fill="#fcf3f0">
                      <path d="M 46 90.49987030029297 C 39.99187850952148 90.49987030029297 34.16426849365234 89.32350921630859 28.67905426025391 87.00345611572266 C 23.38019943237305 84.76224517822266 18.62104034423828 81.55341339111328 14.53374671936035 77.46613311767578 C 10.44646644592285 73.37885284423828 7.237639904022217 68.61969757080078 4.996413230895996 63.32085418701172 C 2.676359891891479 57.83565521240234 1.5 52.008056640625 1.5 45.99993515014648 C 1.5 39.99181365966797 2.676359891891479 34.16421508789062 4.996413230895996 28.67901420593262 C 7.237639904022217 23.38017463684082 10.44646644592285 18.62101554870605 14.53374671936035 14.53373527526855 C 18.62104034423828 10.44645500183105 23.38019943237305 7.23762845993042 28.67905426025391 4.996415138244629 C 34.16426849365234 2.676361799240112 39.99187850952148 1.500001788139343 46 1.500001788139343 C 52.00812149047852 1.500001788139343 57.83573150634766 2.676361799240112 63.32094573974609 4.996415138244629 C 68.61979675292969 7.23762845993042 73.37895965576172 10.44645500183105 77.46625518798828 14.53373527526855 C 81.55353546142578 18.62101554870605 84.76235961914062 23.38017463684082 87.00358581542969 28.67901420593262 C 89.32363891601562 34.16421508789062 90.5 39.99181365966797 90.5 45.99993515014648 C 90.5 52.008056640625 89.32363891601562 57.83565521240234 87.00358581542969 63.32085418701172 C 84.76235961914062 68.61969757080078 81.55353546142578 73.37885284423828 77.46625518798828 77.46613311767578 C 73.37895965576172 81.55341339111328 68.61979675292969 84.76224517822266 63.32094573974609 87.00345611572266 C 57.83573150634766 89.32350921630859 52.00812149047852 90.49987030029297 46 90.49987030029297 Z" stroke="none"/>
                      <path d="M 46 2.999992370605469 C 40.1937141418457 2.999992370605469 34.56269836425781 4.136489868164062 29.26337051391602 6.377906799316406 C 24.14332580566406 8.543502807617188 19.54441070556641 11.64437866210938 15.59439849853516 15.59437561035156 C 11.64440155029297 19.54439544677734 8.54351806640625 24.14329528808594 6.377914428710938 29.26333618164062 C 4.136497497558594 34.56264877319336 3 40.19366455078125 3 45.99993515014648 C 3 51.80620574951172 4.136497497558594 57.43720626831055 6.377914428710938 62.73651885986328 C 8.54351806640625 67.8565673828125 11.64440155029297 72.45545959472656 15.59439849853516 76.40547943115234 C 19.54441070556641 80.35547637939453 24.14332580566406 83.45635223388672 29.26337051391602 85.6219482421875 C 34.56269836425781 87.86336517333984 40.1937141418457 88.99986267089844 46 88.99986267089844 C 51.8062858581543 88.99986267089844 57.43730163574219 87.86336517333984 62.73661422729492 85.6219482421875 C 67.85667419433594 83.45635223388672 72.45557403564453 80.35547637939453 76.40558624267578 76.40547943115234 C 80.35559844970703 72.45545959472656 83.45647430419922 67.8565673828125 85.6220703125 62.73651885986328 C 87.86350250244141 57.43720626831055 89 51.80620574951172 89 45.99993515014648 C 89 40.19366455078125 87.86350250244141 34.56264877319336 85.6220703125 29.26333618164062 C 83.45647430419922 24.14329528808594 80.35559844970703 19.54439544677734 76.40558624267578 15.59437561035156 C 72.45557403564453 11.64437866210938 67.85667419433594 8.543502807617188 62.73661422729492 6.377906799316406 C 57.43730163574219 4.136489868164062 51.8062858581543 2.999992370605469 46 2.999992370605469 M 46 -7.62939453125e-06 C 71.40509033203125 -7.62939453125e-06 92 20.59486389160156 92 45.99993515014648 C 92 71.40499114990234 71.40509033203125 91.99986267089844 46 91.99986267089844 C 20.59490203857422 91.99986267089844 0 71.40499114990234 0 45.99993515014648 C 0 20.59486389160156 20.59490203857422 -7.62939453125e-06 46 -7.62939453125e-06 Z" stroke="none" fill="#e89076"/>
                    </g>
                  </g>
                </g>
              </g>
            </g>
          </g>
        </g>
      </g>
    </g>
    <g id="plazo" transform="translate(6814 374.697)">
      <path id="Trazado_991097" data-name="Trazado 991097" d="M35.054,134.159l-27.566,5.5v28.868A3.477,3.477,0,0,0,10.965,172H59.143a3.477,3.477,0,0,0,3.477-3.477V139.656Z" transform="translate(-6.555 -87.416)" fill="#ccc"/>
      <path id="Trazado_991098" data-name="Trazado 991098" d="M59.143,90.035H10.965a3.477,3.477,0,0,0-3.477,3.477v7.517H62.62V93.512A3.477,3.477,0,0,0,59.143,90.035Z" transform="translate(-6.555 -48.789)" fill="#ee534f"/>
      <path id="Trazado_991099" data-name="Trazado 991099" d="M255.785,202.972a18.5,18.5,0,0,0-15.055,29.269H260.3a3.477,3.477,0,0,0,3.477-3.477V204.789A18.4,18.4,0,0,0,255.785,202.972Z" transform="translate(-207.716 -147.657)" opacity="0.1"/>
      <circle id="Elipse_11765" data-name="Elipse 11765" cx="14.78" cy="14.78" r="14.78" transform="translate(33.29 59.046)" fill="#4fc2f8"/>
      <circle id="Elipse_11766" data-name="Elipse 11766" cx="10.646" cy="10.646" r="10.646" transform="translate(37.424 63.18)" fill="#fff"/>
      <path id="Trazado_991100" data-name="Trazado 991100" d="M302.9,276.757a10.645,10.645,0,0,1,9.4-10.571,10.756,10.756,0,0,0-1.244-.075,10.645,10.645,0,1,0,1.244,21.216A10.645,10.645,0,0,1,302.9,276.757Z" transform="translate(-262.991 -202.931)" opacity="0.1"/>
      <g id="Grupo_1157021" data-name="Grupo 1157021" transform="translate(7.345 35.236)">
        <path id="Trazado_991101" data-name="Trazado 991101" d="M61.739,41.791a2.781,2.781,0,0,0-2.781,2.782v6.457a2.782,2.782,0,0,0,5.563,0V44.573A2.781,2.781,0,0,0,61.739,41.791Z" transform="translate(-58.957 -41.791)" fill="#666"/>
        <path id="Trazado_991102" data-name="Trazado 991102" d="M160.061,41.791a2.781,2.781,0,0,0-2.781,2.782v6.457a2.782,2.782,0,0,0,5.563,0V44.573A2.782,2.782,0,0,0,160.061,41.791Z" transform="translate(-145.031 -41.791)" fill="#666"/>
        <path id="Trazado_991103" data-name="Trazado 991103" d="M258.383,41.791a2.781,2.781,0,0,0-2.782,2.782v6.457a2.782,2.782,0,0,0,5.563,0V44.573A2.781,2.781,0,0,0,258.383,41.791Z" transform="translate(-231.105 -41.791)" fill="#666"/>
        <path id="Trazado_991104" data-name="Trazado 991104" d="M356.706,41.791a2.781,2.781,0,0,0-2.781,2.782v6.457a2.782,2.782,0,0,0,5.563,0V44.573A2.781,2.781,0,0,0,356.706,41.791Z" transform="translate(-317.179 -41.791)" fill="#666"/>
      </g>
      <path id="Trazado_991105" data-name="Trazado 991105" d="M295.988,263.752a.933.933,0,0,0-1.286.293,11.59,11.59,0,1,0,2.67-2.959.933.933,0,1,0,1.151,1.468,9.613,9.613,0,0,1,5.983-2.065,9.716,9.716,0,1,1-8.225,4.549A.932.932,0,0,0,295.988,263.752Z" transform="translate(-256.436 -196.376)"/>
      <path id="Trazado_991106" data-name="Trazado 991106" d="M379.314,296.52a.933.933,0,0,0-.933.933v7.316a.933.933,0,0,0,.933.933h7.316a.933.933,0,1,0,0-1.866h-6.383v-6.383A.933.933,0,0,0,379.314,296.52Z" transform="translate(-331.244 -229.551)"/>
      <path id="Trazado_991107" data-name="Trazado 991107" d="M57,60.9V44.723a4.415,4.415,0,0,0-4.41-4.41h-2v-2.3a3.714,3.714,0,0,0-7.429,0v2.3h-4.82v-2.3a3.714,3.714,0,0,0-7.429,0v2.3h-4.82v-2.3a3.714,3.714,0,1,0-7.429,0v2.3h-4.82v-2.3a3.715,3.715,0,0,0-7.429,0v2.3h-2A4.415,4.415,0,0,0,0,44.723v.46a.933.933,0,1,0,1.866,0v-.46A2.547,2.547,0,0,1,4.41,42.179h2v2.3a3.714,3.714,0,1,0,7.429,0v-2.3h4.82v2.3a3.714,3.714,0,1,0,7.429,0v-2.3h4.82v2.3a3.714,3.714,0,1,0,7.429,0v-2.3h4.82v2.3a3.714,3.714,0,1,0,7.429,0v-2.3h2a2.547,2.547,0,0,1,2.544,2.544v6.584H1.866V48.914a.933.933,0,0,0-1.866,0V81.107a4.415,4.415,0,0,0,4.41,4.41H37.583a15.7,15.7,0,0,0,19.761.992A.933.933,0,0,0,56.242,85a13.846,13.846,0,1,1-4.095-24.412l.078.025A13.848,13.848,0,0,1,58.783,82.6a.933.933,0,0,0,1.443,1.183A15.7,15.7,0,0,0,57,60.9ZM8.277,38.017a1.849,1.849,0,1,1,3.7,0v6.457a1.849,1.849,0,0,1-3.7,0Zm12.248,0a1.849,1.849,0,1,1,3.7,0v6.457a1.849,1.849,0,0,1-3.7,0Zm12.248,0a1.849,1.849,0,1,1,3.7,0v6.457a1.849,1.849,0,0,1-3.7,0Zm12.249,0a1.849,1.849,0,1,1,3.7,0v6.457a1.849,1.849,0,0,1-3.7,0ZM37.636,62.088H34.945V53.172h9.161V58.62A15.694,15.694,0,0,0,37.636,62.088ZM32.387,72.87H23.918V63.954h9.161v5.16A15.626,15.626,0,0,0,32.387,72.87Zm-19.495,0V63.954h9.161V72.87Zm9.161,1.866v8.916H12.892V74.735ZM1.866,63.954h9.161V72.87H1.866Zm20.187-1.866H12.892V53.172h9.161Zm1.866-8.916h9.161v8.916H23.918V53.172ZM34.945,63.954h.911q-.485.6-.911,1.244ZM11.026,53.172v8.916H1.866V53.172ZM1.866,81.107V74.735h9.161v8.916H4.41A2.547,2.547,0,0,1,1.866,81.107Zm22.053,2.544V74.735h8.465a15.505,15.505,0,0,0,3.42,8.916Zm22.053-25.4V53.172h9.161v6.615a15.624,15.624,0,0,0-2.737-1.068l-.06-.017a15.739,15.739,0,0,0-6.364-.448Z"/>
    </g>
  </g>
</svg>
